<svg width="1663" height="100" viewBox="0 0 1663 100" fill="none" xmlns="http://www.w3.org/2000/svg">
<path fill-rule="evenodd" clip-rule="evenodd" d="M260.618 16.9622C252.357 16.9622 245.66 23.454 245.66 31.4621C245.66 39.4701 252.357 45.9619 260.618 45.9619H273.958C282.219 45.9619 288.916 39.4701 288.916 31.4621C288.916 23.454 282.219 16.9622 273.958 16.9622H260.618ZM255.969 25.5838C252.62 25.5838 249.905 28.2156 249.905 31.4621C249.905 34.7086 252.62 37.3404 255.969 37.3404H278.608C281.957 37.3404 284.671 34.7086 284.671 31.4621C284.671 28.2156 281.957 25.5838 278.608 25.5838H255.969Z" fill="black"/>
<path fill-rule="evenodd" clip-rule="evenodd" d="M245.66 16.9619H211.5V24.0159H223.704C224.82 24.0159 225.725 24.8932 225.725 25.9753V45.9616H231.435L231.435 25.9753C231.435 24.8932 232.34 24.0159 233.457 24.0159H245.66V16.9619Z" fill="black"/>
<path fill-rule="evenodd" clip-rule="evenodd" d="M323.077 16.9619H288.917V24.0159H301.12C302.237 24.0159 303.142 24.8932 303.142 25.9753V45.9616H308.852V25.9753C308.852 24.8932 309.757 24.0159 310.873 24.0159H323.077V16.9619Z" fill="black"/>
<path d="M320.853 40.658C320.893 40.539 320.826 40.4112 320.703 40.3726L317.809 39.4609C317.627 39.4038 317.455 39.5703 317.514 39.7464L319.114 44.5196C319.184 44.7283 319.489 44.7283 319.559 44.5196L320.853 40.658Z" fill="#FF2B00"/>
<path d="M322.023 39.4215C321.969 39.5836 322.111 39.7436 322.285 39.7148L328.579 38.6682C328.783 38.6343 328.844 38.3795 328.677 38.2617L323.869 34.8749C323.74 34.7845 323.558 34.8418 323.509 34.9882L322.023 39.4215Z" fill="#FF2B00"/>
<path d="M320.925 39.71C321.048 39.7487 321.18 39.6836 321.219 39.5646L322.514 35.703C322.584 35.4943 322.337 35.3208 322.154 35.4497L317.966 38.3998C317.811 38.5085 317.849 38.7412 318.031 38.7984L320.925 39.71Z" fill="#FF2B00"/>
<path d="M326.264 45.5765C326.408 45.72 326.303 45.9611 326.097 45.9611L320.153 45.9611C319.994 45.9611 319.881 45.8109 319.93 45.6646L321.416 41.2312C321.471 41.0691 321.683 41.0211 321.806 41.1431L326.264 45.5765Z" fill="#FF2B00"/>
<path d="M327.464 45.2981C327.41 45.4602 327.197 45.5082 327.074 45.3862L322.422 40.7598C322.291 40.6291 322.365 40.4092 322.55 40.3784L329.119 39.2863C329.292 39.2574 329.435 39.4174 329.381 39.5795L327.464 45.2981Z" fill="#FF2B00"/>
<path d="M215.303 80.9619H214.301V73.2744H211.605V72.3955H217.986V73.2744H215.303V80.9619ZM224.672 77.7393C224.672 78.2666 224.604 78.7373 224.467 79.1514C224.33 79.5654 224.133 79.915 223.875 80.2002C223.617 80.4854 223.305 80.7041 222.938 80.8564C222.574 81.0049 222.162 81.0791 221.701 81.0791C221.271 81.0791 220.877 81.0049 220.518 80.8564C220.162 80.7041 219.854 80.4854 219.592 80.2002C219.334 79.915 219.133 79.5654 218.988 79.1514C218.848 78.7373 218.777 78.2666 218.777 77.7393C218.777 77.0361 218.896 76.4385 219.135 75.9463C219.373 75.4502 219.713 75.0732 220.154 74.8154C220.6 74.5537 221.129 74.4229 221.742 74.4229C222.328 74.4229 222.84 74.5537 223.277 74.8154C223.719 75.0771 224.061 75.4561 224.303 75.9521C224.549 76.4443 224.672 77.04 224.672 77.7393ZM219.785 77.7393C219.785 78.2549 219.854 78.7021 219.99 79.0811C220.127 79.46 220.338 79.7529 220.623 79.96C220.908 80.167 221.275 80.2705 221.725 80.2705C222.17 80.2705 222.535 80.167 222.82 79.96C223.109 79.7529 223.322 79.46 223.459 79.0811C223.596 78.7021 223.664 78.2549 223.664 77.7393C223.664 77.2275 223.596 76.7861 223.459 76.415C223.322 76.04 223.111 75.751 222.826 75.5479C222.541 75.3447 222.172 75.2432 221.719 75.2432C221.051 75.2432 220.561 75.4639 220.248 75.9053C219.939 76.3467 219.785 76.958 219.785 77.7393ZM229.371 74.4229C230.172 74.4229 230.811 74.6982 231.287 75.249C231.764 75.7998 232.002 76.6279 232.002 77.7334C232.002 78.4639 231.893 79.0771 231.674 79.5732C231.455 80.0693 231.146 80.4443 230.748 80.6982C230.354 80.9521 229.887 81.0791 229.348 81.0791C229.008 81.0791 228.709 81.0342 228.451 80.9443C228.193 80.8545 227.973 80.7334 227.789 80.5811C227.605 80.4287 227.453 80.2627 227.332 80.083H227.262C227.273 80.2354 227.287 80.4189 227.303 80.6338C227.322 80.8486 227.332 81.0361 227.332 81.1963V83.833H226.354V74.54H227.156L227.285 75.4893H227.332C227.457 75.2939 227.609 75.1162 227.789 74.9561C227.969 74.792 228.188 74.6631 228.445 74.5693C228.707 74.4717 229.016 74.4229 229.371 74.4229ZM229.201 75.2432C228.756 75.2432 228.396 75.3291 228.123 75.501C227.854 75.6729 227.656 75.9307 227.531 76.2744C227.406 76.6143 227.34 77.042 227.332 77.5576V77.7451C227.332 78.2881 227.391 78.7471 227.508 79.1221C227.629 79.4971 227.826 79.7822 228.1 79.9775C228.377 80.1729 228.748 80.2705 229.213 80.2705C229.611 80.2705 229.943 80.1631 230.209 79.9482C230.475 79.7334 230.672 79.4346 230.801 79.0518C230.934 78.665 231 78.2217 231 77.7217C231 76.9639 230.852 76.3623 230.555 75.917C230.262 75.4678 229.811 75.2432 229.201 75.2432ZM237.598 74.54V75.3662H234.68V80.9619H233.701V74.54H237.598ZM237.867 74.54H238.91L240.328 78.2666C240.41 78.4854 240.486 78.6963 240.557 78.8994C240.627 79.0986 240.689 79.29 240.744 79.4736C240.799 79.6572 240.842 79.835 240.873 80.0068H240.914C240.969 79.8115 241.047 79.5557 241.148 79.2393C241.25 78.9189 241.359 78.5928 241.477 78.2607L242.818 74.54H243.867L241.072 81.9053C240.924 82.2998 240.75 82.6436 240.551 82.9365C240.355 83.2295 240.117 83.4541 239.836 83.6104C239.555 83.7705 239.215 83.8506 238.816 83.8506C238.633 83.8506 238.471 83.8389 238.33 83.8154C238.189 83.7959 238.068 83.7725 237.967 83.7451V82.9658C238.053 82.9854 238.156 83.0029 238.277 83.0186C238.402 83.0342 238.531 83.042 238.664 83.042C238.906 83.042 239.115 82.9951 239.291 82.9014C239.471 82.8115 239.625 82.6787 239.754 82.5029C239.883 82.3271 239.994 82.1182 240.088 81.876L240.439 80.9736L237.867 74.54ZM245.818 74.54V78.5771C245.818 78.6553 245.816 78.7568 245.812 78.8818C245.809 79.0029 245.803 79.1338 245.795 79.2744C245.787 79.4111 245.779 79.5439 245.771 79.6729C245.768 79.7979 245.762 79.9014 245.754 79.9834L249.258 74.54H250.453V80.9619H249.545V77.0244C249.545 76.8994 249.547 76.7393 249.551 76.5439C249.555 76.3486 249.561 76.1572 249.568 75.9697C249.576 75.7783 249.582 75.6299 249.586 75.5244L246.094 80.9619H244.893V74.54H245.818ZM249.973 71.8975C249.938 72.292 249.838 72.6221 249.674 72.8877C249.514 73.1533 249.277 73.3545 248.965 73.4912C248.652 73.624 248.252 73.6904 247.764 73.6904C247.26 73.6904 246.854 73.626 246.545 73.4971C246.24 73.3643 246.014 73.165 245.865 72.8994C245.721 72.6338 245.635 72.2998 245.607 71.8975H246.521C246.564 72.3271 246.68 72.6201 246.867 72.7764C247.055 72.9326 247.359 73.0107 247.781 73.0107C248.156 73.0107 248.451 72.9287 248.666 72.7646C248.881 72.6006 249.01 72.3115 249.053 71.8975H249.973ZM252.375 80.3525C252.375 80.0791 252.441 79.8857 252.574 79.7725C252.707 79.6553 252.869 79.5967 253.061 79.5967C253.26 79.5967 253.428 79.6553 253.564 79.7725C253.701 79.8857 253.77 80.0791 253.77 80.3525C253.77 80.6221 253.701 80.8193 253.564 80.9443C253.428 81.0654 253.26 81.126 253.061 81.126C252.869 81.126 252.707 81.0654 252.574 80.9443C252.441 80.8193 252.375 80.6221 252.375 80.3525ZM266.367 76.667C266.367 77.3271 266.283 77.9287 266.115 78.4717C265.947 79.0107 265.697 79.4756 265.365 79.8662C265.037 80.2529 264.629 80.5518 264.141 80.7627C263.652 80.9736 263.086 81.0791 262.441 81.0791C261.777 81.0791 261.197 80.9736 260.701 80.7627C260.209 80.5518 259.799 80.251 259.471 79.8604C259.146 79.4697 258.902 79.0029 258.738 78.46C258.578 77.917 258.498 77.3154 258.498 76.6553C258.498 75.7803 258.643 75.0127 258.932 74.3525C259.221 73.6924 259.658 73.1787 260.244 72.8115C260.834 72.4443 261.572 72.2607 262.459 72.2607C263.307 72.2607 264.02 72.4424 264.598 72.8057C265.18 73.1689 265.619 73.6807 265.916 74.3408C266.217 74.9971 266.367 75.7725 266.367 76.667ZM259.547 76.667C259.547 77.3936 259.65 78.0225 259.857 78.5537C260.064 79.085 260.381 79.4951 260.807 79.7842C261.236 80.0732 261.781 80.2178 262.441 80.2178C263.105 80.2178 263.648 80.0732 264.07 79.7842C264.496 79.4951 264.811 79.085 265.014 78.5537C265.217 78.0225 265.318 77.3936 265.318 76.667C265.318 75.5615 265.086 74.6982 264.621 74.0771C264.16 73.4521 263.439 73.1396 262.459 73.1396C261.795 73.1396 261.248 73.2822 260.818 73.5674C260.389 73.8525 260.068 74.2588 259.857 74.7861C259.65 75.3096 259.547 75.9365 259.547 76.667ZM267.797 77.1064C267.797 76.1924 267.885 75.4131 268.061 74.7686C268.236 74.1201 268.508 73.6006 268.875 73.21C269.246 72.8154 269.723 72.5459 270.305 72.4014C270.805 72.2646 271.312 72.1475 271.828 72.0498C272.344 71.9482 272.846 71.8604 273.334 71.7861L273.504 72.6416C273.258 72.6768 273 72.7178 272.73 72.7646C272.461 72.8076 272.191 72.8545 271.922 72.9053C271.652 72.9521 271.398 73.0029 271.16 73.0576C270.922 73.1084 270.711 73.1611 270.527 73.2158C270.195 73.3057 269.908 73.4619 269.666 73.6846C269.428 73.9072 269.238 74.2139 269.098 74.6045C268.961 74.9951 268.879 75.4873 268.852 76.0811H268.922C269.039 75.9092 269.199 75.7393 269.402 75.5713C269.605 75.4033 269.848 75.2646 270.129 75.1553C270.41 75.042 270.727 74.9854 271.078 74.9854C271.633 74.9854 272.096 75.1064 272.467 75.3486C272.838 75.5869 273.117 75.9229 273.305 76.3564C273.492 76.79 273.586 77.2979 273.586 77.8799C273.586 78.5791 273.465 79.167 273.223 79.6436C272.984 80.1201 272.648 80.4795 272.215 80.7217C271.781 80.96 271.271 81.0791 270.686 81.0791C270.232 81.0791 269.826 80.9912 269.467 80.8154C269.111 80.6396 268.809 80.3818 268.559 80.042C268.312 79.7021 268.123 79.2861 267.99 78.7939C267.861 78.3018 267.797 77.7393 267.797 77.1064ZM270.762 80.2705C271.133 80.2705 271.451 80.1924 271.717 80.0361C271.986 79.8799 272.193 79.6338 272.338 79.2979C272.486 78.958 272.561 78.5166 272.561 77.9736C272.561 77.2939 272.43 76.7627 272.168 76.3799C271.91 75.9932 271.496 75.7998 270.926 75.7998C270.57 75.7998 270.248 75.876 269.959 76.0283C269.67 76.1768 269.426 76.3545 269.227 76.5615C269.027 76.7686 268.883 76.9541 268.793 77.1182C268.793 77.5166 268.822 77.9033 268.881 78.2783C268.939 78.6533 269.041 78.9912 269.186 79.292C269.33 79.5928 269.529 79.8311 269.783 80.0068C270.041 80.1826 270.367 80.2705 270.762 80.2705ZM274.254 74.54H275.297L276.715 78.2666C276.797 78.4854 276.873 78.6963 276.943 78.8994C277.014 79.0986 277.076 79.29 277.131 79.4736C277.186 79.6572 277.229 79.835 277.26 80.0068H277.301C277.355 79.8115 277.434 79.5557 277.535 79.2393C277.637 78.9189 277.746 78.5928 277.863 78.2607L279.205 74.54H280.254L277.459 81.9053C277.311 82.2998 277.137 82.6436 276.938 82.9365C276.742 83.2295 276.504 83.4541 276.223 83.6104C275.941 83.7705 275.602 83.8506 275.203 83.8506C275.02 83.8506 274.857 83.8389 274.717 83.8154C274.576 83.7959 274.455 83.7725 274.354 83.7451V82.9658C274.439 82.9854 274.543 83.0029 274.664 83.0186C274.789 83.0342 274.918 83.042 275.051 83.042C275.293 83.042 275.502 82.9951 275.678 82.9014C275.857 82.8115 276.012 82.6787 276.141 82.5029C276.27 82.3271 276.381 82.1182 276.475 81.876L276.826 80.9736L274.254 74.54ZM282.129 74.54V76.8486C282.129 77.251 282.238 77.5479 282.457 77.7393C282.68 77.9307 283.002 78.0264 283.424 78.0264C283.83 78.0264 284.199 77.9639 284.531 77.8389C284.863 77.7139 285.199 77.5439 285.539 77.3291V74.54H286.512V80.9619H285.539V78.085C285.18 78.3154 284.826 78.4971 284.479 78.6299C284.131 78.7627 283.715 78.8291 283.23 78.8291C282.57 78.8291 282.059 78.6572 281.695 78.3135C281.336 77.9697 281.156 77.5049 281.156 76.9189V74.54H282.129ZM290.971 74.4346C291.736 74.4346 292.305 74.6064 292.676 74.9502C293.047 75.2939 293.232 75.8428 293.232 76.5967V80.9619H292.523L292.336 80.0127H292.289C292.109 80.2471 291.922 80.4443 291.727 80.6045C291.531 80.7607 291.305 80.8799 291.047 80.9619C290.793 81.04 290.48 81.0791 290.109 81.0791C289.719 81.0791 289.371 81.0107 289.066 80.874C288.766 80.7373 288.527 80.5303 288.352 80.2529C288.18 79.9756 288.094 79.624 288.094 79.1982C288.094 78.5576 288.348 78.0654 288.855 77.7217C289.363 77.3779 290.137 77.1904 291.176 77.1592L292.283 77.1123V76.7197C292.283 76.165 292.164 75.7764 291.926 75.5537C291.688 75.3311 291.352 75.2197 290.918 75.2197C290.582 75.2197 290.262 75.2686 289.957 75.3662C289.652 75.4639 289.363 75.5791 289.09 75.7119L288.791 74.9736C289.08 74.8252 289.412 74.6982 289.787 74.5928C290.162 74.4873 290.557 74.4346 290.971 74.4346ZM292.271 77.7979L291.293 77.8389C290.492 77.8701 289.928 78.001 289.6 78.2314C289.271 78.4619 289.107 78.7881 289.107 79.21C289.107 79.5771 289.219 79.8486 289.441 80.0244C289.664 80.2002 289.959 80.2881 290.326 80.2881C290.896 80.2881 291.363 80.1299 291.727 79.8135C292.09 79.4971 292.271 79.0225 292.271 78.3896V77.7979ZM296.162 74.54V78.5771C296.162 78.6553 296.16 78.7568 296.156 78.8818C296.152 79.0029 296.146 79.1338 296.139 79.2744C296.131 79.4111 296.123 79.5439 296.115 79.6729C296.111 79.7979 296.105 79.9014 296.098 79.9834L299.602 74.54H300.797V80.9619H299.889V77.0244C299.889 76.8994 299.891 76.7393 299.895 76.5439C299.898 76.3486 299.904 76.1572 299.912 75.9697C299.92 75.7783 299.926 75.6299 299.93 75.5244L296.438 80.9619H295.236V74.54H296.162ZM300.316 71.8975C300.281 72.292 300.182 72.6221 300.018 72.8877C299.857 73.1533 299.621 73.3545 299.309 73.4912C298.996 73.624 298.596 73.6904 298.107 73.6904C297.604 73.6904 297.197 73.626 296.889 73.4971C296.584 73.3643 296.357 73.165 296.209 72.8994C296.064 72.6338 295.979 72.2998 295.951 71.8975H296.865C296.908 72.3271 297.023 72.6201 297.211 72.7764C297.398 72.9326 297.703 73.0107 298.125 73.0107C298.5 73.0107 298.795 72.9287 299.01 72.7646C299.225 72.6006 299.354 72.3115 299.396 71.8975H300.316ZM305.438 81.0791C304.859 81.0791 304.35 80.96 303.908 80.7217C303.467 80.4834 303.123 80.1201 302.877 79.6318C302.631 79.1436 302.508 78.5283 302.508 77.7861C302.508 77.0088 302.637 76.374 302.895 75.8818C303.156 75.3857 303.516 75.0186 303.973 74.7803C304.43 74.542 304.949 74.4229 305.531 74.4229C305.852 74.4229 306.16 74.4561 306.457 74.5225C306.758 74.585 307.004 74.665 307.195 74.7627L306.902 75.5771C306.707 75.499 306.48 75.4287 306.223 75.3662C305.969 75.3037 305.73 75.2725 305.508 75.2725C305.062 75.2725 304.691 75.3682 304.395 75.5596C304.102 75.751 303.881 76.0322 303.732 76.4033C303.588 76.7744 303.516 77.2314 303.516 77.7744C303.516 78.2939 303.586 78.7373 303.727 79.1045C303.871 79.4717 304.084 79.7529 304.365 79.9482C304.65 80.1396 305.006 80.2354 305.432 80.2354C305.771 80.2354 306.078 80.2002 306.352 80.1299C306.625 80.0557 306.873 79.9697 307.096 79.8721V80.7393C306.881 80.8486 306.641 80.9326 306.375 80.9912C306.113 81.0498 305.801 81.0791 305.438 81.0791ZM308.93 80.9619H307.793L309.645 78.2549C309.375 78.1963 309.125 78.0967 308.895 77.9561C308.664 77.8115 308.477 77.6143 308.332 77.3643C308.191 77.1143 308.121 76.8037 308.121 76.4326C308.121 75.8154 308.326 75.3467 308.736 75.0264C309.15 74.7021 309.695 74.54 310.371 74.54H313.213V80.9619H312.24V78.3838H310.611L308.93 80.9619ZM309.064 76.4385C309.064 76.8213 309.201 77.1064 309.475 77.2939C309.748 77.4775 310.139 77.5693 310.646 77.5693H312.24V75.3545H310.477C309.977 75.3545 309.615 75.4561 309.393 75.6592C309.174 75.8584 309.064 76.1182 309.064 76.4385ZM315.117 80.3525C315.117 80.0791 315.184 79.8857 315.316 79.7725C315.449 79.6553 315.611 79.5967 315.803 79.5967C316.002 79.5967 316.17 79.6553 316.307 79.7725C316.443 79.8857 316.512 80.0791 316.512 80.3525C316.512 80.6221 316.443 80.8193 316.307 80.9443C316.17 81.0654 316.002 81.126 315.803 81.126C315.611 81.126 315.449 81.0654 315.316 80.9443C315.184 80.8193 315.117 80.6221 315.117 80.3525ZM324.311 80.9619H323.309V73.2744H320.613V72.3955H326.994V73.2744H324.311V80.9619ZM333.246 76.1514C333.246 76.5537 333.129 76.8682 332.895 77.0947C332.66 77.3174 332.357 77.4678 331.986 77.5459V77.5928C332.389 77.6475 332.734 77.792 333.023 78.0264C333.316 78.2568 333.463 78.6104 333.463 79.0869C333.463 79.4541 333.375 79.7783 333.199 80.0596C333.023 80.3408 332.748 80.5615 332.373 80.7217C331.998 80.8818 331.51 80.9619 330.908 80.9619H328.143V74.54H330.885C331.346 74.54 331.752 74.5928 332.104 74.6982C332.459 74.7998 332.738 74.9678 332.941 75.2021C333.145 75.4365 333.246 75.7529 333.246 76.1514ZM332.449 79.0869C332.449 78.708 332.305 78.4346 332.016 78.2666C331.73 78.0986 331.314 78.0146 330.768 78.0146H329.121V80.1709H330.791C331.33 80.1709 331.74 80.0889 332.021 79.9248C332.307 79.7568 332.449 79.4775 332.449 79.0869ZM332.256 76.2627C332.256 75.958 332.145 75.7314 331.922 75.583C331.699 75.4307 331.334 75.3545 330.826 75.3545H329.121V77.2002H330.656C331.184 77.2002 331.582 77.124 331.852 76.9717C332.121 76.8193 332.256 76.583 332.256 76.2627ZM340.57 77.7393C340.57 78.2666 340.502 78.7373 340.365 79.1514C340.229 79.5654 340.031 79.915 339.773 80.2002C339.516 80.4854 339.203 80.7041 338.836 80.8564C338.473 81.0049 338.061 81.0791 337.6 81.0791C337.17 81.0791 336.775 81.0049 336.416 80.8564C336.061 80.7041 335.752 80.4854 335.49 80.2002C335.232 79.915 335.031 79.5654 334.887 79.1514C334.746 78.7373 334.676 78.2666 334.676 77.7393C334.676 77.0361 334.795 76.4385 335.033 75.9463C335.271 75.4502 335.611 75.0732 336.053 74.8154C336.498 74.5537 337.027 74.4229 337.641 74.4229C338.227 74.4229 338.738 74.5537 339.176 74.8154C339.617 75.0771 339.959 75.4561 340.201 75.9521C340.447 76.4443 340.57 77.04 340.57 77.7393ZM335.684 77.7393C335.684 78.2549 335.752 78.7021 335.889 79.0811C336.025 79.46 336.236 79.7529 336.521 79.96C336.807 80.167 337.174 80.2705 337.623 80.2705C338.068 80.2705 338.434 80.167 338.719 79.96C339.008 79.7529 339.221 79.46 339.357 79.0811C339.494 78.7021 339.562 78.2549 339.562 77.7393C339.562 77.2275 339.494 76.7861 339.357 76.415C339.221 76.04 339.01 75.751 338.725 75.5479C338.439 75.3447 338.07 75.2432 337.617 75.2432C336.949 75.2432 336.459 75.4639 336.146 75.9053C335.838 76.3467 335.684 76.958 335.684 77.7393ZM345.27 74.4229C346.07 74.4229 346.709 74.6982 347.186 75.249C347.662 75.7998 347.9 76.6279 347.9 77.7334C347.9 78.4639 347.791 79.0771 347.572 79.5732C347.354 80.0693 347.045 80.4443 346.646 80.6982C346.252 80.9521 345.785 81.0791 345.246 81.0791C344.906 81.0791 344.607 81.0342 344.35 80.9443C344.092 80.8545 343.871 80.7334 343.688 80.5811C343.504 80.4287 343.352 80.2627 343.23 80.083H343.16C343.172 80.2354 343.186 80.4189 343.201 80.6338C343.221 80.8486 343.23 81.0361 343.23 81.1963V83.833H342.252V74.54H343.055L343.184 75.4893H343.23C343.355 75.2939 343.508 75.1162 343.688 74.9561C343.867 74.792 344.086 74.6631 344.344 74.5693C344.605 74.4717 344.914 74.4229 345.27 74.4229ZM345.1 75.2432C344.654 75.2432 344.295 75.3291 344.021 75.501C343.752 75.6729 343.555 75.9307 343.43 76.2744C343.305 76.6143 343.238 77.042 343.23 77.5576V77.7451C343.23 78.2881 343.289 78.7471 343.406 79.1221C343.527 79.4971 343.725 79.7822 343.998 79.9775C344.275 80.1729 344.646 80.2705 345.111 80.2705C345.51 80.2705 345.842 80.1631 346.107 79.9482C346.373 79.7334 346.57 79.4346 346.699 79.0518C346.832 78.665 346.898 78.2217 346.898 77.7217C346.898 76.9639 346.75 76.3623 346.453 75.917C346.16 75.4678 345.709 75.2432 345.1 75.2432ZM350.525 74.54V78.5771C350.525 78.6553 350.523 78.7568 350.52 78.8818C350.516 79.0029 350.51 79.1338 350.502 79.2744C350.494 79.4111 350.486 79.5439 350.479 79.6729C350.475 79.7979 350.469 79.9014 350.461 79.9834L353.965 74.54H355.16V80.9619H354.252V77.0244C354.252 76.8994 354.254 76.7393 354.258 76.5439C354.262 76.3486 354.268 76.1572 354.275 75.9697C354.283 75.7783 354.289 75.6299 354.293 75.5244L350.801 80.9619H349.6V74.54H350.525ZM357.082 80.3525C357.082 80.0791 357.148 79.8857 357.281 79.7725C357.414 79.6553 357.576 79.5967 357.768 79.5967C357.967 79.5967 358.135 79.6553 358.271 79.7725C358.408 79.8857 358.477 80.0791 358.477 80.3525C358.477 80.6221 358.408 80.8193 358.271 80.9443C358.135 81.0654 357.967 81.126 357.768 81.126C357.576 81.126 357.414 81.0654 357.281 80.9443C357.148 80.8193 357.082 80.6221 357.082 80.3525ZM362.953 78.1729V77.3057H373.992V78.1729H362.953ZM383.719 76.1514C383.719 76.5537 383.602 76.8682 383.367 77.0947C383.133 77.3174 382.83 77.4678 382.459 77.5459V77.5928C382.861 77.6475 383.207 77.792 383.496 78.0264C383.789 78.2568 383.936 78.6104 383.936 79.0869C383.936 79.4541 383.848 79.7783 383.672 80.0596C383.496 80.3408 383.221 80.5615 382.846 80.7217C382.471 80.8818 381.982 80.9619 381.381 80.9619H378.615V74.54H381.357C381.818 74.54 382.225 74.5928 382.576 74.6982C382.932 74.7998 383.211 74.9678 383.414 75.2021C383.617 75.4365 383.719 75.7529 383.719 76.1514ZM382.922 79.0869C382.922 78.708 382.777 78.4346 382.488 78.2666C382.203 78.0986 381.787 78.0146 381.24 78.0146H379.594V80.1709H381.264C381.803 80.1709 382.213 80.0889 382.494 79.9248C382.779 79.7568 382.922 79.4775 382.922 79.0869ZM382.729 76.2627C382.729 75.958 382.617 75.7314 382.395 75.583C382.172 75.4307 381.807 75.3545 381.299 75.3545H379.594V77.2002H381.129C381.656 77.2002 382.055 77.124 382.324 76.9717C382.594 76.8193 382.729 76.583 382.729 76.2627ZM388.078 81.0791C387.5 81.0791 386.99 80.96 386.549 80.7217C386.107 80.4834 385.764 80.1201 385.518 79.6318C385.271 79.1436 385.148 78.5283 385.148 77.7861C385.148 77.0088 385.277 76.374 385.535 75.8818C385.797 75.3857 386.156 75.0186 386.613 74.7803C387.07 74.542 387.59 74.4229 388.172 74.4229C388.492 74.4229 388.801 74.4561 389.098 74.5225C389.398 74.585 389.645 74.665 389.836 74.7627L389.543 75.5771C389.348 75.499 389.121 75.4287 388.863 75.3662C388.609 75.3037 388.371 75.2725 388.148 75.2725C387.703 75.2725 387.332 75.3682 387.035 75.5596C386.742 75.751 386.521 76.0322 386.373 76.4033C386.229 76.7744 386.156 77.2314 386.156 77.7744C386.156 78.2939 386.227 78.7373 386.367 79.1045C386.512 79.4717 386.725 79.7529 387.006 79.9482C387.291 80.1396 387.646 80.2354 388.072 80.2354C388.412 80.2354 388.719 80.2002 388.992 80.1299C389.266 80.0557 389.514 79.9697 389.736 79.8721V80.7393C389.521 80.8486 389.281 80.9326 389.016 80.9912C388.754 81.0498 388.441 81.0791 388.078 81.0791ZM393.732 74.4229C394.279 74.4229 394.748 74.5439 395.139 74.7861C395.529 75.0283 395.828 75.3682 396.035 75.8057C396.242 76.2393 396.346 76.7471 396.346 77.3291V77.9326H391.91C391.922 78.6865 392.109 79.2607 392.473 79.6553C392.836 80.0498 393.348 80.2471 394.008 80.2471C394.414 80.2471 394.773 80.21 395.086 80.1357C395.398 80.0615 395.723 79.9521 396.059 79.8076V80.6631C395.734 80.8076 395.412 80.9131 395.092 80.9795C394.775 81.0459 394.4 81.0791 393.967 81.0791C393.35 81.0791 392.811 80.9541 392.35 80.7041C391.893 80.4502 391.537 80.0791 391.283 79.5908C391.029 79.1025 390.902 78.5049 390.902 77.7979C390.902 77.1064 391.018 76.5088 391.248 76.0049C391.482 75.4971 391.811 75.1064 392.232 74.833C392.658 74.5596 393.158 74.4229 393.732 74.4229ZM393.721 75.2197C393.201 75.2197 392.787 75.3896 392.479 75.7295C392.17 76.0693 391.986 76.5439 391.928 77.1533H395.326C395.322 76.7705 395.262 76.4346 395.145 76.1455C395.031 75.8525 394.857 75.626 394.623 75.4658C394.389 75.3018 394.088 75.2197 393.721 75.2197ZM391.992 72.7939C391.992 72.5986 392.043 72.4561 392.145 72.3662C392.246 72.2764 392.371 72.2314 392.52 72.2314C392.672 72.2314 392.799 72.2764 392.9 72.3662C393.006 72.4561 393.059 72.5986 393.059 72.7939C393.059 72.9854 393.006 73.1299 392.9 73.2275C392.799 73.3213 392.672 73.3682 392.52 73.3682C392.371 73.3682 392.246 73.3213 392.145 73.2275C392.043 73.1299 391.992 72.9854 391.992 72.7939ZM394.242 72.7939C394.242 72.5986 394.293 72.4561 394.395 72.3662C394.496 72.2764 394.619 72.2314 394.764 72.2314C394.912 72.2314 395.039 72.2764 395.145 72.3662C395.25 72.4561 395.303 72.5986 395.303 72.7939C395.303 72.9854 395.25 73.1299 395.145 73.2275C395.039 73.3213 394.912 73.3682 394.764 73.3682C394.619 73.3682 394.496 73.3213 394.395 73.2275C394.293 73.1299 394.242 72.9854 394.242 72.7939ZM406.219 76.1514C406.219 76.5537 406.102 76.8682 405.867 77.0947C405.633 77.3174 405.33 77.4678 404.959 77.5459V77.5928C405.361 77.6475 405.707 77.792 405.996 78.0264C406.289 78.2568 406.436 78.6104 406.436 79.0869C406.436 79.4541 406.348 79.7783 406.172 80.0596C405.996 80.3408 405.721 80.5615 405.346 80.7217C404.971 80.8818 404.482 80.9619 403.881 80.9619H401.115V74.54H403.857C404.318 74.54 404.725 74.5928 405.076 74.6982C405.432 74.7998 405.711 74.9678 405.914 75.2021C406.117 75.4365 406.219 75.7529 406.219 76.1514ZM405.422 79.0869C405.422 78.708 405.277 78.4346 404.988 78.2666C404.703 78.0986 404.287 78.0146 403.74 78.0146H402.094V80.1709H403.764C404.303 80.1709 404.713 80.0889 404.994 79.9248C405.279 79.7568 405.422 79.4775 405.422 79.0869ZM405.229 76.2627C405.229 75.958 405.117 75.7314 404.895 75.583C404.672 75.4307 404.307 75.3545 403.799 75.3545H402.094V77.2002H403.629C404.156 77.2002 404.555 77.124 404.824 76.9717C405.094 76.8193 405.229 76.583 405.229 76.2627ZM415.102 77.7393C415.102 78.2666 415.033 78.7373 414.896 79.1514C414.76 79.5654 414.562 79.915 414.305 80.2002C414.047 80.4854 413.734 80.7041 413.367 80.8564C413.004 81.0049 412.592 81.0791 412.131 81.0791C411.701 81.0791 411.307 81.0049 410.947 80.8564C410.592 80.7041 410.283 80.4854 410.021 80.2002C409.764 79.915 409.562 79.5654 409.418 79.1514C409.277 78.7373 409.207 78.2666 409.207 77.7393C409.207 77.0361 409.326 76.4385 409.564 75.9463C409.803 75.4502 410.143 75.0732 410.584 74.8154C411.029 74.5537 411.559 74.4229 412.172 74.4229C412.758 74.4229 413.27 74.5537 413.707 74.8154C414.148 75.0771 414.49 75.4561 414.732 75.9521C414.979 76.4443 415.102 77.04 415.102 77.7393ZM410.215 77.7393C410.215 78.2549 410.283 78.7021 410.42 79.0811C410.557 79.46 410.768 79.7529 411.053 79.96C411.338 80.167 411.705 80.2705 412.154 80.2705C412.6 80.2705 412.965 80.167 413.25 79.96C413.539 79.7529 413.752 79.46 413.889 79.0811C414.025 78.7021 414.094 78.2549 414.094 77.7393C414.094 77.2275 414.025 76.7861 413.889 76.415C413.752 76.04 413.541 75.751 413.256 75.5479C412.971 75.3447 412.602 75.2432 412.148 75.2432C411.48 75.2432 410.99 75.4639 410.678 75.9053C410.369 76.3467 410.215 76.958 410.215 77.7393ZM421.488 74.54V80.1357H422.408V83.1826H421.465V80.9619H416.918V83.1826H415.986V80.1357H416.49C416.857 79.6279 417.162 79.0713 417.404 78.4658C417.646 77.8604 417.83 77.2256 417.955 76.5615C418.08 75.8936 418.146 75.2197 418.154 74.54H421.488ZM420.545 75.3135H419.021C418.986 75.8838 418.902 76.4639 418.77 77.0537C418.641 77.6436 418.469 78.2061 418.254 78.7412C418.039 79.2725 417.789 79.7373 417.504 80.1357H420.545V75.3135ZM424.664 74.54V77.2354H428.244V74.54H429.217V80.9619H428.244V78.0615H424.664V80.9619H423.686V74.54H424.664ZM436.816 77.7393C436.816 78.2666 436.748 78.7373 436.611 79.1514C436.475 79.5654 436.277 79.915 436.02 80.2002C435.762 80.4854 435.449 80.7041 435.082 80.8564C434.719 81.0049 434.307 81.0791 433.846 81.0791C433.416 81.0791 433.021 81.0049 432.662 80.8564C432.307 80.7041 431.998 80.4854 431.736 80.2002C431.479 79.915 431.277 79.5654 431.133 79.1514C430.992 78.7373 430.922 78.2666 430.922 77.7393C430.922 77.0361 431.041 76.4385 431.279 75.9463C431.518 75.4502 431.857 75.0732 432.299 74.8154C432.744 74.5537 433.273 74.4229 433.887 74.4229C434.473 74.4229 434.984 74.5537 435.422 74.8154C435.863 75.0771 436.205 75.4561 436.447 75.9521C436.693 76.4443 436.816 77.04 436.816 77.7393ZM431.93 77.7393C431.93 78.2549 431.998 78.7021 432.135 79.0811C432.271 79.46 432.482 79.7529 432.768 79.96C433.053 80.167 433.42 80.2705 433.869 80.2705C434.314 80.2705 434.68 80.167 434.965 79.96C435.254 79.7529 435.467 79.46 435.604 79.0811C435.74 78.7021 435.809 78.2549 435.809 77.7393C435.809 77.2275 435.74 76.7861 435.604 76.415C435.467 76.04 435.256 75.751 434.971 75.5479C434.686 75.3447 434.316 75.2432 433.863 75.2432C433.195 75.2432 432.705 75.4639 432.393 75.9053C432.084 76.3467 431.93 76.958 431.93 77.7393ZM445.277 74.54V80.9619H444.398V76.7783C444.398 76.6064 444.402 76.4326 444.41 76.2568C444.422 76.0771 444.436 75.8975 444.451 75.7178H444.416L442.283 80.9619H441.457L439.377 75.7178H439.342C439.354 75.8975 439.361 76.0771 439.365 76.2568C439.373 76.4326 439.377 76.6182 439.377 76.8135V80.9619H438.492V74.54H439.799L441.873 79.79L443.977 74.54H445.277ZM455.637 74.54V80.9619H454.758V76.7783C454.758 76.6064 454.762 76.4326 454.77 76.2568C454.781 76.0771 454.795 75.8975 454.811 75.7178H454.775L452.643 80.9619H451.816L449.736 75.7178H449.701C449.713 75.8975 449.721 76.0771 449.725 76.2568C449.732 76.4326 449.736 76.6182 449.736 76.8135V80.9619H448.852V74.54H450.158L452.232 79.79L454.336 74.54H455.637ZM460.131 74.4229C460.678 74.4229 461.146 74.5439 461.537 74.7861C461.928 75.0283 462.227 75.3682 462.434 75.8057C462.641 76.2393 462.744 76.7471 462.744 77.3291V77.9326H458.309C458.32 78.6865 458.508 79.2607 458.871 79.6553C459.234 80.0498 459.746 80.2471 460.406 80.2471C460.812 80.2471 461.172 80.21 461.484 80.1357C461.797 80.0615 462.121 79.9521 462.457 79.8076V80.6631C462.133 80.8076 461.811 80.9131 461.49 80.9795C461.174 81.0459 460.799 81.0791 460.365 81.0791C459.748 81.0791 459.209 80.9541 458.748 80.7041C458.291 80.4502 457.936 80.0791 457.682 79.5908C457.428 79.1025 457.301 78.5049 457.301 77.7979C457.301 77.1064 457.416 76.5088 457.646 76.0049C457.881 75.4971 458.209 75.1064 458.631 74.833C459.057 74.5596 459.557 74.4229 460.131 74.4229ZM460.119 75.2197C459.6 75.2197 459.186 75.3896 458.877 75.7295C458.568 76.0693 458.385 76.5439 458.326 77.1533H461.725C461.721 76.7705 461.66 76.4346 461.543 76.1455C461.43 75.8525 461.256 75.626 461.021 75.4658C460.787 75.3018 460.486 75.2197 460.119 75.2197ZM466.969 81.0791C466.391 81.0791 465.881 80.96 465.439 80.7217C464.998 80.4834 464.654 80.1201 464.408 79.6318C464.162 79.1436 464.039 78.5283 464.039 77.7861C464.039 77.0088 464.168 76.374 464.426 75.8818C464.688 75.3857 465.047 75.0186 465.504 74.7803C465.961 74.542 466.48 74.4229 467.062 74.4229C467.383 74.4229 467.691 74.4561 467.988 74.5225C468.289 74.585 468.535 74.665 468.727 74.7627L468.434 75.5771C468.238 75.499 468.012 75.4287 467.754 75.3662C467.5 75.3037 467.262 75.2725 467.039 75.2725C466.594 75.2725 466.223 75.3682 465.926 75.5596C465.633 75.751 465.412 76.0322 465.264 76.4033C465.119 76.7744 465.047 77.2314 465.047 77.7744C465.047 78.2939 465.117 78.7373 465.258 79.1045C465.402 79.4717 465.615 79.7529 465.896 79.9482C466.182 80.1396 466.537 80.2354 466.963 80.2354C467.303 80.2354 467.609 80.2002 467.883 80.1299C468.156 80.0557 468.404 79.9697 468.627 79.8721V80.7393C468.412 80.8486 468.172 80.9326 467.906 80.9912C467.645 81.0498 467.332 81.0791 466.969 81.0791ZM474.527 75.3662H472.412V80.9619H471.451V75.3662H469.365V74.54H474.527V75.3662ZM478.271 74.4229C478.818 74.4229 479.287 74.5439 479.678 74.7861C480.068 75.0283 480.367 75.3682 480.574 75.8057C480.781 76.2393 480.885 76.7471 480.885 77.3291V77.9326H476.449C476.461 78.6865 476.648 79.2607 477.012 79.6553C477.375 80.0498 477.887 80.2471 478.547 80.2471C478.953 80.2471 479.312 80.21 479.625 80.1357C479.938 80.0615 480.262 79.9521 480.598 79.8076V80.6631C480.273 80.8076 479.951 80.9131 479.631 80.9795C479.314 81.0459 478.939 81.0791 478.506 81.0791C477.889 81.0791 477.35 80.9541 476.889 80.7041C476.432 80.4502 476.076 80.0791 475.822 79.5908C475.568 79.1025 475.441 78.5049 475.441 77.7979C475.441 77.1064 475.557 76.5088 475.787 76.0049C476.021 75.4971 476.35 75.1064 476.771 74.833C477.197 74.5596 477.697 74.4229 478.271 74.4229ZM478.26 75.2197C477.74 75.2197 477.326 75.3896 477.018 75.7295C476.709 76.0693 476.525 76.5439 476.467 77.1533H479.865C479.861 76.7705 479.801 76.4346 479.684 76.1455C479.57 75.8525 479.396 75.626 479.162 75.4658C478.928 75.3018 478.627 75.2197 478.26 75.2197ZM482.391 80.3525C482.391 80.0791 482.457 79.8857 482.59 79.7725C482.723 79.6553 482.885 79.5967 483.076 79.5967C483.275 79.5967 483.443 79.6553 483.58 79.7725C483.717 79.8857 483.785 80.0791 483.785 80.3525C483.785 80.6221 483.717 80.8193 483.58 80.9443C483.443 81.0654 483.275 81.126 483.076 81.126C482.885 81.126 482.723 81.0654 482.59 80.9443C482.457 80.8193 482.391 80.6221 482.391 80.3525Z" fill="black"/>
<path d="M957.969 51.2354C957.969 52.1156 957.857 52.9176 957.633 53.6416C957.409 54.3604 957.076 54.9801 956.633 55.501C956.195 56.0166 955.651 56.415 955 56.6963C954.349 56.9775 953.594 57.1182 952.734 57.1182C951.849 57.1182 951.076 56.9775 950.414 56.6963C949.758 56.415 949.211 56.014 948.773 55.4932C948.341 54.9723 948.016 54.3499 947.797 53.626C947.583 52.902 947.477 52.0999 947.477 51.2197C947.477 50.0531 947.669 49.0296 948.055 48.1494C948.44 47.2692 949.023 46.5843 949.805 46.0947C950.591 45.6051 951.576 45.3604 952.758 45.3604C953.888 45.3604 954.839 45.6025 955.609 46.0869C956.385 46.5713 956.971 47.2536 957.367 48.1338C957.768 49.0088 957.969 50.0426 957.969 51.2354ZM948.875 51.2354C948.875 52.2041 949.013 53.0426 949.289 53.751C949.565 54.4593 949.987 55.0062 950.555 55.3916C951.128 55.777 951.854 55.9697 952.734 55.9697C953.62 55.9697 954.344 55.777 954.906 55.3916C955.474 55.0062 955.893 54.4593 956.164 53.751C956.435 53.0426 956.57 52.2041 956.57 51.2354C956.57 49.7614 956.26 48.6104 955.641 47.7822C955.026 46.9489 954.065 46.5322 952.758 46.5322C951.872 46.5322 951.143 46.7223 950.57 47.1025C949.997 47.4827 949.57 48.0244 949.289 48.7275C949.013 49.4255 948.875 50.2614 948.875 51.2354ZM971.648 48.3994V56.9619H970.344V49.5166H965.781V56.9619H964.477V48.3994H971.648ZM978.422 48.2432C979.49 48.2432 980.341 48.6104 980.977 49.3447C981.612 50.0791 981.93 51.1833 981.93 52.6572C981.93 53.6312 981.784 54.4489 981.492 55.1104C981.201 55.7718 980.789 56.2718 980.258 56.6104C979.732 56.9489 979.109 57.1182 978.391 57.1182C977.938 57.1182 977.539 57.0583 977.195 56.9385C976.852 56.8187 976.557 56.6572 976.312 56.4541C976.068 56.251 975.865 56.0296 975.703 55.79H975.609C975.625 55.9932 975.643 56.238 975.664 56.5244C975.69 56.8109 975.703 57.0609 975.703 57.2744V60.79H974.398V48.3994H975.469L975.641 49.665H975.703C975.87 49.4046 976.073 49.1676 976.312 48.9541C976.552 48.7354 976.844 48.5635 977.188 48.4385C977.536 48.3083 977.948 48.2432 978.422 48.2432ZM978.195 49.3369C977.602 49.3369 977.122 49.4515 976.758 49.6807C976.398 49.9098 976.135 50.2536 975.969 50.7119C975.802 51.165 975.714 51.7354 975.703 52.4229V52.6729C975.703 53.3968 975.781 54.0088 975.938 54.5088C976.099 55.0088 976.362 55.389 976.727 55.6494C977.096 55.9098 977.591 56.04 978.211 56.04C978.742 56.04 979.185 55.8968 979.539 55.6104C979.893 55.3239 980.156 54.9255 980.328 54.415C980.505 53.8994 980.594 53.3083 980.594 52.6416C980.594 51.6312 980.396 50.8291 980 50.2354C979.609 49.6364 979.008 49.3369 978.195 49.3369ZM991.578 52.665C991.578 53.3682 991.487 53.9958 991.305 54.5479C991.122 55.0999 990.859 55.5661 990.516 55.9463C990.172 56.3265 989.755 56.6182 989.266 56.8213C988.781 57.0192 988.232 57.1182 987.617 57.1182C987.044 57.1182 986.518 57.0192 986.039 56.8213C985.565 56.6182 985.154 56.3265 984.805 55.9463C984.461 55.5661 984.193 55.0999 984 54.5479C983.812 53.9958 983.719 53.3682 983.719 52.665C983.719 51.7275 983.878 50.9307 984.195 50.2744C984.513 49.613 984.966 49.1104 985.555 48.7666C986.148 48.4176 986.854 48.2432 987.672 48.2432C988.453 48.2432 989.135 48.4176 989.719 48.7666C990.307 49.1156 990.763 49.6208 991.086 50.2822C991.414 50.9385 991.578 51.7327 991.578 52.665ZM985.062 52.665C985.062 53.3525 985.154 53.9489 985.336 54.4541C985.518 54.9593 985.799 55.3499 986.18 55.626C986.56 55.902 987.049 56.04 987.648 56.04C988.242 56.04 988.729 55.902 989.109 55.626C989.495 55.3499 989.779 54.9593 989.961 54.4541C990.143 53.9489 990.234 53.3525 990.234 52.665C990.234 51.9827 990.143 51.3942 989.961 50.8994C989.779 50.3994 989.497 50.014 989.117 49.7432C988.737 49.4723 988.245 49.3369 987.641 49.3369C986.75 49.3369 986.096 49.6312 985.68 50.2197C985.268 50.8083 985.062 51.6234 985.062 52.665ZM997.117 48.2432C997.846 48.2432 998.471 48.4046 998.992 48.7275C999.513 49.0505 999.911 49.5036 1000.19 50.0869C1000.46 50.665 1000.6 51.3421 1000.6 52.1182V52.9229H994.688C994.703 53.9281 994.953 54.6937 995.438 55.2197C995.922 55.7458 996.604 56.0088 997.484 56.0088C998.026 56.0088 998.505 55.9593 998.922 55.8604C999.339 55.7614 999.771 55.6156 1000.22 55.4229V56.5635C999.786 56.7562 999.357 56.8968 998.93 56.9854C998.508 57.0739 998.008 57.1182 997.43 57.1182C996.607 57.1182 995.888 56.9515 995.273 56.6182C994.664 56.2796 994.19 55.7848 993.852 55.1338C993.513 54.4827 993.344 53.6859 993.344 52.7432C993.344 51.8213 993.497 51.0244 993.805 50.3525C994.117 49.6755 994.555 49.1546 995.117 48.79C995.685 48.4255 996.352 48.2432 997.117 48.2432ZM997.102 49.3057C996.409 49.3057 995.857 49.5322 995.445 49.9854C995.034 50.4385 994.789 51.0713 994.711 51.8838H999.242C999.237 51.3734 999.156 50.9255 999 50.54C998.849 50.1494 998.617 49.8473 998.305 49.6338C997.992 49.415 997.591 49.3057 997.102 49.3057ZM1007.8 48.3994H1009.23L1005.53 52.5322L1009.52 56.9619H1008L1004.11 52.6182V56.9619H1002.8V48.3994H1004.11V52.5557L1007.8 48.3994ZM1016.91 49.501H1014.09V56.9619H1012.8V49.501H1010.02V48.3994H1016.91V49.501ZM1021.9 48.2432C1022.63 48.2432 1023.25 48.4046 1023.77 48.7275C1024.29 49.0505 1024.69 49.5036 1024.97 50.0869C1025.24 50.665 1025.38 51.3421 1025.38 52.1182V52.9229H1019.47C1019.48 53.9281 1019.73 54.6937 1020.22 55.2197C1020.7 55.7458 1021.39 56.0088 1022.27 56.0088C1022.81 56.0088 1023.29 55.9593 1023.7 55.8604C1024.12 55.7614 1024.55 55.6156 1025 55.4229V56.5635C1024.57 56.7562 1024.14 56.8968 1023.71 56.9854C1023.29 57.0739 1022.79 57.1182 1022.21 57.1182C1021.39 57.1182 1020.67 56.9515 1020.05 56.6182C1019.45 56.2796 1018.97 55.7848 1018.63 55.1338C1018.29 54.4827 1018.12 53.6859 1018.12 52.7432C1018.12 51.8213 1018.28 51.0244 1018.59 50.3525C1018.9 49.6755 1019.34 49.1546 1019.9 48.79C1020.47 48.4255 1021.13 48.2432 1021.9 48.2432ZM1021.88 49.3057C1021.19 49.3057 1020.64 49.5322 1020.23 49.9854C1019.82 50.4385 1019.57 51.0713 1019.49 51.8838H1024.02C1024.02 51.3734 1023.94 50.9255 1023.78 50.54C1023.63 50.1494 1023.4 49.8473 1023.09 49.6338C1022.77 49.415 1022.37 49.3057 1021.88 49.3057Z" fill="#868686"/>
<path d="M1064.06 56.9619V45.54H1072.57V56.9619H1071.26V46.7119H1065.39V56.9619H1064.06ZM1082.91 52.665C1082.91 53.3682 1082.82 53.9958 1082.63 54.5479C1082.45 55.0999 1082.19 55.5661 1081.84 55.9463C1081.5 56.3265 1081.08 56.6182 1080.59 56.8213C1080.11 57.0192 1079.56 57.1182 1078.95 57.1182C1078.37 57.1182 1077.85 57.0192 1077.37 56.8213C1076.89 56.6182 1076.48 56.3265 1076.13 55.9463C1075.79 55.5661 1075.52 55.0999 1075.33 54.5479C1075.14 53.9958 1075.05 53.3682 1075.05 52.665C1075.05 51.7275 1075.21 50.9307 1075.52 50.2744C1075.84 49.613 1076.29 49.1104 1076.88 48.7666C1077.48 48.4176 1078.18 48.2432 1079 48.2432C1079.78 48.2432 1080.46 48.4176 1081.05 48.7666C1081.64 49.1156 1082.09 49.6208 1082.41 50.2822C1082.74 50.9385 1082.91 51.7327 1082.91 52.665ZM1076.39 52.665C1076.39 53.3525 1076.48 53.9489 1076.66 54.4541C1076.85 54.9593 1077.13 55.3499 1077.51 55.626C1077.89 55.902 1078.38 56.04 1078.98 56.04C1079.57 56.04 1080.06 55.902 1080.44 55.626C1080.82 55.3499 1081.11 54.9593 1081.29 54.4541C1081.47 53.9489 1081.56 53.3525 1081.56 52.665C1081.56 51.9827 1081.47 51.3942 1081.29 50.8994C1081.11 50.3994 1080.83 50.014 1080.45 49.7432C1080.07 49.4723 1079.57 49.3369 1078.97 49.3369C1078.08 49.3369 1077.42 49.6312 1077.01 50.2197C1076.6 50.8083 1076.39 51.6234 1076.39 52.665ZM1090.98 49.501H1088.16V56.9619H1086.88V49.501H1084.1V48.3994H1090.98V49.501ZM1095.98 48.2432C1096.71 48.2432 1097.33 48.4046 1097.85 48.7275C1098.37 49.0505 1098.77 49.5036 1099.05 50.0869C1099.32 50.665 1099.46 51.3421 1099.46 52.1182V52.9229H1093.55C1093.56 53.9281 1093.81 54.6937 1094.3 55.2197C1094.78 55.7458 1095.46 56.0088 1096.34 56.0088C1096.89 56.0088 1097.36 55.9593 1097.78 55.8604C1098.2 55.7614 1098.63 55.6156 1099.08 55.4229V56.5635C1098.65 56.7562 1098.22 56.8968 1097.79 56.9854C1097.37 57.0739 1096.87 57.1182 1096.29 57.1182C1095.47 57.1182 1094.75 56.9515 1094.13 56.6182C1093.52 56.2796 1093.05 55.7848 1092.71 55.1338C1092.37 54.4827 1092.2 53.6859 1092.2 52.7432C1092.2 51.8213 1092.36 51.0244 1092.66 50.3525C1092.98 49.6755 1093.41 49.1546 1093.98 48.79C1094.54 48.4255 1095.21 48.2432 1095.98 48.2432ZM1095.96 49.3057C1095.27 49.3057 1094.72 49.5322 1094.3 49.9854C1093.89 50.4385 1093.65 51.0713 1093.57 51.8838H1098.1C1098.1 51.3734 1098.02 50.9255 1097.86 50.54C1097.71 50.1494 1097.48 49.8473 1097.16 49.6338C1096.85 49.415 1096.45 49.3057 1095.96 49.3057ZM1102.97 48.3994V51.9932H1107.74V48.3994H1109.04V56.9619H1107.74V53.0947H1102.97V56.9619H1101.66V48.3994H1102.97ZM1120.12 59.9229H1118.86V56.9619H1111.79V48.3994H1113.09V55.8604H1117.63V48.3994H1118.93V55.876H1120.12V59.9229ZM1123.04 48.3994V53.7822C1123.04 53.8864 1123.04 54.0218 1123.03 54.1885C1123.03 54.3499 1123.02 54.5244 1123.01 54.7119C1123 54.8942 1122.99 55.0713 1122.98 55.2432C1122.97 55.4098 1122.96 55.5479 1122.95 55.6572L1127.62 48.3994H1129.22V56.9619H1128.01V51.7119C1128.01 51.5452 1128.01 51.3317 1128.02 51.0713C1128.02 50.8109 1128.03 50.5557 1128.04 50.3057C1128.05 50.0505 1128.06 49.8525 1128.06 49.7119L1123.41 56.9619H1121.8V48.3994H1123.04ZM1135.18 48.2588C1136.2 48.2588 1136.96 48.488 1137.45 48.9463C1137.95 49.4046 1138.2 50.1364 1138.2 51.1416V56.9619H1137.25L1137 55.6963H1136.94C1136.7 56.0088 1136.45 56.2718 1136.19 56.4854C1135.93 56.6937 1135.62 56.8525 1135.28 56.9619C1134.94 57.0661 1134.53 57.1182 1134.03 57.1182C1133.51 57.1182 1133.05 57.027 1132.64 56.8447C1132.24 56.6624 1131.92 56.3864 1131.69 56.0166C1131.46 55.6468 1131.34 55.1781 1131.34 54.6104C1131.34 53.7562 1131.68 53.0999 1132.36 52.6416C1133.04 52.1833 1134.07 51.9333 1135.45 51.8916L1136.93 51.8291V51.3057C1136.93 50.5661 1136.77 50.0479 1136.45 49.751C1136.14 49.4541 1135.69 49.3057 1135.11 49.3057C1134.66 49.3057 1134.23 49.3708 1133.83 49.501C1133.42 49.6312 1133.04 49.7848 1132.67 49.9619L1132.27 48.9775C1132.66 48.7796 1133.1 48.6104 1133.6 48.4697C1134.1 48.3291 1134.63 48.2588 1135.18 48.2588ZM1136.91 52.7432L1135.61 52.7979C1134.54 52.8395 1133.79 53.014 1133.35 53.3213C1132.91 53.6286 1132.7 54.0635 1132.7 54.626C1132.7 55.1156 1132.84 55.4775 1133.14 55.7119C1133.44 55.9463 1133.83 56.0635 1134.32 56.0635C1135.08 56.0635 1135.7 55.8525 1136.19 55.4307C1136.67 55.0088 1136.91 54.376 1136.91 53.5322V52.7432ZM1147.29 56.9619H1145.97V49.4854H1143.37C1143.26 50.8343 1143.13 51.9906 1142.97 52.9541C1142.81 53.9124 1142.61 54.6963 1142.38 55.3057C1142.14 55.9098 1141.85 56.3551 1141.52 56.6416C1141.18 56.9229 1140.78 57.0635 1140.32 57.0635C1140.18 57.0635 1140.05 57.0557 1139.92 57.04C1139.8 57.0244 1139.69 56.9984 1139.6 56.9619V55.9775C1139.67 55.9984 1139.74 56.014 1139.81 56.0244C1139.89 56.0348 1139.97 56.04 1140.05 56.04C1140.29 56.04 1140.5 55.9437 1140.7 55.751C1140.89 55.5531 1141.07 55.2562 1141.23 54.8604C1141.39 54.4645 1141.53 53.9645 1141.66 53.3604C1141.78 52.751 1141.89 52.0348 1141.98 51.2119C1142.08 50.3838 1142.17 49.4463 1142.24 48.3994H1147.29V56.9619Z" fill="#868686"/>
<path d="M1190.05 45.54C1191.52 45.54 1192.6 45.8291 1193.27 46.4072C1193.96 46.9801 1194.3 47.8031 1194.3 48.876C1194.3 49.3604 1194.22 49.8213 1194.05 50.2588C1193.9 50.6911 1193.64 51.0739 1193.29 51.4072C1192.93 51.7354 1192.47 51.9958 1191.89 52.1885C1191.32 52.376 1190.61 52.4697 1189.78 52.4697H1188.39V56.9619H1187.06V45.54H1190.05ZM1189.92 46.6729H1188.39V51.3291H1189.63C1190.36 51.3291 1190.97 51.251 1191.45 51.0947C1191.94 50.9385 1192.31 50.6859 1192.55 50.3369C1192.8 49.9827 1192.92 49.514 1192.92 48.9307C1192.92 48.1702 1192.68 47.6051 1192.2 47.2354C1191.71 46.8604 1190.95 46.6729 1189.92 46.6729ZM1199.7 48.2588C1200.72 48.2588 1201.47 48.488 1201.97 48.9463C1202.46 49.4046 1202.71 50.1364 1202.71 51.1416V56.9619H1201.77L1201.52 55.6963H1201.45C1201.21 56.0088 1200.96 56.2718 1200.7 56.4854C1200.44 56.6937 1200.14 56.8525 1199.8 56.9619C1199.46 57.0661 1199.04 57.1182 1198.55 57.1182C1198.03 57.1182 1197.56 57.027 1197.16 56.8447C1196.76 56.6624 1196.44 56.3864 1196.2 56.0166C1195.97 55.6468 1195.86 55.1781 1195.86 54.6104C1195.86 53.7562 1196.2 53.0999 1196.88 52.6416C1197.55 52.1833 1198.58 51.9333 1199.97 51.8916L1201.45 51.8291V51.3057C1201.45 50.5661 1201.29 50.0479 1200.97 49.751C1200.65 49.4541 1200.2 49.3057 1199.62 49.3057C1199.18 49.3057 1198.75 49.3708 1198.34 49.501C1197.94 49.6312 1197.55 49.7848 1197.19 49.9619L1196.79 48.9775C1197.17 48.7796 1197.62 48.6104 1198.12 48.4697C1198.62 48.3291 1199.14 48.2588 1199.7 48.2588ZM1201.43 52.7432L1200.12 52.7979C1199.06 52.8395 1198.3 53.014 1197.87 53.3213C1197.43 53.6286 1197.21 54.0635 1197.21 54.626C1197.21 55.1156 1197.36 55.4775 1197.66 55.7119C1197.95 55.9463 1198.35 56.0635 1198.84 56.0635C1199.6 56.0635 1200.22 55.8525 1200.7 55.4307C1201.19 55.0088 1201.43 54.376 1201.43 53.5322V52.7432ZM1204.03 48.3994H1205.42L1207.31 53.3682C1207.42 53.6598 1207.52 53.9411 1207.62 54.2119C1207.71 54.4775 1207.79 54.7327 1207.87 54.9775C1207.94 55.2223 1208 55.4593 1208.04 55.6885H1208.09C1208.17 55.4281 1208.27 55.0869 1208.41 54.665C1208.54 54.238 1208.69 53.8031 1208.84 53.3604L1210.63 48.3994H1212.03L1208.3 58.2197C1208.11 58.7458 1207.88 59.2041 1207.61 59.5947C1207.35 59.9854 1207.03 60.2848 1206.66 60.4932C1206.28 60.7067 1205.83 60.8135 1205.3 60.8135C1205.05 60.8135 1204.84 60.7979 1204.65 60.7666C1204.46 60.7406 1204.3 60.7093 1204.16 60.6729V59.6338C1204.28 59.6598 1204.42 59.6833 1204.58 59.7041C1204.74 59.7249 1204.92 59.7354 1205.09 59.7354C1205.42 59.7354 1205.7 59.6729 1205.93 59.5479C1206.17 59.4281 1206.38 59.251 1206.55 59.0166C1206.72 58.7822 1206.87 58.5036 1206.99 58.1807L1207.46 56.9775L1204.03 48.3994ZM1214.7 48.3994V51.9932H1219.48V48.3994H1220.77V56.9619H1219.48V53.0947H1214.7V56.9619H1213.4V48.3994H1214.7ZM1229.8 48.3994V55.8604H1231.02V59.9229H1229.77V56.9619H1223.7V59.9229H1222.46V55.8604H1223.13C1223.62 55.1833 1224.03 54.4411 1224.35 53.6338C1224.67 52.8265 1224.92 51.9801 1225.09 51.0947C1225.25 50.2041 1225.34 49.3057 1225.35 48.3994H1229.8ZM1228.54 49.4307H1226.51C1226.46 50.1911 1226.35 50.9645 1226.17 51.751C1226 52.5374 1225.77 53.2874 1225.48 54.001C1225.2 54.7093 1224.86 55.3291 1224.48 55.8604H1228.54V49.4307ZM1238.12 48.3994V53.7822C1238.12 53.8864 1238.11 54.0218 1238.11 54.1885C1238.1 54.3499 1238.1 54.5244 1238.09 54.7119C1238.08 54.8942 1238.07 55.0713 1238.05 55.2432C1238.05 55.4098 1238.04 55.5479 1238.03 55.6572L1242.7 48.3994H1244.3V56.9619H1243.09V51.7119C1243.09 51.5452 1243.09 51.3317 1243.09 51.0713C1243.1 50.8109 1243.11 50.5557 1243.12 50.3057C1243.13 50.0505 1243.14 49.8525 1243.14 49.7119L1238.48 56.9619H1236.88V48.3994H1238.12ZM1248.36 48.3994V51.9932H1253.13V48.3994H1254.43V56.9619H1253.13V53.0947H1248.36V56.9619H1247.05V48.3994H1248.36ZM1263.98 50.5479C1263.98 51.0843 1263.83 51.5036 1263.52 51.8057C1263.2 52.1025 1262.8 52.3031 1262.3 52.4072V52.4697C1262.84 52.5426 1263.3 52.7354 1263.69 53.0479C1264.08 53.3551 1264.27 53.8265 1264.27 54.4619C1264.27 54.9515 1264.16 55.3838 1263.92 55.7588C1263.69 56.1338 1263.32 56.4281 1262.82 56.6416C1262.32 56.8551 1261.67 56.9619 1260.87 56.9619H1257.18V48.3994H1260.84C1261.45 48.3994 1261.99 48.4697 1262.46 48.6104C1262.93 48.7458 1263.31 48.9697 1263.58 49.2822C1263.85 49.5947 1263.98 50.0166 1263.98 50.5479ZM1262.92 54.4619C1262.92 53.9567 1262.73 53.5921 1262.34 53.3682C1261.96 53.1442 1261.41 53.0322 1260.68 53.0322H1258.48V55.9072H1260.71C1261.43 55.9072 1261.98 55.7979 1262.35 55.5791C1262.73 55.3551 1262.92 54.9827 1262.92 54.4619ZM1262.66 50.6963C1262.66 50.29 1262.52 49.988 1262.22 49.79C1261.92 49.5869 1261.43 49.4854 1260.76 49.4854H1258.48V51.9463H1260.53C1261.23 51.9463 1261.77 51.8447 1262.12 51.6416C1262.48 51.4385 1262.66 51.1234 1262.66 50.6963ZM1269.66 48.2432C1270.39 48.2432 1271.02 48.4046 1271.54 48.7275C1272.06 49.0505 1272.46 49.5036 1272.73 50.0869C1273.01 50.665 1273.15 51.3421 1273.15 52.1182V52.9229H1267.23C1267.25 53.9281 1267.5 54.6937 1267.98 55.2197C1268.47 55.7458 1269.15 56.0088 1270.03 56.0088C1270.57 56.0088 1271.05 55.9593 1271.47 55.8604C1271.89 55.7614 1272.32 55.6156 1272.77 55.4229V56.5635C1272.33 56.7562 1271.9 56.8968 1271.48 56.9854C1271.05 57.0739 1270.55 57.1182 1269.98 57.1182C1269.15 57.1182 1268.43 56.9515 1267.82 56.6182C1267.21 56.2796 1266.74 55.7848 1266.4 55.1338C1266.06 54.4827 1265.89 53.6859 1265.89 52.7432C1265.89 51.8213 1266.04 51.0244 1266.35 50.3525C1266.66 49.6755 1267.1 49.1546 1267.66 48.79C1268.23 48.4255 1268.9 48.2432 1269.66 48.2432ZM1269.65 49.3057C1268.96 49.3057 1268.4 49.5322 1267.99 49.9854C1267.58 50.4385 1267.34 51.0713 1267.26 51.8838H1271.79C1271.78 51.3734 1271.7 50.9255 1271.55 50.54C1271.4 50.1494 1271.16 49.8473 1270.85 49.6338C1270.54 49.415 1270.14 49.3057 1269.65 49.3057ZM1278.78 57.1182C1278.01 57.1182 1277.33 56.9593 1276.74 56.6416C1276.15 56.3239 1275.7 55.8395 1275.37 55.1885C1275.04 54.5374 1274.88 53.7171 1274.88 52.7275C1274.88 51.6911 1275.05 50.8447 1275.39 50.1885C1275.74 49.527 1276.22 49.0374 1276.83 48.7197C1277.44 48.402 1278.13 48.2432 1278.91 48.2432C1279.33 48.2432 1279.74 48.2874 1280.14 48.376C1280.54 48.4593 1280.87 48.5661 1281.12 48.6963L1280.73 49.7822C1280.47 49.6781 1280.17 49.5843 1279.83 49.501C1279.49 49.4176 1279.17 49.376 1278.88 49.376C1278.28 49.376 1277.79 49.5036 1277.39 49.7588C1277 50.014 1276.71 50.389 1276.51 50.8838C1276.32 51.3786 1276.22 51.988 1276.22 52.7119C1276.22 53.4046 1276.31 53.9958 1276.5 54.4854C1276.69 54.9749 1276.98 55.3499 1277.35 55.6104C1277.73 55.8656 1278.21 55.9932 1278.77 55.9932C1279.23 55.9932 1279.64 55.9463 1280 55.8525C1280.36 55.7536 1280.7 55.639 1280.99 55.5088V56.665C1280.71 56.8109 1280.39 56.9229 1280.03 57.001C1279.68 57.0791 1279.27 57.1182 1278.78 57.1182ZM1288.86 49.501H1286.04V56.9619H1284.76V49.501H1281.98V48.3994H1288.86V49.501ZM1291.79 48.3994V53.7822C1291.79 53.8864 1291.79 54.0218 1291.78 54.1885C1291.78 54.3499 1291.77 54.5244 1291.76 54.7119C1291.75 54.8942 1291.74 55.0713 1291.73 55.2432C1291.72 55.4098 1291.71 55.5479 1291.7 55.6572L1296.38 48.3994H1297.97V56.9619H1296.76V51.7119C1296.76 51.5452 1296.76 51.3317 1296.77 51.0713C1296.77 50.8109 1296.78 50.5557 1296.79 50.3057C1296.8 50.0505 1296.81 49.8525 1296.81 49.7119L1292.16 56.9619H1290.55V48.3994H1291.79ZM1309.06 59.9229H1307.8V56.9619H1300.73V48.3994H1302.03V55.8604H1306.57V48.3994H1307.87V55.876H1309.06V59.9229ZM1311.98 48.3994V53.7822C1311.98 53.8864 1311.97 54.0218 1311.97 54.1885C1311.96 54.3499 1311.96 54.5244 1311.95 54.7119C1311.93 54.8942 1311.92 55.0713 1311.91 55.2432C1311.91 55.4098 1311.9 55.5479 1311.89 55.6572L1316.56 48.3994H1318.16V56.9619H1316.95V51.7119C1316.95 51.5452 1316.95 51.3317 1316.95 51.0713C1316.96 50.8109 1316.97 50.5557 1316.98 50.3057C1316.99 50.0505 1316.99 49.8525 1317 49.7119L1312.34 56.9619H1310.74V48.3994H1311.98ZM1322.15 48.3994V53.7822C1322.15 53.8864 1322.15 54.0218 1322.14 54.1885C1322.14 54.3499 1322.13 54.5244 1322.12 54.7119C1322.11 54.8942 1322.1 55.0713 1322.09 55.2432C1322.08 55.4098 1322.07 55.5479 1322.06 55.6572L1326.73 48.3994H1328.33V56.9619H1327.12V51.7119C1327.12 51.5452 1327.12 51.3317 1327.12 51.0713C1327.13 50.8109 1327.14 50.5557 1327.15 50.3057C1327.16 50.0505 1327.17 49.8525 1327.17 49.7119L1322.52 56.9619H1320.91V48.3994H1322.15ZM1327.69 44.876C1327.64 45.402 1327.51 45.8421 1327.29 46.1963C1327.08 46.5505 1326.76 46.8187 1326.34 47.001C1325.93 47.1781 1325.39 47.2666 1324.74 47.2666C1324.07 47.2666 1323.53 47.1807 1323.12 47.0088C1322.71 46.8317 1322.41 46.5661 1322.21 46.2119C1322.02 45.8577 1321.9 45.4124 1321.87 44.876H1323.09C1323.14 45.4489 1323.3 45.8395 1323.55 46.0479C1323.8 46.2562 1324.2 46.3604 1324.77 46.3604C1325.27 46.3604 1325.66 46.251 1325.95 46.0322C1326.23 45.8135 1326.4 45.4281 1326.46 44.876H1327.69Z" fill="#868686"/>
<path d="M1376.25 56.9619H1374.64L1369.39 51.165V56.9619H1368.06V45.54H1369.39V51.0713L1374.51 45.54H1376.03L1370.98 51.0869L1376.25 56.9619ZM1385.02 52.665C1385.02 53.3682 1384.92 53.9958 1384.74 54.5479C1384.56 55.0999 1384.3 55.5661 1383.95 55.9463C1383.61 56.3265 1383.19 56.6182 1382.7 56.8213C1382.22 57.0192 1381.67 57.1182 1381.05 57.1182C1380.48 57.1182 1379.96 57.0192 1379.48 56.8213C1379 56.6182 1378.59 56.3265 1378.24 55.9463C1377.9 55.5661 1377.63 55.0999 1377.44 54.5479C1377.25 53.9958 1377.16 53.3682 1377.16 52.665C1377.16 51.7275 1377.32 50.9307 1377.63 50.2744C1377.95 49.613 1378.4 49.1104 1378.99 48.7666C1379.59 48.4176 1380.29 48.2432 1381.11 48.2432C1381.89 48.2432 1382.57 48.4176 1383.16 48.7666C1383.74 49.1156 1384.2 49.6208 1384.52 50.2822C1384.85 50.9385 1385.02 51.7327 1385.02 52.665ZM1378.5 52.665C1378.5 53.3525 1378.59 53.9489 1378.77 54.4541C1378.96 54.9593 1379.24 55.3499 1379.62 55.626C1380 55.902 1380.49 56.04 1381.09 56.04C1381.68 56.04 1382.17 55.902 1382.55 55.626C1382.93 55.3499 1383.22 54.9593 1383.4 54.4541C1383.58 53.9489 1383.67 53.3525 1383.67 52.665C1383.67 51.9827 1383.58 51.3942 1383.4 50.8994C1383.22 50.3994 1382.93 50.014 1382.55 49.7432C1382.17 49.4723 1381.68 49.3369 1381.08 49.3369C1380.19 49.3369 1379.53 49.6312 1379.12 50.2197C1378.71 50.8083 1378.5 51.6234 1378.5 52.665ZM1388.56 48.3994V51.9932H1393.34V48.3994H1394.63V56.9619H1393.34V53.0947H1388.56V56.9619H1387.26V48.3994H1388.56ZM1403.22 49.501H1400.4V56.9619H1399.12V49.501H1396.34V48.3994H1403.22V49.501ZM1408.12 48.2588C1409.14 48.2588 1409.9 48.488 1410.39 48.9463C1410.89 49.4046 1411.13 50.1364 1411.13 51.1416V56.9619H1410.19L1409.94 55.6963H1409.88C1409.64 56.0088 1409.39 56.2718 1409.12 56.4854C1408.86 56.6937 1408.56 56.8525 1408.22 56.9619C1407.88 57.0661 1407.46 57.1182 1406.97 57.1182C1406.45 57.1182 1405.98 57.027 1405.58 56.8447C1405.18 56.6624 1404.86 56.3864 1404.62 56.0166C1404.4 55.6468 1404.28 55.1781 1404.28 54.6104C1404.28 53.7562 1404.62 53.0999 1405.3 52.6416C1405.97 52.1833 1407.01 51.9333 1408.39 51.8916L1409.87 51.8291V51.3057C1409.87 50.5661 1409.71 50.0479 1409.39 49.751C1409.07 49.4541 1408.62 49.3057 1408.05 49.3057C1407.6 49.3057 1407.17 49.3708 1406.77 49.501C1406.36 49.6312 1405.97 49.7848 1405.61 49.9619L1405.21 48.9775C1405.6 48.7796 1406.04 48.6104 1406.54 48.4697C1407.04 48.3291 1407.57 48.2588 1408.12 48.2588ZM1409.85 52.7432L1408.55 52.7979C1407.48 52.8395 1406.73 53.014 1406.29 53.3213C1405.85 53.6286 1405.63 54.0635 1405.63 54.626C1405.63 55.1156 1405.78 55.4775 1406.08 55.7119C1406.38 55.9463 1406.77 56.0635 1407.26 56.0635C1408.02 56.0635 1408.64 55.8525 1409.12 55.4307C1409.61 55.0088 1409.85 54.376 1409.85 53.5322V52.7432ZM1418.8 48.3994H1420.23L1416.53 52.5322L1420.52 56.9619H1419L1415.11 52.6182V56.9619H1413.8V48.3994H1415.11V52.5557L1418.8 48.3994ZM1427.91 49.501H1425.09V56.9619H1423.8V49.501H1421.02V48.3994H1427.91V49.501ZM1429.6 56.9619V48.3994H1430.91V51.9307H1433.25C1433.98 51.9307 1434.58 52.0218 1435.05 52.2041C1435.52 52.3864 1435.87 52.6572 1436.1 53.0166C1436.33 53.376 1436.45 53.8213 1436.45 54.3525C1436.45 54.8838 1436.33 55.3447 1436.1 55.7354C1435.88 56.126 1435.52 56.4281 1435.04 56.6416C1434.56 56.8551 1433.93 56.9619 1433.16 56.9619H1429.6ZM1430.91 55.9072H1433.04C1433.68 55.9072 1434.2 55.7926 1434.59 55.5635C1434.97 55.3343 1435.16 54.9515 1435.16 54.415C1435.16 53.889 1434.98 53.5244 1434.62 53.3213C1434.27 53.113 1433.75 53.0088 1433.08 53.0088H1430.91V55.9072ZM1437.86 56.9619V48.3994H1439.16V56.9619H1437.86Z" fill="#868686"/>
</svg>
