<svg width="34" height="34" viewBox="0 0 34 34" fill="none" xmlns="http://www.w3.org/2000/svg">
<path fill-rule="evenodd" clip-rule="evenodd" d="M17 3.55566C17.5695 3.55566 18.0312 4.01737 18.0312 4.58691V8.09327H19.0625C20.2016 8.09327 21.125 9.01668 21.125 10.1558V23.5105C21.125 24.6496 20.2016 25.573 19.0625 25.573H18.0312V29.1431C18.0312 29.7126 17.5695 30.1744 17 30.1744C16.4305 30.1744 15.9688 29.7126 15.9688 29.1431V25.573H14.9375C13.7984 25.573 12.875 24.6496 12.875 23.5105V10.1558C12.875 9.01668 13.7984 8.09327 14.9375 8.09327H15.9688V4.58691C15.9688 4.01737 16.4305 3.55566 17 3.55566ZM19.0625 23.5105V10.1558H14.9375V23.5105H19.0625Z" fill="#FF2B00"/>
<path fill-rule="evenodd" clip-rule="evenodd" d="M6.6875 5.61816C7.25704 5.61816 7.71875 6.07987 7.71875 6.64941V10.1558H8.75C9.88909 10.1558 10.8125 11.0792 10.8125 12.2183V25.573C10.8125 26.7121 9.88909 27.6355 8.75 27.6355H7.71875V31.2056C7.71875 31.7751 7.25704 32.2369 6.6875 32.2369C6.11796 32.2369 5.65625 31.7751 5.65625 31.2056V27.6355H4.625C3.48591 27.6355 2.5625 26.7121 2.5625 25.573V12.2183C2.5625 11.0792 3.48591 10.1558 4.625 10.1558H5.65625V6.64941C5.65625 6.07987 6.11796 5.61816 6.6875 5.61816ZM8.75 25.573V12.2183H4.625V25.573H8.75Z" fill="#FF2B00"/>
<path fill-rule="evenodd" clip-rule="evenodd" d="M27.3125 1.49316C27.882 1.49316 28.3438 1.95487 28.3438 2.52441V6.03077H29.375C30.5141 6.03077 31.4375 6.95418 31.4375 8.09327V21.448C31.4375 22.5871 30.5141 23.5105 29.375 23.5105H28.3438V27.0806C28.3438 27.6501 27.882 28.1119 27.3125 28.1119C26.743 28.1119 26.2812 27.6501 26.2812 27.0806V23.5105H25.25C24.1109 23.5105 23.1875 22.5871 23.1875 21.448V8.09327C23.1875 6.95418 24.1109 6.03077 25.25 6.03077H26.2812V2.52441C26.2812 1.95487 26.743 1.49316 27.3125 1.49316ZM29.375 21.448V8.09327L25.25 8.09327V21.448H29.375Z" fill="#FF2B00"/>
</svg>
