<svg width="31" height="31" viewBox="0 0 31 31" fill="none" xmlns="http://www.w3.org/2000/svg">
<g clip-path="url(#clip0_25_1691)">
<path d="M15.5 30.9619C23.7843 30.9619 30.5 24.2462 30.5 15.9619C30.5 7.67764 23.7843 0.961914 15.5 0.961914C7.21573 0.961914 0.5 7.67764 0.5 15.9619C0.5 24.2462 7.21573 30.9619 15.5 30.9619Z" fill="url(#paint0_linear_25_1691)"/>
<path fill-rule="evenodd" clip-rule="evenodd" d="M7.2888 15.8034C11.6616 13.8982 14.5775 12.6422 16.0365 12.0354C20.2021 10.3027 21.0677 10.0017 21.6319 9.99181C21.756 9.98962 22.0334 10.0204 22.2131 10.1662C22.3649 10.2893 22.4066 10.4557 22.4266 10.5724C22.4466 10.6892 22.4715 10.9551 22.4517 11.1629C22.226 13.5348 21.2492 19.2906 20.7523 21.9471C20.542 23.0712 20.128 23.4481 19.7272 23.485C18.8561 23.5651 18.1946 22.9093 17.3509 22.3563C16.0308 21.4909 15.2849 20.9522 14.0034 20.1077C12.5225 19.1318 13.4825 18.5954 14.3265 17.7187C14.5474 17.4893 18.3854 13.9984 18.4597 13.6817C18.469 13.6421 18.4776 13.4945 18.3899 13.4165C18.3022 13.3386 18.1727 13.3652 18.0793 13.3864C17.9469 13.4165 15.8379 14.8105 11.7522 17.5684C11.1536 17.9794 10.6114 18.1797 10.1255 18.1692C9.58996 18.1577 8.55973 17.8664 7.79385 17.6175C6.85448 17.3121 6.10788 17.1507 6.17289 16.6321C6.20675 16.362 6.57872 16.0857 7.2888 15.8034Z" fill="white"/>
</g>
<defs>
<linearGradient id="paint0_linear_25_1691" x1="15.5" y1="0.961914" x2="15.5" y2="30.7394" gradientUnits="userSpaceOnUse">
<stop stop-color="#2AABEE"/>
<stop offset="1" stop-color="#229ED9"/>
</linearGradient>
<clipPath id="clip0_25_1691">
<rect width="30" height="30" fill="white" transform="translate(0.5 0.961914)"/>
</clipPath>
</defs>
</svg>
