<svg width="31" height="31" viewBox="0 0 31 31" fill="none" xmlns="http://www.w3.org/2000/svg">
<path fill-rule="evenodd" clip-rule="evenodd" d="M3.64585 10.3187C3.64564 10.3303 3.64564 10.3418 3.64585 10.3534V22.5244C3.64585 23.5599 4.48532 24.3994 5.52085 24.3994H26.1459C27.1814 24.3994 28.0209 23.5599 28.0209 22.5244V10.3525C28.021 10.3415 28.021 10.3305 28.0209 10.3195V9.39941C28.0209 8.36388 27.1814 7.52441 26.1459 7.52441H5.52085C4.48532 7.52441 3.64585 8.36388 3.64585 9.39941V10.3187ZM5.52085 9.39941H26.1459V9.80456L16.0729 15.814L5.52085 9.79249V9.39941ZM26.1459 11.9879V22.5244H5.52085V11.9513L15.6187 17.7137C15.9123 17.8812 16.2734 17.8777 16.5637 17.7045L26.1459 11.9879Z" fill="#FF2B00"/>
</svg>
