<svg width="286" height="246" viewBox="0 0 286 246" fill="none" xmlns="http://www.w3.org/2000/svg">
<g clip-path="url(#clip0_25_1592)">
<path d="M1.24999 53.5971L144.24 0.961916L286.25 53.5971L286.25 245.962L1.24996 245.962L1.24999 53.5971Z" fill="#F4F4F4"/>
<path d="M61.2891 75.9619L58.5391 67.001H58.4688C58.4792 67.2145 58.4948 67.5374 58.5156 67.9697C58.5417 68.3968 58.5651 68.8525 58.5859 69.3369C58.6068 69.8213 58.6172 70.2588 58.6172 70.6494V75.9619H56.4531V64.54H59.75L62.4531 73.2744H62.5L65.3672 64.54H68.6641V75.9619H66.4062V70.5557C66.4062 70.1963 66.4115 69.7822 66.4219 69.3135C66.4375 68.8447 66.4557 68.3994 66.4766 67.9775C66.4974 67.5505 66.513 67.2301 66.5234 67.0166H66.4531L63.5078 75.9619H61.2891ZM80.5078 64.54L76.625 75.9619H73.9844L70.1094 64.54H72.5547L74.7031 71.3369C74.7396 71.4515 74.7995 71.6676 74.8828 71.9854C74.9661 72.2979 75.0495 72.6312 75.1328 72.9854C75.2214 73.3343 75.2812 73.6234 75.3125 73.8525C75.3438 73.6234 75.3984 73.3343 75.4766 72.9854C75.5599 72.6364 75.6406 72.3057 75.7188 71.9932C75.8021 71.6755 75.862 71.4567 75.8984 71.3369L78.0625 64.54H80.5078ZM85.6016 64.54C87.0755 64.54 88.151 64.8577 88.8281 65.4932C89.5052 66.1234 89.8438 66.9932 89.8438 68.1025C89.8438 68.6025 89.7682 69.0817 89.6172 69.54C89.4661 69.9932 89.2188 70.3968 88.875 70.751C88.5365 71.1051 88.0833 71.3864 87.5156 71.5947C86.9479 71.7979 86.2474 71.8994 85.4141 71.8994H84.375V75.9619H81.9531V64.54H85.6016ZM85.4766 66.5244H84.375V69.915H85.1719C85.625 69.915 86.0182 69.8551 86.3516 69.7354C86.6849 69.6156 86.9427 69.4281 87.125 69.1729C87.3073 68.9176 87.3984 68.5895 87.3984 68.1885C87.3984 67.626 87.2422 67.2093 86.9297 66.9385C86.6172 66.6624 86.1328 66.5244 85.4766 66.5244ZM102 67.2275V69.0166H98.3516V75.9619H95.9688V67.2275H102ZM111.562 71.5791C111.562 72.3083 111.464 72.9541 111.266 73.5166C111.073 74.0791 110.789 74.5557 110.414 74.9463C110.044 75.3317 109.596 75.6234 109.07 75.8213C108.549 76.0192 107.961 76.1182 107.305 76.1182C106.69 76.1182 106.125 76.0192 105.609 75.8213C105.099 75.6234 104.654 75.3317 104.273 74.9463C103.898 74.5557 103.607 74.0791 103.398 73.5166C103.195 72.9541 103.094 72.3083 103.094 71.5791C103.094 70.6104 103.266 69.79 103.609 69.1182C103.953 68.4463 104.443 67.9359 105.078 67.5869C105.714 67.238 106.471 67.0635 107.352 67.0635C108.169 67.0635 108.893 67.238 109.523 67.5869C110.159 67.9359 110.656 68.4463 111.016 69.1182C111.38 69.79 111.562 70.6104 111.562 71.5791ZM105.523 71.5791C105.523 72.152 105.586 72.6338 105.711 73.0244C105.836 73.415 106.031 73.7093 106.297 73.9072C106.562 74.1051 106.909 74.2041 107.336 74.2041C107.758 74.2041 108.099 74.1051 108.359 73.9072C108.625 73.7093 108.818 73.415 108.938 73.0244C109.062 72.6338 109.125 72.152 109.125 71.5791C109.125 71.001 109.062 70.5218 108.938 70.1416C108.818 69.7562 108.625 69.4671 108.359 69.2744C108.094 69.0817 107.747 68.9854 107.32 68.9854C106.69 68.9854 106.232 69.2015 105.945 69.6338C105.664 70.0661 105.523 70.7145 105.523 71.5791ZM120.758 69.0166H117.898V75.9619H115.516V69.0166H112.648V67.2275H120.758V69.0166ZM130.328 71.5791C130.328 72.3083 130.229 72.9541 130.031 73.5166C129.839 74.0791 129.555 74.5557 129.18 74.9463C128.81 75.3317 128.362 75.6234 127.836 75.8213C127.315 76.0192 126.727 76.1182 126.07 76.1182C125.456 76.1182 124.891 76.0192 124.375 75.8213C123.865 75.6234 123.419 75.3317 123.039 74.9463C122.664 74.5557 122.372 74.0791 122.164 73.5166C121.961 72.9541 121.859 72.3083 121.859 71.5791C121.859 70.6104 122.031 69.79 122.375 69.1182C122.719 68.4463 123.208 67.9359 123.844 67.5869C124.479 67.238 125.237 67.0635 126.117 67.0635C126.935 67.0635 127.659 67.238 128.289 67.5869C128.924 67.9359 129.422 68.4463 129.781 69.1182C130.146 69.79 130.328 70.6104 130.328 71.5791ZM124.289 71.5791C124.289 72.152 124.352 72.6338 124.477 73.0244C124.602 73.415 124.797 73.7093 125.062 73.9072C125.328 74.1051 125.674 74.2041 126.102 74.2041C126.523 74.2041 126.865 74.1051 127.125 73.9072C127.391 73.7093 127.583 73.415 127.703 73.0244C127.828 72.6338 127.891 72.152 127.891 71.5791C127.891 71.001 127.828 70.5218 127.703 70.1416C127.583 69.7562 127.391 69.4671 127.125 69.2744C126.859 69.0817 126.513 68.9854 126.086 68.9854C125.456 68.9854 124.997 69.2015 124.711 69.6338C124.43 70.0661 124.289 70.7145 124.289 71.5791ZM140.039 69.5166C140.039 69.9854 139.891 70.3864 139.594 70.7197C139.302 71.0479 138.87 71.2588 138.297 71.3525V71.415C138.901 71.488 139.388 71.6989 139.758 72.0479C140.128 72.3916 140.312 72.8265 140.312 73.3525C140.312 73.8525 140.182 74.3005 139.922 74.6963C139.661 75.0869 139.247 75.3968 138.68 75.626C138.112 75.8499 137.37 75.9619 136.453 75.9619H132.297V67.2275H136.453C137.135 67.2275 137.747 67.3005 138.289 67.4463C138.831 67.5869 139.258 67.8239 139.57 68.1572C139.883 68.4906 140.039 68.9437 140.039 69.5166ZM137.844 73.2275C137.844 72.8838 137.708 72.6364 137.438 72.4854C137.172 72.3291 136.776 72.251 136.25 72.251H134.68V74.3135H136.297C136.745 74.3135 137.115 74.2301 137.406 74.0635C137.698 73.8968 137.844 73.6182 137.844 73.2275ZM137.625 69.7041C137.625 69.4333 137.518 69.2327 137.305 69.1025C137.091 68.9723 136.776 68.9072 136.359 68.9072H134.68V70.6338H136.086C136.591 70.6338 136.974 70.5609 137.234 70.415C137.495 70.2692 137.625 70.0322 137.625 69.7041ZM152.242 67.2275H154.867L151.406 71.415L155.172 75.9619H152.469L148.898 71.5322V75.9619H146.516V67.2275H148.898V71.4697L152.242 67.2275ZM160.047 70.7275C160.047 69.4411 160.206 68.3473 160.523 67.4463C160.841 66.5452 161.346 65.8265 162.039 65.29C162.732 64.7484 163.641 64.3812 164.766 64.1885C165.328 64.0895 165.898 64.0088 166.477 63.9463C167.06 63.8786 167.664 63.8031 168.289 63.7197L168.562 65.8057C168.292 65.8369 167.997 65.8708 167.68 65.9072C167.362 65.9437 167.042 65.9827 166.719 66.0244C166.396 66.0609 166.083 66.0999 165.781 66.1416C165.479 66.1781 165.206 66.2145 164.961 66.251C164.43 66.3343 163.987 66.4645 163.633 66.6416C163.279 66.8187 163.008 67.0999 162.82 67.4854C162.633 67.8708 162.518 68.4255 162.477 69.1494H162.594C162.719 68.9515 162.896 68.751 163.125 68.5479C163.354 68.3395 163.638 68.1676 163.977 68.0322C164.315 67.8916 164.706 67.8213 165.148 67.8213C165.846 67.8213 166.451 67.9645 166.961 68.251C167.471 68.5374 167.865 68.9645 168.141 69.5322C168.422 70.0947 168.562 70.7979 168.562 71.6416C168.562 72.6312 168.38 73.4593 168.016 74.126C167.656 74.7874 167.156 75.2848 166.516 75.6182C165.875 75.9515 165.133 76.1182 164.289 76.1182C163.643 76.1182 163.06 76.001 162.539 75.7666C162.018 75.5322 161.57 75.1859 161.195 74.7275C160.826 74.2692 160.542 73.7067 160.344 73.04C160.146 72.3682 160.047 71.5973 160.047 70.7275ZM164.43 74.1885C164.768 74.1885 165.062 74.1156 165.312 73.9697C165.568 73.8187 165.766 73.5739 165.906 73.2354C166.052 72.8916 166.125 72.4307 166.125 71.8525C166.125 71.1546 166.008 70.6025 165.773 70.1963C165.544 69.7848 165.151 69.5791 164.594 69.5791C164.255 69.5791 163.938 69.6624 163.641 69.8291C163.349 69.9906 163.102 70.1781 162.898 70.3916C162.695 70.5999 162.555 70.777 162.477 70.9229C162.477 71.3343 162.508 71.7354 162.57 72.126C162.638 72.5114 162.745 72.8604 162.891 73.1729C163.036 73.4854 163.234 73.7327 163.484 73.915C163.74 74.0973 164.055 74.1885 164.43 74.1885ZM178.469 71.5791C178.469 72.3083 178.37 72.9541 178.172 73.5166C177.979 74.0791 177.695 74.5557 177.32 74.9463C176.951 75.3317 176.503 75.6234 175.977 75.8213C175.456 76.0192 174.867 76.1182 174.211 76.1182C173.596 76.1182 173.031 76.0192 172.516 75.8213C172.005 75.6234 171.56 75.3317 171.18 74.9463C170.805 74.5557 170.513 74.0791 170.305 73.5166C170.102 72.9541 170 72.3083 170 71.5791C170 70.6104 170.172 69.79 170.516 69.1182C170.859 68.4463 171.349 67.9359 171.984 67.5869C172.62 67.238 173.378 67.0635 174.258 67.0635C175.076 67.0635 175.799 67.238 176.43 67.5869C177.065 67.9359 177.562 68.4463 177.922 69.1182C178.286 69.79 178.469 70.6104 178.469 71.5791ZM172.43 71.5791C172.43 72.152 172.492 72.6338 172.617 73.0244C172.742 73.415 172.938 73.7093 173.203 73.9072C173.469 74.1051 173.815 74.2041 174.242 74.2041C174.664 74.2041 175.005 74.1051 175.266 73.9072C175.531 73.7093 175.724 73.415 175.844 73.0244C175.969 72.6338 176.031 72.152 176.031 71.5791C176.031 71.001 175.969 70.5218 175.844 70.1416C175.724 69.7562 175.531 69.4671 175.266 69.2744C175 69.0817 174.654 68.9854 174.227 68.9854C173.596 68.9854 173.138 69.2015 172.852 69.6338C172.57 70.0661 172.43 70.7145 172.43 71.5791ZM184.039 67.0635C184.846 67.0635 185.542 67.2197 186.125 67.5322C186.708 67.8395 187.159 68.2874 187.477 68.876C187.794 69.4645 187.953 70.1833 187.953 71.0322V72.1885H182.32C182.346 72.8604 182.547 73.389 182.922 73.7744C183.302 74.1546 183.828 74.3447 184.5 74.3447C185.057 74.3447 185.568 74.2874 186.031 74.1729C186.495 74.0583 186.971 73.8864 187.461 73.6572V75.501C187.029 75.7145 186.576 75.8708 186.102 75.9697C185.633 76.0687 185.062 76.1182 184.391 76.1182C183.516 76.1182 182.74 75.9567 182.062 75.6338C181.391 75.3109 180.862 74.8187 180.477 74.1572C180.096 73.4958 179.906 72.6624 179.906 71.6572C179.906 70.6364 180.078 69.7874 180.422 69.1104C180.771 68.4281 181.255 67.9176 181.875 67.5791C182.495 67.2354 183.216 67.0635 184.039 67.0635ZM184.055 68.7588C183.591 68.7588 183.206 68.9072 182.898 69.2041C182.596 69.501 182.422 69.9671 182.375 70.6025H185.719C185.714 70.2484 185.648 69.9333 185.523 69.6572C185.404 69.3812 185.221 69.1624 184.977 69.001C184.737 68.8395 184.43 68.7588 184.055 68.7588ZM197.633 69.5166C197.633 69.9854 197.484 70.3864 197.188 70.7197C196.896 71.0479 196.464 71.2588 195.891 71.3525V71.415C196.495 71.488 196.982 71.6989 197.352 72.0479C197.721 72.3916 197.906 72.8265 197.906 73.3525C197.906 73.8525 197.776 74.3005 197.516 74.6963C197.255 75.0869 196.841 75.3968 196.273 75.626C195.706 75.8499 194.964 75.9619 194.047 75.9619H189.891V67.2275H194.047C194.729 67.2275 195.341 67.3005 195.883 67.4463C196.424 67.5869 196.852 67.8239 197.164 68.1572C197.477 68.4906 197.633 68.9437 197.633 69.5166ZM195.438 73.2275C195.438 72.8838 195.302 72.6364 195.031 72.4854C194.766 72.3291 194.37 72.251 193.844 72.251H192.273V74.3135H193.891C194.339 74.3135 194.708 74.2301 195 74.0635C195.292 73.8968 195.438 73.6182 195.438 73.2275ZM195.219 69.7041C195.219 69.4333 195.112 69.2327 194.898 69.1025C194.685 68.9723 194.37 68.9072 193.953 68.9072H192.273V70.6338H193.68C194.185 70.6338 194.568 70.5609 194.828 70.415C195.089 70.2692 195.219 70.0322 195.219 69.7041ZM207.891 71.5791C207.891 72.3083 207.792 72.9541 207.594 73.5166C207.401 74.0791 207.117 74.5557 206.742 74.9463C206.372 75.3317 205.924 75.6234 205.398 75.8213C204.878 76.0192 204.289 76.1182 203.633 76.1182C203.018 76.1182 202.453 76.0192 201.938 75.8213C201.427 75.6234 200.982 75.3317 200.602 74.9463C200.227 74.5557 199.935 74.0791 199.727 73.5166C199.523 72.9541 199.422 72.3083 199.422 71.5791C199.422 70.6104 199.594 69.79 199.938 69.1182C200.281 68.4463 200.771 67.9359 201.406 67.5869C202.042 67.238 202.799 67.0635 203.68 67.0635C204.497 67.0635 205.221 67.238 205.852 67.5869C206.487 67.9359 206.984 68.4463 207.344 69.1182C207.708 69.79 207.891 70.6104 207.891 71.5791ZM201.852 71.5791C201.852 72.152 201.914 72.6338 202.039 73.0244C202.164 73.415 202.359 73.7093 202.625 73.9072C202.891 74.1051 203.237 74.2041 203.664 74.2041C204.086 74.2041 204.427 74.1051 204.688 73.9072C204.953 73.7093 205.146 73.415 205.266 73.0244C205.391 72.6338 205.453 72.152 205.453 71.5791C205.453 71.001 205.391 70.5218 205.266 70.1416C205.146 69.7562 204.953 69.4671 204.688 69.2744C204.422 69.0817 204.076 68.9854 203.648 68.9854C203.018 68.9854 202.56 69.2015 202.273 69.6338C201.992 70.0661 201.852 70.7145 201.852 71.5791ZM220.867 67.2275V75.9619H218.641V71.6729C218.641 71.251 218.648 70.8369 218.664 70.4307C218.68 70.0244 218.703 69.6494 218.734 69.3057H218.688L216.273 75.9619H214.484L212.031 69.29H211.969C212.01 69.639 212.039 70.014 212.055 70.415C212.07 70.8161 212.078 71.2562 212.078 71.7354V75.9619H209.859V67.2275H213.234L215.406 73.1494L217.617 67.2275H220.867ZM222.125 67.2275H224.734L226.383 72.1416C226.435 72.2979 226.479 72.4567 226.516 72.6182C226.552 72.7796 226.583 72.9463 226.609 73.1182C226.635 73.29 226.656 73.4697 226.672 73.6572H226.719C226.75 73.376 226.792 73.113 226.844 72.8682C226.901 72.6234 226.971 72.3812 227.055 72.1416L228.672 67.2275H231.227L227.531 77.0791C227.307 77.6833 227.016 78.1859 226.656 78.5869C226.297 78.9932 225.883 79.2979 225.414 79.501C224.951 79.7041 224.44 79.8057 223.883 79.8057C223.612 79.8057 223.378 79.79 223.18 79.7588C222.982 79.7327 222.812 79.7041 222.672 79.6729V77.7822C222.781 77.8083 222.919 77.8317 223.086 77.8525C223.253 77.8734 223.427 77.8838 223.609 77.8838C223.943 77.8838 224.229 77.8135 224.469 77.6729C224.708 77.5322 224.909 77.3421 225.07 77.1025C225.232 76.8682 225.359 76.6104 225.453 76.3291L225.594 75.8994L222.125 67.2275ZM114.875 85.0635C115.505 85.0635 116.094 85.1468 116.641 85.3135C117.188 85.4749 117.63 85.7275 117.969 86.0713C118.307 86.4098 118.477 86.8473 118.477 87.3838C118.477 87.9098 118.318 88.3291 118 88.6416C117.682 88.9489 117.26 89.1702 116.734 89.3057V89.3838C117.104 89.4723 117.438 89.5921 117.734 89.7432C118.036 89.8942 118.276 90.1025 118.453 90.3682C118.63 90.6338 118.719 90.9827 118.719 91.415C118.719 91.8994 118.565 92.3473 118.258 92.7588C117.951 93.165 117.479 93.4932 116.844 93.7432C116.214 93.9932 115.404 94.1182 114.414 94.1182C113.945 94.1182 113.503 94.0973 113.086 94.0557C112.674 94.014 112.297 93.9541 111.953 93.876C111.609 93.7926 111.31 93.6937 111.055 93.5791V91.6104C111.414 91.777 111.857 91.9307 112.383 92.0713C112.914 92.2119 113.479 92.2822 114.078 92.2822C114.51 92.2822 114.901 92.251 115.25 92.1885C115.604 92.126 115.883 92.0218 116.086 91.876C116.294 91.7249 116.398 91.5244 116.398 91.2744C116.398 91.04 116.307 90.8473 116.125 90.6963C115.948 90.54 115.674 90.4255 115.305 90.3525C114.94 90.2744 114.477 90.2354 113.914 90.2354H112.992V88.5869H113.867C114.659 88.5869 115.271 88.5218 115.703 88.3916C116.135 88.2614 116.352 88.0218 116.352 87.6729C116.352 87.3916 116.214 87.1807 115.938 87.04C115.661 86.8994 115.206 86.8291 114.57 86.8291C114.159 86.8291 113.706 86.8786 113.211 86.9775C112.716 87.0713 112.253 87.2067 111.82 87.3838L111.117 85.7197C111.622 85.527 112.169 85.3708 112.758 85.251C113.352 85.126 114.057 85.0635 114.875 85.0635ZM124.164 85.0479C125.336 85.0479 126.234 85.3031 126.859 85.8135C127.484 86.3239 127.797 87.0999 127.797 88.1416V93.9619H126.133L125.672 92.7744H125.609C125.359 93.0869 125.104 93.3421 124.844 93.54C124.583 93.738 124.284 93.8838 123.945 93.9775C123.607 94.0713 123.195 94.1182 122.711 94.1182C122.195 94.1182 121.732 94.0192 121.32 93.8213C120.914 93.6234 120.594 93.3213 120.359 92.915C120.125 92.5036 120.008 91.9827 120.008 91.3525C120.008 90.4255 120.333 89.7432 120.984 89.3057C121.635 88.863 122.612 88.6182 123.914 88.5713L125.43 88.5244V88.1416C125.43 87.6833 125.31 87.3473 125.07 87.1338C124.831 86.9202 124.497 86.8135 124.07 86.8135C123.648 86.8135 123.234 86.8734 122.828 86.9932C122.422 87.113 122.016 87.264 121.609 87.4463L120.82 85.8369C121.284 85.5921 121.802 85.3994 122.375 85.2588C122.953 85.1182 123.549 85.0479 124.164 85.0479ZM125.43 89.915L124.508 89.9463C123.737 89.9671 123.201 90.1051 122.898 90.3604C122.602 90.6156 122.453 90.9515 122.453 91.3682C122.453 91.7327 122.56 91.9932 122.773 92.1494C122.987 92.3005 123.266 92.376 123.609 92.376C124.12 92.376 124.549 92.2249 124.898 91.9229C125.253 91.6208 125.43 91.1911 125.43 90.6338V89.915ZM138.195 85.2275V93.9619H135.805V87.0166H132.641V93.9619H130.258V85.2275H138.195ZM139.445 85.2275H142.055L143.703 90.1416C143.755 90.2979 143.799 90.4567 143.836 90.6182C143.872 90.7796 143.904 90.9463 143.93 91.1182C143.956 91.29 143.977 91.4697 143.992 91.6572H144.039C144.07 91.376 144.112 91.113 144.164 90.8682C144.221 90.6234 144.292 90.3812 144.375 90.1416L145.992 85.2275H148.547L144.852 95.0791C144.628 95.6833 144.336 96.1859 143.977 96.5869C143.617 96.9932 143.203 97.2979 142.734 97.501C142.271 97.7041 141.76 97.8057 141.203 97.8057C140.932 97.8057 140.698 97.79 140.5 97.7588C140.302 97.7327 140.133 97.7041 139.992 97.6729V95.7822C140.102 95.8083 140.24 95.8317 140.406 95.8525C140.573 95.8734 140.747 95.8838 140.93 95.8838C141.263 95.8838 141.549 95.8135 141.789 95.6729C142.029 95.5322 142.229 95.3421 142.391 95.1025C142.552 94.8682 142.68 94.6104 142.773 94.3291L142.914 93.8994L139.445 85.2275ZM153.352 94.1182C152.487 94.1182 151.75 93.9619 151.141 93.6494C150.531 93.3317 150.068 92.8421 149.75 92.1807C149.432 91.5192 149.273 90.6729 149.273 89.6416C149.273 88.5739 149.453 87.7041 149.812 87.0322C150.177 86.3551 150.68 85.8577 151.32 85.54C151.966 85.2223 152.714 85.0635 153.562 85.0635C154.167 85.0635 154.688 85.1234 155.125 85.2432C155.568 85.3577 155.953 85.4958 156.281 85.6572L155.578 87.501C155.203 87.3499 154.854 87.2275 154.531 87.1338C154.208 87.0348 153.885 86.9854 153.562 86.9854C153.146 86.9854 152.799 87.0843 152.523 87.2822C152.247 87.4749 152.042 87.7666 151.906 88.1572C151.771 88.5479 151.703 89.0374 151.703 89.626C151.703 90.2041 151.776 90.6833 151.922 91.0635C152.068 91.4437 152.279 91.7275 152.555 91.915C152.831 92.0973 153.167 92.1885 153.562 92.1885C154.057 92.1885 154.497 92.1234 154.883 91.9932C155.268 91.8577 155.643 91.6702 156.008 91.4307V93.4697C155.643 93.6989 155.26 93.863 154.859 93.9619C154.464 94.0661 153.961 94.1182 153.352 94.1182ZM163.766 85.2275H166.391L162.93 89.415L166.695 93.9619H163.992L160.422 89.5322V93.9619H158.039V85.2275H160.422V89.4697L163.766 85.2275ZM166.695 85.2275H169.305L170.953 90.1416C171.005 90.2979 171.049 90.4567 171.086 90.6182C171.122 90.7796 171.154 90.9463 171.18 91.1182C171.206 91.29 171.227 91.4697 171.242 91.6572H171.289C171.32 91.376 171.362 91.113 171.414 90.8682C171.471 90.6234 171.542 90.3812 171.625 90.1416L173.242 85.2275H175.797L172.102 95.0791C171.878 95.6833 171.586 96.1859 171.227 96.5869C170.867 96.9932 170.453 97.2979 169.984 97.501C169.521 97.7041 169.01 97.8057 168.453 97.8057C168.182 97.8057 167.948 97.79 167.75 97.7588C167.552 97.7327 167.383 97.7041 167.242 97.6729V95.7822C167.352 95.8083 167.49 95.8317 167.656 95.8525C167.823 95.8734 167.997 95.8838 168.18 95.8838C168.513 95.8838 168.799 95.8135 169.039 95.6729C169.279 95.5322 169.479 95.3421 169.641 95.1025C169.802 94.8682 169.93 94.6104 170.023 94.3291L170.164 93.8994L166.695 85.2275Z" fill="black"/>
<path fill-rule="evenodd" clip-rule="evenodd" d="M42.9525 122.781C43.1906 123.031 43.1811 123.426 42.9312 123.664L34.6296 131.575L29.5688 126.753C29.3189 126.514 29.3094 126.119 29.5475 125.869C29.7857 125.619 30.1813 125.61 30.4312 125.848L34.6296 129.849L42.0688 122.759C42.3187 122.521 42.7143 122.531 42.9525 122.781Z" fill="#25DE85"/>
<path d="M74.2285 121.968C75.5182 121.968 76.4593 122.221 77.0518 122.727C77.6488 123.228 77.9473 123.948 77.9473 124.887C77.9473 125.311 77.8766 125.714 77.7354 126.097C77.5986 126.475 77.3753 126.81 77.0654 127.102C76.7555 127.389 76.3477 127.617 75.8418 127.785C75.3405 127.949 74.7253 128.031 73.9961 128.031H72.7793V131.962H71.6172V121.968H74.2285ZM74.1191 122.959H72.7793V127.033H73.8662C74.5042 127.033 75.0352 126.965 75.459 126.828C75.8874 126.691 76.2087 126.47 76.4229 126.165C76.637 125.855 76.7441 125.445 76.7441 124.935C76.7441 124.269 76.5322 123.775 76.1084 123.451C75.6846 123.123 75.0215 122.959 74.1191 122.959ZM82.6709 124.347C83.5641 124.347 84.2272 124.547 84.6602 124.948C85.0931 125.349 85.3096 125.99 85.3096 126.869V131.962H84.4824L84.2637 130.854H84.209C83.9993 131.128 83.7806 131.358 83.5527 131.545C83.3249 131.727 83.0605 131.866 82.7598 131.962C82.4635 132.053 82.099 132.099 81.666 132.099C81.2103 132.099 80.8047 132.019 80.4492 131.859C80.0983 131.7 79.8203 131.458 79.6152 131.135C79.4147 130.811 79.3145 130.401 79.3145 129.904C79.3145 129.157 79.6107 128.583 80.2031 128.182C80.7956 127.781 81.6979 127.562 82.9102 127.525L84.2021 127.471V127.013C84.2021 126.366 84.0632 125.912 83.7852 125.652C83.5072 125.393 83.1152 125.263 82.6094 125.263C82.2174 125.263 81.8438 125.32 81.4883 125.434C81.1328 125.548 80.7956 125.682 80.4766 125.837L80.1279 124.976C80.4652 124.802 80.8525 124.654 81.29 124.531C81.7275 124.408 82.1878 124.347 82.6709 124.347ZM84.1885 128.271L83.0469 128.318C82.1126 128.355 81.4541 128.507 81.0713 128.776C80.6885 129.045 80.4971 129.426 80.4971 129.918C80.4971 130.346 80.627 130.663 80.8867 130.868C81.1465 131.073 81.4906 131.176 81.9189 131.176C82.5843 131.176 83.1289 130.991 83.5527 130.622C83.9766 130.253 84.1885 129.699 84.1885 128.961V128.271ZM89.5752 124.333C90.1357 124.333 90.6211 124.41 91.0312 124.565C91.4414 124.716 91.7581 124.937 91.9814 125.229C92.2048 125.52 92.3164 125.876 92.3164 126.295C92.3164 126.746 92.1934 127.106 91.9473 127.375C91.7012 127.644 91.3617 127.838 90.9287 127.956V128.011C91.234 128.093 91.5098 128.211 91.7559 128.366C92.0065 128.517 92.2048 128.717 92.3506 128.968C92.501 129.214 92.5762 129.521 92.5762 129.891C92.5762 130.31 92.4622 130.688 92.2344 131.025C92.0065 131.358 91.6602 131.62 91.1953 131.812C90.7305 132.003 90.1426 132.099 89.4316 132.099C89.0807 132.099 88.748 132.078 88.4336 132.037C88.1191 132.001 87.8343 131.946 87.5791 131.873C87.3239 131.8 87.1006 131.714 86.9092 131.613V130.581C87.2282 130.736 87.6019 130.873 88.0303 130.991C88.4587 131.11 88.9212 131.169 89.418 131.169C89.8008 131.169 90.1449 131.126 90.4502 131.039C90.7555 130.948 90.9971 130.804 91.1748 130.608C91.3571 130.408 91.4482 130.146 91.4482 129.822C91.4482 129.526 91.3685 129.282 91.209 129.091C91.0495 128.895 90.8102 128.751 90.4912 128.66C90.1768 128.564 89.778 128.517 89.2949 128.517H88.29V127.587H89.1172C89.7598 127.587 90.2725 127.496 90.6553 127.313C91.0381 127.131 91.2295 126.824 91.2295 126.391C91.2295 126.017 91.0814 125.739 90.7852 125.557C90.4889 125.37 90.0651 125.276 89.5137 125.276C89.1035 125.276 88.7412 125.32 88.4268 125.406C88.1123 125.488 87.7728 125.607 87.4082 125.762L87.0049 124.853C87.3968 124.679 87.807 124.549 88.2354 124.463C88.6637 124.376 89.1104 124.333 89.5752 124.333ZM97.9355 124.333C98.8698 124.333 99.6149 124.654 100.171 125.297C100.727 125.939 101.005 126.906 101.005 128.195C101.005 129.048 100.877 129.763 100.622 130.342C100.367 130.921 100.007 131.358 99.542 131.654C99.0817 131.951 98.5371 132.099 97.9082 132.099C97.5117 132.099 97.1631 132.046 96.8623 131.941C96.5615 131.837 96.304 131.695 96.0898 131.518C95.8757 131.34 95.6979 131.146 95.5566 130.937H95.4746C95.4883 131.114 95.5042 131.328 95.5225 131.579C95.5452 131.83 95.5566 132.049 95.5566 132.235V135.312H94.415V124.47H95.3516L95.502 125.577H95.5566C95.7025 125.349 95.8802 125.142 96.0898 124.955C96.2995 124.764 96.5547 124.613 96.8555 124.504C97.1608 124.39 97.5208 124.333 97.9355 124.333ZM97.7373 125.29C97.2178 125.29 96.7985 125.39 96.4795 125.591C96.165 125.791 95.9349 126.092 95.7891 126.493C95.6432 126.89 95.5658 127.389 95.5566 127.99V128.209C95.5566 128.842 95.625 129.378 95.7617 129.815C95.903 130.253 96.1331 130.586 96.4521 130.813C96.7757 131.041 97.2087 131.155 97.751 131.155C98.2158 131.155 98.6032 131.03 98.9131 130.779C99.223 130.529 99.4531 130.18 99.6035 129.733C99.7585 129.282 99.8359 128.765 99.8359 128.182C99.8359 127.298 99.6628 126.596 99.3164 126.076C98.9746 125.552 98.4482 125.29 97.7373 125.29ZM105.79 124.347C106.683 124.347 107.346 124.547 107.779 124.948C108.212 125.349 108.429 125.99 108.429 126.869V131.962H107.602L107.383 130.854H107.328C107.118 131.128 106.9 131.358 106.672 131.545C106.444 131.727 106.18 131.866 105.879 131.962C105.583 132.053 105.218 132.099 104.785 132.099C104.329 132.099 103.924 132.019 103.568 131.859C103.217 131.7 102.939 131.458 102.734 131.135C102.534 130.811 102.434 130.401 102.434 129.904C102.434 129.157 102.73 128.583 103.322 128.182C103.915 127.781 104.817 127.562 106.029 127.525L107.321 127.471V127.013C107.321 126.366 107.182 125.912 106.904 125.652C106.626 125.393 106.234 125.263 105.729 125.263C105.337 125.263 104.963 125.32 104.607 125.434C104.252 125.548 103.915 125.682 103.596 125.837L103.247 124.976C103.584 124.802 103.972 124.654 104.409 124.531C104.847 124.408 105.307 124.347 105.79 124.347ZM107.308 128.271L106.166 128.318C105.232 128.355 104.573 128.507 104.19 128.776C103.808 129.045 103.616 129.426 103.616 129.918C103.616 130.346 103.746 130.663 104.006 130.868C104.266 131.073 104.61 131.176 105.038 131.176C105.703 131.176 106.248 130.991 106.672 130.622C107.096 130.253 107.308 129.699 107.308 128.961V128.271ZM110.377 127.464C110.377 126.397 110.479 125.488 110.685 124.736C110.89 123.98 111.206 123.374 111.635 122.918C112.068 122.458 112.624 122.143 113.303 121.975C113.886 121.815 114.479 121.678 115.08 121.564C115.682 121.446 116.267 121.343 116.837 121.257L117.035 122.255C116.748 122.296 116.447 122.344 116.133 122.398C115.818 122.449 115.504 122.503 115.189 122.562C114.875 122.617 114.579 122.676 114.301 122.74C114.023 122.799 113.777 122.861 113.562 122.925C113.175 123.03 112.84 123.212 112.558 123.472C112.28 123.731 112.059 124.089 111.895 124.545C111.735 125.001 111.639 125.575 111.607 126.268H111.689C111.826 126.067 112.013 125.869 112.25 125.673C112.487 125.477 112.77 125.315 113.098 125.188C113.426 125.055 113.795 124.989 114.205 124.989C114.852 124.989 115.392 125.131 115.825 125.413C116.258 125.691 116.584 126.083 116.803 126.589C117.021 127.095 117.131 127.687 117.131 128.366C117.131 129.182 116.99 129.868 116.707 130.424C116.429 130.98 116.037 131.399 115.531 131.682C115.025 131.96 114.431 132.099 113.747 132.099C113.218 132.099 112.744 131.996 112.325 131.791C111.91 131.586 111.557 131.285 111.266 130.889C110.979 130.492 110.757 130.007 110.603 129.433C110.452 128.858 110.377 128.202 110.377 127.464ZM113.836 131.155C114.269 131.155 114.64 131.064 114.95 130.882C115.265 130.7 115.506 130.412 115.675 130.021C115.848 129.624 115.935 129.109 115.935 128.476C115.935 127.683 115.782 127.063 115.477 126.616C115.176 126.165 114.693 125.939 114.027 125.939C113.613 125.939 113.237 126.028 112.899 126.206C112.562 126.379 112.277 126.587 112.045 126.828C111.812 127.07 111.644 127.286 111.539 127.478C111.539 127.942 111.573 128.394 111.642 128.831C111.71 129.269 111.828 129.663 111.997 130.014C112.166 130.365 112.398 130.643 112.694 130.848C112.995 131.053 113.376 131.155 113.836 131.155ZM125.553 128.202C125.553 128.817 125.473 129.367 125.313 129.85C125.154 130.333 124.924 130.741 124.623 131.073C124.322 131.406 123.958 131.661 123.529 131.839C123.105 132.012 122.625 132.099 122.087 132.099C121.586 132.099 121.125 132.012 120.706 131.839C120.291 131.661 119.931 131.406 119.626 131.073C119.325 130.741 119.09 130.333 118.922 129.85C118.758 129.367 118.676 128.817 118.676 128.202C118.676 127.382 118.815 126.685 119.093 126.11C119.371 125.532 119.767 125.092 120.282 124.791C120.802 124.486 121.419 124.333 122.135 124.333C122.818 124.333 123.415 124.486 123.926 124.791C124.441 125.096 124.84 125.538 125.122 126.117C125.409 126.691 125.553 127.386 125.553 128.202ZM119.852 128.202C119.852 128.804 119.931 129.326 120.091 129.768C120.25 130.21 120.496 130.551 120.829 130.793C121.162 131.035 121.59 131.155 122.114 131.155C122.634 131.155 123.06 131.035 123.393 130.793C123.73 130.551 123.978 130.21 124.138 129.768C124.297 129.326 124.377 128.804 124.377 128.202C124.377 127.605 124.297 127.09 124.138 126.657C123.978 126.22 123.732 125.882 123.399 125.646C123.067 125.409 122.636 125.29 122.107 125.29C121.328 125.29 120.756 125.548 120.392 126.062C120.032 126.577 119.852 127.291 119.852 128.202ZM132.621 125.434H130.153V131.962H129.032V125.434H126.599V124.47H132.621V125.434ZM138.473 124.47H139.724L136.49 128.086L139.983 131.962H138.65L135.246 128.161V131.962H134.104V124.47H135.246V128.106L138.473 124.47ZM144.14 124.347C145.033 124.347 145.696 124.547 146.129 124.948C146.562 125.349 146.778 125.99 146.778 126.869V131.962H145.951L145.732 130.854H145.678C145.468 131.128 145.249 131.358 145.021 131.545C144.794 131.727 144.529 131.866 144.229 131.962C143.932 132.053 143.568 132.099 143.135 132.099C142.679 132.099 142.273 132.019 141.918 131.859C141.567 131.7 141.289 131.458 141.084 131.135C140.883 130.811 140.783 130.401 140.783 129.904C140.783 129.157 141.079 128.583 141.672 128.182C142.264 127.781 143.167 127.562 144.379 127.525L145.671 127.471V127.013C145.671 126.366 145.532 125.912 145.254 125.652C144.976 125.393 144.584 125.263 144.078 125.263C143.686 125.263 143.312 125.32 142.957 125.434C142.602 125.548 142.264 125.682 141.945 125.837L141.597 124.976C141.934 124.802 142.321 124.654 142.759 124.531C143.196 124.408 143.657 124.347 144.14 124.347ZM145.657 128.271L144.516 128.318C143.581 128.355 142.923 128.507 142.54 128.776C142.157 129.045 141.966 129.426 141.966 129.918C141.966 130.346 142.096 130.663 142.355 130.868C142.615 131.073 142.959 131.176 143.388 131.176C144.053 131.176 144.598 130.991 145.021 130.622C145.445 130.253 145.657 129.699 145.657 128.961V128.271ZM155.993 131.962H154.824V122.993H151.68V121.968H159.124V122.993H155.993V131.962ZM169.303 126.951C169.303 127.721 169.205 128.423 169.009 129.057C168.813 129.686 168.521 130.228 168.134 130.684C167.751 131.135 167.275 131.483 166.705 131.729C166.135 131.976 165.475 132.099 164.723 132.099C163.948 132.099 163.271 131.976 162.692 131.729C162.118 131.483 161.64 131.132 161.257 130.677C160.879 130.221 160.594 129.676 160.402 129.043C160.215 128.41 160.122 127.708 160.122 126.938C160.122 125.917 160.291 125.021 160.628 124.251C160.965 123.481 161.476 122.882 162.159 122.453C162.847 122.025 163.709 121.811 164.743 121.811C165.732 121.811 166.564 122.022 167.238 122.446C167.917 122.87 168.43 123.467 168.776 124.237C169.127 125.003 169.303 125.908 169.303 126.951ZM161.346 126.951C161.346 127.799 161.466 128.533 161.708 129.152C161.95 129.772 162.319 130.251 162.815 130.588C163.317 130.925 163.952 131.094 164.723 131.094C165.497 131.094 166.131 130.925 166.623 130.588C167.12 130.251 167.487 129.772 167.724 129.152C167.961 128.533 168.079 127.799 168.079 126.951C168.079 125.661 167.808 124.654 167.266 123.93C166.728 123.201 165.887 122.836 164.743 122.836C163.968 122.836 163.33 123.002 162.829 123.335C162.328 123.668 161.954 124.142 161.708 124.757C161.466 125.368 161.346 126.099 161.346 126.951ZM174.601 131.962H173.432V122.993H170.287V121.968H177.731V122.993H174.601V131.962ZM187.151 122.85C186.6 122.85 186.103 122.945 185.661 123.137C185.224 123.324 184.85 123.597 184.54 123.957C184.235 124.312 184 124.743 183.836 125.249C183.672 125.755 183.59 126.325 183.59 126.958C183.59 127.797 183.72 128.526 183.979 129.146C184.244 129.761 184.636 130.237 185.155 130.574C185.679 130.911 186.333 131.08 187.117 131.08C187.564 131.08 187.983 131.044 188.375 130.971C188.771 130.893 189.157 130.798 189.53 130.684V131.695C189.166 131.832 188.783 131.932 188.382 131.996C187.981 132.064 187.505 132.099 186.953 132.099C185.937 132.099 185.087 131.889 184.403 131.47C183.724 131.046 183.214 130.449 182.872 129.679C182.535 128.909 182.366 127.999 182.366 126.951C182.366 126.195 182.471 125.504 182.681 124.88C182.895 124.251 183.205 123.709 183.61 123.253C184.021 122.797 184.522 122.446 185.114 122.2C185.711 121.95 186.395 121.824 187.165 121.824C187.671 121.824 188.159 121.874 188.628 121.975C189.097 122.075 189.521 122.218 189.899 122.405L189.435 123.39C189.116 123.244 188.765 123.118 188.382 123.014C188.004 122.904 187.593 122.85 187.151 122.85ZM197.986 128.202C197.986 128.817 197.907 129.367 197.747 129.85C197.588 130.333 197.357 130.741 197.057 131.073C196.756 131.406 196.391 131.661 195.963 131.839C195.539 132.012 195.058 132.099 194.521 132.099C194.019 132.099 193.559 132.012 193.14 131.839C192.725 131.661 192.365 131.406 192.06 131.073C191.759 130.741 191.524 130.333 191.355 129.85C191.191 129.367 191.109 128.817 191.109 128.202C191.109 127.382 191.248 126.685 191.526 126.11C191.804 125.532 192.201 125.092 192.716 124.791C193.235 124.486 193.853 124.333 194.568 124.333C195.252 124.333 195.849 124.486 196.359 124.791C196.874 125.096 197.273 125.538 197.556 126.117C197.843 126.691 197.986 127.386 197.986 128.202ZM192.285 128.202C192.285 128.804 192.365 129.326 192.524 129.768C192.684 130.21 192.93 130.551 193.263 130.793C193.595 131.035 194.024 131.155 194.548 131.155C195.067 131.155 195.493 131.035 195.826 130.793C196.163 130.551 196.412 130.21 196.571 129.768C196.731 129.326 196.811 128.804 196.811 128.202C196.811 127.605 196.731 127.09 196.571 126.657C196.412 126.22 196.166 125.882 195.833 125.646C195.5 125.409 195.07 125.29 194.541 125.29C193.762 125.29 193.19 125.548 192.825 126.062C192.465 126.577 192.285 127.291 192.285 128.202ZM203.353 124.333C203.503 124.333 203.66 124.342 203.824 124.36C203.988 124.374 204.134 124.395 204.262 124.422L204.118 125.475C203.995 125.443 203.858 125.418 203.708 125.399C203.558 125.381 203.416 125.372 203.284 125.372C202.983 125.372 202.699 125.434 202.43 125.557C202.165 125.675 201.933 125.848 201.732 126.076C201.532 126.299 201.375 126.571 201.261 126.89C201.147 127.204 201.09 127.555 201.09 127.942V131.962H199.948V124.47H200.892L201.015 125.851H201.062C201.217 125.573 201.404 125.32 201.623 125.092C201.842 124.859 202.095 124.675 202.382 124.538C202.674 124.401 202.997 124.333 203.353 124.333ZM208.562 124.333C209.2 124.333 209.746 124.474 210.202 124.757C210.658 125.039 211.007 125.436 211.248 125.946C211.49 126.452 211.61 127.045 211.61 127.724V128.428H206.436C206.449 129.307 206.668 129.977 207.092 130.438C207.516 130.898 208.113 131.128 208.883 131.128C209.357 131.128 209.776 131.085 210.141 130.998C210.505 130.911 210.883 130.784 211.275 130.615V131.613C210.897 131.782 210.521 131.905 210.147 131.982C209.778 132.06 209.341 132.099 208.835 132.099C208.115 132.099 207.486 131.953 206.948 131.661C206.415 131.365 206 130.932 205.704 130.362C205.408 129.793 205.26 129.095 205.26 128.271C205.26 127.464 205.394 126.767 205.663 126.179C205.937 125.586 206.319 125.131 206.812 124.812C207.308 124.493 207.892 124.333 208.562 124.333ZM208.548 125.263C207.942 125.263 207.459 125.461 207.099 125.857C206.739 126.254 206.524 126.808 206.456 127.519H210.421C210.416 127.072 210.346 126.68 210.209 126.343C210.077 126.001 209.874 125.737 209.601 125.55C209.327 125.358 208.976 125.263 208.548 125.263ZM218.822 131.962L215.979 124.47H217.195L218.843 129.002C218.957 129.312 219.073 129.654 219.191 130.027C219.31 130.401 219.392 130.702 219.438 130.93H219.485C219.54 130.702 219.631 130.401 219.759 130.027C219.886 129.649 220.003 129.307 220.107 129.002L221.755 124.47H222.972L220.121 131.962H218.822ZM227.894 131.962H226.786V124.88C226.786 124.611 226.786 124.381 226.786 124.189C226.791 123.993 226.795 123.816 226.8 123.656C226.809 123.492 226.82 123.326 226.834 123.157C226.693 123.303 226.561 123.428 226.438 123.533C226.314 123.633 226.162 123.759 225.979 123.909L224.838 124.825L224.243 124.053L226.95 121.968H227.894V131.962Z" fill="#868686"/>
<path fill-rule="evenodd" clip-rule="evenodd" d="M42.9525 160.781C43.1906 161.031 43.1811 161.426 42.9312 161.664L34.6296 169.575L29.5688 164.753C29.3189 164.514 29.3094 164.119 29.5475 163.869C29.7857 163.619 30.1813 163.61 30.4312 163.848L34.6296 167.849L42.0688 160.759C42.3187 160.521 42.7143 160.531 42.9525 160.781Z" fill="#25DE85"/>
<path d="M71.6309 151.968H72.7178V157.744C72.7178 157.963 72.7155 158.202 72.7109 158.462C72.7064 158.717 72.6995 158.968 72.6904 159.214C72.6813 159.46 72.6699 159.683 72.6562 159.884C72.6471 160.084 72.638 160.239 72.6289 160.349H72.6836L78.248 151.968H79.5264V161.962H78.4395V156.254C78.4395 156.012 78.444 155.757 78.4531 155.488C78.4622 155.215 78.4714 154.951 78.4805 154.695C78.4941 154.44 78.5078 154.212 78.5215 154.012C78.5352 153.807 78.5443 153.649 78.5488 153.54H78.4873L72.916 161.962H71.6309V151.968ZM83.2246 154.47V157.614H87.4014V154.47H88.5361V161.962H87.4014V158.578H83.2246V161.962H82.083V154.47H83.2246ZM96.0488 155.434H93.5811V161.962H92.46V155.434H90.0264V154.47H96.0488V155.434ZM100.417 154.333C101.055 154.333 101.602 154.474 102.058 154.757C102.513 155.039 102.862 155.436 103.104 155.946C103.345 156.452 103.466 157.045 103.466 157.724V158.428H98.291C98.3047 159.307 98.5234 159.977 98.9473 160.438C99.3711 160.898 99.9681 161.128 100.738 161.128C101.212 161.128 101.632 161.085 101.996 160.998C102.361 160.911 102.739 160.784 103.131 160.615V161.613C102.753 161.782 102.377 161.905 102.003 161.982C101.634 162.06 101.196 162.099 100.69 162.099C99.9704 162.099 99.3415 161.953 98.8037 161.661C98.2705 161.365 97.8558 160.932 97.5596 160.362C97.2633 159.793 97.1152 159.095 97.1152 158.271C97.1152 157.464 97.2497 156.767 97.5186 156.179C97.792 155.586 98.1748 155.131 98.667 154.812C99.1637 154.493 99.7471 154.333 100.417 154.333ZM100.403 155.263C99.7972 155.263 99.3141 155.461 98.9541 155.857C98.5941 156.254 98.3799 156.808 98.3115 157.519H102.276C102.272 157.072 102.201 156.68 102.064 156.343C101.932 156.001 101.729 155.737 101.456 155.55C101.183 155.358 100.832 155.263 100.403 155.263ZM109.939 154.47V155.434H106.535V161.962H105.394V154.47H109.939ZM114.957 154.333C115.891 154.333 116.636 154.654 117.192 155.297C117.748 155.939 118.026 156.906 118.026 158.195C118.026 159.048 117.899 159.763 117.644 160.342C117.388 160.921 117.028 161.358 116.563 161.654C116.103 161.951 115.559 162.099 114.93 162.099C114.533 162.099 114.185 162.046 113.884 161.941C113.583 161.837 113.326 161.695 113.111 161.518C112.897 161.34 112.719 161.146 112.578 160.937H112.496C112.51 161.114 112.526 161.328 112.544 161.579C112.567 161.83 112.578 162.049 112.578 162.235V165.312H111.437V154.47H112.373L112.523 155.577H112.578C112.724 155.349 112.902 155.142 113.111 154.955C113.321 154.764 113.576 154.613 113.877 154.504C114.182 154.39 114.542 154.333 114.957 154.333ZM114.759 155.29C114.239 155.29 113.82 155.39 113.501 155.591C113.187 155.791 112.956 156.092 112.811 156.493C112.665 156.89 112.587 157.389 112.578 157.99V158.209C112.578 158.842 112.646 159.378 112.783 159.815C112.924 160.253 113.155 160.586 113.474 160.813C113.797 161.041 114.23 161.155 114.772 161.155C115.237 161.155 115.625 161.03 115.935 160.779C116.244 160.529 116.475 160.18 116.625 159.733C116.78 159.282 116.857 158.765 116.857 158.182C116.857 157.298 116.684 156.596 116.338 156.076C115.996 155.552 115.47 155.29 114.759 155.29ZM122.812 154.347C123.705 154.347 124.368 154.547 124.801 154.948C125.234 155.349 125.45 155.99 125.45 156.869V161.962H124.623L124.404 160.854H124.35C124.14 161.128 123.921 161.358 123.693 161.545C123.465 161.727 123.201 161.866 122.9 161.962C122.604 162.053 122.24 162.099 121.807 162.099C121.351 162.099 120.945 162.019 120.59 161.859C120.239 161.7 119.961 161.458 119.756 161.135C119.555 160.811 119.455 160.401 119.455 159.904C119.455 159.157 119.751 158.583 120.344 158.182C120.936 157.781 121.839 157.562 123.051 157.525L124.343 157.471V157.013C124.343 156.366 124.204 155.912 123.926 155.652C123.648 155.393 123.256 155.263 122.75 155.263C122.358 155.263 121.984 155.32 121.629 155.434C121.273 155.548 120.936 155.682 120.617 155.837L120.269 154.976C120.606 154.802 120.993 154.654 121.431 154.531C121.868 154.408 122.328 154.347 122.812 154.347ZM124.329 158.271L123.188 158.318C122.253 158.355 121.595 158.507 121.212 158.776C120.829 159.045 120.638 159.426 120.638 159.918C120.638 160.346 120.768 160.663 121.027 160.868C121.287 161.073 121.631 161.176 122.06 161.176C122.725 161.176 123.27 160.991 123.693 160.622C124.117 160.253 124.329 159.699 124.329 158.961V158.271ZM135.082 164.553H133.975V161.962H127.788V154.47H128.93V160.998H132.901V154.47H134.036V161.012H135.082V164.553ZM137.632 154.47V159.18C137.632 159.271 137.63 159.389 137.625 159.535C137.62 159.676 137.614 159.829 137.604 159.993C137.595 160.153 137.586 160.308 137.577 160.458C137.573 160.604 137.566 160.725 137.557 160.82L141.645 154.47H143.039V161.962H141.979V157.368C141.979 157.222 141.982 157.035 141.986 156.808C141.991 156.58 141.998 156.356 142.007 156.138C142.016 155.914 142.023 155.741 142.027 155.618L137.953 161.962H136.552V154.47H137.632ZM145.814 161.962H144.488L146.648 158.804C146.334 158.735 146.042 158.619 145.773 158.455C145.505 158.286 145.286 158.056 145.117 157.765C144.953 157.473 144.871 157.111 144.871 156.678C144.871 155.958 145.11 155.411 145.589 155.037C146.072 154.659 146.708 154.47 147.496 154.47H150.812V161.962H149.677V158.954H147.776L145.814 161.962ZM145.972 156.685C145.972 157.131 146.131 157.464 146.45 157.683C146.769 157.897 147.225 158.004 147.817 158.004H149.677V155.42H147.619C147.036 155.42 146.614 155.538 146.354 155.775C146.099 156.008 145.972 156.311 145.972 156.685ZM163.116 154.47V161.962H161.975V155.447H157.982V161.962H156.841V154.47H163.116ZM168.407 154.333C169.045 154.333 169.592 154.474 170.048 154.757C170.504 155.039 170.852 155.436 171.094 155.946C171.335 156.452 171.456 157.045 171.456 157.724V158.428H166.281C166.295 159.307 166.514 159.977 166.938 160.438C167.361 160.898 167.958 161.128 168.729 161.128C169.202 161.128 169.622 161.085 169.986 160.998C170.351 160.911 170.729 160.784 171.121 160.615V161.613C170.743 161.782 170.367 161.905 169.993 161.982C169.624 162.06 169.187 162.099 168.681 162.099C167.961 162.099 167.332 161.953 166.794 161.661C166.261 161.365 165.846 160.932 165.55 160.362C165.254 159.793 165.105 159.095 165.105 158.271C165.105 157.464 165.24 156.767 165.509 156.179C165.782 155.586 166.165 155.131 166.657 154.812C167.154 154.493 167.737 154.333 168.407 154.333ZM168.394 155.263C167.787 155.263 167.304 155.461 166.944 155.857C166.584 156.254 166.37 156.808 166.302 157.519H170.267C170.262 157.072 170.191 156.68 170.055 156.343C169.923 156.001 169.72 155.737 169.446 155.55C169.173 155.358 168.822 155.263 168.394 155.263ZM176.904 154.333C177.839 154.333 178.584 154.654 179.14 155.297C179.696 155.939 179.974 156.906 179.974 158.195C179.974 159.048 179.846 159.763 179.591 160.342C179.336 160.921 178.976 161.358 178.511 161.654C178.05 161.951 177.506 162.099 176.877 162.099C176.48 162.099 176.132 162.046 175.831 161.941C175.53 161.837 175.273 161.695 175.059 161.518C174.844 161.34 174.667 161.146 174.525 160.937H174.443C174.457 161.114 174.473 161.328 174.491 161.579C174.514 161.83 174.525 162.049 174.525 162.235V165.312H173.384V154.47H174.32L174.471 155.577H174.525C174.671 155.349 174.849 155.142 175.059 154.955C175.268 154.764 175.523 154.613 175.824 154.504C176.13 154.39 176.49 154.333 176.904 154.333ZM176.706 155.29C176.187 155.29 175.767 155.39 175.448 155.591C175.134 155.791 174.904 156.092 174.758 156.493C174.612 156.89 174.535 157.389 174.525 157.99V158.209C174.525 158.842 174.594 159.378 174.73 159.815C174.872 160.253 175.102 160.586 175.421 160.813C175.744 161.041 176.177 161.155 176.72 161.155C177.185 161.155 177.572 161.03 177.882 160.779C178.192 160.529 178.422 160.18 178.572 159.733C178.727 159.282 178.805 158.765 178.805 158.182C178.805 157.298 178.632 156.596 178.285 156.076C177.943 155.552 177.417 155.29 176.706 155.29ZM187.91 156.35C187.91 156.819 187.773 157.186 187.5 157.45C187.227 157.71 186.873 157.885 186.44 157.977V158.031C186.91 158.095 187.313 158.264 187.65 158.537C187.992 158.806 188.163 159.218 188.163 159.774C188.163 160.203 188.061 160.581 187.855 160.909C187.65 161.237 187.329 161.495 186.892 161.682C186.454 161.868 185.884 161.962 185.183 161.962H181.956V154.47H185.155C185.693 154.47 186.167 154.531 186.577 154.654C186.992 154.773 187.318 154.969 187.555 155.242C187.792 155.516 187.91 155.885 187.91 156.35ZM186.98 159.774C186.98 159.332 186.812 159.013 186.475 158.817C186.142 158.621 185.657 158.523 185.019 158.523H183.098V161.039H185.046C185.675 161.039 186.153 160.943 186.481 160.752C186.814 160.556 186.98 160.23 186.98 159.774ZM186.755 156.479C186.755 156.124 186.625 155.86 186.365 155.687C186.105 155.509 185.679 155.42 185.087 155.42H183.098V157.573H184.889C185.504 157.573 185.969 157.484 186.283 157.307C186.598 157.129 186.755 156.853 186.755 156.479ZM196.455 158.202C196.455 158.817 196.375 159.367 196.216 159.85C196.056 160.333 195.826 160.741 195.525 161.073C195.225 161.406 194.86 161.661 194.432 161.839C194.008 162.012 193.527 162.099 192.989 162.099C192.488 162.099 192.028 162.012 191.608 161.839C191.194 161.661 190.834 161.406 190.528 161.073C190.228 160.741 189.993 160.333 189.824 159.85C189.66 159.367 189.578 158.817 189.578 158.202C189.578 157.382 189.717 156.685 189.995 156.11C190.273 155.532 190.67 155.092 191.185 154.791C191.704 154.486 192.322 154.333 193.037 154.333C193.721 154.333 194.318 154.486 194.828 154.791C195.343 155.096 195.742 155.538 196.024 156.117C196.312 156.691 196.455 157.386 196.455 158.202ZM190.754 158.202C190.754 158.804 190.834 159.326 190.993 159.768C191.153 160.21 191.399 160.551 191.731 160.793C192.064 161.035 192.493 161.155 193.017 161.155C193.536 161.155 193.962 161.035 194.295 160.793C194.632 160.551 194.881 160.21 195.04 159.768C195.2 159.326 195.279 158.804 195.279 158.202C195.279 157.605 195.2 157.09 195.04 156.657C194.881 156.22 194.634 155.882 194.302 155.646C193.969 155.409 193.538 155.29 193.01 155.29C192.23 155.29 191.659 155.548 191.294 156.062C190.934 156.577 190.754 157.291 190.754 158.202ZM202.963 154.47V155.434H199.559V161.962H198.417V154.47H202.963ZM210.92 158.202C210.92 158.817 210.84 159.367 210.681 159.85C210.521 160.333 210.291 160.741 209.99 161.073C209.689 161.406 209.325 161.661 208.896 161.839C208.473 162.012 207.992 162.099 207.454 162.099C206.953 162.099 206.493 162.012 206.073 161.839C205.659 161.661 205.299 161.406 204.993 161.073C204.692 160.741 204.458 160.333 204.289 159.85C204.125 159.367 204.043 158.817 204.043 158.202C204.043 157.382 204.182 156.685 204.46 156.11C204.738 155.532 205.134 155.092 205.649 154.791C206.169 154.486 206.786 154.333 207.502 154.333C208.186 154.333 208.783 154.486 209.293 154.791C209.808 155.096 210.207 155.538 210.489 156.117C210.776 156.691 210.92 157.386 210.92 158.202ZM205.219 158.202C205.219 158.804 205.299 159.326 205.458 159.768C205.618 160.21 205.864 160.551 206.196 160.793C206.529 161.035 206.957 161.155 207.481 161.155C208.001 161.155 208.427 161.035 208.76 160.793C209.097 160.551 209.345 160.21 209.505 159.768C209.664 159.326 209.744 158.804 209.744 158.202C209.744 157.605 209.664 157.09 209.505 156.657C209.345 156.22 209.099 155.882 208.767 155.646C208.434 155.409 208.003 155.29 207.475 155.29C206.695 155.29 206.123 155.548 205.759 156.062C205.399 156.577 205.219 157.291 205.219 158.202ZM71.0566 173.464C71.0566 172.397 71.1592 171.488 71.3643 170.736C71.5693 169.98 71.8861 169.374 72.3145 168.918C72.7474 168.458 73.3034 168.143 73.9824 167.975C74.5658 167.815 75.1582 167.678 75.7598 167.564C76.3613 167.446 76.9469 167.343 77.5166 167.257L77.7148 168.255C77.4277 168.296 77.127 168.344 76.8125 168.398C76.498 168.449 76.1836 168.503 75.8691 168.562C75.5547 168.617 75.2585 168.676 74.9805 168.74C74.7025 168.799 74.4564 168.861 74.2422 168.925C73.8548 169.03 73.5199 169.212 73.2373 169.472C72.9593 169.731 72.7383 170.089 72.5742 170.545C72.4147 171.001 72.319 171.575 72.2871 172.268H72.3691C72.5059 172.067 72.6927 171.869 72.9297 171.673C73.1667 171.477 73.4492 171.315 73.7773 171.188C74.1055 171.055 74.4746 170.989 74.8848 170.989C75.5319 170.989 76.0719 171.131 76.5049 171.413C76.9378 171.691 77.2637 172.083 77.4824 172.589C77.7012 173.095 77.8105 173.687 77.8105 174.366C77.8105 175.182 77.6693 175.868 77.3867 176.424C77.1087 176.98 76.7168 177.399 76.2109 177.682C75.7051 177.96 75.1104 178.099 74.4268 178.099C73.8981 178.099 73.4242 177.996 73.0049 177.791C72.5902 177.586 72.237 177.285 71.9453 176.889C71.6582 176.492 71.4372 176.007 71.2822 175.433C71.1318 174.858 71.0566 174.202 71.0566 173.464ZM74.5156 177.155C74.9486 177.155 75.32 177.064 75.6299 176.882C75.9443 176.7 76.1859 176.412 76.3545 176.021C76.5277 175.624 76.6143 175.109 76.6143 174.476C76.6143 173.683 76.4616 173.063 76.1562 172.616C75.8555 172.165 75.3724 171.939 74.707 171.939C74.2923 171.939 73.9163 172.028 73.5791 172.206C73.2419 172.379 72.957 172.587 72.7246 172.828C72.4922 173.07 72.3236 173.286 72.2188 173.478C72.2188 173.942 72.2529 174.394 72.3213 174.831C72.3896 175.269 72.5081 175.663 72.6768 176.014C72.8454 176.365 73.0778 176.643 73.374 176.848C73.6748 177.053 74.0553 177.155 74.5156 177.155ZM83.293 170.333C84.2272 170.333 84.9723 170.654 85.5283 171.297C86.0843 171.939 86.3623 172.906 86.3623 174.195C86.3623 175.048 86.2347 175.763 85.9795 176.342C85.7243 176.921 85.3643 177.358 84.8994 177.654C84.4391 177.951 83.8945 178.099 83.2656 178.099C82.8691 178.099 82.5205 178.046 82.2197 177.941C81.9189 177.837 81.6615 177.695 81.4473 177.518C81.2331 177.34 81.0553 177.146 80.9141 176.937H80.832C80.8457 177.114 80.8617 177.328 80.8799 177.579C80.9027 177.83 80.9141 178.049 80.9141 178.235V181.312H79.7725V170.47H80.709L80.8594 171.577H80.9141C81.0599 171.349 81.2376 171.142 81.4473 170.955C81.6569 170.764 81.9121 170.613 82.2129 170.504C82.5182 170.39 82.8783 170.333 83.293 170.333ZM83.0947 171.29C82.5752 171.29 82.1559 171.39 81.8369 171.591C81.5225 171.791 81.2923 172.092 81.1465 172.493C81.0007 172.89 80.9232 173.389 80.9141 173.99V174.209C80.9141 174.842 80.9824 175.378 81.1191 175.815C81.2604 176.253 81.4906 176.586 81.8096 176.813C82.1331 177.041 82.5661 177.155 83.1084 177.155C83.5732 177.155 83.9606 177.03 84.2705 176.779C84.5804 176.529 84.8105 176.18 84.9609 175.733C85.1159 175.282 85.1934 174.765 85.1934 174.182C85.1934 173.298 85.0202 172.596 84.6738 172.076C84.332 171.552 83.8057 171.29 83.0947 171.29ZM94.8047 174.202C94.8047 174.817 94.7249 175.367 94.5654 175.85C94.4059 176.333 94.1758 176.741 93.875 177.073C93.5742 177.406 93.2096 177.661 92.7812 177.839C92.3574 178.012 91.8766 178.099 91.3389 178.099C90.8376 178.099 90.3773 178.012 89.958 177.839C89.5433 177.661 89.1833 177.406 88.8779 177.073C88.5771 176.741 88.3424 176.333 88.1738 175.85C88.0098 175.367 87.9277 174.817 87.9277 174.202C87.9277 173.382 88.0667 172.685 88.3447 172.11C88.6227 171.532 89.0192 171.092 89.5342 170.791C90.0537 170.486 90.6712 170.333 91.3867 170.333C92.0703 170.333 92.6673 170.486 93.1777 170.791C93.6927 171.096 94.0915 171.538 94.374 172.117C94.6611 172.691 94.8047 173.386 94.8047 174.202ZM89.1035 174.202C89.1035 174.804 89.1833 175.326 89.3428 175.768C89.5023 176.21 89.7484 176.551 90.0811 176.793C90.4137 177.035 90.8421 177.155 91.3662 177.155C91.8857 177.155 92.3118 177.035 92.6445 176.793C92.9818 176.551 93.2301 176.21 93.3896 175.768C93.5492 175.326 93.6289 174.804 93.6289 174.202C93.6289 173.605 93.5492 173.09 93.3896 172.657C93.2301 172.22 92.984 171.882 92.6514 171.646C92.3187 171.409 91.888 171.29 91.3594 171.29C90.5801 171.29 90.0081 171.548 89.6436 172.062C89.2835 172.577 89.1035 173.291 89.1035 174.202ZM101.135 170.47H102.386L99.1523 174.086L102.646 177.962H101.312L97.9082 174.161V177.962H96.7666V170.47H97.9082V174.106L101.135 170.47ZM106.884 170.333C107.522 170.333 108.069 170.474 108.524 170.757C108.98 171.039 109.329 171.436 109.57 171.946C109.812 172.452 109.933 173.045 109.933 173.724V174.428H104.758C104.771 175.307 104.99 175.977 105.414 176.438C105.838 176.898 106.435 177.128 107.205 177.128C107.679 177.128 108.098 177.085 108.463 176.998C108.827 176.911 109.206 176.784 109.598 176.615V177.613C109.219 177.782 108.843 177.905 108.47 177.982C108.101 178.06 107.663 178.099 107.157 178.099C106.437 178.099 105.808 177.953 105.271 177.661C104.737 177.365 104.323 176.932 104.026 176.362C103.73 175.793 103.582 175.095 103.582 174.271C103.582 173.464 103.716 172.767 103.985 172.179C104.259 171.586 104.642 171.131 105.134 170.812C105.631 170.493 106.214 170.333 106.884 170.333ZM106.87 171.263C106.264 171.263 105.781 171.461 105.421 171.857C105.061 172.254 104.847 172.808 104.778 173.519H108.743C108.739 173.072 108.668 172.68 108.531 172.343C108.399 172.001 108.196 171.737 107.923 171.55C107.649 171.358 107.299 171.263 106.87 171.263ZM115.381 170.333C116.315 170.333 117.06 170.654 117.616 171.297C118.172 171.939 118.45 172.906 118.45 174.195C118.45 175.048 118.323 175.763 118.067 176.342C117.812 176.921 117.452 177.358 116.987 177.654C116.527 177.951 115.982 178.099 115.354 178.099C114.957 178.099 114.608 178.046 114.308 177.941C114.007 177.837 113.749 177.695 113.535 177.518C113.321 177.34 113.143 177.146 113.002 176.937H112.92C112.934 177.114 112.95 177.328 112.968 177.579C112.991 177.83 113.002 178.049 113.002 178.235V181.312H111.86V170.47H112.797L112.947 171.577H113.002C113.148 171.349 113.326 171.142 113.535 170.955C113.745 170.764 114 170.613 114.301 170.504C114.606 170.39 114.966 170.333 115.381 170.333ZM115.183 171.29C114.663 171.29 114.244 171.39 113.925 171.591C113.61 171.791 113.38 172.092 113.234 172.493C113.089 172.89 113.011 173.389 113.002 173.99V174.209C113.002 174.842 113.07 175.378 113.207 175.815C113.348 176.253 113.578 176.586 113.897 176.813C114.221 177.041 114.654 177.155 115.196 177.155C115.661 177.155 116.049 177.03 116.358 176.779C116.668 176.529 116.898 176.18 117.049 175.733C117.204 175.282 117.281 174.765 117.281 174.182C117.281 173.298 117.108 172.596 116.762 172.076C116.42 171.552 115.894 171.29 115.183 171.29ZM123.235 170.347C124.129 170.347 124.792 170.547 125.225 170.948C125.658 171.349 125.874 171.99 125.874 172.869V177.962H125.047L124.828 176.854H124.773C124.564 177.128 124.345 177.358 124.117 177.545C123.889 177.727 123.625 177.866 123.324 177.962C123.028 178.053 122.663 178.099 122.23 178.099C121.775 178.099 121.369 178.019 121.014 177.859C120.663 177.7 120.385 177.458 120.18 177.135C119.979 176.811 119.879 176.401 119.879 175.904C119.879 175.157 120.175 174.583 120.768 174.182C121.36 173.781 122.262 173.562 123.475 173.525L124.767 173.471V173.013C124.767 172.366 124.628 171.912 124.35 171.652C124.072 171.393 123.68 171.263 123.174 171.263C122.782 171.263 122.408 171.32 122.053 171.434C121.697 171.548 121.36 171.682 121.041 171.837L120.692 170.976C121.03 170.802 121.417 170.654 121.854 170.531C122.292 170.408 122.752 170.347 123.235 170.347ZM124.753 174.271L123.611 174.318C122.677 174.355 122.019 174.507 121.636 174.776C121.253 175.045 121.062 175.426 121.062 175.918C121.062 176.346 121.191 176.663 121.451 176.868C121.711 177.073 122.055 177.176 122.483 177.176C123.149 177.176 123.693 176.991 124.117 176.622C124.541 176.253 124.753 175.699 124.753 174.961V174.271Z" fill="#868686"/>
<path fill-rule="evenodd" clip-rule="evenodd" d="M42.9525 198.781C43.1906 199.031 43.1811 199.426 42.9312 199.664L34.6296 207.575L29.5688 202.753C29.3189 202.514 29.3094 202.119 29.5475 201.869C29.7857 201.619 30.1813 201.61 30.4312 201.848L34.6296 205.849L42.0688 198.759C42.3187 198.521 42.7143 198.531 42.9525 198.781Z" fill="#25DE85"/>
<path d="M71.6172 197.968H74.4473C75.696 197.968 76.6348 198.155 77.2637 198.528C77.8926 198.902 78.207 199.538 78.207 200.436C78.207 200.823 78.1318 201.172 77.9814 201.481C77.8356 201.787 77.6214 202.04 77.3389 202.24C77.0563 202.441 76.7077 202.58 76.293 202.657V202.726C76.7305 202.794 77.1178 202.919 77.4551 203.102C77.7923 203.284 78.0566 203.539 78.248 203.867C78.4395 204.195 78.5352 204.612 78.5352 205.118C78.5352 205.733 78.3916 206.253 78.1045 206.677C77.8219 207.101 77.4209 207.422 76.9014 207.641C76.3818 207.855 75.7666 207.962 75.0557 207.962H71.6172V197.968ZM72.7793 202.254H74.6934C75.5638 202.254 76.1654 202.11 76.498 201.823C76.8353 201.536 77.0039 201.117 77.0039 200.565C77.0039 199.996 76.8034 199.586 76.4023 199.335C76.0059 199.084 75.3724 198.959 74.502 198.959H72.7793V202.254ZM72.7793 203.231V206.971H74.8574C75.7461 206.971 76.375 206.798 76.7441 206.451C77.1133 206.1 77.2979 205.629 77.2979 205.036C77.2979 204.658 77.2135 204.334 77.0449 204.065C76.8809 203.797 76.612 203.591 76.2383 203.45C75.8691 203.304 75.3747 203.231 74.7549 203.231H72.7793ZM81.6387 200.47V203.614H85.8154V200.47H86.9502V207.962H85.8154V204.578H81.6387V207.962H80.4971V200.47H81.6387ZM88.1738 200.47H89.3906L91.0449 204.817C91.1406 205.073 91.2295 205.319 91.3115 205.556C91.3936 205.788 91.4665 206.011 91.5303 206.226C91.5941 206.44 91.6442 206.647 91.6807 206.848H91.7285C91.7923 206.62 91.8835 206.321 92.002 205.952C92.1204 205.578 92.248 205.198 92.3848 204.811L93.9502 200.47H95.1738L91.9131 209.062C91.7399 209.523 91.5371 209.924 91.3047 210.266C91.0768 210.607 90.7988 210.869 90.4707 211.052C90.1426 211.239 89.7461 211.332 89.2812 211.332C89.0671 211.332 88.8779 211.318 88.7139 211.291C88.5498 211.268 88.4085 211.241 88.29 211.209V210.3C88.3903 210.323 88.5111 210.343 88.6523 210.361C88.7982 210.38 88.9486 210.389 89.1035 210.389C89.3861 210.389 89.6299 210.334 89.835 210.225C90.0446 210.12 90.2246 209.965 90.375 209.76C90.5254 209.555 90.6553 209.311 90.7646 209.028L91.1748 207.976L88.1738 200.47ZM101.477 201.434H99.0088V207.962H97.8877V201.434H95.4541V200.47H101.477V201.434ZM106.48 200.333C107.415 200.333 108.16 200.654 108.716 201.297C109.272 201.939 109.55 202.906 109.55 204.195C109.55 205.048 109.422 205.763 109.167 206.342C108.912 206.921 108.552 207.358 108.087 207.654C107.627 207.951 107.082 208.099 106.453 208.099C106.057 208.099 105.708 208.046 105.407 207.941C105.106 207.837 104.849 207.695 104.635 207.518C104.421 207.34 104.243 207.146 104.102 206.937H104.02C104.033 207.114 104.049 207.328 104.067 207.579C104.09 207.83 104.102 208.049 104.102 208.235V211.312H102.96V200.47H103.896L104.047 201.577H104.102C104.247 201.349 104.425 201.142 104.635 200.955C104.844 200.764 105.1 200.613 105.4 200.504C105.706 200.39 106.066 200.333 106.48 200.333ZM106.282 201.29C105.763 201.29 105.343 201.39 105.024 201.591C104.71 201.791 104.48 202.092 104.334 202.493C104.188 202.89 104.111 203.389 104.102 203.99V204.209C104.102 204.842 104.17 205.378 104.307 205.815C104.448 206.253 104.678 206.586 104.997 206.813C105.321 207.041 105.754 207.155 106.296 207.155C106.761 207.155 107.148 207.03 107.458 206.779C107.768 206.529 107.998 206.18 108.148 205.733C108.303 205.282 108.381 204.765 108.381 204.182C108.381 203.298 108.208 202.596 107.861 202.076C107.52 201.552 106.993 201.29 106.282 201.29ZM114.417 200.333C115.055 200.333 115.602 200.474 116.058 200.757C116.513 201.039 116.862 201.436 117.104 201.946C117.345 202.452 117.466 203.045 117.466 203.724V204.428H112.291C112.305 205.307 112.523 205.977 112.947 206.438C113.371 206.898 113.968 207.128 114.738 207.128C115.212 207.128 115.632 207.085 115.996 206.998C116.361 206.911 116.739 206.784 117.131 206.615V207.613C116.753 207.782 116.377 207.905 116.003 207.982C115.634 208.06 115.196 208.099 114.69 208.099C113.97 208.099 113.341 207.953 112.804 207.661C112.271 207.365 111.856 206.932 111.56 206.362C111.263 205.793 111.115 205.095 111.115 204.271C111.115 203.464 111.25 202.767 111.519 202.179C111.792 201.586 112.175 201.131 112.667 200.812C113.164 200.493 113.747 200.333 114.417 200.333ZM114.403 201.263C113.797 201.263 113.314 201.461 112.954 201.857C112.594 202.254 112.38 202.808 112.312 203.519H116.276C116.272 203.072 116.201 202.68 116.064 202.343C115.932 202.001 115.729 201.737 115.456 201.55C115.183 201.358 114.832 201.263 114.403 201.263ZM120.535 200.47V203.614H124.712V200.47H125.847V207.962H124.712V204.578H120.535V207.962H119.394V200.47H120.535ZM129.395 200.47V203.614H133.571V200.47H134.706V207.962H133.571V204.578H129.395V207.962H128.253V200.47H129.395ZM138.192 200.47V205.18C138.192 205.271 138.19 205.389 138.186 205.535C138.181 205.676 138.174 205.829 138.165 205.993C138.156 206.153 138.147 206.308 138.138 206.458C138.133 206.604 138.126 206.725 138.117 206.82L142.205 200.47H143.6V207.962H142.54V203.368C142.54 203.222 142.542 203.035 142.547 202.808C142.551 202.58 142.558 202.356 142.567 202.138C142.576 201.914 142.583 201.741 142.588 201.618L138.514 207.962H137.112V200.47H138.192ZM148.897 200.333C149.535 200.333 150.082 200.474 150.538 200.757C150.994 201.039 151.342 201.436 151.584 201.946C151.826 202.452 151.946 203.045 151.946 203.724V204.428H146.771C146.785 205.307 147.004 205.977 147.428 206.438C147.852 206.898 148.449 207.128 149.219 207.128C149.693 207.128 150.112 207.085 150.477 206.998C150.841 206.911 151.219 206.784 151.611 206.615V207.613C151.233 207.782 150.857 207.905 150.483 207.982C150.114 208.06 149.677 208.099 149.171 208.099C148.451 208.099 147.822 207.953 147.284 207.661C146.751 207.365 146.336 206.932 146.04 206.362C145.744 205.793 145.596 205.095 145.596 204.271C145.596 203.464 145.73 202.767 145.999 202.179C146.272 201.586 146.655 201.131 147.147 200.812C147.644 200.493 148.228 200.333 148.897 200.333ZM148.884 201.263C148.278 201.263 147.795 201.461 147.435 201.857C147.075 202.254 146.86 202.808 146.792 203.519H150.757C150.752 203.072 150.682 202.68 150.545 202.343C150.413 202.001 150.21 201.737 149.937 201.55C149.663 201.358 149.312 201.263 148.884 201.263ZM162.617 201.434H160.149V207.962H159.028V201.434H156.595V200.47H162.617V201.434ZM166.985 200.333C167.623 200.333 168.17 200.474 168.626 200.757C169.082 201.039 169.43 201.436 169.672 201.946C169.913 202.452 170.034 203.045 170.034 203.724V204.428H164.859C164.873 205.307 165.092 205.977 165.516 206.438C165.939 206.898 166.536 207.128 167.307 207.128C167.781 207.128 168.2 207.085 168.564 206.998C168.929 206.911 169.307 206.784 169.699 206.615V207.613C169.321 207.782 168.945 207.905 168.571 207.982C168.202 208.06 167.765 208.099 167.259 208.099C166.539 208.099 165.91 207.953 165.372 207.661C164.839 207.365 164.424 206.932 164.128 206.362C163.832 205.793 163.684 205.095 163.684 204.271C163.684 203.464 163.818 202.767 164.087 202.179C164.36 201.586 164.743 201.131 165.235 200.812C165.732 200.493 166.315 200.333 166.985 200.333ZM166.972 201.263C166.366 201.263 165.882 201.461 165.522 201.857C165.162 202.254 164.948 202.808 164.88 203.519H168.845C168.84 203.072 168.77 202.68 168.633 202.343C168.501 202.001 168.298 201.737 168.024 201.55C167.751 201.358 167.4 201.263 166.972 201.263ZM174.963 208.099C174.288 208.099 173.694 207.96 173.179 207.682C172.664 207.404 172.263 206.98 171.976 206.41C171.688 205.84 171.545 205.123 171.545 204.257C171.545 203.35 171.695 202.609 171.996 202.035C172.301 201.456 172.721 201.028 173.254 200.75C173.787 200.472 174.393 200.333 175.072 200.333C175.446 200.333 175.806 200.372 176.152 200.449C176.503 200.522 176.79 200.616 177.014 200.729L176.672 201.68C176.444 201.589 176.18 201.507 175.879 201.434C175.583 201.361 175.305 201.324 175.045 201.324C174.525 201.324 174.092 201.436 173.746 201.659C173.404 201.882 173.147 202.211 172.974 202.644C172.805 203.076 172.721 203.61 172.721 204.243C172.721 204.849 172.803 205.367 172.967 205.795C173.135 206.223 173.384 206.551 173.712 206.779C174.045 207.003 174.459 207.114 174.956 207.114C175.353 207.114 175.71 207.073 176.029 206.991C176.348 206.905 176.638 206.804 176.897 206.69V207.702C176.647 207.83 176.367 207.928 176.057 207.996C175.751 208.064 175.387 208.099 174.963 208.099ZM183.781 201.434H181.313V207.962H180.192V201.434H177.759V200.47H183.781V201.434ZM185.265 207.962V200.47H186.406V203.56H188.457C189.095 203.56 189.619 203.639 190.029 203.799C190.444 203.958 190.752 204.195 190.952 204.51C191.153 204.824 191.253 205.214 191.253 205.679C191.253 206.144 191.153 206.547 190.952 206.889C190.756 207.23 190.446 207.495 190.022 207.682C189.603 207.868 189.056 207.962 188.382 207.962H185.265ZM186.406 207.039H188.272C188.838 207.039 189.289 206.939 189.626 206.738C189.963 206.538 190.132 206.203 190.132 205.733C190.132 205.273 189.975 204.954 189.66 204.776C189.346 204.594 188.895 204.503 188.307 204.503H186.406V207.039ZM192.49 207.962V200.47H193.625V207.962H192.49Z" fill="#868686"/>
</g>
<defs>
<clipPath id="clip0_25_1592">
<rect width="285.75" height="245" fill="white" transform="translate(0.25 0.961914)"/>
</clipPath>
</defs>
</svg>
