<svg width="286" height="234" viewBox="0 0 286 234" fill="none" xmlns="http://www.w3.org/2000/svg">
<g clip-path="url(#clip0_25_1606)">
<path d="M0.999992 51.019L143.99 0.961917L286 51.0191L286 233.962L0.999962 233.962L0.999992 51.019Z" fill="#F4F4F4"/>
<path d="M45.8828 75.9619V64.54H54.9219V75.9619H52.5078V66.5557H48.3047V75.9619H45.8828ZM61.2188 67.0635C62.026 67.0635 62.7214 67.2197 63.3047 67.5322C63.888 67.8395 64.3385 68.2874 64.6562 68.876C64.974 69.4645 65.1328 70.1833 65.1328 71.0322V72.1885H59.5C59.526 72.8604 59.7266 73.389 60.1016 73.7744C60.4818 74.1546 61.0078 74.3447 61.6797 74.3447C62.237 74.3447 62.7474 74.2874 63.2109 74.1729C63.6745 74.0583 64.151 73.8864 64.6406 73.6572V75.501C64.2083 75.7145 63.7552 75.8708 63.2812 75.9697C62.8125 76.0687 62.2422 76.1182 61.5703 76.1182C60.6953 76.1182 59.9193 75.9567 59.2422 75.6338C58.5703 75.3109 58.0417 74.8187 57.6562 74.1572C57.276 73.4958 57.0859 72.6624 57.0859 71.6572C57.0859 70.6364 57.2578 69.7874 57.6016 69.1104C57.9505 68.4281 58.4349 67.9176 59.0547 67.5791C59.6745 67.2354 60.3958 67.0635 61.2188 67.0635ZM61.2344 68.7588C60.7708 68.7588 60.3854 68.9072 60.0781 69.2041C59.776 69.501 59.6016 69.9671 59.5547 70.6025H62.8984C62.8932 70.2484 62.8281 69.9333 62.7031 69.6572C62.5833 69.3812 62.401 69.1624 62.1562 69.001C61.9167 68.8395 61.6094 68.7588 61.2344 68.7588ZM71.9297 67.0635C72.9141 67.0635 73.7083 67.4463 74.3125 68.2119C74.9219 68.9775 75.2266 70.0999 75.2266 71.5791C75.2266 72.5687 75.0833 73.402 74.7969 74.0791C74.5104 74.751 74.1146 75.2588 73.6094 75.6025C73.1042 75.9463 72.5234 76.1182 71.8672 76.1182C71.4453 76.1182 71.0833 76.0661 70.7812 75.9619C70.4792 75.8525 70.2214 75.7145 70.0078 75.5479C69.7943 75.376 69.6094 75.1937 69.4531 75.001H69.3281C69.3698 75.2093 69.401 75.4229 69.4219 75.6416C69.4427 75.8604 69.4531 76.0739 69.4531 76.2822V79.8057H67.0703V67.2275H69.0078L69.3438 68.3604H69.4531C69.6094 68.126 69.7995 67.9098 70.0234 67.7119C70.2474 67.514 70.5156 67.3577 70.8281 67.2432C71.1458 67.1234 71.513 67.0635 71.9297 67.0635ZM71.1641 68.9697C70.7474 68.9697 70.4167 69.0557 70.1719 69.2275C69.9271 69.3994 69.7474 69.6572 69.6328 70.001C69.5234 70.3447 69.4635 70.7796 69.4531 71.3057V71.5635C69.4531 72.126 69.5052 72.6025 69.6094 72.9932C69.7188 73.3838 69.8984 73.6807 70.1484 73.8838C70.4036 74.0869 70.7526 74.1885 71.1953 74.1885C71.5599 74.1885 71.8594 74.0869 72.0938 73.8838C72.3281 73.6807 72.5026 73.3838 72.6172 72.9932C72.737 72.5973 72.7969 72.1156 72.7969 71.5479C72.7969 70.6937 72.6641 70.0505 72.3984 69.6182C72.1328 69.1859 71.7214 68.9697 71.1641 68.9697ZM84.9375 69.5166C84.9375 69.9854 84.7891 70.3864 84.4922 70.7197C84.2005 71.0479 83.7682 71.2588 83.1953 71.3525V71.415C83.7995 71.488 84.2865 71.6989 84.6562 72.0479C85.026 72.3916 85.2109 72.8265 85.2109 73.3525C85.2109 73.8525 85.0807 74.3005 84.8203 74.6963C84.5599 75.0869 84.1458 75.3968 83.5781 75.626C83.0104 75.8499 82.2682 75.9619 81.3516 75.9619H77.1953V67.2275H81.3516C82.0339 67.2275 82.6458 67.3005 83.1875 67.4463C83.7292 67.5869 84.1562 67.8239 84.4688 68.1572C84.7812 68.4906 84.9375 68.9437 84.9375 69.5166ZM82.7422 73.2275C82.7422 72.8838 82.6068 72.6364 82.3359 72.4854C82.0703 72.3291 81.6745 72.251 81.1484 72.251H79.5781V74.3135H81.1953C81.6432 74.3135 82.013 74.2301 82.3047 74.0635C82.5964 73.8968 82.7422 73.6182 82.7422 73.2275ZM82.5234 69.7041C82.5234 69.4333 82.4167 69.2327 82.2031 69.1025C81.9896 68.9723 81.6745 68.9072 81.2578 68.9072H79.5781V70.6338H80.9844C81.4896 70.6338 81.8724 70.5609 82.1328 70.415C82.3932 70.2692 82.5234 70.0322 82.5234 69.7041ZM87.2578 75.9619V67.2275H89.6406V70.6025H90.7891C91.6797 70.6025 92.4141 70.6963 92.9922 70.8838C93.5755 71.0713 94.0078 71.3577 94.2891 71.7432C94.5703 72.1234 94.7109 72.6025 94.7109 73.1807C94.7109 73.7432 94.5807 74.2327 94.3203 74.6494C94.0599 75.0661 93.6484 75.389 93.0859 75.6182C92.5234 75.8473 91.7865 75.9619 90.875 75.9619H87.2578ZM89.6406 74.3135H90.7422C91.2057 74.3135 91.5859 74.2301 91.8828 74.0635C92.1797 73.8916 92.3281 73.6077 92.3281 73.2119C92.3281 72.8734 92.1927 72.6286 91.9219 72.4775C91.651 72.3265 91.2474 72.251 90.7109 72.251H89.6406V74.3135ZM95.9766 75.9619V67.2275H98.3594V75.9619H95.9766ZM103.172 67.2275V70.6807C103.172 70.8577 103.164 71.0817 103.148 71.3525C103.138 71.6182 103.122 71.889 103.102 72.165C103.081 72.4411 103.06 72.6885 103.039 72.9072C103.018 73.126 103.003 73.2744 102.992 73.3525L107.023 67.2275H109.891V75.9619H107.586V72.4775C107.586 72.1911 107.596 71.876 107.617 71.5322C107.638 71.1833 107.661 70.8551 107.688 70.5479C107.714 70.2406 107.732 70.0088 107.742 69.8525L103.727 75.9619H100.867V67.2275H103.172ZM109.234 63.4697C109.177 64.0218 109.021 64.5088 108.766 64.9307C108.51 65.3525 108.112 65.6807 107.57 65.915C107.029 66.1494 106.299 66.2666 105.383 66.2666C104.44 66.2666 103.706 66.1546 103.18 65.9307C102.654 65.7015 102.279 65.3786 102.055 64.9619C101.831 64.54 101.695 64.0426 101.648 63.4697H103.781C103.828 64.0583 103.977 64.4489 104.227 64.6416C104.477 64.8291 104.878 64.9229 105.43 64.9229C105.888 64.9229 106.263 64.8187 106.555 64.6104C106.846 64.402 107.021 64.0218 107.078 63.4697H109.234ZM121.414 67.0635C122.398 67.0635 123.193 67.4463 123.797 68.2119C124.406 68.9775 124.711 70.0999 124.711 71.5791C124.711 72.5687 124.568 73.402 124.281 74.0791C123.995 74.751 123.599 75.2588 123.094 75.6025C122.589 75.9463 122.008 76.1182 121.352 76.1182C120.93 76.1182 120.568 76.0661 120.266 75.9619C119.964 75.8525 119.706 75.7145 119.492 75.5479C119.279 75.376 119.094 75.1937 118.938 75.001H118.812C118.854 75.2093 118.885 75.4229 118.906 75.6416C118.927 75.8604 118.938 76.0739 118.938 76.2822V79.8057H116.555V67.2275H118.492L118.828 68.3604H118.938C119.094 68.126 119.284 67.9098 119.508 67.7119C119.732 67.514 120 67.3577 120.312 67.2432C120.63 67.1234 120.997 67.0635 121.414 67.0635ZM120.648 68.9697C120.232 68.9697 119.901 69.0557 119.656 69.2275C119.411 69.3994 119.232 69.6572 119.117 70.001C119.008 70.3447 118.948 70.7796 118.938 71.3057V71.5635C118.938 72.126 118.99 72.6025 119.094 72.9932C119.203 73.3838 119.383 73.6807 119.633 73.8838C119.888 74.0869 120.237 74.1885 120.68 74.1885C121.044 74.1885 121.344 74.0869 121.578 73.8838C121.812 73.6807 121.987 73.3838 122.102 72.9932C122.221 72.5973 122.281 72.1156 122.281 71.5479C122.281 70.6937 122.148 70.0505 121.883 69.6182C121.617 69.1859 121.206 68.9697 120.648 68.9697ZM126.68 75.9619V67.2275H129.062V70.6025H130.211C131.102 70.6025 131.836 70.6963 132.414 70.8838C132.997 71.0713 133.43 71.3577 133.711 71.7432C133.992 72.1234 134.133 72.6025 134.133 73.1807C134.133 73.7432 134.003 74.2327 133.742 74.6494C133.482 75.0661 133.07 75.389 132.508 75.6182C131.945 75.8473 131.208 75.9619 130.297 75.9619H126.68ZM129.062 74.3135H130.164C130.628 74.3135 131.008 74.2301 131.305 74.0635C131.602 73.8916 131.75 73.6077 131.75 73.2119C131.75 72.8734 131.615 72.6286 131.344 72.4775C131.073 72.3265 130.669 72.251 130.133 72.251H129.062V74.3135ZM135.398 75.9619V67.2275H137.781V75.9619H135.398ZM142.672 67.2275V70.5869H146V67.2275H148.383V75.9619H146V72.3604H142.672V75.9619H140.289V67.2275H142.672ZM158.82 71.5791C158.82 72.3083 158.721 72.9541 158.523 73.5166C158.331 74.0791 158.047 74.5557 157.672 74.9463C157.302 75.3317 156.854 75.6234 156.328 75.8213C155.807 76.0192 155.219 76.1182 154.562 76.1182C153.948 76.1182 153.383 76.0192 152.867 75.8213C152.357 75.6234 151.911 75.3317 151.531 74.9463C151.156 74.5557 150.865 74.0791 150.656 73.5166C150.453 72.9541 150.352 72.3083 150.352 71.5791C150.352 70.6104 150.523 69.79 150.867 69.1182C151.211 68.4463 151.701 67.9359 152.336 67.5869C152.971 67.238 153.729 67.0635 154.609 67.0635C155.427 67.0635 156.151 67.238 156.781 67.5869C157.417 67.9359 157.914 68.4463 158.273 69.1182C158.638 69.79 158.82 70.6104 158.82 71.5791ZM152.781 71.5791C152.781 72.152 152.844 72.6338 152.969 73.0244C153.094 73.415 153.289 73.7093 153.555 73.9072C153.82 74.1051 154.167 74.2041 154.594 74.2041C155.016 74.2041 155.357 74.1051 155.617 73.9072C155.883 73.7093 156.076 73.415 156.195 73.0244C156.32 72.6338 156.383 72.152 156.383 71.5791C156.383 71.001 156.32 70.5218 156.195 70.1416C156.076 69.7562 155.883 69.4671 155.617 69.2744C155.352 69.0817 155.005 68.9854 154.578 68.9854C153.948 68.9854 153.49 69.2015 153.203 69.6338C152.922 70.0661 152.781 70.7145 152.781 71.5791ZM166.516 67.2275H169.141L165.68 71.415L169.445 75.9619H166.742L163.172 71.5322V75.9619H160.789V67.2275H163.172V71.4697L166.516 67.2275ZM172.914 74.1025L173.031 74.2822C172.938 74.6572 172.815 75.0609 172.664 75.4932C172.518 75.9255 172.357 76.3577 172.18 76.79C172.008 77.2223 171.833 77.6338 171.656 78.0244H169.938C170.042 77.6025 170.143 77.1598 170.242 76.6963C170.341 76.2327 170.432 75.777 170.516 75.3291C170.604 74.8812 170.674 74.4723 170.727 74.1025H172.914ZM187.352 67.2275V75.9619H184.961V69.0166H181.797V75.9619H179.414V67.2275H187.352ZM193.453 67.0635C194.26 67.0635 194.956 67.2197 195.539 67.5322C196.122 67.8395 196.573 68.2874 196.891 68.876C197.208 69.4645 197.367 70.1833 197.367 71.0322V72.1885H191.734C191.76 72.8604 191.961 73.389 192.336 73.7744C192.716 74.1546 193.242 74.3447 193.914 74.3447C194.471 74.3447 194.982 74.2874 195.445 74.1729C195.909 74.0583 196.385 73.8864 196.875 73.6572V75.501C196.443 75.7145 195.99 75.8708 195.516 75.9697C195.047 76.0687 194.477 76.1182 193.805 76.1182C192.93 76.1182 192.154 75.9567 191.477 75.6338C190.805 75.3109 190.276 74.8187 189.891 74.1572C189.51 73.4958 189.32 72.6624 189.32 71.6572C189.32 70.6364 189.492 69.7874 189.836 69.1104C190.185 68.4281 190.669 67.9176 191.289 67.5791C191.909 67.2354 192.63 67.0635 193.453 67.0635ZM193.469 68.7588C193.005 68.7588 192.62 68.9072 192.312 69.2041C192.01 69.501 191.836 69.9671 191.789 70.6025H195.133C195.128 70.2484 195.062 69.9333 194.938 69.6572C194.818 69.3812 194.635 69.1624 194.391 69.001C194.151 68.8395 193.844 68.7588 193.469 68.7588ZM204.164 67.0635C205.148 67.0635 205.943 67.4463 206.547 68.2119C207.156 68.9775 207.461 70.0999 207.461 71.5791C207.461 72.5687 207.318 73.402 207.031 74.0791C206.745 74.751 206.349 75.2588 205.844 75.6025C205.339 75.9463 204.758 76.1182 204.102 76.1182C203.68 76.1182 203.318 76.0661 203.016 75.9619C202.714 75.8525 202.456 75.7145 202.242 75.5479C202.029 75.376 201.844 75.1937 201.688 75.001H201.562C201.604 75.2093 201.635 75.4229 201.656 75.6416C201.677 75.8604 201.688 76.0739 201.688 76.2822V79.8057H199.305V67.2275H201.242L201.578 68.3604H201.688C201.844 68.126 202.034 67.9098 202.258 67.7119C202.482 67.514 202.75 67.3577 203.062 67.2432C203.38 67.1234 203.747 67.0635 204.164 67.0635ZM203.398 68.9697C202.982 68.9697 202.651 69.0557 202.406 69.2275C202.161 69.3994 201.982 69.6572 201.867 70.001C201.758 70.3447 201.698 70.7796 201.688 71.3057V71.5635C201.688 72.126 201.74 72.6025 201.844 72.9932C201.953 73.3838 202.133 73.6807 202.383 73.8838C202.638 74.0869 202.987 74.1885 203.43 74.1885C203.794 74.1885 204.094 74.0869 204.328 73.8838C204.562 73.6807 204.737 73.3838 204.852 72.9932C204.971 72.5973 205.031 72.1156 205.031 71.5479C205.031 70.6937 204.898 70.0505 204.633 69.6182C204.367 69.1859 203.956 68.9697 203.398 68.9697ZM217.172 69.5166C217.172 69.9854 217.023 70.3864 216.727 70.7197C216.435 71.0479 216.003 71.2588 215.43 71.3525V71.415C216.034 71.488 216.521 71.6989 216.891 72.0479C217.26 72.3916 217.445 72.8265 217.445 73.3525C217.445 73.8525 217.315 74.3005 217.055 74.6963C216.794 75.0869 216.38 75.3968 215.812 75.626C215.245 75.8499 214.503 75.9619 213.586 75.9619H209.43V67.2275H213.586C214.268 67.2275 214.88 67.3005 215.422 67.4463C215.964 67.5869 216.391 67.8239 216.703 68.1572C217.016 68.4906 217.172 68.9437 217.172 69.5166ZM214.977 73.2275C214.977 72.8838 214.841 72.6364 214.57 72.4854C214.305 72.3291 213.909 72.251 213.383 72.251H211.812V74.3135H213.43C213.878 74.3135 214.247 74.2301 214.539 74.0635C214.831 73.8968 214.977 73.6182 214.977 73.2275ZM214.758 69.7041C214.758 69.4333 214.651 69.2327 214.438 69.1025C214.224 68.9723 213.909 68.9072 213.492 68.9072H211.812V70.6338H213.219C213.724 70.6338 214.107 70.5609 214.367 70.415C214.628 70.2692 214.758 70.0322 214.758 69.7041ZM219.492 75.9619V67.2275H221.875V70.6025H223.023C223.914 70.6025 224.648 70.6963 225.227 70.8838C225.81 71.0713 226.242 71.3577 226.523 71.7432C226.805 72.1234 226.945 72.6025 226.945 73.1807C226.945 73.7432 226.815 74.2327 226.555 74.6494C226.294 75.0661 225.883 75.389 225.32 75.6182C224.758 75.8473 224.021 75.9619 223.109 75.9619H219.492ZM221.875 74.3135H222.977C223.44 74.3135 223.82 74.2301 224.117 74.0635C224.414 73.8916 224.562 73.6077 224.562 73.2119C224.562 72.8734 224.427 72.6286 224.156 72.4775C223.885 72.3265 223.482 72.251 222.945 72.251H221.875V74.3135ZM228.211 75.9619V67.2275H230.594V75.9619H228.211ZM236.703 67.0635C237.51 67.0635 238.206 67.2197 238.789 67.5322C239.372 67.8395 239.823 68.2874 240.141 68.876C240.458 69.4645 240.617 70.1833 240.617 71.0322V72.1885H234.984C235.01 72.8604 235.211 73.389 235.586 73.7744C235.966 74.1546 236.492 74.3447 237.164 74.3447C237.721 74.3447 238.232 74.2874 238.695 74.1729C239.159 74.0583 239.635 73.8864 240.125 73.6572V75.501C239.693 75.7145 239.24 75.8708 238.766 75.9697C238.297 76.0687 237.727 76.1182 237.055 76.1182C236.18 76.1182 235.404 75.9567 234.727 75.6338C234.055 75.3109 233.526 74.8187 233.141 74.1572C232.76 73.4958 232.57 72.6624 232.57 71.6572C232.57 70.6364 232.742 69.7874 233.086 69.1104C233.435 68.4281 233.919 67.9176 234.539 67.5791C235.159 67.2354 235.88 67.0635 236.703 67.0635ZM236.719 68.7588C236.255 68.7588 235.87 68.9072 235.562 69.2041C235.26 69.501 235.086 69.9671 235.039 70.6025H238.383C238.378 70.2484 238.312 69.9333 238.188 69.6572C238.068 69.3812 237.885 69.1624 237.641 69.001C237.401 68.8395 237.094 68.7588 236.719 68.7588ZM128.898 93.9619H126.516V87.0166H124.32C124.211 88.2979 124.081 89.389 123.93 90.29C123.779 91.1911 123.586 91.9255 123.352 92.4932C123.117 93.0557 122.826 93.4671 122.477 93.7275C122.128 93.988 121.698 94.1182 121.188 94.1182C120.906 94.1182 120.654 94.0973 120.43 94.0557C120.211 94.014 120.01 93.9515 119.828 93.8682V91.9619C119.943 92.0088 120.065 92.0479 120.195 92.0791C120.326 92.1051 120.458 92.1182 120.594 92.1182C120.745 92.1182 120.888 92.0583 121.023 91.9385C121.159 91.8187 121.286 91.613 121.406 91.3213C121.526 91.0244 121.638 90.6156 121.742 90.0947C121.852 89.5739 121.951 88.915 122.039 88.1182C122.128 87.3213 122.211 86.3577 122.289 85.2275H128.898V93.9619ZM133.711 85.2275V88.6807C133.711 88.8577 133.703 89.0817 133.688 89.3525C133.677 89.6182 133.661 89.889 133.641 90.165C133.62 90.4411 133.599 90.6885 133.578 90.9072C133.557 91.126 133.542 91.2744 133.531 91.3525L137.562 85.2275H140.43V93.9619H138.125V90.4775C138.125 90.1911 138.135 89.876 138.156 89.5322C138.177 89.1833 138.201 88.8551 138.227 88.5479C138.253 88.2406 138.271 88.0088 138.281 87.8525L134.266 93.9619H131.406V85.2275H133.711ZM150.789 85.2275V92.2197H152.07V97.0947H149.93V93.9619H144.055V97.0947H141.914V92.2197H142.648C143.034 91.6312 143.357 90.9593 143.617 90.2041C143.883 89.4489 144.096 88.6494 144.258 87.8057C144.424 86.9567 144.544 86.0973 144.617 85.2275H150.789ZM148.406 87.0166H146.617C146.534 87.6624 146.427 88.2874 146.297 88.8916C146.172 89.4906 146.016 90.0687 145.828 90.626C145.641 91.1781 145.411 91.7093 145.141 92.2197H148.406V87.0166ZM153.562 93.9619V85.2275H155.945V88.6025H157.094C157.984 88.6025 158.719 88.6963 159.297 88.8838C159.88 89.0713 160.312 89.3577 160.594 89.7432C160.875 90.1234 161.016 90.6025 161.016 91.1807C161.016 91.7432 160.885 92.2327 160.625 92.6494C160.365 93.0661 159.953 93.389 159.391 93.6182C158.828 93.8473 158.091 93.9619 157.18 93.9619H153.562ZM155.945 92.3135H157.047C157.51 92.3135 157.891 92.2301 158.188 92.0635C158.484 91.8916 158.633 91.6077 158.633 91.2119C158.633 90.8734 158.497 90.6286 158.227 90.4775C157.956 90.3265 157.552 90.251 157.016 90.251H155.945V92.3135ZM162.281 93.9619V85.2275H164.664V93.9619H162.281Z" fill="black"/>
<path fill-rule="evenodd" clip-rule="evenodd" d="M42.7025 122.781C42.9406 123.031 42.9311 123.426 42.6812 123.664L34.3796 131.575L29.3188 126.753C29.0689 126.514 29.0594 126.119 29.2975 125.869C29.5357 125.619 29.9313 125.61 30.1812 125.848L34.3796 129.849L41.8188 122.759C42.0687 122.521 42.4643 122.531 42.7025 122.781Z" fill="#25DE85"/>
<path d="M71.3672 131.962V121.968H78.8115V131.962H77.6631V122.993H72.5293V131.962H71.3672ZM80.2129 124.47H81.4297L83.084 128.817C83.1797 129.073 83.2686 129.319 83.3506 129.556C83.4326 129.788 83.5055 130.011 83.5693 130.226C83.6331 130.44 83.6833 130.647 83.7197 130.848H83.7676C83.8314 130.62 83.9225 130.321 84.041 129.952C84.1595 129.578 84.2871 129.198 84.4238 128.811L85.9893 124.47H87.2129L83.9521 133.062C83.779 133.523 83.5762 133.924 83.3438 134.266C83.1159 134.607 82.8379 134.869 82.5098 135.052C82.1816 135.239 81.7852 135.332 81.3203 135.332C81.1061 135.332 80.917 135.318 80.7529 135.291C80.5889 135.268 80.4476 135.241 80.3291 135.209V134.3C80.4294 134.323 80.5501 134.343 80.6914 134.361C80.8372 134.38 80.9876 134.389 81.1426 134.389C81.4251 134.389 81.6689 134.334 81.874 134.225C82.0837 134.12 82.2637 133.965 82.4141 133.76C82.5645 133.555 82.6943 133.311 82.8037 133.028L83.2139 131.976L80.2129 124.47ZM88.0195 127.464C88.0195 126.397 88.1221 125.488 88.3271 124.736C88.5322 123.98 88.849 123.374 89.2773 122.918C89.7103 122.458 90.2663 122.143 90.9453 121.975C91.5286 121.815 92.1211 121.678 92.7227 121.564C93.3242 121.446 93.9098 121.343 94.4795 121.257L94.6777 122.255C94.3906 122.296 94.0898 122.344 93.7754 122.398C93.4609 122.449 93.1465 122.503 92.832 122.562C92.5176 122.617 92.2214 122.676 91.9434 122.74C91.6654 122.799 91.4193 122.861 91.2051 122.925C90.8177 123.03 90.4827 123.212 90.2002 123.472C89.9222 123.731 89.7012 124.089 89.5371 124.545C89.3776 125.001 89.2819 125.575 89.25 126.268H89.332C89.4688 126.067 89.6556 125.869 89.8926 125.673C90.1296 125.477 90.4121 125.315 90.7402 125.188C91.0684 125.055 91.4375 124.989 91.8477 124.989C92.4948 124.989 93.0348 125.131 93.4678 125.413C93.9007 125.691 94.2266 126.083 94.4453 126.589C94.6641 127.095 94.7734 127.687 94.7734 128.366C94.7734 129.182 94.6322 129.868 94.3496 130.424C94.0716 130.98 93.6797 131.399 93.1738 131.682C92.668 131.96 92.0732 132.099 91.3896 132.099C90.861 132.099 90.387 131.996 89.9678 131.791C89.5531 131.586 89.1999 131.285 88.9082 130.889C88.6211 130.492 88.4001 130.007 88.2451 129.433C88.0947 128.858 88.0195 128.202 88.0195 127.464ZM91.4785 131.155C91.9115 131.155 92.2829 131.064 92.5928 130.882C92.9072 130.7 93.1488 130.412 93.3174 130.021C93.4906 129.624 93.5771 129.109 93.5771 128.476C93.5771 127.683 93.4245 127.063 93.1191 126.616C92.8184 126.165 92.3353 125.939 91.6699 125.939C91.2552 125.939 90.8792 126.028 90.542 126.206C90.2048 126.379 89.9199 126.587 89.6875 126.828C89.4551 127.07 89.2865 127.286 89.1816 127.478C89.1816 127.942 89.2158 128.394 89.2842 128.831C89.3525 129.269 89.471 129.663 89.6396 130.014C89.8083 130.365 90.0407 130.643 90.3369 130.848C90.6377 131.053 91.0182 131.155 91.4785 131.155ZM102.354 131.962H101.199V125.42H98.9229C98.8317 126.6 98.7155 127.612 98.5742 128.455C98.4375 129.294 98.2643 129.979 98.0547 130.513C97.8496 131.041 97.599 131.431 97.3027 131.682C97.0111 131.928 96.6624 132.051 96.2568 132.051C96.1338 132.051 96.0176 132.044 95.9082 132.03C95.7988 132.017 95.7054 131.994 95.6279 131.962V131.101C95.6872 131.119 95.7487 131.132 95.8125 131.142C95.8809 131.151 95.9515 131.155 96.0244 131.155C96.2295 131.155 96.4163 131.071 96.585 130.902C96.7581 130.729 96.9131 130.469 97.0498 130.123C97.1911 129.777 97.3164 129.339 97.4258 128.811C97.5352 128.277 97.6309 127.651 97.7129 126.931C97.7995 126.206 97.8747 125.386 97.9385 124.47H102.354V131.962ZM105.827 124.47V129.18C105.827 129.271 105.825 129.389 105.82 129.535C105.816 129.676 105.809 129.829 105.8 129.993C105.791 130.153 105.782 130.308 105.772 130.458C105.768 130.604 105.761 130.725 105.752 130.82L109.84 124.47H111.234V131.962H110.175V127.368C110.175 127.222 110.177 127.035 110.182 126.808C110.186 126.58 110.193 126.356 110.202 126.138C110.211 125.914 110.218 125.741 110.223 125.618L106.148 131.962H104.747V124.47H105.827ZM114.639 124.47V127.163C114.639 127.632 114.766 127.979 115.021 128.202C115.281 128.425 115.657 128.537 116.149 128.537C116.623 128.537 117.054 128.464 117.441 128.318C117.829 128.173 118.221 127.974 118.617 127.724V124.47H119.752V131.962H118.617V128.605C118.198 128.874 117.785 129.086 117.38 129.241C116.974 129.396 116.489 129.474 115.924 129.474C115.154 129.474 114.557 129.273 114.133 128.872C113.714 128.471 113.504 127.929 113.504 127.245V124.47H114.639ZM123.293 124.47V127.614H127.47V124.47H128.604V131.962H127.47V128.578H123.293V131.962H122.151V124.47H123.293ZM131.011 131.962V124.47H132.152V127.56H134.203C134.841 127.56 135.365 127.639 135.775 127.799C136.19 127.958 136.498 128.195 136.698 128.51C136.899 128.824 136.999 129.214 136.999 129.679C136.999 130.144 136.899 130.547 136.698 130.889C136.502 131.23 136.192 131.495 135.769 131.682C135.349 131.868 134.802 131.962 134.128 131.962H131.011ZM132.152 131.039H134.019C134.584 131.039 135.035 130.939 135.372 130.738C135.709 130.538 135.878 130.203 135.878 129.733C135.878 129.273 135.721 128.954 135.406 128.776C135.092 128.594 134.641 128.503 134.053 128.503H132.152V131.039ZM138.236 131.962V124.47H139.371V131.962H138.236ZM142.851 124.47V129.18C142.851 129.271 142.848 129.389 142.844 129.535C142.839 129.676 142.832 129.829 142.823 129.993C142.814 130.153 142.805 130.308 142.796 130.458C142.791 130.604 142.785 130.725 142.775 130.82L146.863 124.47H148.258V131.962H147.198V127.368C147.198 127.222 147.201 127.035 147.205 126.808C147.21 126.58 147.216 126.356 147.226 126.138C147.235 125.914 147.242 125.741 147.246 125.618L143.172 131.962H141.771V124.47H142.851ZM147.697 121.387C147.656 121.847 147.54 122.232 147.349 122.542C147.162 122.852 146.886 123.087 146.521 123.246C146.157 123.401 145.69 123.479 145.12 123.479C144.532 123.479 144.058 123.403 143.698 123.253C143.343 123.098 143.078 122.866 142.905 122.556C142.737 122.246 142.636 121.856 142.604 121.387H143.671C143.721 121.888 143.855 122.23 144.074 122.412C144.293 122.594 144.648 122.686 145.141 122.686C145.578 122.686 145.922 122.59 146.173 122.398C146.424 122.207 146.574 121.87 146.624 121.387H147.697ZM156.235 124.333C156.796 124.333 157.281 124.41 157.691 124.565C158.102 124.716 158.418 124.937 158.642 125.229C158.865 125.52 158.977 125.876 158.977 126.295C158.977 126.746 158.854 127.106 158.607 127.375C158.361 127.644 158.022 127.838 157.589 127.956V128.011C157.894 128.093 158.17 128.211 158.416 128.366C158.667 128.517 158.865 128.717 159.011 128.968C159.161 129.214 159.236 129.521 159.236 129.891C159.236 130.31 159.122 130.688 158.895 131.025C158.667 131.358 158.32 131.62 157.855 131.812C157.391 132.003 156.803 132.099 156.092 132.099C155.741 132.099 155.408 132.078 155.094 132.037C154.779 132.001 154.494 131.946 154.239 131.873C153.984 131.8 153.761 131.714 153.569 131.613V130.581C153.888 130.736 154.262 130.873 154.69 130.991C155.119 131.11 155.581 131.169 156.078 131.169C156.461 131.169 156.805 131.126 157.11 131.039C157.416 130.948 157.657 130.804 157.835 130.608C158.017 130.408 158.108 130.146 158.108 129.822C158.108 129.526 158.029 129.282 157.869 129.091C157.71 128.895 157.47 128.751 157.151 128.66C156.837 128.564 156.438 128.517 155.955 128.517H154.95V127.587H155.777C156.42 127.587 156.933 127.496 157.315 127.313C157.698 127.131 157.89 126.824 157.89 126.391C157.89 126.017 157.742 125.739 157.445 125.557C157.149 125.37 156.725 125.276 156.174 125.276C155.764 125.276 155.401 125.32 155.087 125.406C154.772 125.488 154.433 125.607 154.068 125.762L153.665 124.853C154.057 124.679 154.467 124.549 154.896 124.463C155.324 124.376 155.771 124.333 156.235 124.333ZM163.878 124.347C164.771 124.347 165.434 124.547 165.867 124.948C166.3 125.349 166.517 125.99 166.517 126.869V131.962H165.689L165.471 130.854H165.416C165.206 131.128 164.988 131.358 164.76 131.545C164.532 131.727 164.268 131.866 163.967 131.962C163.671 132.053 163.306 132.099 162.873 132.099C162.417 132.099 162.012 132.019 161.656 131.859C161.305 131.7 161.027 131.458 160.822 131.135C160.622 130.811 160.521 130.401 160.521 129.904C160.521 129.157 160.818 128.583 161.41 128.182C162.003 127.781 162.905 127.562 164.117 127.525L165.409 127.471V127.013C165.409 126.366 165.27 125.912 164.992 125.652C164.714 125.393 164.322 125.263 163.816 125.263C163.424 125.263 163.051 125.32 162.695 125.434C162.34 125.548 162.003 125.682 161.684 125.837L161.335 124.976C161.672 124.802 162.06 124.654 162.497 124.531C162.935 124.408 163.395 124.347 163.878 124.347ZM165.396 128.271L164.254 128.318C163.32 128.355 162.661 128.507 162.278 128.776C161.896 129.045 161.704 129.426 161.704 129.918C161.704 130.346 161.834 130.663 162.094 130.868C162.354 131.073 162.698 131.176 163.126 131.176C163.791 131.176 164.336 130.991 164.76 130.622C165.184 130.253 165.396 129.699 165.396 128.961V128.271ZM175.13 124.47V131.962H173.988V125.447H169.996V131.962H168.854V124.47H175.13ZM176.354 124.47H177.57L179.225 128.817C179.32 129.073 179.409 129.319 179.491 129.556C179.573 129.788 179.646 130.011 179.71 130.226C179.774 130.44 179.824 130.647 179.86 130.848H179.908C179.972 130.62 180.063 130.321 180.182 129.952C180.3 129.578 180.428 129.198 180.564 128.811L182.13 124.47H183.354L180.093 133.062C179.92 133.523 179.717 133.924 179.484 134.266C179.257 134.607 178.979 134.869 178.65 135.052C178.322 135.239 177.926 135.332 177.461 135.332C177.247 135.332 177.058 135.318 176.894 135.291C176.729 135.268 176.588 135.241 176.47 135.209V134.3C176.57 134.323 176.691 134.343 176.832 134.361C176.978 134.38 177.128 134.389 177.283 134.389C177.566 134.389 177.81 134.334 178.015 134.225C178.224 134.12 178.404 133.965 178.555 133.76C178.705 133.555 178.835 133.311 178.944 133.028L179.354 131.976L176.354 124.47ZM187.551 132.099C186.876 132.099 186.282 131.96 185.767 131.682C185.252 131.404 184.851 130.98 184.563 130.41C184.276 129.84 184.133 129.123 184.133 128.257C184.133 127.35 184.283 126.609 184.584 126.035C184.889 125.456 185.309 125.028 185.842 124.75C186.375 124.472 186.981 124.333 187.66 124.333C188.034 124.333 188.394 124.372 188.74 124.449C189.091 124.522 189.378 124.616 189.602 124.729L189.26 125.68C189.032 125.589 188.768 125.507 188.467 125.434C188.171 125.361 187.893 125.324 187.633 125.324C187.113 125.324 186.68 125.436 186.334 125.659C185.992 125.882 185.735 126.211 185.562 126.644C185.393 127.076 185.309 127.61 185.309 128.243C185.309 128.849 185.391 129.367 185.555 129.795C185.723 130.223 185.972 130.551 186.3 130.779C186.632 131.003 187.047 131.114 187.544 131.114C187.94 131.114 188.298 131.073 188.617 130.991C188.936 130.905 189.226 130.804 189.485 130.69V131.702C189.235 131.83 188.954 131.928 188.645 131.996C188.339 132.064 187.975 132.099 187.551 132.099ZM195.631 124.47H196.882L193.648 128.086L197.142 131.962H195.809L192.404 128.161V131.962H191.263V124.47H192.404V128.106L195.631 124.47ZM206.698 131.962L203.342 123.116H203.287C203.305 123.303 203.321 123.531 203.335 123.8C203.349 124.069 203.36 124.363 203.369 124.682C203.378 124.996 203.383 125.317 203.383 125.646V131.962H202.303V121.968H204.025L207.19 130.28H207.238L210.451 121.968H212.16V131.962H211.012V125.563C211.012 125.267 211.016 124.971 211.025 124.675C211.035 124.374 211.046 124.091 211.06 123.827C211.073 123.558 211.087 123.326 211.101 123.13H211.046L207.648 131.962H206.698ZM221.874 121.968L218.285 131.962H217.116L213.527 121.968H214.744L217.082 128.551C217.178 128.815 217.262 129.068 217.335 129.31C217.412 129.551 217.481 129.784 217.54 130.007C217.599 130.23 217.652 130.447 217.697 130.656C217.743 130.447 217.795 130.23 217.854 130.007C217.914 129.779 217.982 129.544 218.06 129.303C218.137 129.057 218.224 128.799 218.319 128.53L220.644 121.968H221.874ZM225.859 121.968C227.149 121.968 228.09 122.221 228.683 122.727C229.28 123.228 229.578 123.948 229.578 124.887C229.578 125.311 229.507 125.714 229.366 126.097C229.229 126.475 229.006 126.81 228.696 127.102C228.386 127.389 227.979 127.617 227.473 127.785C226.971 127.949 226.356 128.031 225.627 128.031H224.41V131.962H223.248V121.968H225.859ZM225.75 122.959H224.41V127.033H225.497C226.135 127.033 226.666 126.965 227.09 126.828C227.518 126.691 227.84 126.47 228.054 126.165C228.268 125.855 228.375 125.445 228.375 124.935C228.375 124.269 228.163 123.775 227.739 123.451C227.315 123.123 226.652 122.959 225.75 122.959Z" fill="#868686"/>
<path fill-rule="evenodd" clip-rule="evenodd" d="M42.7025 154.781C42.9406 155.031 42.9311 155.426 42.6812 155.664L34.3796 163.575L29.3188 158.753C29.0689 158.514 29.0594 158.119 29.2975 157.869C29.5357 157.619 29.9313 157.61 30.1812 157.848L34.3796 161.849L41.8188 154.759C42.0687 154.521 42.4643 154.531 42.7025 154.781Z" fill="#25DE85"/>
<path d="M71.3672 163.962V153.968H78.8115V163.962H77.6631V154.993H72.5293V163.962H71.3672ZM84.2803 156.333C84.9183 156.333 85.4652 156.474 85.9209 156.757C86.3766 157.039 86.7253 157.436 86.9668 157.946C87.2083 158.452 87.3291 159.045 87.3291 159.724V160.428H82.1543C82.168 161.307 82.3867 161.977 82.8105 162.438C83.2344 162.898 83.8314 163.128 84.6016 163.128C85.0755 163.128 85.4948 163.085 85.8594 162.998C86.224 162.911 86.6022 162.784 86.9941 162.615V163.613C86.6159 163.782 86.2399 163.905 85.8662 163.982C85.4971 164.06 85.0596 164.099 84.5537 164.099C83.8337 164.099 83.2048 163.953 82.667 163.661C82.1338 163.365 81.7191 162.932 81.4229 162.362C81.1266 161.793 80.9785 161.095 80.9785 160.271C80.9785 159.464 81.113 158.767 81.3818 158.179C81.6553 157.586 82.0381 157.131 82.5303 156.812C83.027 156.493 83.6104 156.333 84.2803 156.333ZM84.2666 157.263C83.6605 157.263 83.1774 157.461 82.8174 157.857C82.4574 158.254 82.2432 158.808 82.1748 159.519H86.1396C86.1351 159.072 86.0645 158.68 85.9277 158.343C85.7956 158.001 85.5928 157.737 85.3193 157.55C85.0459 157.358 84.695 157.263 84.2666 157.263ZM92.7773 156.333C93.7116 156.333 94.4567 156.654 95.0127 157.297C95.5687 157.939 95.8467 158.906 95.8467 160.195C95.8467 161.048 95.7191 161.763 95.4639 162.342C95.2087 162.921 94.8486 163.358 94.3838 163.654C93.9235 163.951 93.3789 164.099 92.75 164.099C92.3535 164.099 92.0049 164.046 91.7041 163.941C91.4033 163.837 91.1458 163.695 90.9316 163.518C90.7174 163.34 90.5397 163.146 90.3984 162.937H90.3164C90.3301 163.114 90.346 163.328 90.3643 163.579C90.387 163.83 90.3984 164.049 90.3984 164.235V167.312H89.2568V156.47H90.1934L90.3438 157.577H90.3984C90.5443 157.349 90.722 157.142 90.9316 156.955C91.1413 156.764 91.3965 156.613 91.6973 156.504C92.0026 156.39 92.3626 156.333 92.7773 156.333ZM92.5791 157.29C92.0596 157.29 91.6403 157.39 91.3213 157.591C91.0068 157.791 90.7767 158.092 90.6309 158.493C90.485 158.89 90.4076 159.389 90.3984 159.99V160.209C90.3984 160.842 90.4668 161.378 90.6035 161.815C90.7448 162.253 90.9749 162.586 91.2939 162.813C91.6175 163.041 92.0505 163.155 92.5928 163.155C93.0576 163.155 93.445 163.03 93.7549 162.779C94.0648 162.529 94.2949 162.18 94.4453 161.733C94.6003 161.282 94.6777 160.765 94.6777 160.182C94.6777 159.298 94.5046 158.596 94.1582 158.076C93.8164 157.552 93.29 157.29 92.5791 157.29ZM103.783 158.35C103.783 158.819 103.646 159.186 103.373 159.45C103.1 159.71 102.746 159.885 102.313 159.977V160.031C102.783 160.095 103.186 160.264 103.523 160.537C103.865 160.806 104.036 161.218 104.036 161.774C104.036 162.203 103.934 162.581 103.729 162.909C103.523 163.237 103.202 163.495 102.765 163.682C102.327 163.868 101.757 163.962 101.056 163.962H97.8291V156.47H101.028C101.566 156.47 102.04 156.531 102.45 156.654C102.865 156.773 103.191 156.969 103.428 157.242C103.665 157.516 103.783 157.885 103.783 158.35ZM102.854 161.774C102.854 161.332 102.685 161.013 102.348 160.817C102.015 160.621 101.53 160.523 100.892 160.523H98.9707V163.039H100.919C101.548 163.039 102.026 162.943 102.354 162.752C102.687 162.556 102.854 162.23 102.854 161.774ZM102.628 158.479C102.628 158.124 102.498 157.86 102.238 157.687C101.979 157.509 101.552 157.42 100.96 157.42H98.9707V159.573H100.762C101.377 159.573 101.842 159.484 102.156 159.307C102.471 159.129 102.628 158.853 102.628 158.479ZM105.868 163.962V156.47H107.01V159.56H109.061C109.699 159.56 110.223 159.639 110.633 159.799C111.048 159.958 111.355 160.195 111.556 160.51C111.756 160.824 111.856 161.214 111.856 161.679C111.856 162.144 111.756 162.547 111.556 162.889C111.36 163.23 111.05 163.495 110.626 163.682C110.207 163.868 109.66 163.962 108.985 163.962H105.868ZM107.01 163.039H108.876C109.441 163.039 109.892 162.939 110.229 162.738C110.567 162.538 110.735 162.203 110.735 161.733C110.735 161.273 110.578 160.954 110.264 160.776C109.949 160.594 109.498 160.503 108.91 160.503H107.01V163.039ZM113.094 163.962V156.47H114.229V163.962H113.094ZM119.513 156.333C120.151 156.333 120.698 156.474 121.153 156.757C121.609 157.039 121.958 157.436 122.199 157.946C122.441 158.452 122.562 159.045 122.562 159.724V160.428H117.387C117.4 161.307 117.619 161.977 118.043 162.438C118.467 162.898 119.064 163.128 119.834 163.128C120.308 163.128 120.727 163.085 121.092 162.998C121.456 162.911 121.835 162.784 122.227 162.615V163.613C121.848 163.782 121.472 163.905 121.099 163.982C120.729 164.06 120.292 164.099 119.786 164.099C119.066 164.099 118.437 163.953 117.899 163.661C117.366 163.365 116.951 162.932 116.655 162.362C116.359 161.793 116.211 161.095 116.211 160.271C116.211 159.464 116.345 158.767 116.614 158.179C116.888 157.586 117.271 157.131 117.763 156.812C118.259 156.493 118.843 156.333 119.513 156.333ZM119.499 157.263C118.893 157.263 118.41 157.461 118.05 157.857C117.69 158.254 117.476 158.808 117.407 159.519H121.372C121.368 159.072 121.297 158.68 121.16 158.343C121.028 158.001 120.825 157.737 120.552 157.55C120.278 157.358 119.927 157.263 119.499 157.263ZM134.401 156.47V163.962H133.26V157.447H129.268V163.962H128.126V156.47H134.401ZM143.268 160.202C143.268 160.817 143.188 161.367 143.028 161.85C142.869 162.333 142.639 162.741 142.338 163.073C142.037 163.406 141.673 163.661 141.244 163.839C140.82 164.012 140.34 164.099 139.802 164.099C139.3 164.099 138.84 164.012 138.421 163.839C138.006 163.661 137.646 163.406 137.341 163.073C137.04 162.741 136.805 162.333 136.637 161.85C136.473 161.367 136.391 160.817 136.391 160.202C136.391 159.382 136.53 158.685 136.808 158.11C137.086 157.532 137.482 157.092 137.997 156.791C138.517 156.486 139.134 156.333 139.85 156.333C140.533 156.333 141.13 156.486 141.641 156.791C142.156 157.096 142.554 157.538 142.837 158.117C143.124 158.691 143.268 159.386 143.268 160.202ZM137.566 160.202C137.566 160.804 137.646 161.326 137.806 161.768C137.965 162.21 138.211 162.551 138.544 162.793C138.877 163.035 139.305 163.155 139.829 163.155C140.349 163.155 140.775 163.035 141.107 162.793C141.445 162.551 141.693 162.21 141.853 161.768C142.012 161.326 142.092 160.804 142.092 160.202C142.092 159.605 142.012 159.09 141.853 158.657C141.693 158.22 141.447 157.882 141.114 157.646C140.782 157.409 140.351 157.29 139.822 157.29C139.043 157.29 138.471 157.548 138.106 158.062C137.746 158.577 137.566 159.291 137.566 160.202ZM150.849 163.962H149.693V157.42H147.417C147.326 158.6 147.21 159.612 147.068 160.455C146.932 161.294 146.758 161.979 146.549 162.513C146.344 163.041 146.093 163.431 145.797 163.682C145.505 163.928 145.157 164.051 144.751 164.051C144.628 164.051 144.512 164.044 144.402 164.03C144.293 164.017 144.2 163.994 144.122 163.962V163.101C144.181 163.119 144.243 163.132 144.307 163.142C144.375 163.151 144.446 163.155 144.519 163.155C144.724 163.155 144.91 163.071 145.079 162.902C145.252 162.729 145.407 162.469 145.544 162.123C145.685 161.777 145.811 161.339 145.92 160.811C146.029 160.277 146.125 159.651 146.207 158.931C146.294 158.206 146.369 157.386 146.433 156.47H150.849V163.962ZM154.383 159.56H156.68C157.318 159.56 157.849 159.639 158.272 159.799C158.696 159.958 159.013 160.195 159.223 160.51C159.437 160.824 159.544 161.214 159.544 161.679C159.544 162.144 159.439 162.547 159.229 162.889C159.024 163.23 158.705 163.495 158.272 163.682C157.844 163.868 157.29 163.962 156.611 163.962H153.241V156.47H154.383V159.56ZM158.402 161.733C158.402 161.273 158.238 160.954 157.91 160.776C157.587 160.594 157.133 160.503 156.55 160.503H154.383V163.039H156.557C157.104 163.039 157.548 162.939 157.89 162.738C158.231 162.533 158.402 162.198 158.402 161.733ZM163.427 156.333C163.987 156.333 164.473 156.41 164.883 156.565C165.293 156.716 165.61 156.937 165.833 157.229C166.056 157.52 166.168 157.876 166.168 158.295C166.168 158.746 166.045 159.106 165.799 159.375C165.553 159.644 165.213 159.838 164.78 159.956V160.011C165.086 160.093 165.361 160.211 165.607 160.366C165.858 160.517 166.056 160.717 166.202 160.968C166.353 161.214 166.428 161.521 166.428 161.891C166.428 162.31 166.314 162.688 166.086 163.025C165.858 163.358 165.512 163.62 165.047 163.812C164.582 164.003 163.994 164.099 163.283 164.099C162.932 164.099 162.6 164.078 162.285 164.037C161.971 164.001 161.686 163.946 161.431 163.873C161.175 163.8 160.952 163.714 160.761 163.613V162.581C161.08 162.736 161.453 162.873 161.882 162.991C162.31 163.11 162.773 163.169 163.27 163.169C163.652 163.169 163.996 163.126 164.302 163.039C164.607 162.948 164.849 162.804 165.026 162.608C165.209 162.408 165.3 162.146 165.3 161.822C165.3 161.526 165.22 161.282 165.061 161.091C164.901 160.895 164.662 160.751 164.343 160.66C164.028 160.564 163.63 160.517 163.146 160.517H162.142V159.587H162.969C163.611 159.587 164.124 159.496 164.507 159.313C164.89 159.131 165.081 158.824 165.081 158.391C165.081 158.017 164.933 157.739 164.637 157.557C164.34 157.37 163.917 157.276 163.365 157.276C162.955 157.276 162.593 157.32 162.278 157.406C161.964 157.488 161.624 157.607 161.26 157.762L160.856 156.853C161.248 156.679 161.659 156.549 162.087 156.463C162.515 156.376 162.962 156.333 163.427 156.333ZM174.727 160.202C174.727 160.817 174.647 161.367 174.487 161.85C174.328 162.333 174.098 162.741 173.797 163.073C173.496 163.406 173.132 163.661 172.703 163.839C172.279 164.012 171.799 164.099 171.261 164.099C170.759 164.099 170.299 164.012 169.88 163.839C169.465 163.661 169.105 163.406 168.8 163.073C168.499 162.741 168.264 162.333 168.096 161.85C167.932 161.367 167.85 160.817 167.85 160.202C167.85 159.382 167.989 158.685 168.267 158.11C168.545 157.532 168.941 157.092 169.456 156.791C169.976 156.486 170.593 156.333 171.309 156.333C171.992 156.333 172.589 156.486 173.1 156.791C173.615 157.096 174.013 157.538 174.296 158.117C174.583 158.691 174.727 159.386 174.727 160.202ZM169.025 160.202C169.025 160.804 169.105 161.326 169.265 161.768C169.424 162.21 169.67 162.551 170.003 162.793C170.336 163.035 170.764 163.155 171.288 163.155C171.808 163.155 172.234 163.035 172.566 162.793C172.904 162.551 173.152 162.21 173.312 161.768C173.471 161.326 173.551 160.804 173.551 160.202C173.551 159.605 173.471 159.09 173.312 158.657C173.152 158.22 172.906 157.882 172.573 157.646C172.241 157.409 171.81 157.29 171.281 157.29C170.502 157.29 169.93 157.548 169.565 158.062C169.205 158.577 169.025 159.291 169.025 160.202ZM182.643 158.35C182.643 158.819 182.506 159.186 182.232 159.45C181.959 159.71 181.606 159.885 181.173 159.977V160.031C181.642 160.095 182.046 160.264 182.383 160.537C182.725 160.806 182.896 161.218 182.896 161.774C182.896 162.203 182.793 162.581 182.588 162.909C182.383 163.237 182.062 163.495 181.624 163.682C181.187 163.868 180.617 163.962 179.915 163.962H176.688V156.47H179.888C180.425 156.47 180.899 156.531 181.31 156.654C181.724 156.773 182.05 156.969 182.287 157.242C182.524 157.516 182.643 157.885 182.643 158.35ZM181.713 161.774C181.713 161.332 181.544 161.013 181.207 160.817C180.874 160.621 180.389 160.523 179.751 160.523H177.83V163.039H179.778C180.407 163.039 180.886 162.943 181.214 162.752C181.547 162.556 181.713 162.23 181.713 161.774ZM181.487 158.479C181.487 158.124 181.357 157.86 181.098 157.687C180.838 157.509 180.412 157.42 179.819 157.42H177.83V159.573H179.621C180.236 159.573 180.701 159.484 181.016 159.307C181.33 159.129 181.487 158.853 181.487 158.479ZM187.53 156.347C188.424 156.347 189.087 156.547 189.52 156.948C189.952 157.349 190.169 157.99 190.169 158.869V163.962H189.342L189.123 162.854H189.068C188.859 163.128 188.64 163.358 188.412 163.545C188.184 163.727 187.92 163.866 187.619 163.962C187.323 164.053 186.958 164.099 186.525 164.099C186.07 164.099 185.664 164.019 185.309 163.859C184.958 163.7 184.68 163.458 184.475 163.135C184.274 162.811 184.174 162.401 184.174 161.904C184.174 161.157 184.47 160.583 185.062 160.182C185.655 159.781 186.557 159.562 187.77 159.525L189.062 159.471V159.013C189.062 158.366 188.923 157.912 188.645 157.652C188.367 157.393 187.975 157.263 187.469 157.263C187.077 157.263 186.703 157.32 186.348 157.434C185.992 157.548 185.655 157.682 185.336 157.837L184.987 156.976C185.325 156.802 185.712 156.654 186.149 156.531C186.587 156.408 187.047 156.347 187.53 156.347ZM189.048 160.271L187.906 160.318C186.972 160.355 186.313 160.507 185.931 160.776C185.548 161.045 185.356 161.426 185.356 161.918C185.356 162.346 185.486 162.663 185.746 162.868C186.006 163.073 186.35 163.176 186.778 163.176C187.444 163.176 187.988 162.991 188.412 162.622C188.836 162.253 189.048 161.699 189.048 160.961V160.271ZM197.613 157.434H195.146V163.962H194.024V157.434H191.591V156.47H197.613V157.434ZM201.981 156.333C202.619 156.333 203.166 156.474 203.622 156.757C204.078 157.039 204.426 157.436 204.668 157.946C204.91 158.452 205.03 159.045 205.03 159.724V160.428H199.855C199.869 161.307 200.088 161.977 200.512 162.438C200.936 162.898 201.533 163.128 202.303 163.128C202.777 163.128 203.196 163.085 203.561 162.998C203.925 162.911 204.303 162.784 204.695 162.615V163.613C204.317 163.782 203.941 163.905 203.567 163.982C203.198 164.06 202.761 164.099 202.255 164.099C201.535 164.099 200.906 163.953 200.368 163.661C199.835 163.365 199.42 162.932 199.124 162.362C198.828 161.793 198.68 161.095 198.68 160.271C198.68 159.464 198.814 158.767 199.083 158.179C199.356 157.586 199.739 157.131 200.231 156.812C200.728 156.493 201.312 156.333 201.981 156.333ZM201.968 157.263C201.362 157.263 200.879 157.461 200.519 157.857C200.159 158.254 199.944 158.808 199.876 159.519H203.841C203.836 159.072 203.766 158.68 203.629 158.343C203.497 158.001 203.294 157.737 203.021 157.55C202.747 157.358 202.396 157.263 201.968 157.263ZM212.577 163.962H211.422V157.42H209.146C209.054 158.6 208.938 159.612 208.797 160.455C208.66 161.294 208.487 161.979 208.277 162.513C208.072 163.041 207.822 163.431 207.525 163.682C207.234 163.928 206.885 164.051 206.479 164.051C206.356 164.051 206.24 164.044 206.131 164.03C206.021 164.017 205.928 163.994 205.851 163.962V163.101C205.91 163.119 205.971 163.132 206.035 163.142C206.104 163.151 206.174 163.155 206.247 163.155C206.452 163.155 206.639 163.071 206.808 162.902C206.981 162.729 207.136 162.469 207.272 162.123C207.414 161.777 207.539 161.339 207.648 160.811C207.758 160.277 207.854 159.651 207.936 158.931C208.022 158.206 208.097 157.386 208.161 156.47H212.577V163.962ZM216.05 156.47V161.18C216.05 161.271 216.048 161.389 216.043 161.535C216.038 161.676 216.032 161.829 216.022 161.993C216.013 162.153 216.004 162.308 215.995 162.458C215.991 162.604 215.984 162.725 215.975 162.82L220.062 156.47H221.457V163.962H220.397V159.368C220.397 159.222 220.4 159.035 220.404 158.808C220.409 158.58 220.416 158.356 220.425 158.138C220.434 157.914 220.441 157.741 220.445 157.618L216.371 163.962H214.97V156.47H216.05Z" fill="#868686"/>
<path fill-rule="evenodd" clip-rule="evenodd" d="M42.7025 186.781C42.9406 187.031 42.9311 187.426 42.6812 187.664L34.3796 195.575L29.3188 190.753C29.0689 190.514 29.0594 190.119 29.2975 189.869C29.5357 189.619 29.9313 189.61 30.1812 189.848L34.3796 193.849L41.8188 186.759C42.0687 186.521 42.4643 186.531 42.7025 186.781Z" fill="#25DE85"/>
<path d="M75.6396 186.85C75.0882 186.85 74.5915 186.945 74.1494 187.137C73.7119 187.324 73.3382 187.597 73.0283 187.957C72.723 188.312 72.4883 188.743 72.3242 189.249C72.1602 189.755 72.0781 190.325 72.0781 190.958C72.0781 191.797 72.208 192.526 72.4678 193.146C72.7321 193.761 73.124 194.237 73.6436 194.574C74.1676 194.911 74.8216 195.08 75.6055 195.08C76.0521 195.08 76.4714 195.044 76.8633 194.971C77.2598 194.893 77.6449 194.798 78.0186 194.684V195.695C77.654 195.832 77.2712 195.932 76.8701 195.996C76.4691 196.064 75.9928 196.099 75.4414 196.099C74.4251 196.099 73.5752 195.889 72.8916 195.47C72.2126 195.046 71.7021 194.449 71.3604 193.679C71.0231 192.909 70.8545 191.999 70.8545 190.951C70.8545 190.195 70.9593 189.504 71.1689 188.88C71.3831 188.251 71.693 187.709 72.0986 187.253C72.5088 186.797 73.0101 186.446 73.6025 186.2C74.1995 185.95 74.8831 185.824 75.6533 185.824C76.1592 185.824 76.6468 185.874 77.1162 185.975C77.5856 186.075 78.0094 186.218 78.3877 186.405L77.9229 187.39C77.6038 187.244 77.2529 187.118 76.8701 187.014C76.4919 186.904 76.0817 186.85 75.6396 186.85ZM85.1211 189.434H82.6533V195.962H81.5322V189.434H79.0986V188.47H85.1211V189.434ZM89.4072 188.347C90.3005 188.347 90.9635 188.547 91.3965 188.948C91.8294 189.349 92.0459 189.99 92.0459 190.869V195.962H91.2188L91 194.854H90.9453C90.7357 195.128 90.5169 195.358 90.2891 195.545C90.0612 195.727 89.7969 195.866 89.4961 195.962C89.1999 196.053 88.8353 196.099 88.4023 196.099C87.9466 196.099 87.541 196.019 87.1855 195.859C86.8346 195.7 86.5566 195.458 86.3516 195.135C86.151 194.811 86.0508 194.401 86.0508 193.904C86.0508 193.157 86.347 192.583 86.9395 192.182C87.5319 191.781 88.4342 191.562 89.6465 191.525L90.9385 191.471V191.013C90.9385 190.366 90.7995 189.912 90.5215 189.652C90.2435 189.393 89.8516 189.263 89.3457 189.263C88.9538 189.263 88.5801 189.32 88.2246 189.434C87.8691 189.548 87.5319 189.682 87.2129 189.837L86.8643 188.976C87.2015 188.802 87.5889 188.654 88.0264 188.531C88.4639 188.408 88.9242 188.347 89.4072 188.347ZM90.9248 192.271L89.7832 192.318C88.849 192.355 88.1904 192.507 87.8076 192.776C87.4248 193.045 87.2334 193.426 87.2334 193.918C87.2334 194.346 87.3633 194.663 87.623 194.868C87.8828 195.073 88.2269 195.176 88.6553 195.176C89.3206 195.176 89.8652 194.991 90.2891 194.622C90.7129 194.253 90.9248 193.699 90.9248 192.961V192.271ZM97.9043 188.333C98.8385 188.333 99.5837 188.654 100.14 189.297C100.696 189.939 100.974 190.906 100.974 192.195C100.974 193.048 100.846 193.763 100.591 194.342C100.336 194.921 99.9756 195.358 99.5107 195.654C99.0505 195.951 98.5059 196.099 97.877 196.099C97.4805 196.099 97.1318 196.046 96.8311 195.941C96.5303 195.837 96.2728 195.695 96.0586 195.518C95.8444 195.34 95.6667 195.146 95.5254 194.937H95.4434C95.457 195.114 95.473 195.328 95.4912 195.579C95.514 195.83 95.5254 196.049 95.5254 196.235V199.312H94.3838V188.47H95.3203L95.4707 189.577H95.5254C95.6712 189.349 95.849 189.142 96.0586 188.955C96.2682 188.764 96.5234 188.613 96.8242 188.504C97.1296 188.39 97.4896 188.333 97.9043 188.333ZM97.7061 189.29C97.1865 189.29 96.7673 189.39 96.4482 189.591C96.1338 189.791 95.9036 190.092 95.7578 190.493C95.612 190.89 95.5345 191.389 95.5254 191.99V192.209C95.5254 192.842 95.5938 193.378 95.7305 193.815C95.8717 194.253 96.1019 194.586 96.4209 194.813C96.7445 195.041 97.1774 195.155 97.7197 195.155C98.1846 195.155 98.5719 195.03 98.8818 194.779C99.1917 194.529 99.4219 194.18 99.5723 193.733C99.7272 193.282 99.8047 192.765 99.8047 192.182C99.8047 191.298 99.6315 190.596 99.2852 190.076C98.9434 189.552 98.417 189.29 97.7061 189.29ZM108.062 189.434H105.595V195.962H104.474V189.434H102.04V188.47H108.062V189.434ZM121.092 188.47V195.962H120.066V191.081C120.066 190.881 120.071 190.678 120.08 190.473C120.094 190.263 120.11 190.053 120.128 189.844H120.087L117.599 195.962H116.635L114.208 189.844H114.167C114.181 190.053 114.19 190.263 114.194 190.473C114.203 190.678 114.208 190.894 114.208 191.122V195.962H113.176V188.47H114.7L117.12 194.595L119.574 188.47H121.092ZM126.253 188.347C127.146 188.347 127.809 188.547 128.242 188.948C128.675 189.349 128.892 189.99 128.892 190.869V195.962H128.064L127.846 194.854H127.791C127.581 195.128 127.363 195.358 127.135 195.545C126.907 195.727 126.643 195.866 126.342 195.962C126.046 196.053 125.681 196.099 125.248 196.099C124.792 196.099 124.387 196.019 124.031 195.859C123.68 195.7 123.402 195.458 123.197 195.135C122.997 194.811 122.896 194.401 122.896 193.904C122.896 193.157 123.193 192.583 123.785 192.182C124.378 191.781 125.28 191.562 126.492 191.525L127.784 191.471V191.013C127.784 190.366 127.645 189.912 127.367 189.652C127.089 189.393 126.697 189.263 126.191 189.263C125.799 189.263 125.426 189.32 125.07 189.434C124.715 189.548 124.378 189.682 124.059 189.837L123.71 188.976C124.047 188.802 124.435 188.654 124.872 188.531C125.31 188.408 125.77 188.347 126.253 188.347ZM127.771 192.271L126.629 192.318C125.695 192.355 125.036 192.507 124.653 192.776C124.271 193.045 124.079 193.426 124.079 193.918C124.079 194.346 124.209 194.663 124.469 194.868C124.729 195.073 125.073 195.176 125.501 195.176C126.166 195.176 126.711 194.991 127.135 194.622C127.559 194.253 127.771 193.699 127.771 192.961V192.271ZM134.75 188.333C135.684 188.333 136.429 188.654 136.985 189.297C137.541 189.939 137.819 190.906 137.819 192.195C137.819 193.048 137.692 193.763 137.437 194.342C137.181 194.921 136.821 195.358 136.356 195.654C135.896 195.951 135.352 196.099 134.723 196.099C134.326 196.099 133.978 196.046 133.677 195.941C133.376 195.837 133.118 195.695 132.904 195.518C132.69 195.34 132.512 195.146 132.371 194.937H132.289C132.303 195.114 132.319 195.328 132.337 195.579C132.36 195.83 132.371 196.049 132.371 196.235V199.312H131.229V188.47H132.166L132.316 189.577H132.371C132.517 189.349 132.695 189.142 132.904 188.955C133.114 188.764 133.369 188.613 133.67 188.504C133.975 188.39 134.335 188.333 134.75 188.333ZM134.552 189.29C134.032 189.29 133.613 189.39 133.294 189.591C132.979 189.791 132.749 190.092 132.604 190.493C132.458 190.89 132.38 191.389 132.371 191.99V192.209C132.371 192.842 132.439 193.378 132.576 193.815C132.717 194.253 132.948 194.586 133.267 194.813C133.59 195.041 134.023 195.155 134.565 195.155C135.03 195.155 135.418 195.03 135.728 194.779C136.037 194.529 136.268 194.18 136.418 193.733C136.573 193.282 136.65 192.765 136.65 192.182C136.65 191.298 136.477 190.596 136.131 190.076C135.789 189.552 135.263 189.29 134.552 189.29ZM144.17 188.47H145.421L142.188 192.086L145.681 195.962H144.348L140.943 192.161V195.962H139.802V188.47H140.943V192.106L144.17 188.47ZM149.919 188.333C150.557 188.333 151.104 188.474 151.56 188.757C152.015 189.039 152.364 189.436 152.605 189.946C152.847 190.452 152.968 191.045 152.968 191.724V192.428H147.793C147.807 193.307 148.025 193.977 148.449 194.438C148.873 194.898 149.47 195.128 150.24 195.128C150.714 195.128 151.133 195.085 151.498 194.998C151.863 194.911 152.241 194.784 152.633 194.615V195.613C152.255 195.782 151.879 195.905 151.505 195.982C151.136 196.06 150.698 196.099 150.192 196.099C149.472 196.099 148.843 195.953 148.306 195.661C147.772 195.365 147.358 194.932 147.062 194.362C146.765 193.793 146.617 193.095 146.617 192.271C146.617 191.464 146.752 190.767 147.021 190.179C147.294 189.586 147.677 189.131 148.169 188.812C148.666 188.493 149.249 188.333 149.919 188.333ZM149.905 189.263C149.299 189.263 148.816 189.461 148.456 189.857C148.096 190.254 147.882 190.808 147.813 191.519H151.778C151.774 191.072 151.703 190.68 151.566 190.343C151.434 190.001 151.231 189.737 150.958 189.55C150.685 189.358 150.334 189.263 149.905 189.263ZM160.002 189.434H157.534V195.962H156.413V189.434H153.979V188.47H160.002V189.434ZM162.565 188.47V193.18C162.565 193.271 162.563 193.389 162.559 193.535C162.554 193.676 162.547 193.829 162.538 193.993C162.529 194.153 162.52 194.308 162.511 194.458C162.506 194.604 162.499 194.725 162.49 194.82L166.578 188.47H167.973V195.962H166.913V191.368C166.913 191.222 166.915 191.035 166.92 190.808C166.924 190.58 166.931 190.356 166.94 190.138C166.95 189.914 166.956 189.741 166.961 189.618L162.887 195.962H161.485V188.47H162.565ZM171.527 188.47V191.614H175.704V188.47H176.839V195.962H175.704V192.578H171.527V195.962H170.386V188.47H171.527ZM183.791 188.47V189.434H180.387V195.962H179.245V188.47H183.791ZM188.091 188.347C188.984 188.347 189.647 188.547 190.08 188.948C190.513 189.349 190.729 189.99 190.729 190.869V195.962H189.902L189.684 194.854H189.629C189.419 195.128 189.201 195.358 188.973 195.545C188.745 195.727 188.48 195.866 188.18 195.962C187.883 196.053 187.519 196.099 187.086 196.099C186.63 196.099 186.225 196.019 185.869 195.859C185.518 195.7 185.24 195.458 185.035 195.135C184.835 194.811 184.734 194.401 184.734 193.904C184.734 193.157 185.031 192.583 185.623 192.182C186.215 191.781 187.118 191.562 188.33 191.525L189.622 191.471V191.013C189.622 190.366 189.483 189.912 189.205 189.652C188.927 189.393 188.535 189.263 188.029 189.263C187.637 189.263 187.264 189.32 186.908 189.434C186.553 189.548 186.215 189.682 185.896 189.837L185.548 188.976C185.885 188.802 186.272 188.654 186.71 188.531C187.147 188.408 187.608 188.347 188.091 188.347ZM189.608 192.271L188.467 192.318C187.533 192.355 186.874 192.507 186.491 192.776C186.108 193.045 185.917 193.426 185.917 193.918C185.917 194.346 186.047 194.663 186.307 194.868C186.566 195.073 186.91 195.176 187.339 195.176C188.004 195.176 188.549 194.991 188.973 194.622C189.396 194.253 189.608 193.699 189.608 192.961V192.271Z" fill="#868686"/>
</g>
<defs>
<clipPath id="clip0_25_1606">
<rect width="285.75" height="233" fill="white" transform="translate(0 0.961914)"/>
</clipPath>
</defs>
</svg>
