<svg width="287" height="196" viewBox="0 0 287 196" fill="none" xmlns="http://www.w3.org/2000/svg">
<g clip-path="url(#clip0_25_1581)">
<path d="M1.49999 42.8552L144.49 0.961921L286.5 42.8552L286.5 195.962L1.49997 195.962L1.49999 42.8552Z" fill="#F4F4F4"/>
<path d="M48.7188 70.2354C48.7188 71.1156 48.6146 71.9176 48.4062 72.6416C48.2031 73.3604 47.8932 73.9801 47.4766 74.501C47.0599 75.0218 46.5312 75.4229 45.8906 75.7041C45.25 75.9801 44.4948 76.1182 43.625 76.1182C42.5625 76.1182 41.6693 75.9098 40.9453 75.4932C40.2266 75.0713 39.6719 74.4801 39.2812 73.7197C38.8906 72.9541 38.6536 72.0583 38.5703 71.0322H36.3828V75.9619H33.9609V64.54H36.3828V69.0166H38.6172C38.7318 68.0687 38.9896 67.2458 39.3906 66.5479C39.7917 65.8499 40.3438 65.3109 41.0469 64.9307C41.7552 64.5505 42.6198 64.3604 43.6406 64.3604C44.7969 64.3604 45.75 64.6025 46.5 65.0869C47.25 65.5713 47.8073 66.2536 48.1719 67.1338C48.5365 68.014 48.7188 69.0479 48.7188 70.2354ZM41.0547 70.2354C41.0547 71.0322 41.1458 71.7197 41.3281 72.2979C41.5104 72.8708 41.7917 73.3135 42.1719 73.626C42.5521 73.9333 43.0365 74.0869 43.625 74.0869C44.2344 74.0869 44.7292 73.9333 45.1094 73.626C45.4948 73.3135 45.776 72.8708 45.9531 72.2979C46.1302 71.7197 46.2188 71.0322 46.2188 70.2354C46.2188 69.4333 46.1302 68.7458 45.9531 68.1729C45.776 67.5947 45.4974 67.152 45.1172 66.8447C44.7422 66.5322 44.2552 66.376 43.6562 66.376C43.0573 66.376 42.5651 66.5322 42.1797 66.8447C41.7943 67.152 41.5104 67.5947 41.3281 68.1729C41.1458 68.7458 41.0547 69.4333 41.0547 70.2354ZM55.7578 67.0635C56.7422 67.0635 57.5365 67.4463 58.1406 68.2119C58.75 68.9775 59.0547 70.0999 59.0547 71.5791C59.0547 72.5687 58.9115 73.402 58.625 74.0791C58.3385 74.751 57.9427 75.2588 57.4375 75.6025C56.9323 75.9463 56.3516 76.1182 55.6953 76.1182C55.2734 76.1182 54.9115 76.0661 54.6094 75.9619C54.3073 75.8525 54.0495 75.7145 53.8359 75.5479C53.6224 75.376 53.4375 75.1937 53.2812 75.001H53.1562C53.1979 75.2093 53.2292 75.4229 53.25 75.6416C53.2708 75.8604 53.2812 76.0739 53.2812 76.2822V79.8057H50.8984V67.2275H52.8359L53.1719 68.3604H53.2812C53.4375 68.126 53.6276 67.9098 53.8516 67.7119C54.0755 67.514 54.3438 67.3577 54.6562 67.2432C54.974 67.1234 55.3411 67.0635 55.7578 67.0635ZM54.9922 68.9697C54.5755 68.9697 54.2448 69.0557 54 69.2275C53.7552 69.3994 53.5755 69.6572 53.4609 70.001C53.3516 70.3447 53.2917 70.7796 53.2812 71.3057V71.5635C53.2812 72.126 53.3333 72.6025 53.4375 72.9932C53.5469 73.3838 53.7266 73.6807 53.9766 73.8838C54.2318 74.0869 54.5807 74.1885 55.0234 74.1885C55.388 74.1885 55.6875 74.0869 55.9219 73.8838C56.1562 73.6807 56.3307 73.3838 56.4453 72.9932C56.5651 72.5973 56.625 72.1156 56.625 71.5479C56.625 70.6937 56.4922 70.0505 56.2266 69.6182C55.9609 69.1859 55.5495 68.9697 54.9922 68.9697ZM63.3281 67.2275V70.6807C63.3281 70.8577 63.3203 71.0817 63.3047 71.3525C63.2943 71.6182 63.2786 71.889 63.2578 72.165C63.237 72.4411 63.2161 72.6885 63.1953 72.9072C63.1745 73.126 63.1589 73.2744 63.1484 73.3525L67.1797 67.2275H70.0469V75.9619H67.7422V72.4775C67.7422 72.1911 67.7526 71.876 67.7734 71.5322C67.7943 71.1833 67.8177 70.8551 67.8438 70.5479C67.8698 70.2406 67.888 70.0088 67.8984 69.8525L63.8828 75.9619H61.0234V67.2275H63.3281ZM80.4062 67.2275V74.2197H81.6875V79.0947H79.5469V75.9619H73.6719V79.0947H71.5312V74.2197H72.2656C72.651 73.6312 72.974 72.9593 73.2344 72.2041C73.5 71.4489 73.7135 70.6494 73.875 69.8057C74.0417 68.9567 74.1615 68.0973 74.2344 67.2275H80.4062ZM78.0234 69.0166H76.2344C76.151 69.6624 76.0443 70.2874 75.9141 70.8916C75.7891 71.4906 75.6328 72.0687 75.4453 72.626C75.2578 73.1781 75.0286 73.7093 74.7578 74.2197H78.0234V69.0166ZM85.4844 67.2275V70.6807C85.4844 70.8577 85.4766 71.0817 85.4609 71.3525C85.4505 71.6182 85.4349 71.889 85.4141 72.165C85.3932 72.4411 85.3724 72.6885 85.3516 72.9072C85.3307 73.126 85.3151 73.2744 85.3047 73.3525L89.3359 67.2275H92.2031V75.9619H89.8984V72.4775C89.8984 72.1911 89.9089 71.876 89.9297 71.5322C89.9505 71.1833 89.974 70.8551 90 70.5479C90.026 70.2406 90.0443 70.0088 90.0547 69.8525L86.0391 75.9619H83.1797V67.2275H85.4844ZM96.8047 67.2275V70.4229C96.8047 70.8031 96.8958 71.0895 97.0781 71.2822C97.2656 71.4697 97.526 71.5635 97.8594 71.5635C98.3177 71.5635 98.7422 71.5114 99.1328 71.4072C99.5286 71.3031 99.9271 71.1676 100.328 71.001V67.2275H102.711V75.9619H100.328V72.4932C99.9479 72.6911 99.5182 72.8734 99.0391 73.04C98.5651 73.2067 98.0234 73.29 97.4141 73.29C96.5026 73.29 95.776 73.0583 95.2344 72.5947C94.6927 72.126 94.4219 71.4202 94.4219 70.4775V67.2275H96.8047ZM108.812 67.0635C109.62 67.0635 110.315 67.2197 110.898 67.5322C111.482 67.8395 111.932 68.2874 112.25 68.876C112.568 69.4645 112.727 70.1833 112.727 71.0322V72.1885H107.094C107.12 72.8604 107.32 73.389 107.695 73.7744C108.076 74.1546 108.602 74.3447 109.273 74.3447C109.831 74.3447 110.341 74.2874 110.805 74.1729C111.268 74.0583 111.745 73.8864 112.234 73.6572V75.501C111.802 75.7145 111.349 75.8708 110.875 75.9697C110.406 76.0687 109.836 76.1182 109.164 76.1182C108.289 76.1182 107.513 75.9567 106.836 75.6338C106.164 75.3109 105.635 74.8187 105.25 74.1572C104.87 73.4958 104.68 72.6624 104.68 71.6572C104.68 70.6364 104.852 69.7874 105.195 69.1104C105.544 68.4281 106.029 67.9176 106.648 67.5791C107.268 67.2354 107.99 67.0635 108.812 67.0635ZM108.828 68.7588C108.365 68.7588 107.979 68.9072 107.672 69.2041C107.37 69.501 107.195 69.9671 107.148 70.6025H110.492C110.487 70.2484 110.422 69.9333 110.297 69.6572C110.177 69.3812 109.995 69.1624 109.75 69.001C109.51 68.8395 109.203 68.7588 108.828 68.7588ZM118.211 76.1182C117.346 76.1182 116.609 75.9619 116 75.6494C115.391 75.3317 114.927 74.8421 114.609 74.1807C114.292 73.5192 114.133 72.6729 114.133 71.6416C114.133 70.5739 114.312 69.7041 114.672 69.0322C115.036 68.3551 115.539 67.8577 116.18 67.54C116.826 67.2223 117.573 67.0635 118.422 67.0635C119.026 67.0635 119.547 67.1234 119.984 67.2432C120.427 67.3577 120.812 67.4958 121.141 67.6572L120.438 69.501C120.062 69.3499 119.714 69.2275 119.391 69.1338C119.068 69.0348 118.745 68.9854 118.422 68.9854C118.005 68.9854 117.659 69.0843 117.383 69.2822C117.107 69.4749 116.901 69.7666 116.766 70.1572C116.63 70.5479 116.562 71.0374 116.562 71.626C116.562 72.2041 116.635 72.6833 116.781 73.0635C116.927 73.4437 117.138 73.7275 117.414 73.915C117.69 74.0973 118.026 74.1885 118.422 74.1885C118.917 74.1885 119.357 74.1234 119.742 73.9932C120.128 73.8577 120.503 73.6702 120.867 73.4307V75.4697C120.503 75.6989 120.12 75.863 119.719 75.9619C119.323 76.0661 118.82 76.1182 118.211 76.1182ZM128.625 67.2275H131.25L127.789 71.415L131.555 75.9619H128.852L125.281 71.5322V75.9619H122.898V67.2275H125.281V71.4697L128.625 67.2275ZM135.109 67.2275V70.6807C135.109 70.8577 135.102 71.0817 135.086 71.3525C135.076 71.6182 135.06 71.889 135.039 72.165C135.018 72.4411 134.997 72.6885 134.977 72.9072C134.956 73.126 134.94 73.2744 134.93 73.3525L138.961 67.2275H141.828V75.9619H139.523V72.4775C139.523 72.1911 139.534 71.876 139.555 71.5322C139.576 71.1833 139.599 70.8551 139.625 70.5479C139.651 70.2406 139.669 70.0088 139.68 69.8525L135.664 75.9619H132.805V67.2275H135.109ZM146.641 67.2275V70.6807C146.641 70.8577 146.633 71.0817 146.617 71.3525C146.607 71.6182 146.591 71.889 146.57 72.165C146.549 72.4411 146.529 72.6885 146.508 72.9072C146.487 73.126 146.471 73.2744 146.461 73.3525L150.492 67.2275H153.359V75.9619H151.055V72.4775C151.055 72.1911 151.065 71.876 151.086 71.5322C151.107 71.1833 151.13 70.8551 151.156 70.5479C151.182 70.2406 151.201 70.0088 151.211 69.8525L147.195 75.9619H144.336V67.2275H146.641ZM152.703 63.4697C152.646 64.0218 152.49 64.5088 152.234 64.9307C151.979 65.3525 151.581 65.6807 151.039 65.915C150.497 66.1494 149.768 66.2666 148.852 66.2666C147.909 66.2666 147.174 66.1546 146.648 65.9307C146.122 65.7015 145.747 65.3786 145.523 64.9619C145.299 64.54 145.164 64.0426 145.117 63.4697H147.25C147.297 64.0583 147.445 64.4489 147.695 64.6416C147.945 64.8291 148.346 64.9229 148.898 64.9229C149.357 64.9229 149.732 64.8187 150.023 64.6104C150.315 64.402 150.49 64.0218 150.547 63.4697H152.703ZM166.406 63.8057V67.1807C167.417 67.264 168.268 67.501 168.961 67.8916C169.654 68.277 170.18 68.7874 170.539 69.4229C170.898 70.0531 171.078 70.777 171.078 71.5947C171.078 72.4072 170.904 73.1312 170.555 73.7666C170.211 74.402 169.693 74.915 169 75.3057C168.312 75.6963 167.448 75.9359 166.406 76.0244V79.8057H164.195V76.0244C163.19 75.9307 162.339 75.6885 161.641 75.2979C160.943 74.902 160.409 74.389 160.039 73.7588C159.674 73.1234 159.492 72.402 159.492 71.5947C159.492 70.7614 159.661 70.027 160 69.3916C160.339 68.751 160.854 68.2406 161.547 67.8604C162.245 67.4749 163.128 67.2484 164.195 67.1807V63.8057H166.406ZM164.195 68.9697C163.732 69.0322 163.331 69.1833 162.992 69.4229C162.659 69.6624 162.401 69.9697 162.219 70.3447C162.036 70.7145 161.945 71.1312 161.945 71.5947C161.945 72.0687 162.031 72.4932 162.203 72.8682C162.38 73.238 162.635 73.54 162.969 73.7744C163.307 74.0088 163.716 74.1572 164.195 74.2197V68.9697ZM166.406 69.001V74.2197C166.88 74.1572 167.281 74.0088 167.609 73.7744C167.943 73.54 168.195 73.238 168.367 72.8682C168.544 72.4932 168.633 72.0687 168.633 71.5947C168.633 70.8968 168.432 70.3135 168.031 69.8447C167.635 69.3708 167.094 69.0895 166.406 69.001ZM171.805 67.2275H174.414L176.062 72.1416C176.115 72.2979 176.159 72.4567 176.195 72.6182C176.232 72.7796 176.263 72.9463 176.289 73.1182C176.315 73.29 176.336 73.4697 176.352 73.6572H176.398C176.43 73.376 176.471 73.113 176.523 72.8682C176.581 72.6234 176.651 72.3812 176.734 72.1416L178.352 67.2275H180.906L177.211 77.0791C176.987 77.6833 176.695 78.1859 176.336 78.5869C175.977 78.9932 175.562 79.2979 175.094 79.501C174.63 79.7041 174.12 79.8057 173.562 79.8057C173.292 79.8057 173.057 79.79 172.859 79.7588C172.661 79.7327 172.492 79.7041 172.352 79.6729V77.7822C172.461 77.8083 172.599 77.8317 172.766 77.8525C172.932 77.8734 173.107 77.8838 173.289 77.8838C173.622 77.8838 173.909 77.8135 174.148 77.6729C174.388 77.5322 174.589 77.3421 174.75 77.1025C174.911 76.8682 175.039 76.6104 175.133 76.3291L175.273 75.8994L171.805 67.2275ZM184.547 67.2275V70.5869H187.875V67.2275H190.258V75.9619H187.875V72.3604H184.547V75.9619H182.164V67.2275H184.547ZM200.609 67.2275V74.2197H201.891V79.0947H199.75V75.9619H193.875V79.0947H191.734V74.2197H192.469C192.854 73.6312 193.177 72.9593 193.438 72.2041C193.703 71.4489 193.917 70.6494 194.078 69.8057C194.245 68.9567 194.365 68.0973 194.438 67.2275H200.609ZM198.227 69.0166H196.438C196.354 69.6624 196.247 70.2874 196.117 70.8916C195.992 71.4906 195.836 72.0687 195.648 72.626C195.461 73.1781 195.232 73.7093 194.961 74.2197H198.227V69.0166ZM206.961 67.0479C208.133 67.0479 209.031 67.3031 209.656 67.8135C210.281 68.3239 210.594 69.0999 210.594 70.1416V75.9619H208.93L208.469 74.7744H208.406C208.156 75.0869 207.901 75.3421 207.641 75.54C207.38 75.738 207.081 75.8838 206.742 75.9775C206.404 76.0713 205.992 76.1182 205.508 76.1182C204.992 76.1182 204.529 76.0192 204.117 75.8213C203.711 75.6234 203.391 75.3213 203.156 74.915C202.922 74.5036 202.805 73.9827 202.805 73.3525C202.805 72.4255 203.13 71.7432 203.781 71.3057C204.432 70.863 205.409 70.6182 206.711 70.5713L208.227 70.5244V70.1416C208.227 69.6833 208.107 69.3473 207.867 69.1338C207.628 68.9202 207.294 68.8135 206.867 68.8135C206.445 68.8135 206.031 68.8734 205.625 68.9932C205.219 69.113 204.812 69.264 204.406 69.4463L203.617 67.8369C204.081 67.5921 204.599 67.3994 205.172 67.2588C205.75 67.1182 206.346 67.0479 206.961 67.0479ZM208.227 71.915L207.305 71.9463C206.534 71.9671 205.997 72.1051 205.695 72.3604C205.398 72.6156 205.25 72.9515 205.25 73.3682C205.25 73.7327 205.357 73.9932 205.57 74.1494C205.784 74.3005 206.062 74.376 206.406 74.376C206.917 74.376 207.346 74.2249 207.695 73.9229C208.049 73.6208 208.227 73.1911 208.227 72.6338V71.915ZM224.062 67.2275V75.9619H221.836V71.6729C221.836 71.251 221.844 70.8369 221.859 70.4307C221.875 70.0244 221.898 69.6494 221.93 69.3057H221.883L219.469 75.9619H217.68L215.227 69.29H215.164C215.206 69.639 215.234 70.014 215.25 70.415C215.266 70.8161 215.273 71.2562 215.273 71.7354V75.9619H213.055V67.2275H216.43L218.602 73.1494L220.812 67.2275H224.062ZM230.172 67.0635C230.979 67.0635 231.674 67.2197 232.258 67.5322C232.841 67.8395 233.292 68.2874 233.609 68.876C233.927 69.4645 234.086 70.1833 234.086 71.0322V72.1885H228.453C228.479 72.8604 228.68 73.389 229.055 73.7744C229.435 74.1546 229.961 74.3447 230.633 74.3447C231.19 74.3447 231.701 74.2874 232.164 74.1729C232.628 74.0583 233.104 73.8864 233.594 73.6572V75.501C233.161 75.7145 232.708 75.8708 232.234 75.9697C231.766 76.0687 231.195 76.1182 230.523 76.1182C229.648 76.1182 228.872 75.9567 228.195 75.6338C227.523 75.3109 226.995 74.8187 226.609 74.1572C226.229 73.4958 226.039 72.6624 226.039 71.6572C226.039 70.6364 226.211 69.7874 226.555 69.1104C226.904 68.4281 227.388 67.9176 228.008 67.5791C228.628 67.2354 229.349 67.0635 230.172 67.0635ZM230.188 68.7588C229.724 68.7588 229.339 68.9072 229.031 69.2041C228.729 69.501 228.555 69.9671 228.508 70.6025H231.852C231.846 70.2484 231.781 69.9333 231.656 69.6572C231.536 69.3812 231.354 69.1624 231.109 69.001C230.87 68.8395 230.562 68.7588 230.188 68.7588ZM238.406 67.2275V70.5869H241.734V67.2275H244.117V75.9619H241.734V72.3604H238.406V75.9619H236.023V67.2275H238.406ZM253.844 69.0166H250.984V75.9619H248.602V69.0166H245.734V67.2275H253.844V69.0166Z" fill="black"/>
<path fill-rule="evenodd" clip-rule="evenodd" d="M43.2025 104.781C43.4406 105.031 43.4311 105.426 43.1812 105.664L34.8796 113.575L29.8188 108.753C29.5689 108.514 29.5594 108.119 29.7975 107.869C30.0357 107.619 30.4313 107.61 30.6812 107.848L34.8796 111.849L42.3188 104.759C42.5687 104.521 42.9643 104.531 43.2025 104.781Z" fill="#25DE85"/>
<path d="M74.4785 103.968C75.7682 103.968 76.7093 104.221 77.3018 104.727C77.8988 105.228 78.1973 105.948 78.1973 106.887C78.1973 107.311 78.1266 107.714 77.9854 108.097C77.8486 108.475 77.6253 108.81 77.3154 109.102C77.0055 109.389 76.5977 109.617 76.0918 109.785C75.5905 109.949 74.9753 110.031 74.2461 110.031H73.0293V113.962H71.8672V103.968H74.4785ZM74.3691 104.959H73.0293V109.033H74.1162C74.7542 109.033 75.2852 108.965 75.709 108.828C76.1374 108.691 76.4587 108.47 76.6729 108.165C76.887 107.855 76.9941 107.445 76.9941 106.935C76.9941 106.269 76.7822 105.775 76.3584 105.451C75.9346 105.123 75.2715 104.959 74.3691 104.959ZM83.0029 106.333C83.641 106.333 84.1878 106.474 84.6436 106.757C85.0993 107.039 85.4479 107.436 85.6895 107.946C85.931 108.452 86.0518 109.045 86.0518 109.724V110.428H80.877C80.8906 111.307 81.1094 111.977 81.5332 112.438C81.957 112.898 82.554 113.128 83.3242 113.128C83.7982 113.128 84.2174 113.085 84.582 112.998C84.9466 112.911 85.3249 112.784 85.7168 112.615V113.613C85.3385 113.782 84.9626 113.905 84.5889 113.982C84.2197 114.06 83.7822 114.099 83.2764 114.099C82.5563 114.099 81.9274 113.953 81.3896 113.661C80.8564 113.365 80.4417 112.932 80.1455 112.362C79.8493 111.793 79.7012 111.095 79.7012 110.271C79.7012 109.464 79.8356 108.767 80.1045 108.179C80.3779 107.586 80.7607 107.131 81.2529 106.812C81.7497 106.493 82.333 106.333 83.0029 106.333ZM82.9893 107.263C82.3831 107.263 81.9001 107.461 81.54 107.857C81.18 108.254 80.9658 108.808 80.8975 109.519H84.8623C84.8577 109.072 84.7871 108.68 84.6504 108.343C84.5182 108.001 84.3154 107.737 84.042 107.55C83.7686 107.358 83.4176 107.263 82.9893 107.263ZM92.5254 106.47V107.434H89.1211V113.962H87.9795V106.47H92.5254ZM95.1025 106.47V111.18C95.1025 111.271 95.1003 111.389 95.0957 111.535C95.0911 111.676 95.0843 111.829 95.0752 111.993C95.0661 112.153 95.057 112.308 95.0479 112.458C95.0433 112.604 95.0365 112.725 95.0273 112.82L99.1152 106.47H100.51V113.962H99.4502V109.368C99.4502 109.222 99.4525 109.035 99.457 108.808C99.4616 108.58 99.4684 108.356 99.4775 108.138C99.4867 107.914 99.4935 107.741 99.498 107.618L95.4238 113.962H94.0225V106.47H95.1025ZM105.924 114.099C105.249 114.099 104.655 113.96 104.14 113.682C103.625 113.404 103.224 112.98 102.937 112.41C102.649 111.84 102.506 111.123 102.506 110.257C102.506 109.35 102.656 108.609 102.957 108.035C103.262 107.456 103.682 107.028 104.215 106.75C104.748 106.472 105.354 106.333 106.033 106.333C106.407 106.333 106.767 106.372 107.113 106.449C107.464 106.522 107.751 106.616 107.975 106.729L107.633 107.68C107.405 107.589 107.141 107.507 106.84 107.434C106.544 107.361 106.266 107.324 106.006 107.324C105.486 107.324 105.053 107.436 104.707 107.659C104.365 107.882 104.108 108.211 103.935 108.644C103.766 109.076 103.682 109.61 103.682 110.243C103.682 110.849 103.764 111.367 103.928 111.795C104.096 112.223 104.345 112.551 104.673 112.779C105.006 113.003 105.42 113.114 105.917 113.114C106.313 113.114 106.671 113.073 106.99 112.991C107.309 112.905 107.599 112.804 107.858 112.69V113.702C107.608 113.83 107.327 113.928 107.018 113.996C106.712 114.064 106.348 114.099 105.924 114.099ZM114.742 107.434H112.274V113.962H111.153V107.434H108.72V106.47H114.742V107.434ZM119.746 106.333C120.68 106.333 121.425 106.654 121.981 107.297C122.537 107.939 122.815 108.906 122.815 110.195C122.815 111.048 122.688 111.763 122.433 112.342C122.177 112.921 121.817 113.358 121.353 113.654C120.892 113.951 120.348 114.099 119.719 114.099C119.322 114.099 118.974 114.046 118.673 113.941C118.372 113.837 118.115 113.695 117.9 113.518C117.686 113.34 117.508 113.146 117.367 112.937H117.285C117.299 113.114 117.315 113.328 117.333 113.579C117.356 113.83 117.367 114.049 117.367 114.235V117.312H116.226V106.47H117.162L117.312 107.577H117.367C117.513 107.349 117.691 107.142 117.9 106.955C118.11 106.764 118.365 106.613 118.666 106.504C118.971 106.39 119.331 106.333 119.746 106.333ZM119.548 107.29C119.028 107.29 118.609 107.39 118.29 107.591C117.976 107.791 117.745 108.092 117.6 108.493C117.454 108.89 117.376 109.389 117.367 109.99V110.209C117.367 110.842 117.436 111.378 117.572 111.815C117.714 112.253 117.944 112.586 118.263 112.813C118.586 113.041 119.019 113.155 119.562 113.155C120.026 113.155 120.414 113.03 120.724 112.779C121.034 112.529 121.264 112.18 121.414 111.733C121.569 111.282 121.646 110.765 121.646 110.182C121.646 109.298 121.473 108.596 121.127 108.076C120.785 107.552 120.259 107.29 119.548 107.29ZM127.601 106.347C128.494 106.347 129.157 106.547 129.59 106.948C130.023 107.349 130.239 107.99 130.239 108.869V113.962H129.412L129.193 112.854H129.139C128.929 113.128 128.71 113.358 128.482 113.545C128.255 113.727 127.99 113.866 127.689 113.962C127.393 114.053 127.029 114.099 126.596 114.099C126.14 114.099 125.734 114.019 125.379 113.859C125.028 113.7 124.75 113.458 124.545 113.135C124.344 112.811 124.244 112.401 124.244 111.904C124.244 111.157 124.54 110.583 125.133 110.182C125.725 109.781 126.628 109.562 127.84 109.525L129.132 109.471V109.013C129.132 108.366 128.993 107.912 128.715 107.652C128.437 107.393 128.045 107.263 127.539 107.263C127.147 107.263 126.773 107.32 126.418 107.434C126.062 107.548 125.725 107.682 125.406 107.837L125.058 106.976C125.395 106.802 125.782 106.654 126.22 106.531C126.657 106.408 127.118 106.347 127.601 106.347ZM129.118 110.271L127.977 110.318C127.042 110.355 126.384 110.507 126.001 110.776C125.618 111.045 125.427 111.426 125.427 111.918C125.427 112.346 125.557 112.663 125.816 112.868C126.076 113.073 126.42 113.176 126.849 113.176C127.514 113.176 128.059 112.991 128.482 112.622C128.906 112.253 129.118 111.699 129.118 110.961V110.271ZM139.871 116.553H138.764V113.962H132.577V106.47H133.719V112.998H137.69V106.47H138.825V113.012H139.871V116.553ZM142.421 106.47V111.18C142.421 111.271 142.419 111.389 142.414 111.535C142.41 111.676 142.403 111.829 142.394 111.993C142.384 112.153 142.375 112.308 142.366 112.458C142.362 112.604 142.355 112.725 142.346 112.82L146.434 106.47H147.828V113.962H146.769V109.368C146.769 109.222 146.771 109.035 146.775 108.808C146.78 108.58 146.787 108.356 146.796 108.138C146.805 107.914 146.812 107.741 146.816 107.618L142.742 113.962H141.341V106.47H142.421ZM150.604 113.962H149.277L151.438 110.804C151.123 110.735 150.831 110.619 150.562 110.455C150.294 110.286 150.075 110.056 149.906 109.765C149.742 109.473 149.66 109.111 149.66 108.678C149.66 107.958 149.899 107.411 150.378 107.037C150.861 106.659 151.497 106.47 152.285 106.47H155.601V113.962H154.466V110.954H152.565L150.604 113.962ZM150.761 108.685C150.761 109.131 150.92 109.464 151.239 109.683C151.558 109.897 152.014 110.004 152.606 110.004H154.466V107.42H152.408C151.825 107.42 151.403 107.538 151.144 107.775C150.888 108.008 150.761 108.311 150.761 108.685Z" fill="#868686"/>
<path fill-rule="evenodd" clip-rule="evenodd" d="M43.2025 142.781C43.4406 143.031 43.4311 143.426 43.1812 143.664L34.8796 151.575L29.8188 146.753C29.5689 146.514 29.5594 146.119 29.7975 145.869C30.0357 145.619 30.4313 145.61 30.6812 145.848L34.8796 149.849L42.3188 142.759C42.5687 142.521 42.9643 142.531 43.2025 142.781Z" fill="#25DE85"/>
<path d="M76.6455 133.824V135.055C77.7028 135.073 78.5436 135.246 79.168 135.574C79.7923 135.902 80.2412 136.342 80.5146 136.894C80.7881 137.445 80.9248 138.069 80.9248 138.767C80.9248 139.241 80.8519 139.701 80.7061 140.147C80.5602 140.594 80.3232 140.997 79.9951 141.357C79.667 141.713 79.2272 142 78.6758 142.219C78.1289 142.433 77.4521 142.547 76.6455 142.561V144.099H75.4971V142.561C74.6722 142.547 73.984 142.428 73.4326 142.205C72.8812 141.982 72.4437 141.69 72.1201 141.33C71.7965 140.97 71.5641 140.569 71.4229 140.127C71.2861 139.685 71.2178 139.236 71.2178 138.78C71.2178 138.274 71.293 137.8 71.4434 137.358C71.5938 136.912 71.8353 136.52 72.168 136.183C72.5052 135.841 72.9473 135.572 73.4941 135.376C74.041 135.175 74.7087 135.068 75.4971 135.055V133.824H76.6455ZM75.4971 136.039C74.7406 136.057 74.1344 136.18 73.6787 136.408C73.2275 136.632 72.9017 136.944 72.7012 137.345C72.5007 137.746 72.4004 138.22 72.4004 138.767C72.4004 139.341 72.5098 139.838 72.7285 140.257C72.9518 140.672 73.2913 140.995 73.7471 141.228C74.2074 141.455 74.7907 141.581 75.4971 141.604V136.039ZM76.6455 136.039V141.604C77.3747 141.581 77.9671 141.451 78.4229 141.214C78.8786 140.977 79.2135 140.649 79.4277 140.229C79.6419 139.81 79.749 139.318 79.749 138.753C79.749 138.201 79.6488 137.728 79.4482 137.331C79.2477 136.93 78.9196 136.62 78.4639 136.401C78.0127 136.178 77.4066 136.057 76.6455 136.039ZM89.3125 140.202C89.3125 140.817 89.2327 141.367 89.0732 141.85C88.9137 142.333 88.6836 142.741 88.3828 143.073C88.082 143.406 87.7174 143.661 87.2891 143.839C86.8652 144.012 86.3844 144.099 85.8467 144.099C85.3454 144.099 84.8851 144.012 84.4658 143.839C84.0511 143.661 83.6911 143.406 83.3857 143.073C83.085 142.741 82.8503 142.333 82.6816 141.85C82.5176 141.367 82.4355 140.817 82.4355 140.202C82.4355 139.382 82.5745 138.685 82.8525 138.11C83.1305 137.532 83.527 137.092 84.042 136.791C84.5615 136.486 85.179 136.333 85.8945 136.333C86.5781 136.333 87.1751 136.486 87.6855 136.791C88.2005 137.096 88.5993 137.538 88.8818 138.117C89.1689 138.691 89.3125 139.386 89.3125 140.202ZM83.6113 140.202C83.6113 140.804 83.6911 141.326 83.8506 141.768C84.0101 142.21 84.2562 142.551 84.5889 142.793C84.9215 143.035 85.3499 143.155 85.874 143.155C86.3936 143.155 86.8197 143.035 87.1523 142.793C87.4896 142.551 87.738 142.21 87.8975 141.768C88.057 141.326 88.1367 140.804 88.1367 140.202C88.1367 139.605 88.057 139.09 87.8975 138.657C87.738 138.22 87.4919 137.882 87.1592 137.646C86.8265 137.409 86.3958 137.29 85.8672 137.29C85.0879 137.29 84.516 137.548 84.1514 138.062C83.7913 138.577 83.6113 139.291 83.6113 140.202ZM94.7949 136.333C95.7292 136.333 96.4743 136.654 97.0303 137.297C97.5863 137.939 97.8643 138.906 97.8643 140.195C97.8643 141.048 97.7367 141.763 97.4814 142.342C97.2262 142.921 96.8662 143.358 96.4014 143.654C95.9411 143.951 95.3965 144.099 94.7676 144.099C94.3711 144.099 94.0225 144.046 93.7217 143.941C93.4209 143.837 93.1634 143.695 92.9492 143.518C92.735 143.34 92.5573 143.146 92.416 142.937H92.334C92.3477 143.114 92.3636 143.328 92.3818 143.579C92.4046 143.83 92.416 144.049 92.416 144.235V147.312H91.2744V136.47H92.2109L92.3613 137.577H92.416C92.5618 137.349 92.7396 137.142 92.9492 136.955C93.1589 136.764 93.4141 136.613 93.7148 136.504C94.0202 136.39 94.3802 136.333 94.7949 136.333ZM94.5967 137.29C94.0771 137.29 93.6579 137.39 93.3389 137.591C93.0244 137.791 92.7943 138.092 92.6484 138.493C92.5026 138.89 92.4251 139.389 92.416 139.99V140.209C92.416 140.842 92.4844 141.378 92.6211 141.815C92.7624 142.253 92.9925 142.586 93.3115 142.813C93.6351 143.041 94.068 143.155 94.6104 143.155C95.0752 143.155 95.4626 143.03 95.7725 142.779C96.0824 142.529 96.3125 142.18 96.4629 141.733C96.6178 141.282 96.6953 140.765 96.6953 140.182C96.6953 139.298 96.5221 138.596 96.1758 138.076C95.834 137.552 95.3076 137.29 94.5967 137.29ZM107.756 136.47V143.962H106.73V139.081C106.73 138.881 106.735 138.678 106.744 138.473C106.758 138.263 106.774 138.053 106.792 137.844H106.751L104.263 143.962H103.299L100.872 137.844H100.831C100.845 138.053 100.854 138.263 100.858 138.473C100.868 138.678 100.872 138.894 100.872 139.122V143.962H99.8398V136.47H101.364L103.784 142.595L106.238 136.47H107.756ZM111.194 136.47V141.18C111.194 141.271 111.192 141.389 111.188 141.535C111.183 141.676 111.176 141.829 111.167 141.993C111.158 142.153 111.149 142.308 111.14 142.458C111.135 142.604 111.128 142.725 111.119 142.82L115.207 136.47H116.602V143.962H115.542V139.368C115.542 139.222 115.544 139.035 115.549 138.808C115.553 138.58 115.56 138.356 115.569 138.138C115.578 137.914 115.585 137.741 115.59 137.618L111.516 143.962H110.114V136.47H111.194ZM122.535 136.333C123.469 136.333 124.215 136.654 124.771 137.297C125.326 137.939 125.604 138.906 125.604 140.195C125.604 141.048 125.477 141.763 125.222 142.342C124.966 142.921 124.606 143.358 124.142 143.654C123.681 143.951 123.137 144.099 122.508 144.099C122.111 144.099 121.763 144.046 121.462 143.941C121.161 143.837 120.904 143.695 120.689 143.518C120.475 143.34 120.298 143.146 120.156 142.937H120.074C120.088 143.114 120.104 143.328 120.122 143.579C120.145 143.83 120.156 144.049 120.156 144.235V147.312H119.015V136.47H119.951L120.102 137.577H120.156C120.302 137.349 120.48 137.142 120.689 136.955C120.899 136.764 121.154 136.613 121.455 136.504C121.76 136.39 122.12 136.333 122.535 136.333ZM122.337 137.29C121.817 137.29 121.398 137.39 121.079 137.591C120.765 137.791 120.535 138.092 120.389 138.493C120.243 138.89 120.165 139.389 120.156 139.99V140.209C120.156 140.842 120.225 141.378 120.361 141.815C120.503 142.253 120.733 142.586 121.052 142.813C121.375 143.041 121.808 143.155 122.351 143.155C122.815 143.155 123.203 143.03 123.513 142.779C123.823 142.529 124.053 142.18 124.203 141.733C124.358 141.282 124.436 140.765 124.436 140.182C124.436 139.298 124.262 138.596 123.916 138.076C123.574 137.552 123.048 137.29 122.337 137.29ZM134.047 140.202C134.047 140.817 133.967 141.367 133.808 141.85C133.648 142.333 133.418 142.741 133.117 143.073C132.816 143.406 132.452 143.661 132.023 143.839C131.6 144.012 131.119 144.099 130.581 144.099C130.08 144.099 129.619 144.012 129.2 143.839C128.785 143.661 128.425 143.406 128.12 143.073C127.819 142.741 127.585 142.333 127.416 141.85C127.252 141.367 127.17 140.817 127.17 140.202C127.17 139.382 127.309 138.685 127.587 138.11C127.865 137.532 128.261 137.092 128.776 136.791C129.296 136.486 129.913 136.333 130.629 136.333C131.312 136.333 131.91 136.486 132.42 136.791C132.935 137.096 133.334 137.538 133.616 138.117C133.903 138.691 134.047 139.386 134.047 140.202ZM128.346 140.202C128.346 140.804 128.425 141.326 128.585 141.768C128.744 142.21 128.991 142.551 129.323 142.793C129.656 143.035 130.084 143.155 130.608 143.155C131.128 143.155 131.554 143.035 131.887 142.793C132.224 142.551 132.472 142.21 132.632 141.768C132.791 141.326 132.871 140.804 132.871 140.202C132.871 139.605 132.791 139.09 132.632 138.657C132.472 138.22 132.226 137.882 131.894 137.646C131.561 137.409 131.13 137.29 130.602 137.29C129.822 137.29 129.25 137.548 128.886 138.062C128.526 138.577 128.346 139.291 128.346 140.202ZM141.963 138.35C141.963 138.819 141.826 139.186 141.553 139.45C141.279 139.71 140.926 139.885 140.493 139.977V140.031C140.963 140.095 141.366 140.264 141.703 140.537C142.045 140.806 142.216 141.218 142.216 141.774C142.216 142.203 142.113 142.581 141.908 142.909C141.703 143.237 141.382 143.495 140.944 143.682C140.507 143.868 139.937 143.962 139.235 143.962H136.009V136.47H139.208C139.746 136.47 140.22 136.531 140.63 136.654C141.045 136.773 141.37 136.969 141.607 137.242C141.844 137.516 141.963 137.885 141.963 138.35ZM141.033 141.774C141.033 141.332 140.865 141.013 140.527 140.817C140.195 140.621 139.709 140.523 139.071 140.523H137.15V143.039H139.099C139.728 143.039 140.206 142.943 140.534 142.752C140.867 142.556 141.033 142.23 141.033 141.774ZM140.808 138.479C140.808 138.124 140.678 137.86 140.418 137.687C140.158 137.509 139.732 137.42 139.14 137.42H137.15V139.573H138.941C139.557 139.573 140.021 139.484 140.336 139.307C140.65 139.129 140.808 138.853 140.808 138.479ZM146.851 136.347C147.744 136.347 148.407 136.547 148.84 136.948C149.273 137.349 149.489 137.99 149.489 138.869V143.962H148.662L148.443 142.854H148.389C148.179 143.128 147.96 143.358 147.732 143.545C147.505 143.727 147.24 143.866 146.939 143.962C146.643 144.053 146.279 144.099 145.846 144.099C145.39 144.099 144.984 144.019 144.629 143.859C144.278 143.7 144 143.458 143.795 143.135C143.594 142.811 143.494 142.401 143.494 141.904C143.494 141.157 143.79 140.583 144.383 140.182C144.975 139.781 145.878 139.562 147.09 139.525L148.382 139.471V139.013C148.382 138.366 148.243 137.912 147.965 137.652C147.687 137.393 147.295 137.263 146.789 137.263C146.397 137.263 146.023 137.32 145.668 137.434C145.312 137.548 144.975 137.682 144.656 137.837L144.308 136.976C144.645 136.802 145.032 136.654 145.47 136.531C145.907 136.408 146.368 136.347 146.851 136.347ZM148.368 140.271L147.227 140.318C146.292 140.355 145.634 140.507 145.251 140.776C144.868 141.045 144.677 141.426 144.677 141.918C144.677 142.346 144.807 142.663 145.066 142.868C145.326 143.073 145.67 143.176 146.099 143.176C146.764 143.176 147.309 142.991 147.732 142.622C148.156 142.253 148.368 141.699 148.368 140.961V140.271ZM152.969 136.47V139.614H157.146V136.47H158.28V143.962H157.146V140.578H152.969V143.962H151.827V136.47H152.969ZM161.767 136.47V141.18C161.767 141.271 161.764 141.389 161.76 141.535C161.755 141.676 161.748 141.829 161.739 141.993C161.73 142.153 161.721 142.308 161.712 142.458C161.707 142.604 161.701 142.725 161.691 142.82L165.779 136.47H167.174V143.962H166.114V139.368C166.114 139.222 166.117 139.035 166.121 138.808C166.126 138.58 166.132 138.356 166.142 138.138C166.151 137.914 166.158 137.741 166.162 137.618L162.088 143.962H160.687V136.47H161.767ZM172.472 136.333C173.11 136.333 173.657 136.474 174.112 136.757C174.568 137.039 174.917 137.436 175.158 137.946C175.4 138.452 175.521 139.045 175.521 139.724V140.428H170.346C170.359 141.307 170.578 141.977 171.002 142.438C171.426 142.898 172.023 143.128 172.793 143.128C173.267 143.128 173.686 143.085 174.051 142.998C174.415 142.911 174.794 142.784 175.186 142.615V143.613C174.807 143.782 174.431 143.905 174.058 143.982C173.688 144.06 173.251 144.099 172.745 144.099C172.025 144.099 171.396 143.953 170.858 143.661C170.325 143.365 169.91 142.932 169.614 142.362C169.318 141.793 169.17 141.095 169.17 140.271C169.17 139.464 169.304 138.767 169.573 138.179C169.847 137.586 170.229 137.131 170.722 136.812C171.218 136.493 171.802 136.333 172.472 136.333ZM172.458 137.263C171.852 137.263 171.369 137.461 171.009 137.857C170.649 138.254 170.435 138.808 170.366 139.519H174.331C174.326 139.072 174.256 138.68 174.119 138.343C173.987 138.001 173.784 137.737 173.511 137.55C173.237 137.358 172.886 137.263 172.458 137.263ZM81.3281 156.202C81.3281 157.018 81.196 157.717 80.9316 158.301C80.6719 158.884 80.2982 159.331 79.8105 159.641C79.3229 159.946 78.7396 160.099 78.0605 160.099C77.4271 160.099 76.8734 159.962 76.3994 159.688C75.93 159.415 75.5586 159.016 75.2852 158.492C75.0163 157.968 74.8613 157.33 74.8203 156.578H72.8311V159.962H71.6963V152.47H72.8311V155.614H74.834C74.8978 154.922 75.0664 154.331 75.3398 153.844C75.6133 153.356 75.9824 152.982 76.4473 152.723C76.9121 152.463 77.459 152.333 78.0879 152.333C78.7441 152.333 79.3138 152.488 79.7969 152.798C80.2845 153.103 80.6605 153.545 80.9248 154.124C81.1937 154.698 81.3281 155.391 81.3281 156.202ZM75.9824 156.202C75.9824 156.831 76.0531 157.367 76.1943 157.809C76.3402 158.246 76.5658 158.581 76.8711 158.813C77.181 159.041 77.582 159.155 78.0742 159.155C78.5618 159.155 78.9583 159.041 79.2637 158.813C79.5736 158.586 79.7992 158.253 79.9404 157.815C80.0863 157.373 80.1592 156.836 80.1592 156.202C80.1592 155.578 80.0863 155.049 79.9404 154.616C79.7946 154.183 79.569 153.855 79.2637 153.632C78.9583 153.404 78.5618 153.29 78.0742 153.29C77.5866 153.29 77.1878 153.404 76.8779 153.632C76.5726 153.855 76.347 154.183 76.2012 154.616C76.0553 155.049 75.9824 155.578 75.9824 156.202ZM86.8242 152.333C87.7585 152.333 88.5036 152.654 89.0596 153.297C89.6156 153.939 89.8936 154.906 89.8936 156.195C89.8936 157.048 89.766 157.763 89.5107 158.342C89.2555 158.921 88.8955 159.358 88.4307 159.654C87.9704 159.951 87.4258 160.099 86.7969 160.099C86.4004 160.099 86.0518 160.046 85.751 159.941C85.4502 159.837 85.1927 159.695 84.9785 159.518C84.7643 159.34 84.5866 159.146 84.4453 158.937H84.3633C84.377 159.114 84.3929 159.328 84.4111 159.579C84.4339 159.83 84.4453 160.049 84.4453 160.235V163.312H83.3037V152.47H84.2402L84.3906 153.577H84.4453C84.5911 153.349 84.7689 153.142 84.9785 152.955C85.1882 152.764 85.4434 152.613 85.7441 152.504C86.0495 152.39 86.4095 152.333 86.8242 152.333ZM86.626 153.29C86.1064 153.29 85.6872 153.39 85.3682 153.591C85.0537 153.791 84.8236 154.092 84.6777 154.493C84.5319 154.89 84.4544 155.389 84.4453 155.99V156.209C84.4453 156.842 84.5137 157.378 84.6504 157.815C84.7917 158.253 85.0218 158.586 85.3408 158.813C85.6644 159.041 86.0973 159.155 86.6396 159.155C87.1045 159.155 87.4919 159.03 87.8018 158.779C88.1117 158.529 88.3418 158.18 88.4922 157.733C88.6471 157.282 88.7246 156.765 88.7246 156.182C88.7246 155.298 88.5514 154.596 88.2051 154.076C87.8633 153.552 87.3369 153.29 86.626 153.29ZM92.9561 152.47V157.18C92.9561 157.271 92.9538 157.389 92.9492 157.535C92.9447 157.676 92.9378 157.829 92.9287 157.993C92.9196 158.153 92.9105 158.308 92.9014 158.458C92.8968 158.604 92.89 158.725 92.8809 158.82L96.9688 152.47H98.3633V159.962H97.3037V155.368C97.3037 155.222 97.306 155.035 97.3105 154.808C97.3151 154.58 97.3219 154.356 97.3311 154.138C97.3402 153.914 97.347 153.741 97.3516 153.618L93.2773 159.962H91.876V152.47H92.9561ZM106.266 152.47V158.998H107.339V162.553H106.238V159.962H100.934V162.553H99.8467V158.998H100.435C100.863 158.406 101.218 157.756 101.501 157.05C101.784 156.343 101.998 155.603 102.144 154.828C102.289 154.049 102.367 153.263 102.376 152.47H106.266ZM105.165 153.372H103.388C103.347 154.037 103.249 154.714 103.094 155.402C102.943 156.09 102.743 156.747 102.492 157.371C102.242 157.991 101.95 158.533 101.617 158.998H105.165V153.372ZM109.909 152.47V157.18C109.909 157.271 109.907 157.389 109.902 157.535C109.898 157.676 109.891 157.829 109.882 157.993C109.873 158.153 109.864 158.308 109.854 158.458C109.85 158.604 109.843 158.725 109.834 158.82L113.922 152.47H115.316V159.962H114.257V155.368C114.257 155.222 114.259 155.035 114.264 154.808C114.268 154.58 114.275 154.356 114.284 154.138C114.293 153.914 114.3 153.741 114.305 153.618L110.23 159.962H108.829V152.47H109.909ZM118.721 152.47V155.163C118.721 155.632 118.848 155.979 119.104 156.202C119.363 156.425 119.739 156.537 120.231 156.537C120.705 156.537 121.136 156.464 121.523 156.318C121.911 156.173 122.303 155.974 122.699 155.724V152.47H123.834V159.962H122.699V156.605C122.28 156.874 121.868 157.086 121.462 157.241C121.056 157.396 120.571 157.474 120.006 157.474C119.236 157.474 118.639 157.273 118.215 156.872C117.796 156.471 117.586 155.929 117.586 155.245V152.47H118.721ZM129.118 152.333C129.756 152.333 130.303 152.474 130.759 152.757C131.215 153.039 131.563 153.436 131.805 153.946C132.046 154.452 132.167 155.045 132.167 155.724V156.428H126.992C127.006 157.307 127.225 157.977 127.648 158.438C128.072 158.898 128.669 159.128 129.439 159.128C129.913 159.128 130.333 159.085 130.697 158.998C131.062 158.911 131.44 158.784 131.832 158.615V159.613C131.454 159.782 131.078 159.905 130.704 159.982C130.335 160.06 129.897 160.099 129.392 160.099C128.672 160.099 128.043 159.953 127.505 159.661C126.972 159.365 126.557 158.932 126.261 158.362C125.965 157.793 125.816 157.095 125.816 156.271C125.816 155.464 125.951 154.767 126.22 154.179C126.493 153.586 126.876 153.131 127.368 152.812C127.865 152.493 128.448 152.333 129.118 152.333ZM129.104 153.263C128.498 153.263 128.015 153.461 127.655 153.857C127.295 154.254 127.081 154.808 127.013 155.519H130.978C130.973 155.072 130.902 154.68 130.766 154.343C130.633 154.001 130.431 153.737 130.157 153.55C129.884 153.358 129.533 153.263 129.104 153.263ZM137.096 160.099C136.421 160.099 135.826 159.96 135.312 159.682C134.797 159.404 134.396 158.98 134.108 158.41C133.821 157.84 133.678 157.123 133.678 156.257C133.678 155.35 133.828 154.609 134.129 154.035C134.434 153.456 134.854 153.028 135.387 152.75C135.92 152.472 136.526 152.333 137.205 152.333C137.579 152.333 137.939 152.372 138.285 152.449C138.636 152.522 138.923 152.616 139.146 152.729L138.805 153.68C138.577 153.589 138.312 153.507 138.012 153.434C137.715 153.361 137.438 153.324 137.178 153.324C136.658 153.324 136.225 153.436 135.879 153.659C135.537 153.882 135.28 154.211 135.106 154.644C134.938 155.076 134.854 155.61 134.854 156.243C134.854 156.849 134.936 157.367 135.1 157.795C135.268 158.223 135.517 158.551 135.845 158.779C136.177 159.003 136.592 159.114 137.089 159.114C137.485 159.114 137.843 159.073 138.162 158.991C138.481 158.905 138.771 158.804 139.03 158.69V159.702C138.78 159.83 138.499 159.928 138.189 159.996C137.884 160.064 137.52 160.099 137.096 160.099ZM145.176 152.47H146.427L143.193 156.086L146.687 159.962H145.354L141.949 156.161V159.962H140.808V152.47H141.949V156.106L145.176 152.47ZM154.5 156.202C154.5 156.817 154.42 157.367 154.261 157.85C154.101 158.333 153.871 158.741 153.57 159.073C153.27 159.406 152.905 159.661 152.477 159.839C152.053 160.012 151.572 160.099 151.034 160.099C150.533 160.099 150.073 160.012 149.653 159.839C149.239 159.661 148.879 159.406 148.573 159.073C148.272 158.741 148.038 158.333 147.869 157.85C147.705 157.367 147.623 156.817 147.623 156.202C147.623 155.382 147.762 154.685 148.04 154.11C148.318 153.532 148.715 153.092 149.229 152.791C149.749 152.486 150.367 152.333 151.082 152.333C151.766 152.333 152.363 152.486 152.873 152.791C153.388 153.096 153.787 153.538 154.069 154.117C154.356 154.691 154.5 155.386 154.5 156.202ZM148.799 156.202C148.799 156.804 148.879 157.326 149.038 157.768C149.198 158.21 149.444 158.551 149.776 158.793C150.109 159.035 150.537 159.155 151.062 159.155C151.581 159.155 152.007 159.035 152.34 158.793C152.677 158.551 152.925 158.21 153.085 157.768C153.244 157.326 153.324 156.804 153.324 156.202C153.324 155.605 153.244 155.09 153.085 154.657C152.925 154.22 152.679 153.882 152.347 153.646C152.014 153.409 151.583 153.29 151.055 153.29C150.275 153.29 149.703 153.548 149.339 154.062C148.979 154.577 148.799 155.291 148.799 156.202ZM157.542 152.47V157.18C157.542 157.271 157.54 157.389 157.535 157.535C157.531 157.676 157.524 157.829 157.515 157.993C157.506 158.153 157.496 158.308 157.487 158.458C157.483 158.604 157.476 158.725 157.467 158.82L161.555 152.47H162.949V159.962H161.89V155.368C161.89 155.222 161.892 155.035 161.896 154.808C161.901 154.58 161.908 154.356 161.917 154.138C161.926 153.914 161.933 153.741 161.938 153.618L157.863 159.962H156.462V152.47H157.542ZM162.389 149.387C162.348 149.847 162.231 150.232 162.04 150.542C161.853 150.852 161.577 151.087 161.213 151.246C160.848 151.401 160.381 151.479 159.812 151.479C159.224 151.479 158.75 151.403 158.39 151.253C158.034 151.098 157.77 150.866 157.597 150.556C157.428 150.246 157.328 149.856 157.296 149.387H158.362C158.412 149.888 158.547 150.23 158.766 150.412C158.984 150.594 159.34 150.686 159.832 150.686C160.27 150.686 160.614 150.59 160.864 150.398C161.115 150.207 161.265 149.87 161.315 149.387H162.389ZM172 160.099C171.326 160.099 170.731 159.96 170.216 159.682C169.701 159.404 169.3 158.98 169.013 158.41C168.726 157.84 168.582 157.123 168.582 156.257C168.582 155.35 168.732 154.609 169.033 154.035C169.339 153.456 169.758 153.028 170.291 152.75C170.824 152.472 171.43 152.333 172.109 152.333C172.483 152.333 172.843 152.372 173.189 152.449C173.54 152.522 173.827 152.616 174.051 152.729L173.709 153.68C173.481 153.589 173.217 153.507 172.916 153.434C172.62 153.361 172.342 153.324 172.082 153.324C171.562 153.324 171.13 153.436 170.783 153.659C170.441 153.882 170.184 154.211 170.011 154.644C169.842 155.076 169.758 155.61 169.758 156.243C169.758 156.849 169.84 157.367 170.004 157.795C170.173 158.223 170.421 158.551 170.749 158.779C171.082 159.003 171.496 159.114 171.993 159.114C172.39 159.114 172.747 159.073 173.066 158.991C173.385 158.905 173.675 158.804 173.935 158.69V159.702C173.684 159.83 173.404 159.928 173.094 159.996C172.788 160.064 172.424 160.099 172 160.099ZM180.818 153.434H178.351V159.962H177.229V153.434H174.796V152.47H180.818V153.434ZM185.822 152.333C186.757 152.333 187.502 152.654 188.058 153.297C188.614 153.939 188.892 154.906 188.892 156.195C188.892 157.048 188.764 157.763 188.509 158.342C188.254 158.921 187.894 159.358 187.429 159.654C186.968 159.951 186.424 160.099 185.795 160.099C185.398 160.099 185.05 160.046 184.749 159.941C184.448 159.837 184.191 159.695 183.977 159.518C183.762 159.34 183.585 159.146 183.443 158.937H183.361C183.375 159.114 183.391 159.328 183.409 159.579C183.432 159.83 183.443 160.049 183.443 160.235V163.312H182.302V152.47H183.238L183.389 153.577H183.443C183.589 153.349 183.767 153.142 183.977 152.955C184.186 152.764 184.441 152.613 184.742 152.504C185.048 152.39 185.408 152.333 185.822 152.333ZM185.624 153.29C185.104 153.29 184.685 153.39 184.366 153.591C184.052 153.791 183.822 154.092 183.676 154.493C183.53 154.89 183.452 155.389 183.443 155.99V156.209C183.443 156.842 183.512 157.378 183.648 157.815C183.79 158.253 184.02 158.586 184.339 158.813C184.662 159.041 185.095 159.155 185.638 159.155C186.103 159.155 186.49 159.03 186.8 158.779C187.11 158.529 187.34 158.18 187.49 157.733C187.645 157.282 187.723 156.765 187.723 156.182C187.723 155.298 187.549 154.596 187.203 154.076C186.861 153.552 186.335 153.29 185.624 153.29ZM189.691 152.47H190.908L192.562 156.817C192.658 157.073 192.747 157.319 192.829 157.556C192.911 157.788 192.984 158.011 193.048 158.226C193.112 158.44 193.162 158.647 193.198 158.848H193.246C193.31 158.62 193.401 158.321 193.52 157.952C193.638 157.578 193.766 157.198 193.902 156.811L195.468 152.47H196.691L193.431 161.062C193.257 161.523 193.055 161.924 192.822 162.266C192.594 162.607 192.316 162.869 191.988 163.052C191.66 163.239 191.264 163.332 190.799 163.332C190.585 163.332 190.396 163.318 190.231 163.291C190.067 163.268 189.926 163.241 189.808 163.209V162.3C189.908 162.323 190.029 162.343 190.17 162.361C190.316 162.38 190.466 162.389 190.621 162.389C190.904 162.389 191.147 162.334 191.353 162.225C191.562 162.12 191.742 161.965 191.893 161.76C192.043 161.555 192.173 161.311 192.282 161.028L192.692 159.976L189.691 152.47ZM202.256 152.47H203.507L200.273 156.086L203.767 159.962H202.434L199.029 156.161V159.962H197.888V152.47H199.029V156.106L202.256 152.47ZM210.227 153.434H207.759V159.962H206.638V153.434H204.204V152.47H210.227V153.434ZM210.527 152.47H211.744L213.398 156.817C213.494 157.073 213.583 157.319 213.665 157.556C213.747 157.788 213.82 158.011 213.884 158.226C213.948 158.44 213.998 158.647 214.034 158.848H214.082C214.146 158.62 214.237 158.321 214.355 157.952C214.474 157.578 214.602 157.198 214.738 156.811L216.304 152.47H217.527L214.267 161.062C214.093 161.523 213.891 161.924 213.658 162.266C213.43 162.607 213.152 162.869 212.824 163.052C212.496 163.239 212.1 163.332 211.635 163.332C211.421 163.332 211.231 163.318 211.067 163.291C210.903 163.268 210.762 163.241 210.644 163.209V162.3C210.744 162.323 210.865 162.343 211.006 162.361C211.152 162.38 211.302 162.389 211.457 162.389C211.74 162.389 211.983 162.334 212.188 162.225C212.398 162.12 212.578 161.965 212.729 161.76C212.879 161.555 213.009 161.311 213.118 161.028L213.528 159.976L210.527 152.47ZM222.244 152.333C223.178 152.333 223.924 152.654 224.479 153.297C225.035 153.939 225.313 154.906 225.313 156.195C225.313 157.048 225.186 157.763 224.931 158.342C224.675 158.921 224.315 159.358 223.851 159.654C223.39 159.951 222.846 160.099 222.217 160.099C221.82 160.099 221.472 160.046 221.171 159.941C220.87 159.837 220.613 159.695 220.398 159.518C220.184 159.34 220.007 159.146 219.865 158.937H219.783C219.797 159.114 219.813 159.328 219.831 159.579C219.854 159.83 219.865 160.049 219.865 160.235V163.312H218.724V152.47H219.66L219.811 153.577H219.865C220.011 153.349 220.189 153.142 220.398 152.955C220.608 152.764 220.863 152.613 221.164 152.504C221.469 152.39 221.829 152.333 222.244 152.333ZM222.046 153.29C221.526 153.29 221.107 153.39 220.788 153.591C220.474 153.791 220.243 154.092 220.098 154.493C219.952 154.89 219.874 155.389 219.865 155.99V156.209C219.865 156.842 219.934 157.378 220.07 157.815C220.212 158.253 220.442 158.586 220.761 158.813C221.084 159.041 221.517 159.155 222.06 159.155C222.524 159.155 222.912 159.03 223.222 158.779C223.532 158.529 223.762 158.18 223.912 157.733C224.067 157.282 224.145 156.765 224.145 156.182C224.145 155.298 223.971 154.596 223.625 154.076C223.283 153.552 222.757 153.29 222.046 153.29ZM227.296 159.962V152.47H228.438V155.56H230.488C231.126 155.56 231.65 155.639 232.061 155.799C232.475 155.958 232.783 156.195 232.983 156.51C233.184 156.824 233.284 157.214 233.284 157.679C233.284 158.144 233.184 158.547 232.983 158.889C232.787 159.23 232.478 159.495 232.054 159.682C231.634 159.868 231.088 159.962 230.413 159.962H227.296ZM228.438 159.039H230.304C230.869 159.039 231.32 158.939 231.657 158.738C231.994 158.538 232.163 158.203 232.163 157.733C232.163 157.273 232.006 156.954 231.691 156.776C231.377 156.594 230.926 156.503 230.338 156.503H228.438V159.039ZM234.521 159.962V152.47H235.656V159.962H234.521Z" fill="#868686"/>
</g>
<defs>
<clipPath id="clip0_25_1581">
<rect width="285.75" height="195" fill="white" transform="translate(0.5 0.961914)"/>
</clipPath>
</defs>
</svg>
