<svg width="287" height="276" viewBox="0 0 287 276" fill="none" xmlns="http://www.w3.org/2000/svg">
<g clip-path="url(#clip0_25_1620)">
<path d="M1.74999 60.0422L144.74 0.961913L286.75 60.0422L286.75 275.962L1.74996 275.962L1.74999 60.0422Z" fill="#F4F4F4"/>
<path d="M97.6797 64.54V66.54H92.8828V75.9619H90.4609V64.54H97.6797ZM107.195 71.5791C107.195 72.3083 107.096 72.9541 106.898 73.5166C106.706 74.0791 106.422 74.5557 106.047 74.9463C105.677 75.3317 105.229 75.6234 104.703 75.8213C104.182 76.0192 103.594 76.1182 102.938 76.1182C102.323 76.1182 101.758 76.0192 101.242 75.8213C100.732 75.6234 100.286 75.3317 99.9062 74.9463C99.5312 74.5557 99.2396 74.0791 99.0312 73.5166C98.8281 72.9541 98.7266 72.3083 98.7266 71.5791C98.7266 70.6104 98.8984 69.79 99.2422 69.1182C99.5859 68.4463 100.076 67.9359 100.711 67.5869C101.346 67.238 102.104 67.0635 102.984 67.0635C103.802 67.0635 104.526 67.238 105.156 67.5869C105.792 67.9359 106.289 68.4463 106.648 69.1182C107.013 69.79 107.195 70.6104 107.195 71.5791ZM101.156 71.5791C101.156 72.152 101.219 72.6338 101.344 73.0244C101.469 73.415 101.664 73.7093 101.93 73.9072C102.195 74.1051 102.542 74.2041 102.969 74.2041C103.391 74.2041 103.732 74.1051 103.992 73.9072C104.258 73.7093 104.451 73.415 104.57 73.0244C104.695 72.6338 104.758 72.152 104.758 71.5791C104.758 71.001 104.695 70.5218 104.57 70.1416C104.451 69.7562 104.258 69.4671 103.992 69.2744C103.727 69.0817 103.38 68.9854 102.953 68.9854C102.323 68.9854 101.865 69.2015 101.578 69.6338C101.297 70.0661 101.156 70.7145 101.156 71.5791ZM116.391 69.0166H113.531V75.9619H111.148V69.0166H108.281V67.2275H116.391V69.0166ZM125.961 71.5791C125.961 72.3083 125.862 72.9541 125.664 73.5166C125.471 74.0791 125.188 74.5557 124.812 74.9463C124.443 75.3317 123.995 75.6234 123.469 75.8213C122.948 76.0192 122.359 76.1182 121.703 76.1182C121.089 76.1182 120.523 76.0192 120.008 75.8213C119.497 75.6234 119.052 75.3317 118.672 74.9463C118.297 74.5557 118.005 74.0791 117.797 73.5166C117.594 72.9541 117.492 72.3083 117.492 71.5791C117.492 70.6104 117.664 69.79 118.008 69.1182C118.352 68.4463 118.841 67.9359 119.477 67.5869C120.112 67.238 120.87 67.0635 121.75 67.0635C122.568 67.0635 123.292 67.238 123.922 67.5869C124.557 67.9359 125.055 68.4463 125.414 69.1182C125.779 69.79 125.961 70.6104 125.961 71.5791ZM119.922 71.5791C119.922 72.152 119.984 72.6338 120.109 73.0244C120.234 73.415 120.43 73.7093 120.695 73.9072C120.961 74.1051 121.307 74.2041 121.734 74.2041C122.156 74.2041 122.497 74.1051 122.758 73.9072C123.023 73.7093 123.216 73.415 123.336 73.0244C123.461 72.6338 123.523 72.152 123.523 71.5791C123.523 71.001 123.461 70.5218 123.336 70.1416C123.216 69.7562 123.023 69.4671 122.758 69.2744C122.492 69.0817 122.146 68.9854 121.719 68.9854C121.089 68.9854 120.63 69.2015 120.344 69.6338C120.062 70.0661 119.922 70.7145 119.922 71.5791ZM135.672 69.5166C135.672 69.9854 135.523 70.3864 135.227 70.7197C134.935 71.0479 134.503 71.2588 133.93 71.3525V71.415C134.534 71.488 135.021 71.6989 135.391 72.0479C135.76 72.3916 135.945 72.8265 135.945 73.3525C135.945 73.8525 135.815 74.3005 135.555 74.6963C135.294 75.0869 134.88 75.3968 134.312 75.626C133.745 75.8499 133.003 75.9619 132.086 75.9619H127.93V67.2275H132.086C132.768 67.2275 133.38 67.3005 133.922 67.4463C134.464 67.5869 134.891 67.8239 135.203 68.1572C135.516 68.4906 135.672 68.9437 135.672 69.5166ZM133.477 73.2275C133.477 72.8838 133.341 72.6364 133.07 72.4854C132.805 72.3291 132.409 72.251 131.883 72.251H130.312V74.3135H131.93C132.378 74.3135 132.747 74.2301 133.039 74.0635C133.331 73.8968 133.477 73.6182 133.477 73.2275ZM133.258 69.7041C133.258 69.4333 133.151 69.2327 132.938 69.1025C132.724 68.9723 132.409 68.9072 131.992 68.9072H130.312V70.6338H131.719C132.224 70.6338 132.607 70.5609 132.867 70.415C133.128 70.2692 133.258 70.0322 133.258 69.7041ZM140.375 67.2275V70.5869H143.703V67.2275H146.086V75.9619H143.703V72.3604H140.375V75.9619H137.992V67.2275H140.375ZM156.523 71.5791C156.523 72.3083 156.424 72.9541 156.227 73.5166C156.034 74.0791 155.75 74.5557 155.375 74.9463C155.005 75.3317 154.557 75.6234 154.031 75.8213C153.51 76.0192 152.922 76.1182 152.266 76.1182C151.651 76.1182 151.086 76.0192 150.57 75.8213C150.06 75.6234 149.615 75.3317 149.234 74.9463C148.859 74.5557 148.568 74.0791 148.359 73.5166C148.156 72.9541 148.055 72.3083 148.055 71.5791C148.055 70.6104 148.227 69.79 148.57 69.1182C148.914 68.4463 149.404 67.9359 150.039 67.5869C150.674 67.238 151.432 67.0635 152.312 67.0635C153.13 67.0635 153.854 67.238 154.484 67.5869C155.12 67.9359 155.617 68.4463 155.977 69.1182C156.341 69.79 156.523 70.6104 156.523 71.5791ZM150.484 71.5791C150.484 72.152 150.547 72.6338 150.672 73.0244C150.797 73.415 150.992 73.7093 151.258 73.9072C151.523 74.1051 151.87 74.2041 152.297 74.2041C152.719 74.2041 153.06 74.1051 153.32 73.9072C153.586 73.7093 153.779 73.415 153.898 73.0244C154.023 72.6338 154.086 72.152 154.086 71.5791C154.086 71.001 154.023 70.5218 153.898 70.1416C153.779 69.7562 153.586 69.4671 153.32 69.2744C153.055 69.0817 152.708 68.9854 152.281 68.9854C151.651 68.9854 151.193 69.2015 150.906 69.6338C150.625 70.0661 150.484 70.7145 150.484 71.5791ZM162.039 76.1182C161.174 76.1182 160.438 75.9619 159.828 75.6494C159.219 75.3317 158.755 74.8421 158.438 74.1807C158.12 73.5192 157.961 72.6729 157.961 71.6416C157.961 70.5739 158.141 69.7041 158.5 69.0322C158.865 68.3551 159.367 67.8577 160.008 67.54C160.654 67.2223 161.401 67.0635 162.25 67.0635C162.854 67.0635 163.375 67.1234 163.812 67.2432C164.255 67.3577 164.641 67.4958 164.969 67.6572L164.266 69.501C163.891 69.3499 163.542 69.2275 163.219 69.1338C162.896 69.0348 162.573 68.9854 162.25 68.9854C161.833 68.9854 161.487 69.0843 161.211 69.2822C160.935 69.4749 160.729 69.7666 160.594 70.1572C160.458 70.5479 160.391 71.0374 160.391 71.626C160.391 72.2041 160.464 72.6833 160.609 73.0635C160.755 73.4437 160.966 73.7275 161.242 73.915C161.518 74.0973 161.854 74.1885 162.25 74.1885C162.745 74.1885 163.185 74.1234 163.57 73.9932C163.956 73.8577 164.331 73.6702 164.695 73.4307V75.4697C164.331 75.6989 163.948 75.863 163.547 75.9619C163.151 76.0661 162.648 76.1182 162.039 76.1182ZM173.953 69.0166H171.094V75.9619H168.711V69.0166H165.844V67.2275H173.953V69.0166ZM177.969 70.6025H179.648C180.544 70.6025 181.284 70.6963 181.867 70.8838C182.451 71.0713 182.885 71.3577 183.172 71.7432C183.458 72.1234 183.602 72.6025 183.602 73.1807C183.602 73.7432 183.471 74.2327 183.211 74.6494C182.951 75.0661 182.536 75.389 181.969 75.6182C181.401 75.8473 180.659 75.9619 179.742 75.9619H175.586V67.2275H177.969V70.6025ZM181.219 73.2119C181.219 72.8734 181.083 72.6286 180.812 72.4775C180.542 72.3265 180.138 72.251 179.602 72.251H177.969V74.3135H179.633C180.096 74.3135 180.477 74.2301 180.773 74.0635C181.07 73.8916 181.219 73.6077 181.219 73.2119ZM195.297 67.2275H197.922L194.461 71.415L198.227 75.9619H195.523L191.953 71.5322V75.9619H189.57V67.2275H191.953V71.4697L195.297 67.2275ZM64.5234 85.2275V93.9619H62.2969V89.6729C62.2969 89.251 62.3047 88.8369 62.3203 88.4307C62.3359 88.0244 62.3594 87.6494 62.3906 87.3057H62.3438L59.9297 93.9619H58.1406L55.6875 87.29H55.625C55.6667 87.639 55.6953 88.014 55.7109 88.415C55.7266 88.8161 55.7344 89.2562 55.7344 89.7354V93.9619H53.5156V85.2275H56.8906L59.0625 91.1494L61.2734 85.2275H64.5234ZM70.6094 85.0479C71.7812 85.0479 72.6797 85.3031 73.3047 85.8135C73.9297 86.3239 74.2422 87.0999 74.2422 88.1416V93.9619H72.5781L72.1172 92.7744H72.0547C71.8047 93.0869 71.5495 93.3421 71.2891 93.54C71.0286 93.738 70.7292 93.8838 70.3906 93.9775C70.0521 94.0713 69.6406 94.1182 69.1562 94.1182C68.6406 94.1182 68.1771 94.0192 67.7656 93.8213C67.3594 93.6234 67.0391 93.3213 66.8047 92.915C66.5703 92.5036 66.4531 91.9827 66.4531 91.3525C66.4531 90.4255 66.7786 89.7432 67.4297 89.3057C68.0807 88.863 69.0573 88.6182 70.3594 88.5713L71.875 88.5244V88.1416C71.875 87.6833 71.7552 87.3473 71.5156 87.1338C71.276 86.9202 70.9427 86.8135 70.5156 86.8135C70.0938 86.8135 69.6797 86.8734 69.2734 86.9932C68.8672 87.113 68.4609 87.264 68.0547 87.4463L67.2656 85.8369C67.7292 85.5921 68.2474 85.3994 68.8203 85.2588C69.3984 85.1182 69.9948 85.0479 70.6094 85.0479ZM71.875 89.915L70.9531 89.9463C70.1823 89.9671 69.6458 90.1051 69.3438 90.3604C69.0469 90.6156 68.8984 90.9515 68.8984 91.3682C68.8984 91.7327 69.0052 91.9932 69.2188 92.1494C69.4323 92.3005 69.7109 92.376 70.0547 92.376C70.5651 92.376 70.9948 92.2249 71.3438 91.9229C71.6979 91.6208 71.875 91.1911 71.875 90.6338V89.915ZM80.25 94.1182C79.3854 94.1182 78.6484 93.9619 78.0391 93.6494C77.4297 93.3317 76.9661 92.8421 76.6484 92.1807C76.3307 91.5192 76.1719 90.6729 76.1719 89.6416C76.1719 88.5739 76.3516 87.7041 76.7109 87.0322C77.0755 86.3551 77.5781 85.8577 78.2188 85.54C78.8646 85.2223 79.612 85.0635 80.4609 85.0635C81.0651 85.0635 81.5859 85.1234 82.0234 85.2432C82.4661 85.3577 82.8516 85.4958 83.1797 85.6572L82.4766 87.501C82.1016 87.3499 81.7526 87.2275 81.4297 87.1338C81.1068 87.0348 80.7839 86.9854 80.4609 86.9854C80.0443 86.9854 79.6979 87.0843 79.4219 87.2822C79.1458 87.4749 78.9401 87.7666 78.8047 88.1572C78.6693 88.5479 78.6016 89.0374 78.6016 89.626C78.6016 90.2041 78.6745 90.6833 78.8203 91.0635C78.9661 91.4437 79.1771 91.7275 79.4531 91.915C79.7292 92.0973 80.0651 92.1885 80.4609 92.1885C80.9557 92.1885 81.3958 92.1234 81.7812 91.9932C82.1667 91.8577 82.5417 91.6702 82.9062 91.4307V93.4697C82.5417 93.6989 82.1589 93.863 81.7578 93.9619C81.362 94.0661 80.8594 94.1182 80.25 94.1182ZM97.9453 85.2275V93.9619H84.9375V85.2275H87.3203V92.1729H90.25V85.2275H92.6328V92.1729H95.5625V85.2275H97.9453ZM107.68 87.0166H104.82V93.9619H102.438V87.0166H99.5703V85.2275H107.68V87.0166ZM112.891 85.0479C114.062 85.0479 114.961 85.3031 115.586 85.8135C116.211 86.3239 116.523 87.0999 116.523 88.1416V93.9619H114.859L114.398 92.7744H114.336C114.086 93.0869 113.831 93.3421 113.57 93.54C113.31 93.738 113.01 93.8838 112.672 93.9775C112.333 94.0713 111.922 94.1182 111.438 94.1182C110.922 94.1182 110.458 94.0192 110.047 93.8213C109.641 93.6234 109.32 93.3213 109.086 92.915C108.852 92.5036 108.734 91.9827 108.734 91.3525C108.734 90.4255 109.06 89.7432 109.711 89.3057C110.362 88.863 111.339 88.6182 112.641 88.5713L114.156 88.5244V88.1416C114.156 87.6833 114.036 87.3473 113.797 87.1338C113.557 86.9202 113.224 86.8135 112.797 86.8135C112.375 86.8135 111.961 86.8734 111.555 86.9932C111.148 87.113 110.742 87.264 110.336 87.4463L109.547 85.8369C110.01 85.5921 110.529 85.3994 111.102 85.2588C111.68 85.1182 112.276 85.0479 112.891 85.0479ZM114.156 89.915L113.234 89.9463C112.464 89.9671 111.927 90.1051 111.625 90.3604C111.328 90.6156 111.18 90.9515 111.18 91.3682C111.18 91.7327 111.286 91.9932 111.5 92.1494C111.714 92.3005 111.992 92.376 112.336 92.376C112.846 92.376 113.276 92.2249 113.625 91.9229C113.979 91.6208 114.156 91.1911 114.156 90.6338V89.915ZM118.453 88.7275C118.453 87.4411 118.612 86.3473 118.93 85.4463C119.247 84.5452 119.753 83.8265 120.445 83.29C121.138 82.7484 122.047 82.3812 123.172 82.1885C123.734 82.0895 124.305 82.0088 124.883 81.9463C125.466 81.8786 126.07 81.8031 126.695 81.7197L126.969 83.8057C126.698 83.8369 126.404 83.8708 126.086 83.9072C125.768 83.9437 125.448 83.9827 125.125 84.0244C124.802 84.0609 124.49 84.0999 124.188 84.1416C123.885 84.1781 123.612 84.2145 123.367 84.251C122.836 84.3343 122.393 84.4645 122.039 84.6416C121.685 84.8187 121.414 85.0999 121.227 85.4854C121.039 85.8708 120.924 86.4255 120.883 87.1494H121C121.125 86.9515 121.302 86.751 121.531 86.5479C121.76 86.3395 122.044 86.1676 122.383 86.0322C122.721 85.8916 123.112 85.8213 123.555 85.8213C124.253 85.8213 124.857 85.9645 125.367 86.251C125.878 86.5374 126.271 86.9645 126.547 87.5322C126.828 88.0947 126.969 88.7979 126.969 89.6416C126.969 90.6312 126.786 91.4593 126.422 92.126C126.062 92.7874 125.562 93.2848 124.922 93.6182C124.281 93.9515 123.539 94.1182 122.695 94.1182C122.049 94.1182 121.466 94.001 120.945 93.7666C120.424 93.5322 119.977 93.1859 119.602 92.7275C119.232 92.2692 118.948 91.7067 118.75 91.04C118.552 90.3682 118.453 89.5973 118.453 88.7275ZM122.836 92.1885C123.174 92.1885 123.469 92.1156 123.719 91.9697C123.974 91.8187 124.172 91.5739 124.312 91.2354C124.458 90.8916 124.531 90.4307 124.531 89.8525C124.531 89.1546 124.414 88.6025 124.18 88.1963C123.951 87.7848 123.557 87.5791 123 87.5791C122.661 87.5791 122.344 87.6624 122.047 87.8291C121.755 87.9906 121.508 88.1781 121.305 88.3916C121.102 88.5999 120.961 88.777 120.883 88.9229C120.883 89.3343 120.914 89.7354 120.977 90.126C121.044 90.5114 121.151 90.8604 121.297 91.1729C121.443 91.4854 121.641 91.7327 121.891 91.915C122.146 92.0973 122.461 92.1885 122.836 92.1885ZM131.242 85.2275V88.6807C131.242 88.8577 131.234 89.0817 131.219 89.3525C131.208 89.6182 131.193 89.889 131.172 90.165C131.151 90.4411 131.13 90.6885 131.109 90.9072C131.089 91.126 131.073 91.2744 131.062 91.3525L135.094 85.2275H137.961V93.9619H135.656V90.4775C135.656 90.1911 135.667 89.876 135.688 89.5322C135.708 89.1833 135.732 88.8551 135.758 88.5479C135.784 88.2406 135.802 88.0088 135.812 87.8525L131.797 93.9619H128.938V85.2275H131.242ZM145.328 85.0635C146.312 85.0635 147.107 85.4463 147.711 86.2119C148.32 86.9775 148.625 88.0999 148.625 89.5791C148.625 90.5687 148.482 91.402 148.195 92.0791C147.909 92.751 147.513 93.2588 147.008 93.6025C146.503 93.9463 145.922 94.1182 145.266 94.1182C144.844 94.1182 144.482 94.0661 144.18 93.9619C143.878 93.8525 143.62 93.7145 143.406 93.5479C143.193 93.376 143.008 93.1937 142.852 93.001H142.727C142.768 93.2093 142.799 93.4229 142.82 93.6416C142.841 93.8604 142.852 94.0739 142.852 94.2822V97.8057H140.469V85.2275H142.406L142.742 86.3604H142.852C143.008 86.126 143.198 85.9098 143.422 85.7119C143.646 85.514 143.914 85.3577 144.227 85.2432C144.544 85.1234 144.911 85.0635 145.328 85.0635ZM144.562 86.9697C144.146 86.9697 143.815 87.0557 143.57 87.2275C143.326 87.3994 143.146 87.6572 143.031 88.001C142.922 88.3447 142.862 88.7796 142.852 89.3057V89.5635C142.852 90.126 142.904 90.6025 143.008 90.9932C143.117 91.3838 143.297 91.6807 143.547 91.8838C143.802 92.0869 144.151 92.1885 144.594 92.1885C144.958 92.1885 145.258 92.0869 145.492 91.8838C145.727 91.6807 145.901 91.3838 146.016 90.9932C146.135 90.5973 146.195 90.1156 146.195 89.5479C146.195 88.6937 146.062 88.0505 145.797 87.6182C145.531 87.1859 145.12 86.9697 144.562 86.9697ZM158.531 89.5791C158.531 90.3083 158.432 90.9541 158.234 91.5166C158.042 92.0791 157.758 92.5557 157.383 92.9463C157.013 93.3317 156.565 93.6234 156.039 93.8213C155.518 94.0192 154.93 94.1182 154.273 94.1182C153.659 94.1182 153.094 94.0192 152.578 93.8213C152.068 93.6234 151.622 93.3317 151.242 92.9463C150.867 92.5557 150.576 92.0791 150.367 91.5166C150.164 90.9541 150.062 90.3083 150.062 89.5791C150.062 88.6104 150.234 87.79 150.578 87.1182C150.922 86.4463 151.411 85.9359 152.047 85.5869C152.682 85.238 153.44 85.0635 154.32 85.0635C155.138 85.0635 155.862 85.238 156.492 85.5869C157.128 85.9359 157.625 86.4463 157.984 87.1182C158.349 87.79 158.531 88.6104 158.531 89.5791ZM152.492 89.5791C152.492 90.152 152.555 90.6338 152.68 91.0244C152.805 91.415 153 91.7093 153.266 91.9072C153.531 92.1051 153.878 92.2041 154.305 92.2041C154.727 92.2041 155.068 92.1051 155.328 91.9072C155.594 91.7093 155.786 91.415 155.906 91.0244C156.031 90.6338 156.094 90.152 156.094 89.5791C156.094 89.001 156.031 88.5218 155.906 88.1416C155.786 87.7562 155.594 87.4671 155.328 87.2744C155.062 87.0817 154.716 86.9854 154.289 86.9854C153.659 86.9854 153.201 87.2015 152.914 87.6338C152.633 88.0661 152.492 88.7145 152.492 89.5791ZM168.242 87.5166C168.242 87.9854 168.094 88.3864 167.797 88.7197C167.505 89.0479 167.073 89.2588 166.5 89.3525V89.415C167.104 89.488 167.591 89.6989 167.961 90.0479C168.331 90.3916 168.516 90.8265 168.516 91.3525C168.516 91.8525 168.385 92.3005 168.125 92.6963C167.865 93.0869 167.451 93.3968 166.883 93.626C166.315 93.8499 165.573 93.9619 164.656 93.9619H160.5V85.2275H164.656C165.339 85.2275 165.951 85.3005 166.492 85.4463C167.034 85.5869 167.461 85.8239 167.773 86.1572C168.086 86.4906 168.242 86.9437 168.242 87.5166ZM166.047 91.2275C166.047 90.8838 165.911 90.6364 165.641 90.4854C165.375 90.3291 164.979 90.251 164.453 90.251H162.883V92.3135H164.5C164.948 92.3135 165.318 92.2301 165.609 92.0635C165.901 91.8968 166.047 91.6182 166.047 91.2275ZM165.828 87.7041C165.828 87.4333 165.721 87.2327 165.508 87.1025C165.294 86.9723 164.979 86.9072 164.562 86.9072H162.883V88.6338H164.289C164.794 88.6338 165.177 88.5609 165.438 88.415C165.698 88.2692 165.828 88.0322 165.828 87.7041ZM174.141 85.0479C175.312 85.0479 176.211 85.3031 176.836 85.8135C177.461 86.3239 177.773 87.0999 177.773 88.1416V93.9619H176.109L175.648 92.7744H175.586C175.336 93.0869 175.081 93.3421 174.82 93.54C174.56 93.738 174.26 93.8838 173.922 93.9775C173.583 94.0713 173.172 94.1182 172.688 94.1182C172.172 94.1182 171.708 94.0192 171.297 93.8213C170.891 93.6234 170.57 93.3213 170.336 92.915C170.102 92.5036 169.984 91.9827 169.984 91.3525C169.984 90.4255 170.31 89.7432 170.961 89.3057C171.612 88.863 172.589 88.6182 173.891 88.5713L175.406 88.5244V88.1416C175.406 87.6833 175.286 87.3473 175.047 87.1338C174.807 86.9202 174.474 86.8135 174.047 86.8135C173.625 86.8135 173.211 86.8734 172.805 86.9932C172.398 87.113 171.992 87.264 171.586 87.4463L170.797 85.8369C171.26 85.5921 171.779 85.3994 172.352 85.2588C172.93 85.1182 173.526 85.0479 174.141 85.0479ZM175.406 89.915L174.484 89.9463C173.714 89.9671 173.177 90.1051 172.875 90.3604C172.578 90.6156 172.43 90.9515 172.43 91.3682C172.43 91.7327 172.536 91.9932 172.75 92.1494C172.964 92.3005 173.242 92.376 173.586 92.376C174.096 92.376 174.526 92.2249 174.875 91.9229C175.229 91.6208 175.406 91.1911 175.406 90.6338V89.915ZM182.617 85.2275V88.5869H185.945V85.2275H188.328V93.9619H185.945V90.3604H182.617V93.9619H180.234V85.2275H182.617ZM193.133 85.2275V88.6807C193.133 88.8577 193.125 89.0817 193.109 89.3525C193.099 89.6182 193.083 89.889 193.062 90.165C193.042 90.4411 193.021 90.6885 193 90.9072C192.979 91.126 192.964 91.2744 192.953 91.3525L196.984 85.2275H199.852V93.9619H197.547V90.4775C197.547 90.1911 197.557 89.876 197.578 89.5322C197.599 89.1833 197.622 88.8551 197.648 88.5479C197.674 88.2406 197.693 88.0088 197.703 87.8525L193.688 93.9619H190.828V85.2275H193.133ZM214.422 89.5791C214.422 90.5479 214.255 91.3708 213.922 92.0479C213.594 92.7249 213.122 93.2406 212.508 93.5947C211.898 93.9437 211.172 94.1182 210.328 94.1182C209.609 94.1182 208.966 93.9827 208.398 93.7119C207.831 93.4411 207.367 93.0296 207.008 92.4775C206.648 91.9202 206.417 91.2145 206.312 90.3604H204.742V93.9619H202.359V85.2275H204.742V88.5869H206.344C206.453 87.8265 206.685 87.1859 207.039 86.665C207.398 86.139 207.862 85.7406 208.43 85.4697C208.997 85.1989 209.646 85.0635 210.375 85.0635C211.161 85.0635 211.857 85.238 212.461 85.5869C213.07 85.9359 213.549 86.4463 213.898 87.1182C214.247 87.79 214.422 88.6104 214.422 89.5791ZM208.711 89.5791C208.711 90.152 208.766 90.6338 208.875 91.0244C208.99 91.415 209.167 91.7093 209.406 91.9072C209.651 92.1051 209.969 92.2041 210.359 92.2041C210.745 92.2041 211.057 92.1051 211.297 91.9072C211.536 91.7093 211.711 91.415 211.82 91.0244C211.935 90.6338 211.992 90.152 211.992 89.5791C211.992 89.001 211.935 88.5218 211.82 88.1416C211.711 87.7562 211.534 87.4671 211.289 87.2744C211.049 87.0817 210.734 86.9854 210.344 86.9854C209.958 86.9854 209.646 87.0817 209.406 87.2744C209.167 87.4671 208.99 87.7562 208.875 88.1416C208.766 88.5218 208.711 89.001 208.711 89.5791ZM222.852 85.2275V88.6807C222.852 88.8577 222.844 89.0817 222.828 89.3525C222.818 89.6182 222.802 89.889 222.781 90.165C222.76 90.4411 222.74 90.6885 222.719 90.9072C222.698 91.126 222.682 91.2744 222.672 91.3525L226.703 85.2275H229.57V93.9619H227.266V90.4775C227.266 90.1911 227.276 89.876 227.297 89.5322C227.318 89.1833 227.341 88.8551 227.367 88.5479C227.393 88.2406 227.411 88.0088 227.422 87.8525L223.406 93.9619H220.547V85.2275H222.852ZM100.688 108.79C100.688 109.467 100.523 110.056 100.195 110.556C99.8672 111.056 99.388 111.441 98.7578 111.712C98.1328 111.983 97.3724 112.118 96.4766 112.118C96.0807 112.118 95.6927 112.092 95.3125 112.04C94.9375 111.988 94.5755 111.912 94.2266 111.813C93.8828 111.709 93.5547 111.582 93.2422 111.431V109.181C93.7839 109.42 94.3464 109.636 94.9297 109.829C95.513 110.022 96.0911 110.118 96.6641 110.118C97.0599 110.118 97.3776 110.066 97.6172 109.962C97.862 109.858 98.0391 109.715 98.1484 109.532C98.2578 109.35 98.3125 109.142 98.3125 108.907C98.3125 108.621 98.2161 108.376 98.0234 108.173C97.8307 107.97 97.5651 107.78 97.2266 107.603C96.8932 107.425 96.5156 107.235 96.0938 107.032C95.8281 106.907 95.5391 106.756 95.2266 106.579C94.9141 106.397 94.6172 106.175 94.3359 105.915C94.0547 105.655 93.8229 105.34 93.6406 104.97C93.4635 104.595 93.375 104.147 93.375 103.626C93.375 102.944 93.5312 102.36 93.8438 101.876C94.1562 101.392 94.6016 101.022 95.1797 100.767C95.763 100.506 96.4505 100.376 97.2422 100.376C97.8359 100.376 98.401 100.446 98.9375 100.587C99.4792 100.722 100.044 100.92 100.633 101.181L99.8516 103.063C99.3255 102.85 98.8542 102.686 98.4375 102.571C98.0208 102.451 97.5964 102.392 97.1641 102.392C96.862 102.392 96.6042 102.441 96.3906 102.54C96.1771 102.634 96.0156 102.769 95.9062 102.946C95.7969 103.118 95.7422 103.319 95.7422 103.548C95.7422 103.819 95.8203 104.048 95.9766 104.235C96.138 104.418 96.3776 104.595 96.6953 104.767C97.0182 104.938 97.4193 105.139 97.8984 105.368C98.4818 105.644 98.9792 105.933 99.3906 106.235C99.8073 106.532 100.128 106.884 100.352 107.29C100.576 107.691 100.688 108.191 100.688 108.79ZM106.172 103.063C106.979 103.063 107.674 103.22 108.258 103.532C108.841 103.84 109.292 104.287 109.609 104.876C109.927 105.465 110.086 106.183 110.086 107.032V108.188H104.453C104.479 108.86 104.68 109.389 105.055 109.774C105.435 110.155 105.961 110.345 106.633 110.345C107.19 110.345 107.701 110.287 108.164 110.173C108.628 110.058 109.104 109.886 109.594 109.657V111.501C109.161 111.715 108.708 111.871 108.234 111.97C107.766 112.069 107.195 112.118 106.523 112.118C105.648 112.118 104.872 111.957 104.195 111.634C103.523 111.311 102.995 110.819 102.609 110.157C102.229 109.496 102.039 108.662 102.039 107.657C102.039 106.636 102.211 105.787 102.555 105.11C102.904 104.428 103.388 103.918 104.008 103.579C104.628 103.235 105.349 103.063 106.172 103.063ZM106.188 104.759C105.724 104.759 105.339 104.907 105.031 105.204C104.729 105.501 104.555 105.967 104.508 106.603H107.852C107.846 106.248 107.781 105.933 107.656 105.657C107.536 105.381 107.354 105.162 107.109 105.001C106.87 104.84 106.562 104.759 106.188 104.759ZM115.625 103.063C116.432 103.063 117.128 103.22 117.711 103.532C118.294 103.84 118.745 104.287 119.062 104.876C119.38 105.465 119.539 106.183 119.539 107.032V108.188H113.906C113.932 108.86 114.133 109.389 114.508 109.774C114.888 110.155 115.414 110.345 116.086 110.345C116.643 110.345 117.154 110.287 117.617 110.173C118.081 110.058 118.557 109.886 119.047 109.657V111.501C118.615 111.715 118.161 111.871 117.688 111.97C117.219 112.069 116.648 112.118 115.977 112.118C115.102 112.118 114.326 111.957 113.648 111.634C112.977 111.311 112.448 110.819 112.062 110.157C111.682 109.496 111.492 108.662 111.492 107.657C111.492 106.636 111.664 105.787 112.008 105.11C112.357 104.428 112.841 103.918 113.461 103.579C114.081 103.235 114.802 103.063 115.625 103.063ZM115.641 104.759C115.177 104.759 114.792 104.907 114.484 105.204C114.182 105.501 114.008 105.967 113.961 106.603H117.305C117.299 106.248 117.234 105.933 117.109 105.657C116.99 105.381 116.807 105.162 116.562 105.001C116.323 104.84 116.016 104.759 115.641 104.759ZM124.242 112.118C123.268 112.118 122.474 111.738 121.859 110.978C121.25 110.212 120.945 109.09 120.945 107.61C120.945 106.116 121.255 104.985 121.875 104.22C122.495 103.449 123.305 103.063 124.305 103.063C124.721 103.063 125.089 103.121 125.406 103.235C125.724 103.35 125.997 103.504 126.227 103.696C126.461 103.889 126.659 104.105 126.82 104.345H126.898C126.867 104.178 126.828 103.933 126.781 103.61C126.74 103.282 126.719 102.946 126.719 102.603V99.8057H129.109V111.962H127.281L126.82 110.829H126.719C126.568 111.069 126.378 111.287 126.148 111.485C125.924 111.678 125.656 111.832 125.344 111.946C125.031 112.061 124.664 112.118 124.242 112.118ZM125.078 110.22C125.729 110.22 126.188 110.027 126.453 109.642C126.724 109.251 126.867 108.665 126.883 107.884V107.626C126.883 106.777 126.753 106.129 126.492 105.681C126.232 105.228 125.747 105.001 125.039 105.001C124.513 105.001 124.102 105.228 123.805 105.681C123.508 106.134 123.359 106.787 123.359 107.642C123.359 108.496 123.508 109.139 123.805 109.571C124.107 110.004 124.531 110.22 125.078 110.22ZM130.828 108.649V106.696H135.023V108.649H130.828ZM141.617 103.063C142.602 103.063 143.396 103.446 144 104.212C144.609 104.978 144.914 106.1 144.914 107.579C144.914 108.569 144.771 109.402 144.484 110.079C144.198 110.751 143.802 111.259 143.297 111.603C142.792 111.946 142.211 112.118 141.555 112.118C141.133 112.118 140.771 112.066 140.469 111.962C140.167 111.853 139.909 111.715 139.695 111.548C139.482 111.376 139.297 111.194 139.141 111.001H139.016C139.057 111.209 139.089 111.423 139.109 111.642C139.13 111.86 139.141 112.074 139.141 112.282V115.806H136.758V103.228H138.695L139.031 104.36H139.141C139.297 104.126 139.487 103.91 139.711 103.712C139.935 103.514 140.203 103.358 140.516 103.243C140.833 103.123 141.201 103.063 141.617 103.063ZM140.852 104.97C140.435 104.97 140.104 105.056 139.859 105.228C139.615 105.399 139.435 105.657 139.32 106.001C139.211 106.345 139.151 106.78 139.141 107.306V107.563C139.141 108.126 139.193 108.603 139.297 108.993C139.406 109.384 139.586 109.681 139.836 109.884C140.091 110.087 140.44 110.188 140.883 110.188C141.247 110.188 141.547 110.087 141.781 109.884C142.016 109.681 142.19 109.384 142.305 108.993C142.424 108.597 142.484 108.116 142.484 107.548C142.484 106.694 142.352 106.05 142.086 105.618C141.82 105.186 141.409 104.97 140.852 104.97ZM150.461 103.048C151.633 103.048 152.531 103.303 153.156 103.813C153.781 104.324 154.094 105.1 154.094 106.142V111.962H152.43L151.969 110.774H151.906C151.656 111.087 151.401 111.342 151.141 111.54C150.88 111.738 150.581 111.884 150.242 111.978C149.904 112.071 149.492 112.118 149.008 112.118C148.492 112.118 148.029 112.019 147.617 111.821C147.211 111.623 146.891 111.321 146.656 110.915C146.422 110.504 146.305 109.983 146.305 109.353C146.305 108.425 146.63 107.743 147.281 107.306C147.932 106.863 148.909 106.618 150.211 106.571L151.727 106.524V106.142C151.727 105.683 151.607 105.347 151.367 105.134C151.128 104.92 150.794 104.813 150.367 104.813C149.945 104.813 149.531 104.873 149.125 104.993C148.719 105.113 148.312 105.264 147.906 105.446L147.117 103.837C147.581 103.592 148.099 103.399 148.672 103.259C149.25 103.118 149.846 103.048 150.461 103.048ZM151.727 107.915L150.805 107.946C150.034 107.967 149.497 108.105 149.195 108.36C148.898 108.616 148.75 108.951 148.75 109.368C148.75 109.733 148.857 109.993 149.07 110.149C149.284 110.3 149.562 110.376 149.906 110.376C150.417 110.376 150.846 110.225 151.195 109.923C151.549 109.621 151.727 109.191 151.727 108.634V107.915ZM155.305 103.228H157.914L159.562 108.142C159.615 108.298 159.659 108.457 159.695 108.618C159.732 108.78 159.763 108.946 159.789 109.118C159.815 109.29 159.836 109.47 159.852 109.657H159.898C159.93 109.376 159.971 109.113 160.023 108.868C160.081 108.623 160.151 108.381 160.234 108.142L161.852 103.228H164.406L160.711 113.079C160.487 113.683 160.195 114.186 159.836 114.587C159.477 114.993 159.062 115.298 158.594 115.501C158.13 115.704 157.62 115.806 157.062 115.806C156.792 115.806 156.557 115.79 156.359 115.759C156.161 115.733 155.992 115.704 155.852 115.673V113.782C155.961 113.808 156.099 113.832 156.266 113.853C156.432 113.873 156.607 113.884 156.789 113.884C157.122 113.884 157.409 113.813 157.648 113.673C157.888 113.532 158.089 113.342 158.25 113.103C158.411 112.868 158.539 112.61 158.633 112.329L158.773 111.899L155.305 103.228ZM168.047 103.228V106.587H171.375V103.228H173.758V111.962H171.375V108.36H168.047V111.962H165.664V103.228H168.047ZM184.109 103.228V110.22H185.391V115.095H183.25V111.962H177.375V115.095H175.234V110.22H175.969C176.354 109.631 176.677 108.959 176.938 108.204C177.203 107.449 177.417 106.649 177.578 105.806C177.745 104.957 177.865 104.097 177.938 103.228H184.109ZM181.727 105.017H179.938C179.854 105.662 179.747 106.287 179.617 106.892C179.492 107.491 179.336 108.069 179.148 108.626C178.961 109.178 178.732 109.709 178.461 110.22H181.727V105.017ZM185.633 103.228H188.242L189.891 108.142C189.943 108.298 189.987 108.457 190.023 108.618C190.06 108.78 190.091 108.946 190.117 109.118C190.143 109.29 190.164 109.47 190.18 109.657H190.227C190.258 109.376 190.299 109.113 190.352 108.868C190.409 108.623 190.479 108.381 190.562 108.142L192.18 103.228H194.734L191.039 113.079C190.815 113.683 190.523 114.186 190.164 114.587C189.805 114.993 189.391 115.298 188.922 115.501C188.458 115.704 187.948 115.806 187.391 115.806C187.12 115.806 186.885 115.79 186.688 115.759C186.49 115.733 186.32 115.704 186.18 115.673V113.782C186.289 113.808 186.427 113.832 186.594 113.853C186.76 113.873 186.935 113.884 187.117 113.884C187.451 113.884 187.737 113.813 187.977 113.673C188.216 113.532 188.417 113.342 188.578 113.103C188.74 112.868 188.867 112.61 188.961 112.329L189.102 111.899L185.633 103.228Z" fill="black"/>
<path fill-rule="evenodd" clip-rule="evenodd" d="M43.4525 146.781C43.6906 147.031 43.6811 147.426 43.4312 147.664L35.1296 155.575L30.0688 150.753C29.8189 150.514 29.8094 150.119 30.0475 149.869C30.2857 149.619 30.6813 149.61 30.9312 149.848L35.1296 153.849L42.5688 146.759C42.8187 146.521 43.2143 146.531 43.4525 146.781Z" fill="#25DE85"/>
<path d="M78.3857 147.962L77.1553 144.79H73.1494L71.9258 147.962H70.75L74.6602 137.927H75.7061L79.5889 147.962H78.3857ZM76.8066 143.758L75.6377 140.606C75.6104 140.524 75.5648 140.39 75.501 140.203C75.4417 140.016 75.3802 139.823 75.3164 139.622C75.2526 139.422 75.2002 139.26 75.1592 139.137C75.1136 139.324 75.0635 139.51 75.0088 139.697C74.9587 139.88 74.9085 140.05 74.8584 140.21C74.8083 140.365 74.765 140.497 74.7285 140.606L73.5391 143.758H76.8066ZM81.9473 140.47V143.614H86.124V140.47H87.2588V147.962H86.124V144.578H81.9473V147.962H80.8057V140.47H81.9473ZM92.4678 140.347C93.361 140.347 94.0241 140.547 94.457 140.948C94.89 141.349 95.1064 141.99 95.1064 142.869V147.962H94.2793L94.0605 146.854H94.0059C93.7962 147.128 93.5775 147.358 93.3496 147.545C93.1217 147.727 92.8574 147.866 92.5566 147.962C92.2604 148.053 91.8958 148.099 91.4629 148.099C91.0072 148.099 90.6016 148.019 90.2461 147.859C89.8952 147.7 89.6172 147.458 89.4121 147.135C89.2116 146.811 89.1113 146.401 89.1113 145.904C89.1113 145.157 89.4076 144.583 90 144.182C90.5924 143.781 91.4948 143.562 92.707 143.525L93.999 143.471V143.013C93.999 142.366 93.86 141.912 93.582 141.652C93.304 141.393 92.9121 141.263 92.4062 141.263C92.0143 141.263 91.6406 141.32 91.2852 141.434C90.9297 141.548 90.5924 141.682 90.2734 141.837L89.9248 140.976C90.262 140.802 90.6494 140.654 91.0869 140.531C91.5244 140.408 91.9847 140.347 92.4678 140.347ZM93.9854 144.271L92.8438 144.318C91.9095 144.355 91.251 144.507 90.8682 144.776C90.4854 145.045 90.2939 145.426 90.2939 145.918C90.2939 146.346 90.4238 146.663 90.6836 146.868C90.9434 147.073 91.2874 147.176 91.7158 147.176C92.3812 147.176 92.9258 146.991 93.3496 146.622C93.7734 146.253 93.9854 145.699 93.9854 144.961V144.271ZM103.063 147.962H101.908V141.42H99.6318C99.5407 142.6 99.4245 143.612 99.2832 144.455C99.1465 145.294 98.9733 145.979 98.7637 146.513C98.5586 147.041 98.3079 147.431 98.0117 147.682C97.7201 147.928 97.3714 148.051 96.9658 148.051C96.8428 148.051 96.7266 148.044 96.6172 148.03C96.5078 148.017 96.4144 147.994 96.3369 147.962V147.101C96.3962 147.119 96.4577 147.132 96.5215 147.142C96.5898 147.151 96.6605 147.155 96.7334 147.155C96.9385 147.155 97.1253 147.071 97.2939 146.902C97.4671 146.729 97.6221 146.469 97.7588 146.123C97.9001 145.777 98.0254 145.339 98.1348 144.811C98.2441 144.277 98.3398 143.651 98.4219 142.931C98.5085 142.206 98.5837 141.386 98.6475 140.47H103.063V147.962ZM106.536 140.47V145.18C106.536 145.271 106.534 145.389 106.529 145.535C106.525 145.676 106.518 145.829 106.509 145.993C106.5 146.153 106.491 146.308 106.481 146.458C106.477 146.604 106.47 146.725 106.461 146.82L110.549 140.47H111.943V147.962H110.884V143.368C110.884 143.222 110.886 143.035 110.891 142.808C110.895 142.58 110.902 142.356 110.911 142.138C110.92 141.914 110.927 141.741 110.932 141.618L106.857 147.962H105.456V140.47H106.536ZM116.284 140.333C116.845 140.333 117.33 140.41 117.74 140.565C118.15 140.716 118.467 140.937 118.69 141.229C118.914 141.52 119.025 141.876 119.025 142.295C119.025 142.746 118.902 143.106 118.656 143.375C118.41 143.644 118.071 143.838 117.638 143.956V144.011C117.943 144.093 118.219 144.211 118.465 144.366C118.715 144.517 118.914 144.717 119.06 144.968C119.21 145.214 119.285 145.521 119.285 145.891C119.285 146.31 119.171 146.688 118.943 147.025C118.715 147.358 118.369 147.62 117.904 147.812C117.439 148.003 116.852 148.099 116.141 148.099C115.79 148.099 115.457 148.078 115.143 148.037C114.828 148.001 114.543 147.946 114.288 147.873C114.033 147.8 113.81 147.714 113.618 147.613V146.581C113.937 146.736 114.311 146.873 114.739 146.991C115.168 147.11 115.63 147.169 116.127 147.169C116.51 147.169 116.854 147.126 117.159 147.039C117.465 146.948 117.706 146.804 117.884 146.608C118.066 146.408 118.157 146.146 118.157 145.822C118.157 145.526 118.077 145.282 117.918 145.091C117.758 144.895 117.519 144.751 117.2 144.66C116.886 144.564 116.487 144.517 116.004 144.517H114.999V143.587H115.826C116.469 143.587 116.981 143.496 117.364 143.313C117.747 143.131 117.938 142.824 117.938 142.391C117.938 142.017 117.79 141.739 117.494 141.557C117.198 141.37 116.774 141.276 116.223 141.276C115.812 141.276 115.45 141.32 115.136 141.406C114.821 141.488 114.482 141.607 114.117 141.762L113.714 140.853C114.106 140.679 114.516 140.549 114.944 140.463C115.373 140.376 115.819 140.333 116.284 140.333ZM132.492 137.968V144.435C132.492 145.141 132.349 145.77 132.062 146.321C131.779 146.873 131.351 147.308 130.776 147.627C130.202 147.941 129.482 148.099 128.616 148.099C127.381 148.099 126.44 147.764 125.793 147.094C125.15 146.424 124.829 145.528 124.829 144.407V137.968H125.998V144.441C125.998 145.289 126.221 145.943 126.668 146.403C127.119 146.864 127.791 147.094 128.685 147.094C129.295 147.094 129.794 146.984 130.182 146.766C130.574 146.542 130.863 146.232 131.05 145.836C131.241 145.435 131.337 144.972 131.337 144.448V137.968H132.492ZM141.816 147.962H140.497L137.797 143.56L135.056 147.962H133.818L137.147 142.753L134.051 137.968H135.343L137.838 141.953L140.347 137.968H141.577L138.487 142.732L141.816 147.962ZM147.784 140.47V145.18C147.784 145.271 147.782 145.389 147.777 145.535C147.773 145.676 147.766 145.829 147.757 145.993C147.748 146.153 147.739 146.308 147.729 146.458C147.725 146.604 147.718 146.725 147.709 146.82L151.797 140.47H153.191V147.962H152.132V143.368C152.132 143.222 152.134 143.035 152.139 142.808C152.143 142.58 152.15 142.356 152.159 142.138C152.168 141.914 152.175 141.741 152.18 141.618L148.105 147.962H146.704V140.47H147.784ZM167.15 140.47V147.962H166.125V143.081C166.125 142.881 166.13 142.678 166.139 142.473C166.152 142.263 166.168 142.053 166.187 141.844H166.146L163.657 147.962H162.693L160.267 141.844H160.226C160.239 142.053 160.248 142.263 160.253 142.473C160.262 142.678 160.267 142.894 160.267 143.122V147.962H159.234V140.47H160.759L163.179 146.595L165.633 140.47H167.15ZM172.394 140.333C173.032 140.333 173.578 140.474 174.034 140.757C174.49 141.039 174.839 141.436 175.08 141.946C175.322 142.452 175.442 143.045 175.442 143.724V144.428H170.268C170.281 145.307 170.5 145.977 170.924 146.438C171.348 146.898 171.945 147.128 172.715 147.128C173.189 147.128 173.608 147.085 173.973 146.998C174.337 146.911 174.715 146.784 175.107 146.615V147.613C174.729 147.782 174.353 147.905 173.979 147.982C173.61 148.06 173.173 148.099 172.667 148.099C171.947 148.099 171.318 147.953 170.78 147.661C170.247 147.365 169.832 146.932 169.536 146.362C169.24 145.793 169.092 145.095 169.092 144.271C169.092 143.464 169.226 142.767 169.495 142.179C169.769 141.586 170.151 141.131 170.644 140.812C171.14 140.493 171.724 140.333 172.394 140.333ZM172.38 141.263C171.774 141.263 171.291 141.461 170.931 141.857C170.571 142.254 170.356 142.808 170.288 143.519H174.253C174.248 143.072 174.178 142.68 174.041 142.343C173.909 142.001 173.706 141.737 173.433 141.55C173.159 141.358 172.808 141.263 172.38 141.263ZM182.477 141.434H180.009V147.962H178.888V141.434H176.454V140.47H182.477V141.434ZM187.48 140.333C188.415 140.333 189.16 140.654 189.716 141.297C190.272 141.939 190.55 142.906 190.55 144.195C190.55 145.048 190.422 145.763 190.167 146.342C189.912 146.921 189.552 147.358 189.087 147.654C188.627 147.951 188.082 148.099 187.453 148.099C187.057 148.099 186.708 148.046 186.407 147.941C186.106 147.837 185.849 147.695 185.635 147.518C185.421 147.34 185.243 147.146 185.102 146.937H185.02C185.033 147.114 185.049 147.328 185.067 147.579C185.09 147.83 185.102 148.049 185.102 148.235V151.312H183.96V140.47H184.896L185.047 141.577H185.102C185.247 141.349 185.425 141.142 185.635 140.955C185.844 140.764 186.1 140.613 186.4 140.504C186.706 140.39 187.066 140.333 187.48 140.333ZM187.282 141.29C186.763 141.29 186.343 141.39 186.024 141.591C185.71 141.791 185.48 142.092 185.334 142.493C185.188 142.89 185.111 143.389 185.102 143.99V144.209C185.102 144.842 185.17 145.378 185.307 145.815C185.448 146.253 185.678 146.586 185.997 146.813C186.321 147.041 186.754 147.155 187.296 147.155C187.761 147.155 188.148 147.03 188.458 146.779C188.768 146.529 188.998 146.18 189.148 145.733C189.303 145.282 189.381 144.765 189.381 144.182C189.381 143.298 189.208 142.596 188.861 142.076C188.52 141.552 187.993 141.29 187.282 141.29ZM193.612 140.47V145.18C193.612 145.271 193.61 145.389 193.605 145.535C193.601 145.676 193.594 145.829 193.585 145.993C193.576 146.153 193.567 146.308 193.558 146.458C193.553 146.604 193.546 146.725 193.537 146.82L197.625 140.47H199.02V147.962H197.96V143.368C197.96 143.222 197.962 143.035 197.967 142.808C197.971 142.58 197.978 142.356 197.987 142.138C197.996 141.914 198.003 141.741 198.008 141.618L193.934 147.962H192.532V140.47H193.612ZM205.801 140.47H207.052L203.818 144.086L207.312 147.962H205.979L202.574 144.161V147.962H201.433V140.47H202.574V144.106L205.801 140.47ZM211.666 144.127C211.666 143.357 211.739 142.607 211.885 141.878C212.035 141.149 212.263 140.454 212.568 139.793C212.874 139.132 213.259 138.524 213.724 137.968H214.811C214.15 138.834 213.653 139.795 213.32 140.853C212.988 141.91 212.821 142.997 212.821 144.113C212.821 144.842 212.894 145.562 213.04 146.273C213.19 146.98 213.411 147.661 213.703 148.317C213.999 148.974 214.364 149.593 214.797 150.177H213.724C213.259 149.63 212.874 149.033 212.568 148.386C212.263 147.743 212.035 147.062 211.885 146.342C211.739 145.622 211.666 144.883 211.666 144.127ZM222.87 147.962L221.64 144.79H217.634L216.41 147.962H215.234L219.145 137.927H220.19L224.073 147.962H222.87ZM221.291 143.758L220.122 140.606C220.095 140.524 220.049 140.39 219.985 140.203C219.926 140.016 219.865 139.823 219.801 139.622C219.737 139.422 219.685 139.26 219.644 139.137C219.598 139.324 219.548 139.51 219.493 139.697C219.443 139.88 219.393 140.05 219.343 140.21C219.293 140.365 219.249 140.497 219.213 140.606L218.023 143.758H221.291ZM228.161 137.968C228.981 137.968 229.658 138.07 230.191 138.275C230.729 138.476 231.13 138.784 231.395 139.198C231.659 139.613 231.791 140.142 231.791 140.784C231.791 141.313 231.695 141.755 231.504 142.11C231.312 142.461 231.062 142.746 230.752 142.965C230.442 143.184 230.112 143.352 229.761 143.471L232.502 147.962H231.148L228.701 143.792H226.623V147.962H225.461V137.968H228.161ZM228.093 138.973H226.623V142.808H228.209C229.025 142.808 229.624 142.641 230.007 142.309C230.394 141.976 230.588 141.486 230.588 140.839C230.588 140.16 230.383 139.679 229.973 139.396C229.567 139.114 228.94 138.973 228.093 138.973ZM236.713 137.968C238.003 137.968 238.944 138.221 239.536 138.727C240.133 139.228 240.432 139.948 240.432 140.887C240.432 141.311 240.361 141.714 240.22 142.097C240.083 142.475 239.86 142.81 239.55 143.102C239.24 143.389 238.832 143.617 238.326 143.785C237.825 143.949 237.21 144.031 236.48 144.031H235.264V147.962H234.102V137.968H236.713ZM236.604 138.959H235.264V143.033H236.351C236.989 143.033 237.52 142.965 237.943 142.828C238.372 142.691 238.693 142.47 238.907 142.165C239.121 141.855 239.229 141.445 239.229 140.935C239.229 140.269 239.017 139.775 238.593 139.451C238.169 139.123 237.506 138.959 236.604 138.959ZM250.084 137.968V144.435C250.084 145.141 249.94 145.77 249.653 146.321C249.371 146.873 248.942 147.308 248.368 147.627C247.794 147.941 247.074 148.099 246.208 148.099C244.973 148.099 244.032 147.764 243.385 147.094C242.742 146.424 242.421 145.528 242.421 144.407V137.968H243.59V144.441C243.59 145.289 243.813 145.943 244.26 146.403C244.711 146.864 245.383 147.094 246.276 147.094C246.887 147.094 247.386 146.984 247.773 146.766C248.165 146.542 248.455 146.232 248.642 145.836C248.833 145.435 248.929 144.972 248.929 144.448V137.968H250.084ZM253.864 146.335L253.953 146.492C253.871 146.825 253.766 147.18 253.639 147.559C253.516 147.937 253.379 148.315 253.229 148.693C253.083 149.076 252.935 149.434 252.784 149.767H251.937C252.032 149.402 252.126 149.017 252.217 148.611C252.308 148.21 252.39 147.814 252.463 147.422C252.54 147.025 252.602 146.663 252.647 146.335H253.864ZM76.3896 154.85C75.8382 154.85 75.3415 154.945 74.8994 155.137C74.4619 155.324 74.0882 155.597 73.7783 155.957C73.473 156.312 73.2383 156.743 73.0742 157.249C72.9102 157.755 72.8281 158.325 72.8281 158.958C72.8281 159.797 72.958 160.526 73.2178 161.146C73.4821 161.761 73.874 162.237 74.3936 162.574C74.9176 162.911 75.5716 163.08 76.3555 163.08C76.8021 163.08 77.2214 163.044 77.6133 162.971C78.0098 162.893 78.3949 162.798 78.7686 162.684V163.695C78.404 163.832 78.0212 163.932 77.6201 163.996C77.2191 164.064 76.7428 164.099 76.1914 164.099C75.1751 164.099 74.3252 163.889 73.6416 163.47C72.9626 163.046 72.4521 162.449 72.1104 161.679C71.7731 160.909 71.6045 159.999 71.6045 158.951C71.6045 158.195 71.7093 157.504 71.9189 156.88C72.1331 156.251 72.443 155.709 72.8486 155.253C73.2588 154.797 73.7601 154.446 74.3525 154.2C74.9495 153.95 75.6331 153.824 76.4033 153.824C76.9092 153.824 77.3968 153.874 77.8662 153.975C78.3356 154.075 78.7594 154.218 79.1377 154.405L78.6729 155.39C78.3538 155.244 78.0029 155.118 77.6201 155.014C77.2419 154.904 76.8317 154.85 76.3896 154.85ZM87.2041 163.962L85.9736 160.79H81.9678L80.7441 163.962H79.5684L83.4785 153.927H84.5244L88.4072 163.962H87.2041ZM85.625 159.758L84.4561 156.606C84.4287 156.524 84.3831 156.39 84.3193 156.203C84.2601 156.016 84.1986 155.823 84.1348 155.622C84.071 155.422 84.0186 155.26 83.9775 155.137C83.932 155.324 83.8818 155.51 83.8271 155.697C83.777 155.88 83.7269 156.05 83.6768 156.21C83.6266 156.365 83.5833 156.497 83.5469 156.606L82.3574 159.758H85.625ZM94.0674 154.85C93.516 154.85 93.0192 154.945 92.5771 155.137C92.1396 155.324 91.766 155.597 91.4561 155.957C91.1507 156.312 90.916 156.743 90.752 157.249C90.5879 157.755 90.5059 158.325 90.5059 158.958C90.5059 159.797 90.6357 160.526 90.8955 161.146C91.1598 161.761 91.5518 162.237 92.0713 162.574C92.5954 162.911 93.2493 163.08 94.0332 163.08C94.4798 163.08 94.8991 163.044 95.291 162.971C95.6875 162.893 96.0726 162.798 96.4463 162.684V163.695C96.0817 163.832 95.6989 163.932 95.2979 163.996C94.8968 164.064 94.4206 164.099 93.8691 164.099C92.8529 164.099 92.0029 163.889 91.3193 163.47C90.6403 163.046 90.1299 162.449 89.7881 161.679C89.4508 160.909 89.2822 159.999 89.2822 158.951C89.2822 158.195 89.387 157.504 89.5967 156.88C89.8109 156.251 90.1208 155.709 90.5264 155.253C90.9365 154.797 91.4378 154.446 92.0303 154.2C92.6273 153.95 93.3109 153.824 94.0811 153.824C94.5869 153.824 95.0745 153.874 95.5439 153.975C96.0133 154.075 96.4372 154.218 96.8154 154.405L96.3506 155.39C96.0316 155.244 95.6807 155.118 95.2979 155.014C94.9196 154.904 94.5094 154.85 94.0674 154.85ZM99.7412 162.335L99.8301 162.492C99.748 162.825 99.6432 163.18 99.5156 163.559C99.3926 163.937 99.2559 164.315 99.1055 164.693C98.9596 165.076 98.8115 165.434 98.6611 165.767H97.8135C97.9092 165.402 98.0026 165.017 98.0938 164.611C98.1849 164.21 98.2669 163.814 98.3398 163.422C98.4173 163.025 98.4788 162.663 98.5244 162.335H99.7412ZM110.07 156.47H111.321L108.088 160.086L111.581 163.962H110.248L106.844 160.161V163.962H105.702V156.47H106.844V160.106L110.07 156.47ZM119.395 160.202C119.395 160.817 119.315 161.367 119.155 161.85C118.996 162.333 118.766 162.741 118.465 163.073C118.164 163.406 117.799 163.661 117.371 163.839C116.947 164.012 116.466 164.099 115.929 164.099C115.427 164.099 114.967 164.012 114.548 163.839C114.133 163.661 113.773 163.406 113.468 163.073C113.167 162.741 112.932 162.333 112.764 161.85C112.6 161.367 112.518 160.817 112.518 160.202C112.518 159.382 112.657 158.685 112.935 158.11C113.213 157.532 113.609 157.092 114.124 156.791C114.644 156.486 115.261 156.333 115.977 156.333C116.66 156.333 117.257 156.486 117.768 156.791C118.283 157.096 118.681 157.538 118.964 158.117C119.251 158.691 119.395 159.386 119.395 160.202ZM113.693 160.202C113.693 160.804 113.773 161.326 113.933 161.768C114.092 162.21 114.338 162.551 114.671 162.793C115.004 163.035 115.432 163.155 115.956 163.155C116.476 163.155 116.902 163.035 117.234 162.793C117.572 162.551 117.82 162.21 117.979 161.768C118.139 161.326 118.219 160.804 118.219 160.202C118.219 159.605 118.139 159.09 117.979 158.657C117.82 158.22 117.574 157.882 117.241 157.646C116.909 157.409 116.478 157.29 115.949 157.29C115.17 157.29 114.598 157.548 114.233 158.062C113.873 158.577 113.693 159.291 113.693 160.202ZM122.498 156.47V159.614H126.675V156.47H127.81V163.962H126.675V160.578H122.498V163.962H121.356V156.47H122.498ZM136.17 158.35C136.17 158.819 136.033 159.186 135.76 159.45C135.486 159.71 135.133 159.885 134.7 159.977V160.031C135.17 160.095 135.573 160.264 135.91 160.537C136.252 160.806 136.423 161.218 136.423 161.774C136.423 162.203 136.32 162.581 136.115 162.909C135.91 163.237 135.589 163.495 135.151 163.682C134.714 163.868 134.144 163.962 133.442 163.962H130.216V156.47H133.415C133.953 156.47 134.427 156.531 134.837 156.654C135.252 156.773 135.577 156.969 135.814 157.242C136.051 157.516 136.17 157.885 136.17 158.35ZM135.24 161.774C135.24 161.332 135.072 161.013 134.734 160.817C134.402 160.621 133.916 160.523 133.278 160.523H131.357V163.039H133.306C133.935 163.039 134.413 162.943 134.741 162.752C135.074 162.556 135.24 162.23 135.24 161.774ZM135.015 158.479C135.015 158.124 134.885 157.86 134.625 157.687C134.365 157.509 133.939 157.42 133.347 157.42H131.357V159.573H133.148C133.764 159.573 134.229 159.484 134.543 159.307C134.857 159.129 135.015 158.853 135.015 158.479ZM141.14 156.333C141.778 156.333 142.325 156.474 142.78 156.757C143.236 157.039 143.585 157.436 143.826 157.946C144.068 158.452 144.188 159.045 144.188 159.724V160.428H139.014C139.027 161.307 139.246 161.977 139.67 162.438C140.094 162.898 140.691 163.128 141.461 163.128C141.935 163.128 142.354 163.085 142.719 162.998C143.083 162.911 143.462 162.784 143.854 162.615V163.613C143.475 163.782 143.099 163.905 142.726 163.982C142.356 164.06 141.919 164.099 141.413 164.099C140.693 164.099 140.064 163.953 139.526 163.661C138.993 163.365 138.578 162.932 138.282 162.362C137.986 161.793 137.838 161.095 137.838 160.271C137.838 159.464 137.972 158.767 138.241 158.179C138.515 157.586 138.897 157.131 139.39 156.812C139.886 156.493 140.47 156.333 141.14 156.333ZM141.126 157.263C140.52 157.263 140.037 157.461 139.677 157.857C139.317 158.254 139.103 158.808 139.034 159.519H142.999C142.994 159.072 142.924 158.68 142.787 158.343C142.655 158.001 142.452 157.737 142.179 157.55C141.905 157.358 141.554 157.263 141.126 157.263ZM149.637 156.333C150.571 156.333 151.316 156.654 151.872 157.297C152.428 157.939 152.706 158.906 152.706 160.195C152.706 161.048 152.578 161.763 152.323 162.342C152.068 162.921 151.708 163.358 151.243 163.654C150.783 163.951 150.238 164.099 149.609 164.099C149.213 164.099 148.864 164.046 148.563 163.941C148.263 163.837 148.005 163.695 147.791 163.518C147.577 163.34 147.399 163.146 147.258 162.937H147.176C147.189 163.114 147.205 163.328 147.224 163.579C147.246 163.83 147.258 164.049 147.258 164.235V167.312H146.116V156.47H147.053L147.203 157.577H147.258C147.404 157.349 147.581 157.142 147.791 156.955C148.001 156.764 148.256 156.613 148.557 156.504C148.862 156.39 149.222 156.333 149.637 156.333ZM149.438 157.29C148.919 157.29 148.5 157.39 148.181 157.591C147.866 157.791 147.636 158.092 147.49 158.493C147.344 158.89 147.267 159.389 147.258 159.99V160.209C147.258 160.842 147.326 161.378 147.463 161.815C147.604 162.253 147.834 162.586 148.153 162.813C148.477 163.041 148.91 163.155 149.452 163.155C149.917 163.155 150.304 163.03 150.614 162.779C150.924 162.529 151.154 162.18 151.305 161.733C151.46 161.282 151.537 160.765 151.537 160.182C151.537 159.298 151.364 158.596 151.018 158.076C150.676 157.552 150.149 157.29 149.438 157.29ZM157.689 164.099C157.015 164.099 156.42 163.96 155.905 163.682C155.39 163.404 154.989 162.98 154.702 162.41C154.415 161.84 154.271 161.123 154.271 160.257C154.271 159.35 154.422 158.609 154.723 158.035C155.028 157.456 155.447 157.028 155.98 156.75C156.514 156.472 157.12 156.333 157.799 156.333C158.173 156.333 158.533 156.372 158.879 156.449C159.23 156.522 159.517 156.616 159.74 156.729L159.398 157.68C159.171 157.589 158.906 157.507 158.605 157.434C158.309 157.361 158.031 157.324 157.771 157.324C157.252 157.324 156.819 157.436 156.473 157.659C156.131 157.882 155.873 158.211 155.7 158.644C155.532 159.076 155.447 159.61 155.447 160.243C155.447 160.849 155.529 161.367 155.693 161.795C155.862 162.223 156.11 162.551 156.438 162.779C156.771 163.003 157.186 163.114 157.683 163.114C158.079 163.114 158.437 163.073 158.756 162.991C159.075 162.905 159.364 162.804 159.624 162.69V163.702C159.373 163.83 159.093 163.928 158.783 163.996C158.478 164.064 158.113 164.099 157.689 164.099ZM162.481 156.47V161.18C162.481 161.271 162.479 161.389 162.475 161.535C162.47 161.676 162.463 161.829 162.454 161.993C162.445 162.153 162.436 162.308 162.427 162.458C162.422 162.604 162.415 162.725 162.406 162.82L166.494 156.47H167.889V163.962H166.829V159.368C166.829 159.222 166.831 159.035 166.836 158.808C166.84 158.58 166.847 158.356 166.856 158.138C166.866 157.914 166.872 157.741 166.877 157.618L162.803 163.962H161.401V156.47H162.481ZM170.664 163.962H169.338L171.498 160.804C171.184 160.735 170.892 160.619 170.623 160.455C170.354 160.286 170.135 160.056 169.967 159.765C169.803 159.473 169.721 159.111 169.721 158.678C169.721 157.958 169.96 157.411 170.438 157.037C170.922 156.659 171.557 156.47 172.346 156.47H175.661V163.962H174.526V160.954H172.626L170.664 163.962ZM170.821 158.685C170.821 159.131 170.981 159.464 171.3 159.683C171.619 159.897 172.075 160.004 172.667 160.004H174.526V157.42H172.469C171.885 157.42 171.464 157.538 171.204 157.775C170.949 158.008 170.821 158.311 170.821 158.685ZM180.426 160.113C180.426 160.874 180.351 161.617 180.2 162.342C180.054 163.062 179.829 163.745 179.523 164.393C179.223 165.04 178.838 165.634 178.368 166.177H177.295C177.732 165.598 178.097 164.978 178.389 164.317C178.685 163.657 178.906 162.973 179.052 162.267C179.202 161.556 179.277 160.836 179.277 160.106C179.277 159.364 179.202 158.632 179.052 157.912C178.901 157.192 178.678 156.499 178.382 155.834C178.09 155.169 177.723 154.547 177.281 153.968H178.368C178.838 154.528 179.223 155.139 179.523 155.8C179.829 156.456 180.054 157.149 180.2 157.878C180.351 158.603 180.426 159.348 180.426 160.113Z" fill="#868686"/>
<path fill-rule="evenodd" clip-rule="evenodd" d="M43.4525 190.781C43.6906 191.031 43.6811 191.426 43.4312 191.664L35.1296 199.575L30.0688 194.753C29.8189 194.514 29.8094 194.119 30.0475 193.869C30.2857 193.619 30.6813 193.61 30.9312 193.848L35.1296 197.849L42.5688 190.759C42.8187 190.521 43.2143 190.531 43.4525 190.781Z" fill="#25DE85"/>
<path d="M72.1309 181.968H73.2178V187.744C73.2178 187.963 73.2155 188.202 73.2109 188.462C73.2064 188.717 73.1995 188.968 73.1904 189.214C73.1813 189.46 73.1699 189.683 73.1562 189.884C73.1471 190.084 73.138 190.239 73.1289 190.349H73.1836L78.748 181.968H80.0264V191.962H78.9395V186.254C78.9395 186.012 78.944 185.757 78.9531 185.488C78.9622 185.215 78.9714 184.951 78.9805 184.695C78.9941 184.44 79.0078 184.212 79.0215 184.012C79.0352 183.807 79.0443 183.649 79.0488 183.54H78.9873L73.416 191.962H72.1309V181.968ZM83.7246 184.47V187.614H87.9014V184.47H89.0361V191.962H87.9014V188.578H83.7246V191.962H82.583V184.47H83.7246ZM96.5488 185.434H94.0811V191.962H92.96V185.434H90.5264V184.47H96.5488V185.434ZM100.917 184.333C101.555 184.333 102.102 184.474 102.558 184.757C103.013 185.039 103.362 185.436 103.604 185.946C103.845 186.452 103.966 187.045 103.966 187.724V188.428H98.791C98.8047 189.307 99.0234 189.977 99.4473 190.438C99.8711 190.898 100.468 191.128 101.238 191.128C101.712 191.128 102.132 191.085 102.496 190.998C102.861 190.911 103.239 190.784 103.631 190.615V191.613C103.253 191.782 102.877 191.905 102.503 191.982C102.134 192.06 101.696 192.099 101.19 192.099C100.47 192.099 99.8415 191.953 99.3037 191.661C98.7705 191.365 98.3558 190.932 98.0596 190.362C97.7633 189.793 97.6152 189.095 97.6152 188.271C97.6152 187.464 97.7497 186.767 98.0186 186.179C98.292 185.586 98.6748 185.131 99.167 184.812C99.6637 184.493 100.247 184.333 100.917 184.333ZM100.903 185.263C100.297 185.263 99.8141 185.461 99.4541 185.857C99.0941 186.254 98.8799 186.808 98.8115 187.519H102.776C102.772 187.072 102.701 186.68 102.564 186.343C102.432 186.001 102.229 185.737 101.956 185.55C101.683 185.358 101.332 185.263 100.903 185.263ZM110.439 184.47V185.434H107.035V191.962H105.894V184.47H110.439ZM115.457 184.333C116.391 184.333 117.136 184.654 117.692 185.297C118.248 185.939 118.526 186.906 118.526 188.195C118.526 189.048 118.399 189.763 118.144 190.342C117.888 190.921 117.528 191.358 117.063 191.654C116.603 191.951 116.059 192.099 115.43 192.099C115.033 192.099 114.685 192.046 114.384 191.941C114.083 191.837 113.826 191.695 113.611 191.518C113.397 191.34 113.219 191.146 113.078 190.937H112.996C113.01 191.114 113.026 191.328 113.044 191.579C113.067 191.83 113.078 192.049 113.078 192.235V195.312H111.937V184.47H112.873L113.023 185.577H113.078C113.224 185.349 113.402 185.142 113.611 184.955C113.821 184.764 114.076 184.613 114.377 184.504C114.682 184.39 115.042 184.333 115.457 184.333ZM115.259 185.29C114.739 185.29 114.32 185.39 114.001 185.591C113.687 185.791 113.456 186.092 113.311 186.493C113.165 186.89 113.087 187.389 113.078 187.99V188.209C113.078 188.842 113.146 189.378 113.283 189.815C113.424 190.253 113.655 190.586 113.974 190.813C114.297 191.041 114.73 191.155 115.272 191.155C115.737 191.155 116.125 191.03 116.435 190.779C116.744 190.529 116.975 190.18 117.125 189.733C117.28 189.282 117.357 188.765 117.357 188.182C117.357 187.298 117.184 186.596 116.838 186.076C116.496 185.552 115.97 185.29 115.259 185.29ZM123.312 184.347C124.205 184.347 124.868 184.547 125.301 184.948C125.734 185.349 125.95 185.99 125.95 186.869V191.962H125.123L124.904 190.854H124.85C124.64 191.128 124.421 191.358 124.193 191.545C123.965 191.727 123.701 191.866 123.4 191.962C123.104 192.053 122.74 192.099 122.307 192.099C121.851 192.099 121.445 192.019 121.09 191.859C120.739 191.7 120.461 191.458 120.256 191.135C120.055 190.811 119.955 190.401 119.955 189.904C119.955 189.157 120.251 188.583 120.844 188.182C121.436 187.781 122.339 187.562 123.551 187.525L124.843 187.471V187.013C124.843 186.366 124.704 185.912 124.426 185.652C124.148 185.393 123.756 185.263 123.25 185.263C122.858 185.263 122.484 185.32 122.129 185.434C121.773 185.548 121.436 185.682 121.117 185.837L120.769 184.976C121.106 184.802 121.493 184.654 121.931 184.531C122.368 184.408 122.828 184.347 123.312 184.347ZM124.829 188.271L123.688 188.318C122.753 188.355 122.095 188.507 121.712 188.776C121.329 189.045 121.138 189.426 121.138 189.918C121.138 190.346 121.268 190.663 121.527 190.868C121.787 191.073 122.131 191.176 122.56 191.176C123.225 191.176 123.77 190.991 124.193 190.622C124.617 190.253 124.829 189.699 124.829 188.961V188.271ZM135.582 194.553H134.475V191.962H128.288V184.47H129.43V190.998H133.401V184.47H134.536V191.012H135.582V194.553ZM138.132 184.47V189.18C138.132 189.271 138.13 189.389 138.125 189.535C138.12 189.676 138.114 189.829 138.104 189.993C138.095 190.153 138.086 190.308 138.077 190.458C138.073 190.604 138.066 190.725 138.057 190.82L142.145 184.47H143.539V191.962H142.479V187.368C142.479 187.222 142.482 187.035 142.486 186.808C142.491 186.58 142.498 186.356 142.507 186.138C142.516 185.914 142.523 185.741 142.527 185.618L138.453 191.962H137.052V184.47H138.132ZM146.314 191.962H144.988L147.148 188.804C146.834 188.735 146.542 188.619 146.273 188.455C146.005 188.286 145.786 188.056 145.617 187.765C145.453 187.473 145.371 187.111 145.371 186.678C145.371 185.958 145.61 185.411 146.089 185.037C146.572 184.659 147.208 184.47 147.996 184.47H151.312V191.962H150.177V188.954H148.276L146.314 191.962ZM146.472 186.685C146.472 187.131 146.631 187.464 146.95 187.683C147.269 187.897 147.725 188.004 148.317 188.004H150.177V185.42H148.119C147.536 185.42 147.114 185.538 146.854 185.775C146.599 186.008 146.472 186.311 146.472 186.685ZM163.295 186.35C163.295 186.819 163.158 187.186 162.885 187.45C162.611 187.71 162.258 187.885 161.825 187.977V188.031C162.295 188.095 162.698 188.264 163.035 188.537C163.377 188.806 163.548 189.218 163.548 189.774C163.548 190.203 163.445 190.581 163.24 190.909C163.035 191.237 162.714 191.495 162.276 191.682C161.839 191.868 161.269 191.962 160.567 191.962H157.341V184.47H160.54C161.078 184.47 161.552 184.531 161.962 184.654C162.377 184.773 162.702 184.969 162.939 185.242C163.176 185.516 163.295 185.885 163.295 186.35ZM162.365 189.774C162.365 189.332 162.197 189.013 161.859 188.817C161.527 188.621 161.041 188.523 160.403 188.523H158.482V191.039H160.431C161.06 191.039 161.538 190.943 161.866 190.752C162.199 190.556 162.365 190.23 162.365 189.774ZM162.14 186.479C162.14 186.124 162.01 185.86 161.75 185.687C161.49 185.509 161.064 185.42 160.472 185.42H158.482V187.573H160.273C160.889 187.573 161.354 187.484 161.668 187.307C161.982 187.129 162.14 186.853 162.14 186.479ZM170.486 185.434H168.019V191.962H166.897V185.434H164.464V184.47H170.486V185.434ZM178.43 188.202C178.43 188.817 178.35 189.367 178.19 189.85C178.031 190.333 177.801 190.741 177.5 191.073C177.199 191.406 176.835 191.661 176.406 191.839C175.982 192.012 175.502 192.099 174.964 192.099C174.463 192.099 174.002 192.012 173.583 191.839C173.168 191.661 172.808 191.406 172.503 191.073C172.202 190.741 171.967 190.333 171.799 189.85C171.635 189.367 171.553 188.817 171.553 188.202C171.553 187.382 171.692 186.685 171.97 186.11C172.248 185.532 172.644 185.092 173.159 184.791C173.679 184.486 174.296 184.333 175.012 184.333C175.695 184.333 176.292 184.486 176.803 184.791C177.318 185.096 177.716 185.538 177.999 186.117C178.286 186.691 178.43 187.386 178.43 188.202ZM172.729 188.202C172.729 188.804 172.808 189.326 172.968 189.768C173.127 190.21 173.373 190.551 173.706 190.793C174.039 191.035 174.467 191.155 174.991 191.155C175.511 191.155 175.937 191.035 176.27 190.793C176.607 190.551 176.855 190.21 177.015 189.768C177.174 189.326 177.254 188.804 177.254 188.202C177.254 187.605 177.174 187.09 177.015 186.657C176.855 186.22 176.609 185.882 176.276 185.646C175.944 185.409 175.513 185.29 174.984 185.29C174.205 185.29 173.633 185.548 173.269 186.062C172.909 186.577 172.729 187.291 172.729 188.202ZM183.912 184.333C184.846 184.333 185.591 184.654 186.147 185.297C186.703 185.939 186.981 186.906 186.981 188.195C186.981 189.048 186.854 189.763 186.599 190.342C186.343 190.921 185.983 191.358 185.519 191.654C185.058 191.951 184.514 192.099 183.885 192.099C183.488 192.099 183.14 192.046 182.839 191.941C182.538 191.837 182.281 191.695 182.066 191.518C181.852 191.34 181.674 191.146 181.533 190.937H181.451C181.465 191.114 181.481 191.328 181.499 191.579C181.522 191.83 181.533 192.049 181.533 192.235V195.312H180.392V184.47H181.328L181.479 185.577H181.533C181.679 185.349 181.857 185.142 182.066 184.955C182.276 184.764 182.531 184.613 182.832 184.504C183.137 184.39 183.497 184.333 183.912 184.333ZM183.714 185.29C183.194 185.29 182.775 185.39 182.456 185.591C182.142 185.791 181.911 186.092 181.766 186.493C181.62 186.89 181.542 187.389 181.533 187.99V188.209C181.533 188.842 181.602 189.378 181.738 189.815C181.88 190.253 182.11 190.586 182.429 190.813C182.752 191.041 183.185 191.155 183.728 191.155C184.192 191.155 184.58 191.03 184.89 190.779C185.2 190.529 185.43 190.18 185.58 189.733C185.735 189.282 185.812 188.765 185.812 188.182C185.812 187.298 185.639 186.596 185.293 186.076C184.951 185.552 184.425 185.29 183.714 185.29ZM195.424 188.202C195.424 188.817 195.344 189.367 195.185 189.85C195.025 190.333 194.795 190.741 194.494 191.073C194.193 191.406 193.829 191.661 193.4 191.839C192.977 192.012 192.496 192.099 191.958 192.099C191.457 192.099 190.996 192.012 190.577 191.839C190.162 191.661 189.802 191.406 189.497 191.073C189.196 190.741 188.962 190.333 188.793 189.85C188.629 189.367 188.547 188.817 188.547 188.202C188.547 187.382 188.686 186.685 188.964 186.11C189.242 185.532 189.638 185.092 190.153 184.791C190.673 184.486 191.29 184.333 192.006 184.333C192.689 184.333 193.286 184.486 193.797 184.791C194.312 185.096 194.711 185.538 194.993 186.117C195.28 186.691 195.424 187.386 195.424 188.202ZM189.723 188.202C189.723 188.804 189.802 189.326 189.962 189.768C190.121 190.21 190.368 190.551 190.7 190.793C191.033 191.035 191.461 191.155 191.985 191.155C192.505 191.155 192.931 191.035 193.264 190.793C193.601 190.551 193.849 190.21 194.009 189.768C194.168 189.326 194.248 188.804 194.248 188.202C194.248 187.605 194.168 187.09 194.009 186.657C193.849 186.22 193.603 185.882 193.271 185.646C192.938 185.409 192.507 185.29 191.979 185.29C191.199 185.29 190.627 185.548 190.263 186.062C189.903 186.577 189.723 187.291 189.723 188.202ZM201.932 184.47V185.434H198.527V191.962H197.386V184.47H201.932ZM209.889 188.202C209.889 188.817 209.809 189.367 209.649 189.85C209.49 190.333 209.26 190.741 208.959 191.073C208.658 191.406 208.294 191.661 207.865 191.839C207.441 192.012 206.961 192.099 206.423 192.099C205.922 192.099 205.461 192.012 205.042 191.839C204.627 191.661 204.267 191.406 203.962 191.073C203.661 190.741 203.426 190.333 203.258 189.85C203.094 189.367 203.012 188.817 203.012 188.202C203.012 187.382 203.151 186.685 203.429 186.11C203.707 185.532 204.103 185.092 204.618 184.791C205.138 184.486 205.755 184.333 206.471 184.333C207.154 184.333 207.751 184.486 208.262 184.791C208.777 185.096 209.175 185.538 209.458 186.117C209.745 186.691 209.889 187.386 209.889 188.202ZM204.188 188.202C204.188 188.804 204.267 189.326 204.427 189.768C204.586 190.21 204.832 190.551 205.165 190.793C205.498 191.035 205.926 191.155 206.45 191.155C206.97 191.155 207.396 191.035 207.729 190.793C208.066 190.551 208.314 190.21 208.474 189.768C208.633 189.326 208.713 188.804 208.713 188.202C208.713 187.605 208.633 187.09 208.474 186.657C208.314 186.22 208.068 185.882 207.735 185.646C207.403 185.409 206.972 185.29 206.443 185.29C205.664 185.29 205.092 185.548 204.728 186.062C204.368 186.577 204.188 187.291 204.188 188.202ZM71.5566 203.464C71.5566 202.397 71.6592 201.488 71.8643 200.736C72.0693 199.98 72.3861 199.374 72.8145 198.918C73.2474 198.458 73.8034 198.143 74.4824 197.975C75.0658 197.815 75.6582 197.678 76.2598 197.564C76.8613 197.446 77.4469 197.343 78.0166 197.257L78.2148 198.255C77.9277 198.296 77.627 198.344 77.3125 198.398C76.998 198.449 76.6836 198.503 76.3691 198.562C76.0547 198.617 75.7585 198.676 75.4805 198.74C75.2025 198.799 74.9564 198.861 74.7422 198.925C74.3548 199.03 74.0199 199.212 73.7373 199.472C73.4593 199.731 73.2383 200.089 73.0742 200.545C72.9147 201.001 72.819 201.575 72.7871 202.268H72.8691C73.0059 202.067 73.1927 201.869 73.4297 201.673C73.6667 201.477 73.9492 201.315 74.2773 201.188C74.6055 201.055 74.9746 200.989 75.3848 200.989C76.0319 200.989 76.5719 201.131 77.0049 201.413C77.4378 201.691 77.7637 202.083 77.9824 202.589C78.2012 203.095 78.3105 203.687 78.3105 204.366C78.3105 205.182 78.1693 205.868 77.8867 206.424C77.6087 206.98 77.2168 207.399 76.7109 207.682C76.2051 207.96 75.6104 208.099 74.9268 208.099C74.3981 208.099 73.9242 207.996 73.5049 207.791C73.0902 207.586 72.737 207.285 72.4453 206.889C72.1582 206.492 71.9372 206.007 71.7822 205.433C71.6318 204.858 71.5566 204.202 71.5566 203.464ZM75.0156 207.155C75.4486 207.155 75.82 207.064 76.1299 206.882C76.4443 206.7 76.6859 206.412 76.8545 206.021C77.0277 205.624 77.1143 205.109 77.1143 204.476C77.1143 203.683 76.9616 203.063 76.6562 202.616C76.3555 202.165 75.8724 201.939 75.207 201.939C74.7923 201.939 74.4163 202.028 74.0791 202.206C73.7419 202.379 73.457 202.587 73.2246 202.828C72.9922 203.07 72.8236 203.286 72.7188 203.478C72.7188 203.942 72.7529 204.394 72.8213 204.831C72.8896 205.269 73.0081 205.663 73.1768 206.014C73.3454 206.365 73.5778 206.643 73.874 206.848C74.1748 207.053 74.5553 207.155 75.0156 207.155ZM83.793 200.333C84.7272 200.333 85.4723 200.654 86.0283 201.297C86.5843 201.939 86.8623 202.906 86.8623 204.195C86.8623 205.048 86.7347 205.763 86.4795 206.342C86.2243 206.921 85.8643 207.358 85.3994 207.654C84.9391 207.951 84.3945 208.099 83.7656 208.099C83.3691 208.099 83.0205 208.046 82.7197 207.941C82.4189 207.837 82.1615 207.695 81.9473 207.518C81.7331 207.34 81.5553 207.146 81.4141 206.937H81.332C81.3457 207.114 81.3617 207.328 81.3799 207.579C81.4027 207.83 81.4141 208.049 81.4141 208.235V211.312H80.2725V200.47H81.209L81.3594 201.577H81.4141C81.5599 201.349 81.7376 201.142 81.9473 200.955C82.1569 200.764 82.4121 200.613 82.7129 200.504C83.0182 200.39 83.3783 200.333 83.793 200.333ZM83.5947 201.29C83.0752 201.29 82.6559 201.39 82.3369 201.591C82.0225 201.791 81.7923 202.092 81.6465 202.493C81.5007 202.89 81.4232 203.389 81.4141 203.99V204.209C81.4141 204.842 81.4824 205.378 81.6191 205.815C81.7604 206.253 81.9906 206.586 82.3096 206.813C82.6331 207.041 83.0661 207.155 83.6084 207.155C84.0732 207.155 84.4606 207.03 84.7705 206.779C85.0804 206.529 85.3105 206.18 85.4609 205.733C85.6159 205.282 85.6934 204.765 85.6934 204.182C85.6934 203.298 85.5202 202.596 85.1738 202.076C84.832 201.552 84.3057 201.29 83.5947 201.29ZM95.3047 204.202C95.3047 204.817 95.2249 205.367 95.0654 205.85C94.9059 206.333 94.6758 206.741 94.375 207.073C94.0742 207.406 93.7096 207.661 93.2812 207.839C92.8574 208.012 92.3766 208.099 91.8389 208.099C91.3376 208.099 90.8773 208.012 90.458 207.839C90.0433 207.661 89.6833 207.406 89.3779 207.073C89.0771 206.741 88.8424 206.333 88.6738 205.85C88.5098 205.367 88.4277 204.817 88.4277 204.202C88.4277 203.382 88.5667 202.685 88.8447 202.11C89.1227 201.532 89.5192 201.092 90.0342 200.791C90.5537 200.486 91.1712 200.333 91.8867 200.333C92.5703 200.333 93.1673 200.486 93.6777 200.791C94.1927 201.096 94.5915 201.538 94.874 202.117C95.1611 202.691 95.3047 203.386 95.3047 204.202ZM89.6035 204.202C89.6035 204.804 89.6833 205.326 89.8428 205.768C90.0023 206.21 90.2484 206.551 90.5811 206.793C90.9137 207.035 91.3421 207.155 91.8662 207.155C92.3857 207.155 92.8118 207.035 93.1445 206.793C93.4818 206.551 93.7301 206.21 93.8896 205.768C94.0492 205.326 94.1289 204.804 94.1289 204.202C94.1289 203.605 94.0492 203.09 93.8896 202.657C93.7301 202.22 93.484 201.882 93.1514 201.646C92.8187 201.409 92.388 201.29 91.8594 201.29C91.0801 201.29 90.5081 201.548 90.1436 202.062C89.7835 202.577 89.6035 203.291 89.6035 204.202ZM101.635 200.47H102.886L99.6523 204.086L103.146 207.962H101.812L98.4082 204.161V207.962H97.2666V200.47H98.4082V204.106L101.635 200.47ZM107.384 200.333C108.022 200.333 108.569 200.474 109.024 200.757C109.48 201.039 109.829 201.436 110.07 201.946C110.312 202.452 110.433 203.045 110.433 203.724V204.428H105.258C105.271 205.307 105.49 205.977 105.914 206.438C106.338 206.898 106.935 207.128 107.705 207.128C108.179 207.128 108.598 207.085 108.963 206.998C109.327 206.911 109.706 206.784 110.098 206.615V207.613C109.719 207.782 109.343 207.905 108.97 207.982C108.601 208.06 108.163 208.099 107.657 208.099C106.937 208.099 106.308 207.953 105.771 207.661C105.237 207.365 104.823 206.932 104.526 206.362C104.23 205.793 104.082 205.095 104.082 204.271C104.082 203.464 104.216 202.767 104.485 202.179C104.759 201.586 105.142 201.131 105.634 200.812C106.131 200.493 106.714 200.333 107.384 200.333ZM107.37 201.263C106.764 201.263 106.281 201.461 105.921 201.857C105.561 202.254 105.347 202.808 105.278 203.519H109.243C109.239 203.072 109.168 202.68 109.031 202.343C108.899 202.001 108.696 201.737 108.423 201.55C108.149 201.358 107.799 201.263 107.37 201.263ZM115.881 200.333C116.815 200.333 117.56 200.654 118.116 201.297C118.672 201.939 118.95 202.906 118.95 204.195C118.95 205.048 118.823 205.763 118.567 206.342C118.312 206.921 117.952 207.358 117.487 207.654C117.027 207.951 116.482 208.099 115.854 208.099C115.457 208.099 115.108 208.046 114.808 207.941C114.507 207.837 114.249 207.695 114.035 207.518C113.821 207.34 113.643 207.146 113.502 206.937H113.42C113.434 207.114 113.45 207.328 113.468 207.579C113.491 207.83 113.502 208.049 113.502 208.235V211.312H112.36V200.47H113.297L113.447 201.577H113.502C113.648 201.349 113.826 201.142 114.035 200.955C114.245 200.764 114.5 200.613 114.801 200.504C115.106 200.39 115.466 200.333 115.881 200.333ZM115.683 201.29C115.163 201.29 114.744 201.39 114.425 201.591C114.11 201.791 113.88 202.092 113.734 202.493C113.589 202.89 113.511 203.389 113.502 203.99V204.209C113.502 204.842 113.57 205.378 113.707 205.815C113.848 206.253 114.078 206.586 114.397 206.813C114.721 207.041 115.154 207.155 115.696 207.155C116.161 207.155 116.549 207.03 116.858 206.779C117.168 206.529 117.398 206.18 117.549 205.733C117.704 205.282 117.781 204.765 117.781 204.182C117.781 203.298 117.608 202.596 117.262 202.076C116.92 201.552 116.394 201.29 115.683 201.29ZM123.735 200.347C124.629 200.347 125.292 200.547 125.725 200.948C126.158 201.349 126.374 201.99 126.374 202.869V207.962H125.547L125.328 206.854H125.273C125.064 207.128 124.845 207.358 124.617 207.545C124.389 207.727 124.125 207.866 123.824 207.962C123.528 208.053 123.163 208.099 122.73 208.099C122.275 208.099 121.869 208.019 121.514 207.859C121.163 207.7 120.885 207.458 120.68 207.135C120.479 206.811 120.379 206.401 120.379 205.904C120.379 205.157 120.675 204.583 121.268 204.182C121.86 203.781 122.762 203.562 123.975 203.525L125.267 203.471V203.013C125.267 202.366 125.128 201.912 124.85 201.652C124.572 201.393 124.18 201.263 123.674 201.263C123.282 201.263 122.908 201.32 122.553 201.434C122.197 201.548 121.86 201.682 121.541 201.837L121.192 200.976C121.53 200.802 121.917 200.654 122.354 200.531C122.792 200.408 123.252 200.347 123.735 200.347ZM125.253 204.271L124.111 204.318C123.177 204.355 122.519 204.507 122.136 204.776C121.753 205.045 121.562 205.426 121.562 205.918C121.562 206.346 121.691 206.663 121.951 206.868C122.211 207.073 122.555 207.176 122.983 207.176C123.649 207.176 124.193 206.991 124.617 206.622C125.041 206.253 125.253 205.699 125.253 204.961V204.271Z" fill="#868686"/>
<path fill-rule="evenodd" clip-rule="evenodd" d="M43.4525 228.781C43.6906 229.031 43.6811 229.426 43.4312 229.664L35.1296 237.575L30.0688 232.753C29.8189 232.514 29.8094 232.119 30.0475 231.869C30.2857 231.619 30.6813 231.61 30.9312 231.848L35.1296 235.849L42.5688 228.759C42.8187 228.521 43.2143 228.531 43.4525 228.781Z" fill="#25DE85"/>
<path d="M72.1172 237.962V227.968H79.5615V237.962H78.4131V228.993H73.2793V237.962H72.1172ZM88.6055 234.202C88.6055 234.817 88.5257 235.367 88.3662 235.85C88.2067 236.333 87.9766 236.741 87.6758 237.073C87.375 237.406 87.0104 237.661 86.582 237.839C86.1582 238.012 85.6774 238.099 85.1396 238.099C84.6383 238.099 84.1781 238.012 83.7588 237.839C83.3441 237.661 82.984 237.406 82.6787 237.073C82.3779 236.741 82.1432 236.333 81.9746 235.85C81.8105 235.367 81.7285 234.817 81.7285 234.202C81.7285 233.382 81.8675 232.685 82.1455 232.11C82.4235 231.532 82.82 231.092 83.335 230.791C83.8545 230.486 84.472 230.333 85.1875 230.333C85.8711 230.333 86.4681 230.486 86.9785 230.791C87.4935 231.096 87.8923 231.538 88.1748 232.117C88.4619 232.691 88.6055 233.386 88.6055 234.202ZM82.9043 234.202C82.9043 234.804 82.984 235.326 83.1436 235.768C83.3031 236.21 83.5492 236.551 83.8818 236.793C84.2145 237.035 84.6429 237.155 85.167 237.155C85.6865 237.155 86.1126 237.035 86.4453 236.793C86.7826 236.551 87.0309 236.21 87.1904 235.768C87.3499 235.326 87.4297 234.804 87.4297 234.202C87.4297 233.605 87.3499 233.09 87.1904 232.657C87.0309 232.22 86.7848 231.882 86.4521 231.646C86.1195 231.409 85.6888 231.29 85.1602 231.29C84.3809 231.29 83.8089 231.548 83.4443 232.062C83.0843 232.577 82.9043 233.291 82.9043 234.202ZM96.0566 230.47V236.998H97.1299V240.553H96.0293V237.962H90.7246V240.553H89.6377V236.998H90.2256C90.654 236.406 91.0094 235.756 91.292 235.05C91.5745 234.343 91.7887 233.603 91.9346 232.828C92.0804 232.049 92.1579 231.263 92.167 230.47H96.0566ZM94.9561 231.372H93.1787C93.1377 232.037 93.0397 232.714 92.8848 233.402C92.7344 234.09 92.5339 234.747 92.2832 235.371C92.0326 235.991 91.7409 236.533 91.4082 236.998H94.9561V231.372ZM103.166 230.47V231.434H99.7617V237.962H98.6201V230.47H103.166ZM111.123 234.202C111.123 234.817 111.043 235.367 110.884 235.85C110.724 236.333 110.494 236.741 110.193 237.073C109.893 237.406 109.528 237.661 109.1 237.839C108.676 238.012 108.195 238.099 107.657 238.099C107.156 238.099 106.696 238.012 106.276 237.839C105.862 237.661 105.502 237.406 105.196 237.073C104.896 236.741 104.661 236.333 104.492 235.85C104.328 235.367 104.246 234.817 104.246 234.202C104.246 233.382 104.385 232.685 104.663 232.11C104.941 231.532 105.338 231.092 105.853 230.791C106.372 230.486 106.99 230.333 107.705 230.333C108.389 230.333 108.986 230.486 109.496 230.791C110.011 231.096 110.41 231.538 110.692 232.117C110.979 232.691 111.123 233.386 111.123 234.202ZM105.422 234.202C105.422 234.804 105.502 235.326 105.661 235.768C105.821 236.21 106.067 236.551 106.399 236.793C106.732 237.035 107.16 237.155 107.685 237.155C108.204 237.155 108.63 237.035 108.963 236.793C109.3 236.551 109.549 236.21 109.708 235.768C109.868 235.326 109.947 234.804 109.947 234.202C109.947 233.605 109.868 233.09 109.708 232.657C109.549 232.22 109.302 231.882 108.97 231.646C108.637 231.409 108.206 231.29 107.678 231.29C106.898 231.29 106.326 231.548 105.962 232.062C105.602 232.577 105.422 233.291 105.422 234.202ZM118.191 231.434H115.724V237.962H114.603V231.434H112.169V230.47H118.191V231.434ZM126.135 234.202C126.135 234.817 126.055 235.367 125.896 235.85C125.736 236.333 125.506 236.741 125.205 237.073C124.904 237.406 124.54 237.661 124.111 237.839C123.688 238.012 123.207 238.099 122.669 238.099C122.168 238.099 121.707 238.012 121.288 237.839C120.873 237.661 120.513 237.406 120.208 237.073C119.907 236.741 119.673 236.333 119.504 235.85C119.34 235.367 119.258 234.817 119.258 234.202C119.258 233.382 119.397 232.685 119.675 232.11C119.953 231.532 120.349 231.092 120.864 230.791C121.384 230.486 122.001 230.333 122.717 230.333C123.4 230.333 123.997 230.486 124.508 230.791C125.023 231.096 125.422 231.538 125.704 232.117C125.991 232.691 126.135 233.386 126.135 234.202ZM120.434 234.202C120.434 234.804 120.513 235.326 120.673 235.768C120.832 236.21 121.078 236.551 121.411 236.793C121.744 237.035 122.172 237.155 122.696 237.155C123.216 237.155 123.642 237.035 123.975 236.793C124.312 236.551 124.56 236.21 124.72 235.768C124.879 235.326 124.959 234.804 124.959 234.202C124.959 233.605 124.879 233.09 124.72 232.657C124.56 232.22 124.314 231.882 123.981 231.646C123.649 231.409 123.218 231.29 122.689 231.29C121.91 231.29 121.338 231.548 120.974 232.062C120.614 232.577 120.434 233.291 120.434 234.202ZM134.051 232.35C134.051 232.819 133.914 233.186 133.641 233.45C133.367 233.71 133.014 233.885 132.581 233.977V234.031C133.05 234.095 133.454 234.264 133.791 234.537C134.133 234.806 134.304 235.218 134.304 235.774C134.304 236.203 134.201 236.581 133.996 236.909C133.791 237.237 133.47 237.495 133.032 237.682C132.595 237.868 132.025 237.962 131.323 237.962H128.097V230.47H131.296C131.834 230.47 132.308 230.531 132.718 230.654C133.132 230.773 133.458 230.969 133.695 231.242C133.932 231.516 134.051 231.885 134.051 232.35ZM133.121 235.774C133.121 235.332 132.952 235.013 132.615 234.817C132.283 234.621 131.797 234.523 131.159 234.523H129.238V237.039H131.187C131.815 237.039 132.294 236.943 132.622 236.752C132.955 236.556 133.121 236.23 133.121 235.774ZM132.896 232.479C132.896 232.124 132.766 231.86 132.506 231.687C132.246 231.509 131.82 231.42 131.228 231.42H129.238V233.573H131.029C131.645 233.573 132.109 233.484 132.424 233.307C132.738 233.129 132.896 232.853 132.896 232.479ZM140.504 230.47H141.755L138.521 234.086L142.015 237.962H140.682L137.277 234.161V237.962H136.136V230.47H137.277V234.106L140.504 230.47ZM146.171 230.347C147.064 230.347 147.727 230.547 148.16 230.948C148.593 231.349 148.81 231.99 148.81 232.869V237.962H147.982L147.764 236.854H147.709C147.499 237.128 147.281 237.358 147.053 237.545C146.825 237.727 146.561 237.866 146.26 237.962C145.964 238.053 145.599 238.099 145.166 238.099C144.71 238.099 144.305 238.019 143.949 237.859C143.598 237.7 143.32 237.458 143.115 237.135C142.915 236.811 142.814 236.401 142.814 235.904C142.814 235.157 143.111 234.583 143.703 234.182C144.296 233.781 145.198 233.562 146.41 233.525L147.702 233.471V233.013C147.702 232.366 147.563 231.912 147.285 231.652C147.007 231.393 146.615 231.263 146.109 231.263C145.717 231.263 145.344 231.32 144.988 231.434C144.633 231.548 144.296 231.682 143.977 231.837L143.628 230.976C143.965 230.802 144.353 230.654 144.79 230.531C145.228 230.408 145.688 230.347 146.171 230.347ZM147.688 234.271L146.547 234.318C145.613 234.355 144.954 234.507 144.571 234.776C144.188 235.045 143.997 235.426 143.997 235.918C143.997 236.346 144.127 236.663 144.387 236.868C144.646 237.073 144.991 237.176 145.419 237.176C146.084 237.176 146.629 236.991 147.053 236.622C147.477 236.253 147.688 235.699 147.688 234.961V234.271ZM160.595 235.303C160.595 235.895 160.447 236.401 160.15 236.82C159.859 237.235 159.449 237.552 158.92 237.771C158.391 237.989 157.769 238.099 157.054 238.099C156.675 238.099 156.318 238.08 155.98 238.044C155.643 238.007 155.333 237.955 155.051 237.887C154.768 237.818 154.52 237.734 154.306 237.634V236.52C154.647 236.661 155.064 236.793 155.557 236.916C156.049 237.035 156.564 237.094 157.102 237.094C157.603 237.094 158.027 237.028 158.373 236.896C158.719 236.759 158.981 236.565 159.159 236.314C159.341 236.059 159.433 235.754 159.433 235.398C159.433 235.057 159.357 234.772 159.207 234.544C159.057 234.312 158.806 234.102 158.455 233.915C158.109 233.724 157.635 233.521 157.033 233.307C156.609 233.156 156.236 232.992 155.912 232.814C155.589 232.632 155.317 232.427 155.099 232.199C154.88 231.971 154.714 231.707 154.6 231.406C154.49 231.105 154.436 230.761 154.436 230.374C154.436 229.841 154.57 229.385 154.839 229.007C155.112 228.624 155.488 228.332 155.967 228.132C156.45 227.927 157.004 227.824 157.628 227.824C158.161 227.824 158.653 227.874 159.104 227.975C159.56 228.075 159.977 228.209 160.355 228.378L159.993 229.376C159.633 229.226 159.25 229.1 158.845 229C158.444 228.9 158.029 228.85 157.601 228.85C157.172 228.85 156.81 228.913 156.514 229.041C156.222 229.164 155.999 229.34 155.844 229.567C155.689 229.795 155.611 230.066 155.611 230.381C155.611 230.732 155.684 231.023 155.83 231.256C155.98 231.488 156.217 231.696 156.541 231.878C156.869 232.056 157.302 232.243 157.84 232.438C158.428 232.653 158.927 232.881 159.337 233.122C159.747 233.359 160.059 233.651 160.273 233.997C160.488 234.339 160.595 234.774 160.595 235.303ZM165.353 230.333C165.991 230.333 166.537 230.474 166.993 230.757C167.449 231.039 167.798 231.436 168.039 231.946C168.281 232.452 168.401 233.045 168.401 233.724V234.428H163.227C163.24 235.307 163.459 235.977 163.883 236.438C164.307 236.898 164.904 237.128 165.674 237.128C166.148 237.128 166.567 237.085 166.932 236.998C167.296 236.911 167.674 236.784 168.066 236.615V237.613C167.688 237.782 167.312 237.905 166.938 237.982C166.569 238.06 166.132 238.099 165.626 238.099C164.906 238.099 164.277 237.953 163.739 237.661C163.206 237.365 162.791 236.932 162.495 236.362C162.199 235.793 162.051 235.095 162.051 234.271C162.051 233.464 162.185 232.767 162.454 232.179C162.728 231.586 163.11 231.131 163.603 230.812C164.099 230.493 164.683 230.333 165.353 230.333ZM165.339 231.263C164.733 231.263 164.25 231.461 163.89 231.857C163.53 232.254 163.315 232.808 163.247 233.519H167.212C167.207 233.072 167.137 232.68 167 232.343C166.868 232.001 166.665 231.737 166.392 231.55C166.118 231.358 165.767 231.263 165.339 231.263ZM173.214 230.333C173.852 230.333 174.399 230.474 174.854 230.757C175.31 231.039 175.659 231.436 175.9 231.946C176.142 232.452 176.263 233.045 176.263 233.724V234.428H171.088C171.102 235.307 171.32 235.977 171.744 236.438C172.168 236.898 172.765 237.128 173.535 237.128C174.009 237.128 174.428 237.085 174.793 236.998C175.158 236.911 175.536 236.784 175.928 236.615V237.613C175.549 237.782 175.174 237.905 174.8 237.982C174.431 238.06 173.993 238.099 173.487 238.099C172.767 238.099 172.138 237.953 171.601 237.661C171.067 237.365 170.653 236.932 170.356 236.362C170.06 235.793 169.912 235.095 169.912 234.271C169.912 233.464 170.047 232.767 170.315 232.179C170.589 231.586 170.972 231.131 171.464 230.812C171.961 230.493 172.544 230.333 173.214 230.333ZM173.2 231.263C172.594 231.263 172.111 231.461 171.751 231.857C171.391 232.254 171.177 232.808 171.108 233.519H175.073C175.069 233.072 174.998 232.68 174.861 232.343C174.729 232.001 174.526 231.737 174.253 231.55C173.979 231.358 173.629 231.263 173.2 231.263ZM180.856 238.099C179.909 238.099 179.157 237.775 178.601 237.128C178.049 236.481 177.773 235.519 177.773 234.243C177.773 232.953 178.056 231.98 178.621 231.324C179.186 230.663 179.938 230.333 180.877 230.333C181.273 230.333 181.62 230.385 181.916 230.49C182.212 230.595 182.467 230.736 182.682 230.914C182.896 231.087 183.076 231.285 183.222 231.509H183.304C183.285 231.368 183.267 231.174 183.249 230.928C183.231 230.682 183.222 230.481 183.222 230.326V227.325H184.356V237.962H183.44L183.27 236.896H183.222C183.08 237.119 182.9 237.322 182.682 237.504C182.467 237.686 182.21 237.832 181.909 237.941C181.613 238.046 181.262 238.099 180.856 238.099ZM181.034 237.155C181.836 237.155 182.404 236.927 182.736 236.472C183.069 236.016 183.235 235.339 183.235 234.441V234.236C183.235 233.284 183.076 232.552 182.757 232.042C182.442 231.532 181.868 231.276 181.034 231.276C180.337 231.276 179.815 231.545 179.469 232.083C179.122 232.616 178.949 233.345 178.949 234.271C178.949 235.191 179.12 235.902 179.462 236.403C179.808 236.905 180.332 237.155 181.034 237.155Z" fill="#868686"/>
</g>
<defs>
<clipPath id="clip0_25_1620">
<rect width="285.75" height="275" fill="white" transform="translate(0.75 0.961914)"/>
</clipPath>
</defs>
</svg>
