<svg width="399" height="49" viewBox="0 0 399 49" fill="none" xmlns="http://www.w3.org/2000/svg">
<rect x="0.5" width="398" height="49" rx="24.5" fill="url(#paint0_linear_25_1069)"/>
<path d="M32.2812 25.2734C32.2812 26.1536 32.1693 26.9557 31.9453 27.6797C31.7214 28.3984 31.388 29.0182 30.9453 29.5391C30.5078 30.0547 29.9635 30.4531 29.3125 30.7344C28.6615 31.0156 27.9062 31.1562 27.0469 31.1562C26.1615 31.1562 25.388 31.0156 24.7266 30.7344C24.0703 30.4531 23.5234 30.0521 23.0859 29.5312C22.6536 29.0104 22.3281 28.388 22.1094 27.6641C21.8958 26.9401 21.7891 26.138 21.7891 25.2578C21.7891 24.0911 21.9818 23.0677 22.3672 22.1875C22.7526 21.3073 23.3359 20.6224 24.1172 20.1328C24.9036 19.6432 25.888 19.3984 27.0703 19.3984C28.2005 19.3984 29.151 19.6406 29.9219 20.125C30.6979 20.6094 31.2839 21.2917 31.6797 22.1719C32.0807 23.0469 32.2812 24.0807 32.2812 25.2734ZM23.1875 25.2734C23.1875 26.2422 23.3255 27.0807 23.6016 27.7891C23.8776 28.4974 24.2995 29.0443 24.8672 29.4297C25.4401 29.8151 26.1667 30.0078 27.0469 30.0078C27.9323 30.0078 28.6562 29.8151 29.2188 29.4297C29.7865 29.0443 30.2057 28.4974 30.4766 27.7891C30.7474 27.0807 30.8828 26.2422 30.8828 25.2734C30.8828 23.7995 30.5729 22.6484 29.9531 21.8203C29.3385 20.987 28.3776 20.5703 27.0703 20.5703C26.1849 20.5703 25.4557 20.7604 24.8828 21.1406C24.3099 21.5208 23.8828 22.0625 23.6016 22.7656C23.3255 23.4635 23.1875 24.2995 23.1875 25.2734ZM40.4688 23.5391H37.6484V31H36.3672V23.5391H33.5859V22.4375H40.4688V23.5391ZM47.1562 22.4375H48.5859L44.8906 26.5703L48.8828 31H47.3594L43.4688 26.6562V31H42.1641V22.4375H43.4688V26.5938L47.1562 22.4375ZM54.4531 22.2812C55.5208 22.2812 56.3724 22.6484 57.0078 23.3828C57.6432 24.1172 57.9609 25.2214 57.9609 26.6953C57.9609 27.6693 57.8151 28.487 57.5234 29.1484C57.2318 29.8099 56.8203 30.3099 56.2891 30.6484C55.763 30.987 55.1406 31.1562 54.4219 31.1562C53.9688 31.1562 53.5703 31.0964 53.2266 30.9766C52.8828 30.8568 52.5885 30.6953 52.3438 30.4922C52.099 30.2891 51.8958 30.0677 51.7344 29.8281H51.6406C51.6562 30.0312 51.6745 30.276 51.6953 30.5625C51.7214 30.849 51.7344 31.099 51.7344 31.3125V34.8281H50.4297V22.4375H51.5L51.6719 23.7031H51.7344C51.901 23.4427 52.1042 23.2057 52.3438 22.9922C52.5833 22.7734 52.875 22.6016 53.2188 22.4766C53.5677 22.3464 53.9792 22.2812 54.4531 22.2812ZM54.2266 23.375C53.6328 23.375 53.1536 23.4896 52.7891 23.7188C52.4297 23.9479 52.1667 24.2917 52 24.75C51.8333 25.2031 51.7448 25.7734 51.7344 26.4609V26.7109C51.7344 27.4349 51.8125 28.0469 51.9688 28.5469C52.1302 29.0469 52.3932 29.4271 52.7578 29.6875C53.1276 29.9479 53.6224 30.0781 54.2422 30.0781C54.7734 30.0781 55.2161 29.9349 55.5703 29.6484C55.9245 29.362 56.1875 28.9635 56.3594 28.4531C56.5365 27.9375 56.625 27.3464 56.625 26.6797C56.625 25.6693 56.4271 24.8672 56.0312 24.2734C55.6406 23.6745 55.0391 23.375 54.2266 23.375ZM60.2266 31V22.4375H61.5312V25.9688H63.875C64.6042 25.9688 65.2031 26.0599 65.6719 26.2422C66.1458 26.4245 66.4974 26.6953 66.7266 27.0547C66.9557 27.4141 67.0703 27.8594 67.0703 28.3906C67.0703 28.9219 66.9557 29.3828 66.7266 29.7734C66.5026 30.1641 66.1484 30.4661 65.6641 30.6797C65.1849 30.8932 64.5599 31 63.7891 31H60.2266ZM61.5312 29.9453H63.6641C64.3099 29.9453 64.8255 29.8307 65.2109 29.6016C65.5964 29.3724 65.7891 28.9896 65.7891 28.4531C65.7891 27.9271 65.6094 27.5625 65.25 27.3594C64.8906 27.151 64.375 27.0469 63.7031 27.0469H61.5312V29.9453ZM68.4844 31V22.4375H69.7812V31H68.4844ZM78.3594 23.5391H75.5391V31H74.2578V23.5391H71.4766V22.4375H78.3594V23.5391ZM88.2344 22.2812C89.3021 22.2812 90.1536 22.6484 90.7891 23.3828C91.4245 24.1172 91.7422 25.2214 91.7422 26.6953C91.7422 27.6693 91.5964 28.487 91.3047 29.1484C91.013 29.8099 90.6016 30.3099 90.0703 30.6484C89.5443 30.987 88.9219 31.1562 88.2031 31.1562C87.75 31.1562 87.3516 31.0964 87.0078 30.9766C86.6641 30.8568 86.3698 30.6953 86.125 30.4922C85.8802 30.2891 85.6771 30.0677 85.5156 29.8281H85.4219C85.4375 30.0312 85.4557 30.276 85.4766 30.5625C85.5026 30.849 85.5156 31.099 85.5156 31.3125V34.8281H84.2109V22.4375H85.2812L85.4531 23.7031H85.5156C85.6823 23.4427 85.8854 23.2057 86.125 22.9922C86.3646 22.7734 86.6562 22.6016 87 22.4766C87.349 22.3464 87.7604 22.2812 88.2344 22.2812ZM88.0078 23.375C87.4141 23.375 86.9349 23.4896 86.5703 23.7188C86.2109 23.9479 85.9479 24.2917 85.7812 24.75C85.6146 25.2031 85.526 25.7734 85.5156 26.4609V26.7109C85.5156 27.4349 85.5938 28.0469 85.75 28.5469C85.9115 29.0469 86.1745 29.4271 86.5391 29.6875C86.9089 29.9479 87.4036 30.0781 88.0234 30.0781C88.5547 30.0781 88.9974 29.9349 89.3516 29.6484C89.7057 29.362 89.9688 28.9635 90.1406 28.4531C90.3177 27.9375 90.4062 27.3464 90.4062 26.6797C90.4062 25.6693 90.2083 24.8672 89.8125 24.2734C89.4219 23.6745 88.8203 23.375 88.0078 23.375ZM97.2109 22.2969C98.2318 22.2969 98.9896 22.526 99.4844 22.9844C99.9792 23.4427 100.227 24.1745 100.227 25.1797V31H99.2812L99.0312 29.7344H98.9688C98.7292 30.0469 98.4792 30.3099 98.2188 30.5234C97.9583 30.7318 97.6562 30.8906 97.3125 31C96.974 31.1042 96.5573 31.1562 96.0625 31.1562C95.5417 31.1562 95.0781 31.0651 94.6719 30.8828C94.2708 30.7005 93.9531 30.4245 93.7188 30.0547C93.4896 29.6849 93.375 29.2161 93.375 28.6484C93.375 27.7943 93.7135 27.138 94.3906 26.6797C95.0677 26.2214 96.099 25.9714 97.4844 25.9297L98.9609 25.8672V25.3438C98.9609 24.6042 98.8021 24.0859 98.4844 23.7891C98.1667 23.4922 97.7188 23.3438 97.1406 23.3438C96.6927 23.3438 96.2656 23.4089 95.8594 23.5391C95.4531 23.6693 95.0677 23.8229 94.7031 24L94.3047 23.0156C94.6901 22.8177 95.1328 22.6484 95.6328 22.5078C96.1328 22.3672 96.6589 22.2969 97.2109 22.2969ZM98.9453 26.7812L97.6406 26.8359C96.5729 26.8776 95.8203 27.0521 95.3828 27.3594C94.9453 27.6667 94.7266 28.1016 94.7266 28.6641C94.7266 29.1536 94.875 29.5156 95.1719 29.75C95.4688 29.9844 95.862 30.1016 96.3516 30.1016C97.112 30.1016 97.7344 29.8906 98.2188 29.4688C98.7031 29.0469 98.9453 28.4141 98.9453 27.5703V26.7812ZM101.547 22.4375H102.938L104.828 27.4062C104.938 27.6979 105.039 27.9792 105.133 28.25C105.227 28.5156 105.31 28.7708 105.383 29.0156C105.456 29.2604 105.513 29.4974 105.555 29.7266H105.609C105.682 29.4661 105.786 29.125 105.922 28.7031C106.057 28.276 106.203 27.8411 106.359 27.3984L108.148 22.4375H109.547L105.82 32.2578C105.622 32.7839 105.391 33.2422 105.125 33.6328C104.865 34.0234 104.547 34.3229 104.172 34.5312C103.797 34.7448 103.344 34.8516 102.812 34.8516C102.568 34.8516 102.352 34.8359 102.164 34.8047C101.977 34.7786 101.815 34.7474 101.68 34.7109V33.6719C101.794 33.6979 101.932 33.7214 102.094 33.7422C102.26 33.763 102.432 33.7734 102.609 33.7734C102.932 33.7734 103.211 33.7109 103.445 33.5859C103.685 33.4661 103.891 33.2891 104.062 33.0547C104.234 32.8203 104.383 32.5417 104.508 32.2188L104.977 31.0156L101.547 22.4375ZM112.219 22.4375V26.0312H116.992V22.4375H118.289V31H116.992V27.1328H112.219V31H110.914V22.4375H112.219ZM127.312 22.4375V29.8984H128.539V33.9609H127.281V31H121.219V33.9609H119.977V29.8984H120.648C121.138 29.2214 121.544 28.4792 121.867 27.6719C122.19 26.8646 122.435 26.0182 122.602 25.1328C122.768 24.2422 122.857 23.3438 122.867 22.4375H127.312ZM126.055 23.4688H124.023C123.977 24.2292 123.865 25.0026 123.688 25.7891C123.516 26.5755 123.286 27.3255 123 28.0391C122.714 28.7474 122.38 29.3672 122 29.8984H126.055V23.4688ZM137.578 19.5781C139.052 19.5781 140.128 19.8672 140.805 20.4453C141.487 21.0182 141.828 21.8411 141.828 22.9141C141.828 23.3984 141.747 23.8594 141.586 24.2969C141.43 24.7292 141.174 25.112 140.82 25.4453C140.466 25.7734 140 26.0339 139.422 26.2266C138.849 26.4141 138.146 26.5078 137.312 26.5078H135.922V31H134.594V19.5781H137.578ZM137.453 20.7109H135.922V25.3672H137.164C137.893 25.3672 138.5 25.2891 138.984 25.1328C139.474 24.9766 139.841 24.724 140.086 24.375C140.331 24.0208 140.453 23.5521 140.453 22.9688C140.453 22.2083 140.211 21.6432 139.727 21.2734C139.242 20.8984 138.484 20.7109 137.453 20.7109ZM147.914 22.2812C148.086 22.2812 148.266 22.2917 148.453 22.3125C148.641 22.3281 148.807 22.3516 148.953 22.3828L148.789 23.5859C148.648 23.5495 148.492 23.5208 148.32 23.5C148.148 23.4792 147.987 23.4688 147.836 23.4688C147.492 23.4688 147.167 23.5391 146.859 23.6797C146.557 23.8151 146.292 24.013 146.062 24.2734C145.833 24.5286 145.654 24.8385 145.523 25.2031C145.393 25.5625 145.328 25.9635 145.328 26.4062V31H144.023V22.4375H145.102L145.242 24.0156H145.297C145.474 23.6979 145.688 23.4089 145.938 23.1484C146.188 22.8828 146.477 22.6719 146.805 22.5156C147.138 22.3594 147.508 22.2812 147.914 22.2812ZM153.867 22.2812C154.596 22.2812 155.221 22.4427 155.742 22.7656C156.263 23.0885 156.661 23.5417 156.938 24.125C157.214 24.7031 157.352 25.3802 157.352 26.1562V26.9609H151.438C151.453 27.9661 151.703 28.7318 152.188 29.2578C152.672 29.7839 153.354 30.0469 154.234 30.0469C154.776 30.0469 155.255 29.9974 155.672 29.8984C156.089 29.7995 156.521 29.6536 156.969 29.4609V30.6016C156.536 30.7943 156.107 30.9349 155.68 31.0234C155.258 31.112 154.758 31.1562 154.18 31.1562C153.357 31.1562 152.638 30.9896 152.023 30.6562C151.414 30.3177 150.94 29.8229 150.602 29.1719C150.263 28.5208 150.094 27.724 150.094 26.7812C150.094 25.8594 150.247 25.0625 150.555 24.3906C150.867 23.7135 151.305 23.1927 151.867 22.8281C152.435 22.4635 153.102 22.2812 153.867 22.2812ZM153.852 23.3438C153.159 23.3438 152.607 23.5703 152.195 24.0234C151.784 24.4766 151.539 25.1094 151.461 25.9219H155.992C155.987 25.4115 155.906 24.9635 155.75 24.5781C155.599 24.1875 155.367 23.8854 155.055 23.6719C154.742 23.4531 154.341 23.3438 153.852 23.3438ZM158.828 27.336V26.088H162.7V27.336H158.828ZM171.352 27.9609C171.352 28.638 171.182 29.2161 170.844 29.6953C170.51 30.1693 170.042 30.5312 169.438 30.7812C168.833 31.0312 168.122 31.1562 167.305 31.1562C166.872 31.1562 166.464 31.1354 166.078 31.0938C165.693 31.0521 165.339 30.9922 165.016 30.9141C164.693 30.8359 164.409 30.7396 164.164 30.625V29.3516C164.555 29.513 165.031 29.6641 165.594 29.8047C166.156 29.9401 166.745 30.0078 167.359 30.0078C167.932 30.0078 168.417 29.9323 168.812 29.7812C169.208 29.625 169.508 29.4036 169.711 29.1172C169.919 28.8255 170.023 28.4766 170.023 28.0703C170.023 27.6797 169.938 27.3542 169.766 27.0938C169.594 26.8281 169.307 26.5885 168.906 26.375C168.51 26.1562 167.969 25.9245 167.281 25.6797C166.797 25.5078 166.37 25.3203 166 25.1172C165.63 24.9089 165.32 24.6745 165.07 24.4141C164.82 24.1536 164.63 23.8516 164.5 23.5078C164.375 23.1641 164.312 22.7708 164.312 22.3281C164.312 21.7188 164.466 21.1979 164.773 20.7656C165.086 20.3281 165.516 19.9948 166.062 19.7656C166.615 19.5312 167.247 19.4141 167.961 19.4141C168.57 19.4141 169.133 19.4714 169.648 19.5859C170.169 19.7005 170.646 19.8542 171.078 20.0469L170.664 21.1875C170.253 21.0156 169.815 20.8724 169.352 20.7578C168.893 20.6432 168.419 20.5859 167.93 20.5859C167.44 20.5859 167.026 20.6589 166.688 20.8047C166.354 20.9453 166.099 21.1458 165.922 21.4062C165.745 21.6667 165.656 21.9766 165.656 22.3359C165.656 22.737 165.74 23.0703 165.906 23.3359C166.078 23.6016 166.349 23.8385 166.719 24.0469C167.094 24.25 167.589 24.4635 168.203 24.6875C168.875 24.9323 169.445 25.1927 169.914 25.4688C170.383 25.7396 170.74 26.0729 170.984 26.4688C171.229 26.8594 171.352 27.3568 171.352 27.9609ZM176.789 22.2812C177.518 22.2812 178.143 22.4427 178.664 22.7656C179.185 23.0885 179.583 23.5417 179.859 24.125C180.135 24.7031 180.273 25.3802 180.273 26.1562V26.9609H174.359C174.375 27.9661 174.625 28.7318 175.109 29.2578C175.594 29.7839 176.276 30.0469 177.156 30.0469C177.698 30.0469 178.177 29.9974 178.594 29.8984C179.01 29.7995 179.443 29.6536 179.891 29.4609V30.6016C179.458 30.7943 179.029 30.9349 178.602 31.0234C178.18 31.112 177.68 31.1562 177.102 31.1562C176.279 31.1562 175.56 30.9896 174.945 30.6562C174.336 30.3177 173.862 29.8229 173.523 29.1719C173.185 28.5208 173.016 27.724 173.016 26.7812C173.016 25.8594 173.169 25.0625 173.477 24.3906C173.789 23.7135 174.227 23.1927 174.789 22.8281C175.357 22.4635 176.023 22.2812 176.789 22.2812ZM176.773 23.3438C176.081 23.3438 175.529 23.5703 175.117 24.0234C174.706 24.4766 174.461 25.1094 174.383 25.9219H178.914C178.909 25.4115 178.828 24.9635 178.672 24.5781C178.521 24.1875 178.289 23.8854 177.977 23.6719C177.664 23.4531 177.263 23.3438 176.773 23.3438ZM185.773 22.2812C186.503 22.2812 187.128 22.4427 187.648 22.7656C188.169 23.0885 188.568 23.5417 188.844 24.125C189.12 24.7031 189.258 25.3802 189.258 26.1562V26.9609H183.344C183.359 27.9661 183.609 28.7318 184.094 29.2578C184.578 29.7839 185.26 30.0469 186.141 30.0469C186.682 30.0469 187.161 29.9974 187.578 29.8984C187.995 29.7995 188.427 29.6536 188.875 29.4609V30.6016C188.443 30.7943 188.013 30.9349 187.586 31.0234C187.164 31.112 186.664 31.1562 186.086 31.1562C185.263 31.1562 184.544 30.9896 183.93 30.6562C183.32 30.3177 182.846 29.8229 182.508 29.1719C182.169 28.5208 182 27.724 182 26.7812C182 25.8594 182.154 25.0625 182.461 24.3906C182.773 23.7135 183.211 23.1927 183.773 22.8281C184.341 22.4635 185.008 22.2812 185.773 22.2812ZM185.758 23.3438C185.065 23.3438 184.513 23.5703 184.102 24.0234C183.69 24.4766 183.445 25.1094 183.367 25.9219H187.898C187.893 25.4115 187.812 24.9635 187.656 24.5781C187.505 24.1875 187.273 23.8854 186.961 23.6719C186.648 23.4531 186.247 23.3438 185.758 23.3438ZM194.508 31.1562C193.424 31.1562 192.565 30.7865 191.93 30.0469C191.299 29.3073 190.984 28.2083 190.984 26.75C190.984 25.276 191.307 24.1641 191.953 23.4141C192.599 22.6589 193.458 22.2812 194.531 22.2812C194.984 22.2812 195.38 22.3411 195.719 22.4609C196.057 22.5807 196.349 22.7422 196.594 22.9453C196.839 23.1432 197.044 23.3698 197.211 23.625H197.305C197.284 23.4635 197.263 23.2422 197.242 22.9609C197.221 22.6797 197.211 22.4505 197.211 22.2734V18.8438H198.508V31H197.461L197.266 29.7812H197.211C197.049 30.0365 196.844 30.2682 196.594 30.4766C196.349 30.6849 196.055 30.8516 195.711 30.9766C195.372 31.0964 194.971 31.1562 194.508 31.1562ZM194.711 30.0781C195.628 30.0781 196.276 29.8177 196.656 29.2969C197.036 28.776 197.227 28.0026 197.227 26.9766V26.7422C197.227 25.6536 197.044 24.8177 196.68 24.2344C196.32 23.651 195.664 23.3594 194.711 23.3594C193.914 23.3594 193.318 23.6667 192.922 24.2812C192.526 24.8906 192.328 25.724 192.328 26.7812C192.328 27.8333 192.523 28.6458 192.914 29.2188C193.31 29.7917 193.909 30.0781 194.711 30.0781ZM201.062 30.1875C201.062 29.8229 201.151 29.5651 201.328 29.4141C201.505 29.2578 201.721 29.1797 201.977 29.1797C202.242 29.1797 202.466 29.2578 202.648 29.4141C202.831 29.5651 202.922 29.8229 202.922 30.1875C202.922 30.5469 202.831 30.8099 202.648 30.9766C202.466 31.138 202.242 31.2188 201.977 31.2188C201.721 31.2188 201.505 31.138 201.328 30.9766C201.151 30.8099 201.062 30.5469 201.062 30.1875ZM201.062 23.2578C201.062 22.8828 201.151 22.6198 201.328 22.4688C201.505 22.3125 201.721 22.2344 201.977 22.2344C202.242 22.2344 202.466 22.3125 202.648 22.4688C202.831 22.6198 202.922 22.8828 202.922 23.2578C202.922 23.612 202.831 23.8698 202.648 24.0312C202.466 24.1927 202.242 24.2734 201.977 24.2734C201.721 24.2734 201.505 24.1927 201.328 24.0312C201.151 23.8698 201.062 23.612 201.062 23.2578ZM212.297 31.9297V30.2891C211.698 30.2786 211.125 30.2266 210.578 30.1328C210.036 30.0391 209.594 29.9167 209.25 29.7656V28.5C209.609 28.6667 210.07 28.8125 210.633 28.9375C211.195 29.0625 211.75 29.1302 212.297 29.1406V25.7031C211.609 25.5104 211.039 25.2917 210.586 25.0469C210.138 24.7969 209.802 24.4922 209.578 24.1328C209.354 23.7734 209.242 23.3385 209.242 22.8281C209.242 22.2969 209.367 21.8438 209.617 21.4688C209.872 21.0885 210.229 20.7917 210.688 20.5781C211.146 20.3646 211.682 20.2422 212.297 20.2109V18.8594H213.25V20.1953C213.807 20.2109 214.315 20.2734 214.773 20.3828C215.232 20.487 215.656 20.6224 216.047 20.7891L215.641 21.875C215.286 21.7344 214.904 21.6146 214.492 21.5156C214.081 21.4167 213.667 21.349 213.25 21.3125V24.7266C213.948 24.9297 214.531 25.1458 215 25.375C215.474 25.6042 215.831 25.888 216.07 26.2266C216.31 26.5651 216.43 27.0026 216.43 27.5391C216.43 28.2995 216.151 28.9141 215.594 29.3828C215.036 29.8464 214.255 30.1276 213.25 30.2266V31.9297H212.297ZM213.25 29.0703C213.891 29.0078 214.367 28.8542 214.68 28.6094C214.997 28.3594 215.156 28.0312 215.156 27.625C215.156 27.3333 215.094 27.0938 214.969 26.9062C214.849 26.7188 214.651 26.5573 214.375 26.4219C214.099 26.2812 213.724 26.1484 213.25 26.0234V29.0703ZM212.297 24.3984V21.3438C211.906 21.3698 211.578 21.4427 211.312 21.5625C211.047 21.6823 210.846 21.8385 210.711 22.0312C210.581 22.224 210.516 22.4531 210.516 22.7188C210.516 23.026 210.573 23.2839 210.688 23.4922C210.807 23.6953 210.997 23.8698 211.258 24.0156C211.523 24.1562 211.87 24.2839 212.297 24.3984ZM219.078 31L223.766 20.7656H217.539V19.5781H225.156V20.5781L220.5 31H219.078ZM233.977 25.2734C233.977 26.2005 233.906 27.0286 233.766 27.7578C233.625 28.487 233.404 29.1042 233.102 29.6094C232.799 30.1146 232.409 30.5 231.93 30.7656C231.451 31.026 230.875 31.1562 230.203 31.1562C229.562 31.1562 229.005 31.026 228.531 30.7656C228.062 30.5 227.672 30.1172 227.359 29.6172C227.052 29.112 226.823 28.4948 226.672 27.7656C226.521 27.0365 226.445 26.2057 226.445 25.2734C226.445 24.0495 226.568 23 226.812 22.125C227.062 21.25 227.461 20.5781 228.008 20.1094C228.56 19.6354 229.292 19.3984 230.203 19.3984C231.068 19.3984 231.776 19.6328 232.328 20.1016C232.885 20.5651 233.299 21.237 233.57 22.1172C233.841 22.9922 233.977 24.0443 233.977 25.2734ZM227.75 25.2734C227.75 26.8724 227.938 28.0677 228.312 28.8594C228.693 29.651 229.323 30.0469 230.203 30.0469C231.083 30.0469 231.714 29.6536 232.094 28.8672C232.474 28.0755 232.664 26.8776 232.664 25.2734C232.664 24.2266 232.583 23.3516 232.422 22.6484C232.26 21.9401 232 21.4089 231.641 21.0547C231.281 20.6953 230.802 20.5156 230.203 20.5156C229.604 20.5156 229.125 20.6953 228.766 21.0547C228.406 21.4089 228.146 21.9401 227.984 22.6484C227.828 23.3516 227.75 24.2266 227.75 25.2734ZM243.305 25.2734C243.305 26.2005 243.234 27.0286 243.094 27.7578C242.953 28.487 242.732 29.1042 242.43 29.6094C242.128 30.1146 241.737 30.5 241.258 30.7656C240.779 31.026 240.203 31.1562 239.531 31.1562C238.891 31.1562 238.333 31.026 237.859 30.7656C237.391 30.5 237 30.1172 236.688 29.6172C236.38 29.112 236.151 28.4948 236 27.7656C235.849 27.0365 235.773 26.2057 235.773 25.2734C235.773 24.0495 235.896 23 236.141 22.125C236.391 21.25 236.789 20.5781 237.336 20.1094C237.888 19.6354 238.62 19.3984 239.531 19.3984C240.396 19.3984 241.104 19.6328 241.656 20.1016C242.214 20.5651 242.628 21.237 242.898 22.1172C243.169 22.9922 243.305 24.0443 243.305 25.2734ZM237.078 25.2734C237.078 26.8724 237.266 28.0677 237.641 28.8594C238.021 29.651 238.651 30.0469 239.531 30.0469C240.411 30.0469 241.042 29.6536 241.422 28.8672C241.802 28.0755 241.992 26.8776 241.992 25.2734C241.992 24.2266 241.911 23.3516 241.75 22.6484C241.589 21.9401 241.328 21.4089 240.969 21.0547C240.609 20.6953 240.13 20.5156 239.531 20.5156C238.932 20.5156 238.453 20.6953 238.094 21.0547C237.734 21.4089 237.474 21.9401 237.312 22.6484C237.156 23.3516 237.078 24.2266 237.078 25.2734ZM256.078 31H254.508L250.391 25.4453L249.172 26.5391V31H247.844V19.5781H249.172V25.2734C249.469 24.9349 249.773 24.599 250.086 24.2656C250.398 23.9271 250.708 23.5859 251.016 23.2422L254.352 19.5781H255.906L251.359 24.5312L256.078 31ZM261.57 25.1562C261.57 24.7031 261.643 24.3411 261.789 24.0703C261.935 23.7943 262.133 23.5938 262.383 23.4688C262.638 23.3438 262.924 23.2812 263.242 23.2812C263.56 23.2812 263.844 23.3438 264.094 23.4688C264.349 23.5938 264.549 23.7943 264.695 24.0703C264.841 24.3464 264.914 24.7083 264.914 25.1562C264.914 25.5938 264.841 25.9531 264.695 26.2344C264.549 26.5104 264.349 26.7135 264.094 26.8438C263.844 26.974 263.56 27.0391 263.242 27.0391C262.924 27.0391 262.638 26.974 262.383 26.8438C262.133 26.7135 261.935 26.5104 261.789 26.2344C261.643 25.9583 261.57 25.599 261.57 25.1562ZM279.156 26.7031C279.156 27.4062 279.065 28.0339 278.883 28.5859C278.701 29.138 278.438 29.6042 278.094 29.9844C277.75 30.3646 277.333 30.6562 276.844 30.8594C276.359 31.0573 275.81 31.1562 275.195 31.1562C274.622 31.1562 274.096 31.0573 273.617 30.8594C273.143 30.6562 272.732 30.3646 272.383 29.9844C272.039 29.6042 271.771 29.138 271.578 28.5859C271.391 28.0339 271.297 27.4062 271.297 26.7031C271.297 25.7656 271.456 24.9688 271.773 24.3125C272.091 23.651 272.544 23.1484 273.133 22.8047C273.727 22.4557 274.432 22.2812 275.25 22.2812C276.031 22.2812 276.714 22.4557 277.297 22.8047C277.885 23.1536 278.341 23.6589 278.664 24.3203C278.992 24.9766 279.156 25.7708 279.156 26.7031ZM272.641 26.7031C272.641 27.3906 272.732 27.987 272.914 28.4922C273.096 28.9974 273.378 29.388 273.758 29.6641C274.138 29.9401 274.628 30.0781 275.227 30.0781C275.82 30.0781 276.307 29.9401 276.688 29.6641C277.073 29.388 277.357 28.9974 277.539 28.4922C277.721 27.987 277.812 27.3906 277.812 26.7031C277.812 26.0208 277.721 25.4323 277.539 24.9375C277.357 24.4375 277.076 24.0521 276.695 23.7812C276.315 23.5104 275.823 23.375 275.219 23.375C274.328 23.375 273.674 23.6693 273.258 24.2578C272.846 24.8464 272.641 25.6615 272.641 26.7031ZM289.734 33.9609H288.469V31H281.398V22.4375H282.703V29.8984H287.242V22.4375H288.539V29.9141H289.734V33.9609ZM294.711 22.2812C295.44 22.2812 296.065 22.4427 296.586 22.7656C297.107 23.0885 297.505 23.5417 297.781 24.125C298.057 24.7031 298.195 25.3802 298.195 26.1562V26.9609H292.281C292.297 27.9661 292.547 28.7318 293.031 29.2578C293.516 29.7839 294.198 30.0469 295.078 30.0469C295.62 30.0469 296.099 29.9974 296.516 29.8984C296.932 29.7995 297.365 29.6536 297.812 29.4609V30.6016C297.38 30.7943 296.951 30.9349 296.523 31.0234C296.102 31.112 295.602 31.1562 295.023 31.1562C294.201 31.1562 293.482 30.9896 292.867 30.6562C292.258 30.3177 291.784 29.8229 291.445 29.1719C291.107 28.5208 290.938 27.724 290.938 26.7812C290.938 25.8594 291.091 25.0625 291.398 24.3906C291.711 23.7135 292.148 23.1927 292.711 22.8281C293.279 22.4635 293.945 22.2812 294.711 22.2812ZM294.695 23.3438C294.003 23.3438 293.451 23.5703 293.039 24.0234C292.628 24.4766 292.383 25.1094 292.305 25.9219H296.836C296.831 25.4115 296.75 24.9635 296.594 24.5781C296.443 24.1875 296.211 23.8854 295.898 23.6719C295.586 23.4531 295.185 23.3438 294.695 23.3438ZM301.703 22.4375V26.0312H306.477V22.4375H307.773V31H306.477V27.1328H301.703V31H300.398V22.4375H301.703ZM315.516 22.4375H316.945L313.25 26.5703L317.242 31H315.719L311.828 26.6562V31H310.523V22.4375H311.828V26.5938L315.516 22.4375ZM321.992 22.2969C323.013 22.2969 323.771 22.526 324.266 22.9844C324.76 23.4427 325.008 24.1745 325.008 25.1797V31H324.062L323.812 29.7344H323.75C323.51 30.0469 323.26 30.3099 323 30.5234C322.74 30.7318 322.438 30.8906 322.094 31C321.755 31.1042 321.339 31.1562 320.844 31.1562C320.323 31.1562 319.859 31.0651 319.453 30.8828C319.052 30.7005 318.734 30.4245 318.5 30.0547C318.271 29.6849 318.156 29.2161 318.156 28.6484C318.156 27.7943 318.495 27.138 319.172 26.6797C319.849 26.2214 320.88 25.9714 322.266 25.9297L323.742 25.8672V25.3438C323.742 24.6042 323.583 24.0859 323.266 23.7891C322.948 23.4922 322.5 23.3438 321.922 23.3438C321.474 23.3438 321.047 23.4089 320.641 23.5391C320.234 23.6693 319.849 23.8229 319.484 24L319.086 23.0156C319.471 22.8177 319.914 22.6484 320.414 22.5078C320.914 22.3672 321.44 22.2969 321.992 22.2969ZM323.727 26.7812L322.422 26.8359C321.354 26.8776 320.602 27.0521 320.164 27.3594C319.727 27.6667 319.508 28.1016 319.508 28.6641C319.508 29.1536 319.656 29.5156 319.953 29.75C320.25 29.9844 320.643 30.1016 321.133 30.1016C321.893 30.1016 322.516 29.8906 323 29.4688C323.484 29.0469 323.727 28.4141 323.727 27.5703V26.7812ZM334.516 31.9297V30.2891C333.917 30.2786 333.344 30.2266 332.797 30.1328C332.255 30.0391 331.812 29.9167 331.469 29.7656V28.5C331.828 28.6667 332.289 28.8125 332.852 28.9375C333.414 29.0625 333.969 29.1302 334.516 29.1406V25.7031C333.828 25.5104 333.258 25.2917 332.805 25.0469C332.357 24.7969 332.021 24.4922 331.797 24.1328C331.573 23.7734 331.461 23.3385 331.461 22.8281C331.461 22.2969 331.586 21.8438 331.836 21.4688C332.091 21.0885 332.448 20.7917 332.906 20.5781C333.365 20.3646 333.901 20.2422 334.516 20.2109V18.8594H335.469V20.1953C336.026 20.2109 336.534 20.2734 336.992 20.3828C337.451 20.487 337.875 20.6224 338.266 20.7891L337.859 21.875C337.505 21.7344 337.122 21.6146 336.711 21.5156C336.299 21.4167 335.885 21.349 335.469 21.3125V24.7266C336.167 24.9297 336.75 25.1458 337.219 25.375C337.693 25.6042 338.049 25.888 338.289 26.2266C338.529 26.5651 338.648 27.0026 338.648 27.5391C338.648 28.2995 338.37 28.9141 337.812 29.3828C337.255 29.8464 336.474 30.1276 335.469 30.2266V31.9297H334.516ZM335.469 29.0703C336.109 29.0078 336.586 28.8542 336.898 28.6094C337.216 28.3594 337.375 28.0312 337.375 27.625C337.375 27.3333 337.312 27.0938 337.188 26.9062C337.068 26.7188 336.87 26.5573 336.594 26.4219C336.318 26.2812 335.943 26.1484 335.469 26.0234V29.0703ZM334.516 24.3984V21.3438C334.125 21.3698 333.797 21.4427 333.531 21.5625C333.266 21.6823 333.065 21.8385 332.93 22.0312C332.799 22.224 332.734 22.4531 332.734 22.7188C332.734 23.026 332.792 23.2839 332.906 23.4922C333.026 23.6953 333.216 23.8698 333.477 24.0156C333.742 24.1562 334.089 24.2839 334.516 24.3984ZM340.242 31V29.9141L343.297 26.8125C343.865 26.2396 344.341 25.7292 344.727 25.2812C345.117 24.8333 345.414 24.3932 345.617 23.9609C345.82 23.5234 345.922 23.0443 345.922 22.5234C345.922 21.8776 345.729 21.3854 345.344 21.0469C344.964 20.7031 344.464 20.5312 343.844 20.5312C343.292 20.5312 342.802 20.625 342.375 20.8125C341.953 21 341.523 21.2656 341.086 21.6094L340.391 20.7344C340.693 20.4792 341.021 20.2526 341.375 20.0547C341.729 19.8568 342.112 19.7005 342.523 19.5859C342.935 19.4714 343.375 19.4141 343.844 19.4141C344.542 19.4141 345.146 19.5365 345.656 19.7812C346.167 20.026 346.56 20.375 346.836 20.8281C347.112 21.2812 347.25 21.8203 347.25 22.4453C347.25 23.0495 347.13 23.612 346.891 24.1328C346.651 24.6484 346.315 25.1615 345.883 25.6719C345.456 26.1771 344.951 26.7135 344.367 27.2812L341.883 29.7578V29.8125H347.719V31H340.242ZM349.625 30.1875C349.625 29.8229 349.714 29.5651 349.891 29.4141C350.068 29.2578 350.284 29.1797 350.539 29.1797C350.805 29.1797 351.029 29.2578 351.211 29.4141C351.393 29.5651 351.484 29.8229 351.484 30.1875C351.484 30.5469 351.393 30.8099 351.211 30.9766C351.029 31.138 350.805 31.2188 350.539 31.2188C350.284 31.2188 350.068 31.138 349.891 30.9766C349.714 30.8099 349.625 30.5469 349.625 30.1875ZM357.008 24.0156C357.789 24.0156 358.466 24.1484 359.039 24.4141C359.612 24.6745 360.055 25.0547 360.367 25.5547C360.68 26.0547 360.836 26.6615 360.836 27.375C360.836 28.1562 360.667 28.8307 360.328 29.3984C359.99 29.9609 359.503 30.3958 358.867 30.7031C358.237 31.0052 357.479 31.1562 356.594 31.1562C355.995 31.1562 355.44 31.1042 354.93 31C354.419 30.8958 353.99 30.7396 353.641 30.5312V29.2969C354.021 29.526 354.482 29.7083 355.023 29.8438C355.565 29.9792 356.091 30.0469 356.602 30.0469C357.18 30.0469 357.685 29.9557 358.117 29.7734C358.555 29.5859 358.893 29.3047 359.133 28.9297C359.378 28.5495 359.5 28.0729 359.5 27.5C359.5 26.7396 359.266 26.1536 358.797 25.7422C358.333 25.3255 357.602 25.1172 356.602 25.1172C356.273 25.1172 355.917 25.1432 355.531 25.1953C355.146 25.2474 354.831 25.3047 354.586 25.3672L353.922 24.9375L354.359 19.5781H360.047V20.7656H355.469L355.188 24.2031C355.38 24.1667 355.633 24.1276 355.945 24.0859C356.263 24.0391 356.617 24.0156 357.008 24.0156ZM370.383 31L366.547 20.8906H366.484C366.505 21.1042 366.523 21.3646 366.539 21.6719C366.555 21.9792 366.568 22.3151 366.578 22.6797C366.589 23.0391 366.594 23.4062 366.594 23.7812V31H365.359V19.5781H367.328L370.945 29.0781H371L374.672 19.5781H376.625V31H375.312V23.6875C375.312 23.349 375.318 23.0104 375.328 22.6719C375.339 22.3281 375.352 22.0052 375.367 21.7031C375.383 21.3958 375.398 21.1302 375.414 20.9062H375.352L371.469 31H370.383Z" fill="black"/>
<defs>
<linearGradient id="paint0_linear_25_1069" x1="398.5" y1="24.5" x2="0.5" y2="24.5" gradientUnits="userSpaceOnUse">
<stop stop-color="#E28AA4"/>
<stop offset="0.254808" stop-color="#E19C96"/>
<stop offset="0.514423" stop-color="#9797B1"/>
<stop offset="0.75" stop-color="#BBC7CD"/>
<stop offset="1" stop-color="#ABBCC7"/>
</linearGradient>
</defs>
</svg>
