<svg width="1243" height="38" viewBox="0 0 1243 38" fill="none" xmlns="http://www.w3.org/2000/svg">
<path d="M1242.27 20.7298C1243.24 19.7535 1243.24 18.1706 1242.27 17.1943L1226.36 1.28435C1225.38 0.308041 1223.8 0.308041 1222.82 1.28435C1221.85 2.26066 1221.85 3.84357 1222.82 4.81989L1236.96 18.962L1222.82 33.1042C1221.85 34.0805 1221.85 35.6634 1222.82 36.6397C1223.8 37.616 1225.38 37.616 1226.36 36.6397L1242.27 20.7298ZM0.5 18.9619L0.5 21.4619L1240.5 21.462L1240.5 18.962L1240.5 16.462L0.5 16.4619L0.5 18.9619Z" fill="#E3E3E3"/>
<circle cx="12" cy="18.4619" r="11.5" fill="#D9D9D9"/>
<circle cx="305.25" cy="18.4619" r="11.5" fill="#D9D9D9"/>
<circle cx="598.5" cy="18.4619" r="11.5" fill="#D9D9D9"/>
<circle cx="891.75" cy="18.4619" r="11.5" fill="#D9D9D9"/>
<circle cx="1185" cy="18.4619" r="11.5" fill="#D9D9D9"/>
</svg>
