<svg width="34" height="34" viewBox="0 0 34 34" fill="none" xmlns="http://www.w3.org/2000/svg">
<g clip-path="url(#clip0_25_1667)">
<path d="M23.5549 6.08756C23.1522 5.68483 23.1522 5.03188 23.5549 4.62915L25.3576 2.82646C25.7603 2.42373 26.4133 2.42373 26.816 2.82646C27.2187 3.22919 27.2187 3.88214 26.816 4.28487L25.0133 6.08756C24.6106 6.49029 23.9576 6.49029 23.5549 6.08756Z" fill="#FF2B00"/>
<path fill-rule="evenodd" clip-rule="evenodd" d="M18.0239 4.41899C18.9995 3.43456 20.649 3.67339 21.3054 4.89409L28.7763 18.7886C29.4327 20.0093 28.7223 21.517 27.363 21.788L18.9923 23.4569L20.3876 26.052C20.9271 27.0553 20.5511 28.3059 19.5478 28.8453L14.5523 31.5314C13.549 32.0708 12.2984 31.6948 11.759 30.6915L9.31717 26.1502L7.50112 27.1267C6.49786 27.6661 5.24726 27.2901 4.70782 26.2869L1.77759 20.8372C1.23815 19.834 1.61415 18.5834 2.61741 18.0439L4.43397 17.0672C4.84525 16.846 5.2981 16.7787 5.72648 16.8454C5.77369 16.7858 5.82456 16.7284 5.87903 16.6734L18.0239 4.41899ZM5.52742 19.102C5.51971 19.0877 5.51219 19.0733 5.50485 19.0588L5.41071 18.8837L3.59415 19.8605L6.52438 25.3101L8.34043 24.3337L5.52742 19.102ZM26.9598 19.7653L10.0403 23.1387L7.34439 18.1248L19.4888 5.87083L26.9598 19.7653ZM16.8773 23.8786L11.061 25.0383L13.5755 29.7148L18.5711 27.0288L16.8773 23.8786Z" fill="#FF2B00"/>
<path d="M26.9466 9.06799C26.4371 9.3227 26.2307 9.94214 26.4854 10.4516C26.7401 10.961 27.3595 11.1675 27.8689 10.9127L30.1492 9.77262C30.6586 9.51791 30.8651 8.89847 30.6104 8.38906C30.3557 7.87964 29.7362 7.67316 29.2268 7.92787L26.9466 9.06799Z" fill="#FF2B00"/>
<path d="M29.4715 14.4334C28.9214 14.5808 28.5949 15.1463 28.7423 15.6964C28.8897 16.2465 29.4552 16.573 30.0053 16.4256L32.4679 15.7658C33.018 15.6184 33.3445 15.0529 33.1971 14.5027C33.0497 13.9526 32.4842 13.6261 31.934 13.7735L29.4715 14.4334Z" fill="#FF2B00"/>
</g>
<defs>
<clipPath id="clip0_25_1667">
<rect width="33" height="33" fill="white" transform="translate(0.5 0.461914)"/>
</clipPath>
</defs>
</svg>
