<svg width="34" height="34" viewBox="0 0 34 34" fill="none" xmlns="http://www.w3.org/2000/svg">
<path fill-rule="evenodd" clip-rule="evenodd" d="M5.65625 8.71191C5.65625 6.43374 7.50308 4.58691 9.78125 4.58691H24.2188C26.4969 4.58691 28.3438 6.43374 28.3438 8.71191V25.2119C28.3438 27.4901 26.4969 29.3369 24.2188 29.3369H9.78125C7.50307 29.3369 5.65625 27.4901 5.65625 25.2119V8.71191ZM9.78125 6.64941C8.64216 6.64941 7.71875 7.57283 7.71875 8.71191V25.2119C7.71875 26.351 8.64216 27.2744 9.78125 27.2744H24.2188C25.3578 27.2744 26.2812 26.351 26.2812 25.2119V8.71191C26.2812 7.57283 25.3578 6.64941 24.2188 6.64941H9.78125Z" fill="#FF2B00"/>
<path fill-rule="evenodd" clip-rule="evenodd" d="M24.1643 12.9458C24.6737 13.2005 24.8802 13.8199 24.6255 14.3294L20.6247 22.3309C19.9952 23.59 18.317 23.8624 17.3216 22.8669L14.5187 20.064L11.6265 23.7825C11.2769 24.2321 10.6289 24.3131 10.1794 23.9634C9.7298 23.6138 9.64881 22.9659 9.99848 22.5163L12.8907 18.7978C13.6523 17.8185 15.0999 17.7284 15.9771 18.6056L18.78 21.4085L22.7807 13.407C23.0355 12.8976 23.6549 12.6911 24.1643 12.9458Z" fill="#FF2B00"/>
<path fill-rule="evenodd" clip-rule="evenodd" d="M13.9062 8.42252L17.1286 11.0004C17.5733 11.3562 17.6454 12.0051 17.2896 12.4499C16.9339 12.8946 16.2849 12.9667 15.8402 12.6109L14.9375 11.8888V14.8994C14.9375 15.469 14.4758 15.9307 13.9062 15.9307C13.3367 15.9307 12.875 15.469 12.875 14.8994V11.8888L11.9723 12.6109C11.5276 12.9667 10.8786 12.8946 10.5229 12.4499C10.1671 12.0051 10.2392 11.3562 10.6839 11.0004L13.9062 8.42252Z" fill="#FF2B00"/>
</svg>
