<svg width="31" height="31" viewBox="0 0 31 31" fill="none" xmlns="http://www.w3.org/2000/svg">
<path fill-rule="evenodd" clip-rule="evenodd" d="M7.79385 2.87283C8.00985 2.82718 8.20557 2.83519 8.35005 2.84278C9.01464 2.87545 9.63639 3.1839 10.081 3.66622C10.2734 3.87442 10.6515 4.41493 11.009 4.94616C11.3913 5.51441 11.8205 6.17906 12.1339 6.69967L12.1345 6.70081C12.587 7.4549 12.9607 8.15609 13.2247 8.74818C13.3565 9.04383 13.4665 9.32446 13.5451 9.57894C13.6193 9.81927 13.6845 10.0955 13.6845 10.3626C13.6845 10.9567 13.3783 11.5563 13.0091 11.9665C12.8329 12.1623 12.3767 12.5824 11.9994 12.9058L11.9964 12.9083L11.8102 13.0667C12.1177 13.8125 12.6915 14.7966 13.2287 15.4651L13.23 15.4666C14.2384 16.7272 15.6411 17.7762 17.1347 18.3867C17.2267 18.2803 17.33 18.1604 17.4356 18.0369C17.8837 17.5109 18.298 17.0752 18.7464 16.8127C19.2781 16.5016 19.789 16.4676 20.3053 16.5679L20.3073 16.5683C20.8675 16.6784 21.5307 16.9604 22.2737 17.3549C23.0316 17.7573 23.9345 18.3107 24.9883 19.0133C25.3095 19.2274 25.6318 19.4485 25.8927 19.6331C26.1219 19.7953 26.3658 19.9723 26.4896 20.0851C26.9795 20.5255 27.3055 21.1411 27.3475 21.8117C27.3584 21.9659 27.367 22.1605 27.3208 22.379C27.2766 22.5885 27.1927 22.7654 27.1298 22.896L27.1263 22.9032C26.8174 23.531 26.1172 24.3049 25.3489 25.0254C24.5498 25.7747 23.5688 26.5651 22.5862 27.2264C22.2308 27.4683 21.7661 27.7516 21.5399 27.8707L21.5286 27.8766L21.517 27.8823C21.3649 27.9572 21.1888 28.0405 20.9844 28.0913C20.7712 28.1443 20.5787 28.1495 20.4098 28.1495C19.9039 28.1495 18.924 27.9606 18.2168 27.7553C16.1698 27.3153 14.5098 26.2954 12.8194 25.1701C9.83349 23.1912 6.99939 20.357 5.02061 17.3711C3.85148 15.6098 2.94594 13.7419 2.44545 12.0071C2.23647 11.2977 2.04169 10.2951 2.04169 9.78138C2.04169 9.61252 2.04691 9.41994 2.09987 9.20675C2.15064 9.00241 2.23402 8.82631 2.30886 8.67413L2.31275 8.66621C2.71066 7.876 3.74981 6.44613 4.63496 5.43071C5.10478 4.88696 5.58224 4.39453 6.02028 3.99661C6.44398 3.61172 6.87962 3.27011 7.26193 3.07548C7.39936 3.00552 7.57751 2.91854 7.79385 2.87283ZM16.7962 18.7755C16.7818 18.7903 16.7773 18.7967 16.7836 18.7896L16.7875 18.7852C16.7895 18.783 16.7924 18.7797 16.7962 18.7755ZM8.18175 4.7123C8.1661 4.71964 8.14395 4.73044 8.11259 4.74641C7.95767 4.82528 7.6705 5.03067 7.28102 5.38447C6.90634 5.72483 6.48079 6.16219 6.05244 6.65806L6.04962 6.66133C5.20798 7.6266 4.2868 8.91735 3.98936 9.50573C3.93906 9.60821 3.92401 9.64653 3.92024 9.65702C3.91909 9.66862 3.91669 9.7029 3.91669 9.78138C3.91669 10.0289 4.05349 10.8313 4.24468 11.4795L4.24631 11.485C4.68363 13.002 5.49672 14.6981 6.58316 16.3348C8.42343 19.1117 11.0789 21.7674 13.8558 23.6076L13.8574 23.6087C15.5462 24.7329 16.957 25.573 18.6402 25.9284L18.6763 25.9361L18.7117 25.9465C19.3599 26.1377 20.1623 26.2745 20.4098 26.2745C20.4883 26.2745 20.5226 26.2721 20.5342 26.2709C20.5444 26.2673 20.5809 26.2529 20.6772 26.2059C20.8299 26.1241 21.2219 25.887 21.5328 25.6753L21.5372 25.6722C22.4342 25.0688 23.3375 24.3411 24.0663 23.6576C24.824 22.9471 25.2953 22.3746 25.4424 22.0785C25.4606 22.0407 25.4724 22.015 25.4803 21.9971C25.4797 21.9835 25.4787 21.965 25.477 21.9407L25.4762 21.9303C25.468 21.7942 25.3958 21.6225 25.2348 21.4783L25.229 21.4731L25.2233 21.4678C25.2258 21.4701 25.2249 21.4694 25.2197 21.4653C25.2084 21.4562 25.1764 21.4306 25.1142 21.3841C25.0357 21.3254 24.9321 21.2504 24.8095 21.1636C24.5648 20.9905 24.2571 20.7793 23.9483 20.5734C22.9216 19.889 22.076 19.3728 21.3944 19.0109C20.6988 18.6416 20.2316 18.4645 19.9468 18.4083C19.8451 18.3886 19.8002 18.3918 19.7833 18.3941C19.7721 18.3956 19.7474 18.3994 19.6935 18.431C19.5475 18.5164 19.3125 18.725 18.8622 19.2536L18.861 19.255C18.5491 19.6197 18.2449 19.9683 18.1843 20.0361C18.1836 20.0369 18.1827 20.0379 18.1817 20.039C18.1543 20.0706 18.0177 20.2277 17.7932 20.3227C17.5321 20.4333 17.2959 20.4079 17.1673 20.3834C16.9924 20.3501 16.7762 20.2633 16.5928 20.1896C16.5774 20.1834 16.5623 20.1774 16.5474 20.1714C14.7105 19.4468 13.0006 18.1811 11.7665 16.6387C11.0493 15.746 10.2903 14.4191 9.94332 13.4333C9.9433 13.4333 9.94333 13.4334 9.94332 13.4333L9.60709 12.4784L10.7791 11.4822C10.7796 11.4818 10.7801 11.4814 10.7806 11.4809C11.1549 11.1601 11.5281 10.8093 11.6155 10.7122C11.6806 10.6398 11.7357 10.5534 11.7718 10.472C11.8004 10.4078 11.8073 10.3695 11.809 10.3605C11.807 10.3452 11.7976 10.2748 11.7535 10.132C11.7039 9.97122 11.6246 9.76376 11.5122 9.51181C11.2879 9.00876 10.9535 8.37677 10.5269 7.66582C10.2347 7.18045 9.82412 6.54395 9.45333 5.99287C9.26823 5.71776 9.09621 5.46866 8.95666 5.27389C8.88675 5.17633 8.8274 5.09577 8.78014 5.03404C8.75657 5.00325 8.73771 4.97938 8.72332 4.96176C8.71037 4.9459 8.7045 4.93934 8.70451 4.93933L8.70244 4.9371C8.57129 4.79484 8.40278 4.7225 8.2575 4.71549L8.25335 4.71529C8.22094 4.71359 8.19803 4.7127 8.18175 4.7123ZM20.539 26.2703C20.5391 26.2703 20.5385 26.2705 20.5369 26.2706ZM3.92085 9.65213C3.92087 9.6522 3.92078 9.65295 3.92055 9.65419Z" fill="#FF2B00"/>
</svg>
