<svg width="34" height="34" viewBox="0 0 34 34" fill="none" xmlns="http://www.w3.org/2000/svg">
<path fill-rule="evenodd" clip-rule="evenodd" d="M2.69233 5.11728C2.9688 4.61934 3.59658 4.43979 4.09452 4.71626L8.5201 7.1734C9.37726 7.6493 9.9581 8.50332 10.0858 9.47537L11.4929 20.1896C11.5603 20.7029 11.9977 21.0866 12.5153 21.0866H25.7878C26.3055 21.0866 26.7429 20.7029 26.8103 20.1896L28.0466 10.7762C28.1277 10.1586 27.647 9.61065 27.0241 9.61065H16.4846C15.915 9.61065 15.4533 9.14895 15.4533 8.5794C15.4533 8.00986 15.915 7.54815 16.4846 7.54815H27.0241C28.8927 7.54815 30.3348 9.19204 30.0915 11.0447L28.8552 20.4582C28.653 21.9979 27.3407 23.1491 25.7878 23.1491H12.5153C10.9624 23.1491 9.65015 21.9979 9.44794 20.4582L8.04082 9.74394C7.99827 9.41992 7.80465 9.13525 7.51894 8.97661L3.09335 6.51947C2.59541 6.243 2.41587 5.61522 2.69233 5.11728Z" fill="#FF2B00"/>
<path fill-rule="evenodd" clip-rule="evenodd" d="M24.2189 28.3054C24.7885 28.3054 25.2502 27.8437 25.2502 27.2741C25.2502 26.7046 24.7885 26.2429 24.2189 26.2429C23.6494 26.2429 23.1877 26.7046 23.1877 27.2741C23.1877 27.8437 23.6494 28.3054 24.2189 28.3054ZM24.2189 30.3679C25.9276 30.3679 27.3127 28.9827 27.3127 27.2741C27.3127 25.5655 25.9276 24.1804 24.2189 24.1804C22.5103 24.1804 21.1252 25.5655 21.1252 27.2741C21.1252 28.9827 22.5103 30.3679 24.2189 30.3679Z" fill="#FF2B00"/>
<path fill-rule="evenodd" clip-rule="evenodd" d="M14.9377 28.3054C15.5072 28.3054 15.9689 27.8437 15.9689 27.2741C15.9689 26.7046 15.5072 26.2429 14.9377 26.2429C14.3681 26.2429 13.9064 26.7046 13.9064 27.2741C13.9064 27.8437 14.3681 28.3054 14.9377 28.3054ZM14.9377 30.3679C16.6463 30.3679 18.0314 28.9827 18.0314 27.2741C18.0314 25.5655 16.6463 24.1804 14.9377 24.1804C13.2291 24.1804 11.8439 25.5655 11.8439 27.2741C11.8439 28.9827 13.2291 30.3679 14.9377 30.3679Z" fill="#FF2B00"/>
<path fill-rule="evenodd" clip-rule="evenodd" d="M22.8764 13.1295C23.2841 13.5271 23.2924 14.18 22.8948 14.5878L19.6113 17.9555C18.8018 18.7857 17.4673 18.7857 16.6578 17.9555L15.2306 16.4916C14.833 16.0838 14.8412 15.4309 15.249 15.0333C15.6568 14.6357 16.3097 14.644 16.7073 15.0518L18.1346 16.5156L21.4181 13.1479C21.8157 12.7402 22.4686 12.7319 22.8764 13.1295Z" fill="#FF2B00"/>
</svg>
