<svg width="34" height="34" viewBox="0 0 34 34" fill="none" xmlns="http://www.w3.org/2000/svg">
<path fill-rule="evenodd" clip-rule="evenodd" d="M17 3.55566C15.5203 3.55566 14.3409 4.73849 14.3409 6.17291C14.3409 7.60732 15.5203 8.79015 17 8.79015C18.4797 8.79015 19.6591 7.60732 19.6591 6.17291C19.6591 4.73849 18.4797 3.55566 17 3.55566ZM12.2784 6.17291C12.2784 3.57731 14.4035 1.49316 17 1.49316C19.5965 1.49316 21.7216 3.57731 21.7216 6.17291C21.7216 8.7685 19.5965 10.8526 17 10.8526C14.4035 10.8526 12.2784 8.7685 12.2784 6.17291ZM8.32455 8.42032C6.84489 8.42032 5.6655 9.60314 5.6655 11.0376C5.6655 12.472 6.84489 13.6548 8.32455 13.6548C9.80422 13.6548 10.9836 12.472 10.9836 11.0376C10.9836 9.60314 9.80422 8.42032 8.32455 8.42032ZM3.603 11.0376C3.603 8.44196 5.72802 6.35782 8.32455 6.35782C10.9211 6.35782 13.0461 8.44196 13.0461 11.0376C13.0461 12.5529 12.3218 13.894 11.2022 14.7477C11.5729 14.9337 11.9238 15.1529 12.2507 15.4016L11.0021 17.0432C10.226 16.4529 9.25416 16.1014 8.19507 16.1014C5.64272 16.1014 3.59375 18.1439 3.59375 20.6389V22.0399H10.5258V24.1024H1.53125V20.6389C1.53125 17.9965 3.09545 15.7261 5.34803 14.6702C4.28486 13.814 3.603 12.5078 3.603 11.0376ZM25.6754 8.42032C24.1958 8.42032 23.0164 9.60314 23.0164 11.0376C23.0164 12.472 24.1958 13.6548 25.6754 13.6548C27.1551 13.6548 28.3345 12.472 28.3345 11.0376C28.3345 9.60314 27.1551 8.42032 25.6754 8.42032ZM20.9539 11.0376C20.9539 8.44196 23.0789 6.35782 25.6754 6.35782C28.272 6.35782 30.397 8.44196 30.397 11.0376C30.397 12.5078 29.7151 13.814 28.652 14.6702C30.9045 15.7261 32.4688 17.9965 32.4688 20.6389V24.1024H23.4742V22.0399H30.4062V20.6389C30.4062 18.1439 28.3573 16.1014 25.8049 16.1014C24.7458 16.1014 23.774 16.4529 22.9979 17.0432L21.7493 15.4016C22.0762 15.1529 22.4271 14.9337 22.7978 14.7477C21.6782 13.894 20.9539 12.5529 20.9539 11.0376ZM17 15.7173C15.5203 15.7173 14.3409 16.9001 14.3409 18.3345C14.3409 19.769 15.5203 20.9518 17 20.9518C18.4797 20.9518 19.6591 19.769 19.6591 18.3345C19.6591 16.9001 18.4797 15.7173 17 15.7173ZM12.2784 18.3345C12.2784 15.7389 14.4035 13.6548 17 13.6548C19.5965 13.6548 21.7216 15.7389 21.7216 18.3345C21.7216 19.8271 21.0189 21.1505 19.928 22.0058C22.137 23.0777 23.6638 25.3252 23.6638 27.9358V31.3994H10.3362V27.9358C10.3362 25.3252 11.863 23.0777 14.072 22.0058C12.9811 21.1505 12.2784 19.8271 12.2784 18.3345ZM17 23.3983C14.4477 23.3983 12.3987 25.4409 12.3987 27.9358V29.3369H21.6013V27.9358C21.6013 25.4409 19.5523 23.3983 17 23.3983Z" fill="#FF2B00"/>
</svg>
