<svg width="505" height="129" viewBox="0 0 505 129" fill="none" xmlns="http://www.w3.org/2000/svg">
<path d="M467.993 104.614C468.164 104.088 467.877 103.524 467.351 103.354L454.965 99.3291C454.188 99.0766 453.452 99.8121 453.705 100.589L460.552 121.662C460.851 122.584 462.155 122.584 462.454 121.662L467.993 104.614Z" fill="#FF2B00"/>
<path d="M473.001 99.1551C472.768 99.8706 473.379 100.577 474.121 100.45L501.06 95.8293C501.932 95.6797 502.195 94.5547 501.479 94.0346L480.899 79.0826C480.349 78.6833 479.57 78.9365 479.36 79.5826L473.001 99.1551Z" fill="#FF2B00"/>
<path d="M468.302 100.429C468.827 100.599 469.391 100.312 469.562 99.7868L475.101 82.7383C475.401 81.817 474.346 81.0509 473.562 81.6203L455.637 94.6441C454.976 95.1244 455.138 96.1517 455.915 96.4042L468.302 100.429Z" fill="#FF2B00"/>
<path d="M491.15 126.328C491.768 126.961 491.319 128.026 490.434 128.026L464.996 128.026C464.317 128.026 463.835 127.363 464.045 126.717L470.405 107.144C470.637 106.429 471.547 106.217 472.072 106.755L491.15 126.328Z" fill="#FF2B00"/>
<path d="M496.286 125.099C496.053 125.815 495.144 126.027 494.619 125.488L474.709 105.063C474.147 104.486 474.463 103.516 475.256 103.38L503.369 98.5578C504.11 98.4307 504.721 99.137 504.489 99.8525L496.286 125.099Z" fill="#FF2B00"/>
<path fill-rule="evenodd" clip-rule="evenodd" d="M210.207 0.00146484C174.853 0.00146484 146.193 28.6615 146.193 64.0155C146.193 99.3695 174.853 128.03 210.207 128.03H267.301C302.655 128.03 331.315 99.3695 331.315 64.0155C331.315 28.6615 302.655 0.00146484 267.301 0.00146484H210.207ZM190.311 38.0639C175.978 38.0639 164.36 49.6828 164.36 64.0155C164.36 78.3482 175.978 89.9672 190.311 89.9672H287.197C301.53 89.9672 313.149 78.3482 313.149 64.0155C313.149 49.6828 301.53 38.0639 287.197 38.0639H190.311Z" fill="black"/>
<path fill-rule="evenodd" clip-rule="evenodd" d="M146.194 0H0V31.142H52.2277C57.0053 31.142 60.8782 35.015 60.8782 39.7925V128.028H85.316L85.316 39.7925C85.316 35.015 89.189 31.142 93.9666 31.142H146.194V0Z" fill="black"/>
<path fill-rule="evenodd" clip-rule="evenodd" d="M477.511 0H331.316V31.142H383.544C388.322 31.142 392.195 35.015 392.195 39.7925V128.028H416.632V39.7925C416.632 35.015 420.505 31.142 425.283 31.142H477.511V0Z" fill="black"/>
</svg>
